<svg viewBox="0 0 800 800" xmlns="http://www.w3.org/2000/svg"><path d="M499.74134581327166,359.70267361706885 L494.0497798798344,358.1014031665611 M494.0497798798344,358.1014031665611 L488.1469543372818,356.6004135142429 M488.1469543372818,356.6004135142429 L482.04794466499544,355.20220213234313 M482.04794466499544,355.20220213234313 L475.7678756594638,353.9090515256128 M475.7678756594638,353.9090515256128 L469.32191062261904,352.7230297101722 M469.32191062261904,352.7230297101722 L462.72527751731883,351.64599308444224 M462.72527751731883,351.64599308444224 L455.9932356171852,350.679587929889 M455.9932356171852,350.679587929889 L449.1410169893647,349.82528544420546 M449.1410169893647,349.82528544420546 L442.1839024789657,349.0843484337723 M442.1839024789657,349.0843484337723 L435.1371548413971,348.4578715295995 M435.1371548413971,348.4578715295995 L428.0160425367689,347.94675561411304 M428.0160425367689,347.94675561411304 L420.83582403120135,347.55174313554596 M420.83582403120135,347.55174313554596 L413.6117637700067,347.27339191386085 M413.6117637700067,347.27339191386085 L406.3591061276758,347.1120999545815 M406.3591061276758,347.1120999545815 L399.09311112371006,347.0680935457077 M399.09311112371006,347.0680935457077 L391.8290138574927,347.14143436217705 M391.8290138574927,347.14143436217705 L384.582077510036,347.33201850997483 M384.582077510036,347.33201850997483 L377.36754755816753,347.6395786458248 M377.36754755816753,347.6395786458248 L370.20067330590734,348.06367645531185 M370.20067330590734,348.06367645531185 L363.0967229225743,348.6037077652762 M363.0967229225743,348.6037077652762 L356.0709561206206,349.25889326241696 M356.0709561206206,349.25889326241696 L349.1386309596618,350.02827872849514 M349.1386309596618,350.02827872849514 L342.3150315769834,350.91073615233984 M342.3150315769834,350.91073615233984 L335.6154018270855,351.90494075880474 M335.6154018270855,351.90494075880474 L329.05501023967554,353.00938755793555 M329.05501023967554,353.00938755793555 L322.64909850752883,354.2223747588631 M322.64909850752883,354.2223747588631 L316.41286909110073,355.5419917184321 M316.41286909110073,355.5419917184321 L310.36148724731845,356.9661188448051 M310.36148724731845,356.9661188448051 L304.51007003520954,358.49242270263034 M304.51007003520954,358.49242270263034 L298.8736532157973,360.118342639757 M298.8736532157973,360.118342639757 L293.46718128817145,361.84108688223057 M293.46718128817145,361.84108688223057 L288.3054512069231,363.65761464931535 M288.3054512069231,363.65761464931535 L283.4031184056726,365.56464160068015 M283.4031184056726,365.56464160068015 L278.7746623243311,367.55862990611234 M278.7746623243311,367.55862990611234 L274.4343015166549,369.6357652603721 M274.4343015166549,369.6357652603721 L270.3960035824556,371.79196751243387 M270.3960035824556,371.79196751243387 L266.6734122608744,374.022879344876 M266.6734122608744,374.022879344876 L263.27980210428535,376.32385768296734 M263.27980210428535,376.32385768296734 L260.2280268513381,378.68996861616563 M260.2280268513381,378.68996861616563 L257.5304532293608,381.11598532548845 M257.5304532293608,381.11598532548845 L255.19887120695276,383.5963852863751 M255.19887120695276,383.5963852863751 L253.24448196885447,386.1253533180676 M253.24448196885447,386.1253533180676 L251.67777943245852,388.6967761639463 M251.67777943245852,388.6967761639463 L250.50850004638718,391.30424975897284 M250.50850004638718,391.30424975897284 L249.7455114381986,393.94108501929014 M249.7455114381986,393.94108501929014 L249.3967866722164,396.6003121674813 M249.3967866722164,396.6003121674813 L249.46925331232003,399.2746932329308 M249.46925331232003,399.2746932329308 L249.96877315814442,401.9567413967727 M249.96877315814442,401.9567413967727 L250.90000465666287,404.6387221004619 M250.90000465666287,404.6387221004619 L252.26635624477237,407.31269226248304 M252.26635624477237,407.31269226248304 L254.0699012878675,409.9704989603296 M254.0699012878675,409.9704989603296 L256.3112671003766,412.60383288106505 M256.3112671003766,412.60383288106505 L258.98961261528444,415.20422675563714 M258.98961261528444,415.20422675563714 L262.10249929176433,417.7631175393875 M262.10249929176433,417.7631175393875 L265.6458673533306,420.2718671553198 M265.6458673533306,420.2718671553198 L269.613983175425,422.7217912658058 M269.613983175425,422.7217912658058 L273.99937245741853,425.1042200695821 M273.99937245741853,425.1042200695821 L278.79278394547737,427.4105354355384 M278.79278394547737,427.4105354355384 L283.98318619083653,429.63221098883 M283.98318619083653,429.63221098883 L289.5577239145784,431.760872459423 M289.5577239145784,431.760872459423 L295.5017468902179,433.7883380900667 M295.5017468902179,433.7883380900667 L301.7988262723247,435.7066698639823 M301.7988262723247,435.7066698639823 L308.43075628904455,437.50823446412693 M308.43075628904455,437.50823446412693 L315.37763663547196,439.18574446822385 M315.37763663547196,439.18574446822385 L322.6179155690226,440.73231678010643 M322.6179155690226,440.73231678010643 L330.1284474219869,442.1415218517378 M330.1284474219869,442.1415218517378 L337.8846453948507,443.4074255790972 M337.8846453948507,443.4074255790972 L345.86056272689007,444.524634665374 M345.86056272689007,444.524634665374 L354.0289700627848,445.48835238825063 M354.0289700627848,445.48835238825063 L362.3615874680763,446.2943968629661 M362.3615874680763,446.2943968629661 L370.8291387080585,446.93925212135923 M370.8291387080585,446.93925212135923 L379.40160039716403,447.42008734041906 M379.40160039716403,447.42008734041906 L388.048297384716,447.7347764052947 M388.048297384716,447.7347764052947 L396.73814395055757,447.8819323838799 M396.73814395055757,447.8819323838799 L405.4397790386278,447.8608963280986 M405.4397790386278,447.8608963280986 L414.1217718145313,447.6717689584067 M414.1217718145313,447.6717689584067 L422.7528158178488,447.31538271390286 M422.7528158178488,447.31538271390286 L431.3019033906331,446.7933166385379 M431.3019033906331,446.7933166385379 L439.7385088210574,446.1078699736918 M439.7385088210574,446.1078699736918 L448.0327794269046,445.26205380262275 M448.0327794269046,445.26205380262275 L456.1556804305441,444.2595466218516 M456.1556804305441,444.2595466218516 L464.0791682116426,443.10468776929355 M464.0791682116426,443.10468776929355 L471.7763356838822,441.8024321718529 M471.7763356838822,441.8024321718529 L479.2215525684778,440.35830890325497 M479.2215525684778,440.35830890325497 L486.39058580391,438.7783800532966 M486.39058580391,438.7783800532966 L493.26069617952027,437.06919706636944 M493.26069617952027,437.06919706636944 L499.8107101493883,435.2377414687041 M499.8107101493883,435.2377414687041 L506.021162160308,433.2913978360228 M506.021162160308,433.2913978360228 L511.8742955300942,431.2378821077677 M511.8742955300942,431.2378821077677 L517.3540973688035,429.0851897549457 M517.3540973688035,429.0851897549457 L522.4463777500205,426.8415598790728 M522.4463777500205,426.8415598790728 L527.1387442234741,424.51541131106103 M527.1387442234741,424.51541131106103 L531.4206156581266,422.11529828160377 M531.4206156581266,422.11529828160377 L535.2831851912435,419.64985648059957 M535.2831851912435,419.64985648059957 L538.7194023452125,417.1277593863801 M538.7194023452125,417.1277593863801 L541.723961237407,414.55768100634947 M541.723961237407,414.55768100634947 L544.2932318002646,411.94825377958404 M544.2932318002646,411.94825377958404 L546.4251597718282,409.3080135248987 M546.4251597718282,409.3080135248987 L548.1192892384894,406.6453929983034 M548.1192892384894,406.6453929983034 L549.3766194597324,403.96866555374226 M549.3766194597324,403.96866555374226 L550.1995513793635,401.2859287994937 M550.1995513793635,401.2859287994937 L550.5918223419975,398.60508253218336 M550.5918223419975,398.60508253218336 L550.5583976771334,395.9337966516393 M550.5583976771334,395.9337966516393 L550.1054141951741,393.2794981304367 M550.1054141951741,393.2794981304367 L549.2400754839349,390.64936273949587 M549.2400754839349,390.64936273949587 L547.9705729312293,388.05028526530697 M547.9705729312293,388.05028526530697 L546.3060038322615,385.48888834365476 M546.3060038322615,385.48888834365476 L544.256307878861,382.9715000483754 M544.256307878861,382.9715000483754 L541.8321442992569,380.50416163029877 M541.8321442992569,380.50416163029877 L539.0448917252322,378.09261515428466 M539.0448917252322,378.09261515428466 L535.9064759015552,375.7423093463768 M535.9064759015552,375.7423093463768 L532.4294085796837,373.4583951731524 M532.4294085796837,373.4583951731524 L528.626622547462,371.2457386042055 M528.626622547462,371.2457386042055 L524.5115252254124,369.1089027430812 M524.5115252254124,369.1089027430812 L520.0978182195844,367.05218230443853 M520.0978182195844,367.05218230443853 L515.3995387187712,365.07959211078713 M515.3995387187712,365.07959211078713 L510.4309930397417,363.19486742357833 M510.4309930397417,363.19486742357833 L505.2067029929303,361.4014850332933 M505.2067029929303,361.4014850332933 L499.74134581327166,359.70267361706885 M499.74134581327166,359.70267361706885 L500.11788021723396,342.7744240850864 M500.11788021723396,342.7744240850864 L505.6051647294066,344.4244866984385 M505.6051647294066,344.4244866984385 L510.8506763131512,346.16645039486843 M510.8506763131512,346.16645039486843 L515.8396804060573,347.99718607698844 M515.8396804060573,347.99718607698844 L520.5575959762315,349.91332364991825 M520.5575959762315,349.91332364991825 L524.9900557507672,351.9112418832686 M524.9900557507672,351.9112418832686 L529.1229599945244,353.9870478423951 M529.1229599945244,353.9870478423951 L532.9425431985111,356.136576480297 M532.9425431985111,356.136576480297 L536.4353325345411,358.3554017244314 M536.4353325345411,358.3554017244314 L539.5883289932674,360.63880289179934 M539.5883289932674,360.63880289179934 L542.3889536492629,362.9817819548516 M542.3889536492629,362.9817819548516 L544.8252133425689,365.3790510482126 M544.8252133425689,365.3790510482126 L546.8856617467688,367.825036669006 M546.8856617467688,367.825036669006 L548.5595724716771,370.31387390189934 M548.5595724716771,370.31387390189934 L549.8369393830187,372.839418339884 M549.8369393830187,372.839418339884 L550.7086001464922,375.3952384760922 M550.7086001464922,375.3952384760922 L551.1663002539307,377.9746373974387 M551.1663002539307,377.9746373974387 L551.2027755035145,380.57064412275264 M551.2027755035145,380.57064412275264 L550.8118316271424,383.1760424748879 M550.8118316271424,383.1760424748879 L549.9884497559117,385.7833790617888 M549.9884497559117,385.7833790617888 L548.728843523489,388.3849758895636 M548.728843523489,388.3849758895636 L547.0305683384869,390.97296150782734 M547.0305683384869,390.97296150782734 L544.892587358007,393.53929243261234 M544.892587358007,393.53929243261234 L542.3153256257559,396.07576902163134 M542.3153256257559,396.07576902163134 L539.3008143220026,398.57409024341894 M539.3008143220026,398.57409024341894 L535.8526685575864,401.0258599633984 M535.8526685575864,401.0258599633984 L531.9761882755871,403.4226404989875 M531.9761882755871,403.4226404989875 L527.6784277699523,405.7559936029897 M527.6784277699523,405.7559936029897 L522.9682079494564,408.01751676265087 M522.9682079494564,408.01751676265087 L517.8561346967916,410.1988857499331 M517.8561346967916,410.1988857499331 L512.3546364494372,412.29190717485625 M512.3546364494372,412.29190717485625 L506.4779506158306,414.2885617119852 M506.4779506158306,414.2885617119852 L500.24214945334415,416.18106637180347 M500.24214945334415,416.18106637180347 L493.6650607541859,417.9619095609156 M493.6650607541859,417.9619095609156 L486.76623291711263,419.62390164209216 M486.76623291711263,419.62390164209216 L479.56693415073033,421.1602448086767 M479.56693415073033,421.1602448086767 L472.09000950689017,422.5645595435695 M472.09000950689017,422.5645595435695 L464.35980867608606,423.83094242928684 M464.35980867608606,423.83094242928684 L456.4020887661377,424.9540087755225 M456.4020887661377,424.9540087755225 L448.243893122134,425.9289327794472 M448.243893122134,425.9289327794472 L439.91341012033365,426.751487979171 M439.91341012033365,426.751487979171 L431.43982676555197,427.4180913997769 M431.43982676555197,427.4180913997769 L422.8531542154965,427.925810065682 M422.8531542154965,427.925810065682 L414.18408176490135,428.27240430917533 M414.18408176490135,428.27240430917533 L405.46378436330644,428.45633597561704 M405.46378436330644,428.45633597561704 L396.72373807677894,428.47679416035066 M396.72373807677894,428.47679416035066 L387.9955442797336,428.33368076095707 M387.9955442797336,428.33368076095707 L379.31073402838103,428.0276376626249 M379.31073402838103,428.0276376626249 L370.7005609847949,427.5600159010829 M370.7005609847949,427.5600159010829 L362.1958649899163,426.9328865048728 M362.1958649899163,426.9328865048728 L353.82682924324723,426.14900689474575 M353.82682924324723,426.14900689474575 L345.6228839758683,425.21180176247873 M345.6228839758683,425.21180176247873 L337.6124557328432,424.12534425431494 M337.6124557328432,424.12534425431494 L329.8229124558546,422.8943061628515 M329.8229124558546,422.8943061628515 L322.2803301043084,421.52394001758626 M322.2803301043084,421.52394001758626 L315.0094146940801,420.0200246929038 M315.0094146940801,420.0200246929038 L308.0334205882148,418.388821127301 M308.0334205882148,418.388821127301 L301.37399692979255,416.6370314107687 M301.37399692979255,416.6370314107687 L295.0511298542722,414.771750748156 M295.0511298542722,414.771750748156 L289.08309926459503,412.8004104719788 M289.08309926459503,412.8004104719788 L283.48639620008004,410.7307378220952 M283.48639620008004,410.7307378220952 L278.2757213380935,408.5706965181149 M278.2757213380935,408.5706965181149 L273.4639688514147,406.3284368075246 M273.4639688514147,406.3284368075246 L269.0621977044472,404.0122560477082 M269.0621977044472,404.0122560477082 L265.07967584178436,401.63053991791475 M265.07967584178436,401.63053991791475 L261.5238838324732,399.19172334920853 M261.5238838324732,399.19172334920853 L258.4005517174041,396.7042543421856 M258.4005517174041,396.7042543421856 L255.71372658146544,394.17653480137125 M255.71372658146544,394.17653480137125 L253.46582583187987,391.6168925220653 M253.46582583187987,391.6168925220653 L251.65766150399833,389.03356099778466 M251.65766150399833,389.03356099778466 L250.28857037698745,386.43461896932126 M250.28857037698745,386.43461896932126 L249.35643680968684,383.82799195225294 M249.35643680968684,383.82799195225294 L248.85780463631122,381.2214003067609 M248.85780463631122,381.2214003067609 L248.7879629573298,378.62236055353543 M248.7879629573298,378.62236055353543 L249.1409933916288,376.038147307475 M249.1409933916288,376.038147307475 L249.9099085592115,373.4757922589457 M249.9099085592115,373.4757922589457 L251.08667275539835,370.942065441827 M251.08667275539835,370.942065441827 L252.66235378437125,368.4434631622906 M252.66235378437125,368.4434631622906 L254.6271490535113,365.98620387828163 M254.6271490535113,365.98620387828163 L256.9704975881398,363.57622266103647 M256.9704975881398,363.57622266103647 L259.68113061993625,361.219164224911 M259.68113061993625,361.219164224911 L262.74719067939594,358.9203882865159 M262.74719067939594,358.9203882865159 L266.1562437885986,356.68496669626376 M266.1562437885986,356.68496669626376 L269.89536964482295,354.5176862505116 M269.89536964482295,354.5176862505116 L273.95122813212714,352.4230507989417 M273.95122813212714,352.4230507989417 L278.31011117498815,350.4052862703776 M278.31011117498815,350.4052862703776 L282.9579882384496,348.4683491078736 M282.9579882384496,348.4683491078736 L287.8805794887158,346.6159373516409 M287.8805794887158,346.6159373516409 L293.063345794882,344.8514803971894 M293.063345794882,344.8514803971894 L298.4915738693087,343.1781614016325 M298.4915738693087,343.1781614016325 L304.15041078953925,341.5989270033407 M304.15041078953925,341.5989270033407 L310.0248578668583,340.11648210128635 M310.0248578668583,340.11648210128635 L316.09982702527407,338.73330729226404 M316.09982702527407,338.73330729226404 L322.36015068511915,337.4516627243418 M322.36015068511915,337.4516627243418 L328.79061485340833,336.27360114136746 M328.79061485340833,336.27360114136746 L335.37597002211453,335.2009726878034 M335.37597002211453,335.2009726878034 L342.1009289890085,334.2354250488381 M342.1009289890085,334.2354250488381 L348.95017914392923,333.37841519633685 M348.95017914392923,333.37841519633685 L355.9084340111642,332.63122553342583 M355.9084340111642,332.63122553342583 L362.9603678977591,331.9949478549429 M362.9603678977591,331.9949478549429 L370.0906823283158,331.47050568380286 M370.0906823283158,331.47050568380286 L377.2840780469622,331.05865321437113 M377.2840780469622,331.05865321437113 L384.52524801980206,330.75997510325055 M384.52524801980206,330.75997510325055 L391.7989046859762,330.574895497611 M391.7989046859762,330.574895497611 L399.0897646932046,330.5036730811894 M399.0897646932046,330.5036730811894 L406.3825271139537,330.54640838555963 M406.3825271139537,330.54640838555963 L413.6619192274705,330.7030417342043 M413.6619192274705,330.7030417342043 L420.91264315005503,330.9733541692807 M420.91264315005503,330.9733541692807 L428.1194163761378,331.3569605467171 M428.1194163761378,331.3569605467171 L435.26693576104554,331.8533210858662 M435.26693576104554,331.8533210858662 L442.3399034915677,332.46171725822217 M442.3399034915677,332.46171725822217 L449.3230108913476,333.1812772072831 M449.3230108913476,333.1812772072831 L456.2009540013021,334.01094143100426 M456.2009540013021,334.01094143100426 L462.95840954171314,334.9494875904933 M462.95840954171314,334.9494875904933 L469.58010185213743,335.9954914225508 M469.58010185213743,335.9954914225508 L476.05072648338023,337.1473590513132 M476.05072648338023,337.1473590513132 L482.3550087658278,338.4032929245218 M482.3550087658278,338.4032929245218 L488.4777371382822,339.7612903104262 M488.4777371382822,339.7612903104262 L494.4037367564957,341.21914045948546 M494.4037367564957,341.21914045948546 L500.11788021723396,342.7744240850864" stroke="black"  stroke-width="4"  fill="red"/>
<path d="M546.6719728403692,391.44474907205193 L548.4486824332267,388.86352415110315 M548.4486824332267,388.86352415110315 L549.7875740150527,386.26725344621127 M549.7875740150527,386.26725344621127 L550.6908308207632,383.6638176401419 M550.6908308207632,383.6638176401419 L551.1619801187161,381.06089827515586 M551.1619801187161,381.06089827515586 L551.2057947441286,378.46596319637797 M551.2057947441286,378.46596319637797 L550.8282340313008,375.88624569670117 M550.8282340313008,375.88624569670117 L550.0363269265605,373.3287360270988 M550.0363269265605,373.3287360270988 L548.8381230980656,370.80016101457585 M548.8381230980656,370.80016101457585 L547.2425830950449,368.30697756089273 M547.2425830950449,368.30697756089273 L545.259510890275,365.8553595920055 M545.259510890275,365.8553595920055 L542.8994631898794,363.4512051168171 M542.8994631898794,363.4512051168171 L540.173687397776,361.10012550099304 M540.173687397776,361.10012550099304 L537.0940527779255,358.8074394895397 M537.0940527779255,358.8074394895397 L533.672954923558,356.5781877775914 M533.672954923558,356.5781877775914 L529.9232861113622,354.4171209912487 M529.9232861113622,354.4171209912487 L525.8583528877199,352.3287129073417 M525.8583528877199,352.3287129073417 L521.4918187707245,350.317163523209 M521.4918187707245,350.317163523209 L516.8376692648027,348.38640396602915 M516.8376692648027,348.38640396602915 L511.9101634476651,346.54009597877763 M511.9101634476651,346.54009597877763 L506.7237741285846,344.7816509652167 M506.7237741285846,344.7816509652167 L501.2931602380814,343.1142313658785 M501.2931602380814,343.1142313658785 L495.6331405040256,341.54075657282084 M495.6331405040256,341.54075657282084 L489.7586411300212,340.0639174806715 M489.7586411300212,340.0639174806715 L483.68469995727196,338.68617434663724 M483.68469995727196,338.68617434663724 L477.4264208511432,337.40977465573104 M477.4264208511432,337.40977465573104 L470.9989688280736,336.2367498014576 M470.9989688280736,336.2367498014576 L464.4175264116509,335.16894069731063 M464.4175264116509,335.16894069731063 L457.6973451739936,334.2079756240969 M457.6973451739936,334.2079756240969 L450.8536321410437,333.35531325630143 M450.8536321410437,333.35531325630143 L443.9016579515964,332.61221090752883 M443.9016579515964,332.61221090752883 L436.85666746533747,331.9797576594453 M436.85666746533747,331.9797576594453 L429.7338994017875,331.4588730735341 M429.7338994017875,331.4588730735341 L422.5485979307689,331.05029526260915 M422.5485979307689,331.05029526260915 L415.3160055702156,330.75461002446735 M415.3160055702156,330.75461002446735 L408.0513574160095,330.5722296087951 M408.0513574160095,330.5722296087951 L400.76987104446425,330.5034139710249 M400.76987104446425,330.5034139710249 L393.48677770680575,330.54825950064685 M393.48677770680575,330.54825950064685 L386.2173078119895,330.70670001885543 M386.2173078119895,330.70670001885543 L378.97668648347826,330.97851538464687 M378.97668648347826,330.97851538464687 L371.7801446061037,331.3633214983147 M371.7801446061037,331.3633214983147 L364.6429130562255,331.86057566492144 M364.6429130562255,331.86057566492144 L357.5802478446202,332.4695648826049 M357.5802478446202,332.4695648826049 L350.6073845495958,333.18941267788045 M350.6073845495958,333.18941267788045 L343.7395678602133,334.01906499989485 M343.7395678602133,334.01906499989485 L336.9920583831418,334.9572987414711 M336.9920583831418,334.9572987414711 L330.3800893009417,336.00270307714254 M330.3800893009417,336.00270307714254 L323.91889379458064,337.1536804596455 M323.91889379458064,337.1536804596455 L317.62366541662107,338.40843730033424 M317.62366541662107,338.40843730033424 L311.5095841056361,339.76498371122256 M311.5095841056361,339.76498371122256 L305.5917611498902,341.2211177127263 M305.5917611498902,341.2211177127263 L299.88525162129315,342.7744240850866 M299.88525162129315,342.7744240850866 L294.405010946223,344.42226251789015 M294.405010946223,344.42226251789015 L289.16588242974564,346.1617627871644 M289.16588242974564,346.1617627871644 L284.1825589381731,347.9898127647248 M284.1825589381731,347.9898127647248 L279.46956212091004,349.90305759297087 M279.46956212091004,349.90305759297087 L275.0411858297831,351.8978822382815 M275.0411858297831,351.8978822382815 L270.9114809062906,353.97041730647027 M270.9114809062906,353.97041730647027 L267.09418994584405,356.1165200142905 M267.09418994584405,356.1165200142905 L263.6027048687239,358.3317780000876 M263.6027048687239,358.3317780000876 L260.44999102263387,360.6114928069 M260.44999102263387,360.6114928069 L257.64857208949064,362.95068882696563 M257.64857208949064,362.95068882696563 L255.21042111986532,365.3441070605365 M255.21042111986532,365.3441070605365 L253.146932037341,367.78619360072486 M253.146932037341,367.78619360072486 L251.46880790882904,370.27111506326867 M251.46880790882904,370.27111506326867 L250.18602131384503,372.7927529058407 M250.18602131384503,372.7927529058407 L249.30770969078964,375.3447102289137 M249.30770969078964,375.3447102289137 L248.84212848544067,377.9203153394807 M248.84212848544067,377.9203153394807 L248.79653535306946,380.5126331750171 M248.79653535306946,380.5126331750171 L249.177102375334,383.11448330256627 M249.177102375334,383.11448330256627 L249.98888126568363,385.71844399915625 M249.98888126568363,385.71844399915625 L251.23564640621714,388.31687419560944 M251.23564640621714,388.31687419560944 L252.91990136199047,390.90193601377126 M252.91990136199047,390.90193601377126 L255.04270171590764,393.4656217791872 M255.04270171590764,393.4656217791872 L257.6036401759717,395.9997757907611 M257.6036401759717,395.9997757907611 L260.6008002048196,398.4961153458807 M260.6008002048196,398.4961153458807 L264.0305774916137,400.9462971277254 M264.0305774916137,400.9462971277254 L267.88777535207834,403.34190811339107 M267.88777535207834,403.34190811339107 L272.16540705829567,405.6745460885046 M272.16540705829567,405.6745460885046 L276.85477214238506,407.93583558751544 M276.85477214238506,407.93583558751544 L281.94535594419557,410.11748404710494 M281.94535594419557,410.11748404710494 L287.4248557279289,412.2113221252249 M287.4248557279289,412.2113221252249 L293.279137909377,414.2093616447097 M293.279137909377,414.2093616447097 L299.49228953085793,416.1038323655019 M299.49228953085793,416.1038323655019 L306.04661773987607,417.88724130331104 M306.04661773987607,417.88724130331104 L312.922699251172,419.5524198034235 M312.922699251172,419.5524198034235 L320.0994612728972,421.09256851627083 M320.0994612728972,421.09256851627083 L327.5542098401704,422.50131408967206 M327.5542098401704,422.50131408967206 L335.2627458693398,423.7727562058838 M335.2627458693398,423.7727562058838 L343.19947436767814,424.90150570679435 M343.19947436767814,424.90150570679435 L351.3375305583875,425.88272678123803 M351.3375305583875,425.88272678123803 L359.6488790828277,426.71218505329733 M359.6488790828277,426.71218505329733 L368.10451398152327,427.38626642172886 M368.10451398152327,427.38626642172886 L376.67456712533664,427.9020187897409 M376.67456712533664,427.9020187897409 L385.3284952921528,428.2571746021258 M385.3284952921528,428.2571746021258 L394.03528380385774,428.45016358247 M394.03528380385774,428.45016358247 L402.76358634847605,428.4801320107285 M402.76358634847605,428.4801320107285 L411.4819309260855,428.3469440176102 M411.4819309260855,428.3469440176102 L420.15889605095725,428.051193549469 M420.15889605095725,428.051193549469 L428.76332348764777,427.5941849156478 M428.76332348764777,427.5941849156478 L437.2644788235462,426.97793512951404 M437.2644788235462,426.97793512951404 L445.63223797695457,426.20514731632835 M445.63223797695457,426.20514731632835 L453.8372367483075,425.2791952424881 M454.0746444892194,405.7941048227791 L453.8372367483075,425.2791952424881 M454.0746444892194,405.7941048227791 L445.8337807331683,406.69336300430325 M445.8337807331683,406.69336300430325 L437.42927930931853,407.4438819853395 M437.42927930931853,407.4438819853395 L428.8906597787273,408.04238000286136 M428.8906597787273,408.04238000286136 L420.2482074660238,408.48622755715587 M420.2482074660238,408.48622755715587 L411.5328227163305,408.7734625292747 M411.5328227163305,408.7734625292747 L402.77583299235096,408.9028160774111 M402.77583299235096,408.9028160774111 L394.0088309885089,408.87371040929486 M394.0088309885089,408.87371040929486 L385.26346033467877,408.6862776957121 M385.26346033467877,408.6862776957121 L376.5712379902588,408.34134844535777 M376.5712379902588,408.34134844535777 L367.9633467722388,407.8404502174763 M367.9633467722388,407.8404502174763 L359.470494323894,407.1857888444091 M359.470494323894,407.1857888444091 L351.12270801878253,406.3802359828288 M351.12270801878253,406.3802359828288 L342.94914654530436,405.42730712572154 M342.94914654530436,405.42730712572154 L334.97799054731024,404.33112095619686 M334.97799054731024,404.33112095619686 L327.2362413660457,403.09638091568763 M327.2362413660457,403.09638091568763 L319.7496210878878,401.7283283538488 M319.7496210878878,401.7283283538488 L312.5424456250233,400.23270140041643 M312.5424456250233,400.23270140041643 L305.63751486161675,398.61569777588477 M305.63751486161675,398.61569777588477 L299.0559960110258,396.88392894532853 M299.0559960110258,396.88392894532853 L292.81739516322716,395.04436489827236 M292.81739516322716,395.04436489827236 L286.9394760789463,393.10429031124573 M286.9394760789463,393.10429031124573 L281.4382106591561,391.0712586802432 M281.4382106591561,391.0712586802432 L276.3277796915979,388.9530345747047 M276.3277796915979,388.9530345747047 L271.62052141901614,386.7575577964156 M271.62052141901614,386.7575577964156 L267.32697483198774,384.49288699714083 M267.32697483198774,384.49288699714083 L263.45585380736065,382.1671604253053 M263.45585380736065,382.1671604253053 L260.0141484061442,379.78854131794145 M260.0141484061442,379.78854131794145 L257.00704865469675,377.3652023504912 M257.00704865469675,377.3652023504912 L254.4381435429136,374.90524741771253 M254.4381435429136,374.90524741771253 L252.30932563649407,372.41672042066 M252.30932563649407,372.41672042066 L250.62097085086165,369.90754080010333 M250.62097085086165,369.90754080010333 L249.37198545947027,367.3854831233415 M249.37198545947027,367.3854831233415 L248.55982148859405,364.8581559633055 M248.55982148859405,364.8581559633055 L248.1806550427213,362.33297570376294 M248.1806550427213,362.33297570376294 L248.22938016884055,359.81714470288904 M248.22938016884055,359.81714470288904 L248.69976684236744,357.31763004595035 M248.69976684236744,357.31763004595035 L249.58449623672286,354.84115964484585 M249.58449623672286,354.84115964484585 L250.87524918379458,352.3942048387147 M250.87524918379458,352.3942048387147 L252.5628227198018,349.9829693839467 M252.5628227198018,349.9829693839467 L254.63717736538635,347.61338607782835 M254.63717736538635,347.61338607782835 L257.08754240880404,345.2911102455485 M257.08754240880404,345.2911102455485 L259.90245586053027,343.0215253410874 M259.90245586053027,343.0215253410874 L263.0698767813267,340.8097280674629 M263.0698767813267,340.8097280674629 L266.57721398677893,338.6605396417621 M266.57721398677893,338.6605396417621 L270.41143551283034,336.57851194155484 M270.41143551283034,336.57851194155484 L274.55908382794297,334.5679189179787 M274.55908382794297,334.5679189179787 L279.00635203432074,332.632772708528 M279.00635203432074,332.632772708528 L283.73912646493477,330.7768200265837 M283.73912646493477,330.7768200265837 L288.74305213039315,329.00356070361516 M288.74305213039315,329.00356070361516 L294.0035479521796,327.3162421272919 M294.0035479521796,327.3162421272919 L299.50586348290045,325.717876240862 M299.50586348290045,325.717876240862 L305.2350996842562,324.21124041484904 M305.2350996842562,324.21124041484904 L311.1762472868254,322.7988891447064 M311.1762472868254,322.7988891447064 L317.3141992026217,321.48315879115455 M317.3141992026217,321.48315879115455 L323.6337939913164,320.26617913198265 M323.6337939913164,320.26617913198265 L330.11980324999615,319.1498745291285 M330.11980324999615,319.1498745291285 L336.7569867091739,318.1359792937662 M336.7569867091739,318.1359792937662 L343.53006597626063,317.22603798007094 M343.53006597626063,317.22603798007094 L350.4237641546363,316.4214144630779 M350.4237641546363,316.4214144630779 L357.42277816255444,315.72329100701654 M357.42277816255444,315.72329100701654 L364.5118220683305,315.13268639445107 M364.5118220683305,315.13268639445107 L371.6756200968889,314.6504476882406 M371.6756200968889,314.6504476882406 L378.8988768058699,314.27726393317573 M378.8988768058699,314.27726393317573 L386.166322653633,314.0136595446367 M386.166322653633,314.0136595446367 L393.4626885897713,313.8600056800608 M393.4626885897713,313.8600056800608 L400.77271167488374,313.8165150469357 M400.77271167488374,313.8165150469357 L408.0811238194416,313.88325160279254 M408.0811238194416,313.88325160279254 L415.37265607058976,314.0601222106809 M415.37265607058976,314.0601222106809 L422.6320530087235,314.3468756692589 M422.6320530087235,314.3468756692589 L429.84404126645046,314.7431136376566 M429.84404126645046,314.7431136376566 L436.99333948809374,315.24827001328646 M436.99333948809374,315.24827001328646 L444.0646639550217,315.8616315093836 M444.0646639550217,315.8616315093836 L451.0427355382166,316.5823093826396 M451.0427355382166,316.5823093826396 L457.9122679008001,317.4092509788209 M457.9122679008001,317.4092509788209 L464.6579476242634,318.3412409556772 M464.6579476242634,318.3412409556772 L471.2645237591515,319.37686912192225 M471.2645237591515,319.37686912192225 L477.7166991220596,320.51456119881846 M477.7166991220596,320.51456119881846 L483.9992441430346,321.7525370505034 M483.9992441430346,321.7525370505034 L490.09694500002183,323.0888321245372 M490.09694500002183,323.0888321245372 L495.9946472758023,324.521272562332 M495.9946472758023,324.521272562332 L501.677260724621,326.04747836455016 M501.677260724621,326.04747836455016 L507.1298049291888,327.66484600423826 M507.1298049291888,327.66484600423826 L512.3374050202245,329.3705504391632 M512.3374050202245,329.3705504391632 L517.2853440947529,331.1615309298287 M517.2853440947529,331.1615309298287 L521.9590895601665,333.0344852296921 M521.9590895601665,333.0344852296921 L526.3443207910186,334.98586817433517 M526.3443207910186,334.98586817433517 L530.4269891443286,337.0118731263032 M530.4269891443286,337.0118731263032 L534.193366542064,339.1084323895299 M534.193366542064,339.1084323895299 L537.6300805927717,341.2712123599972 M537.6300805927717,341.2712123599972 L540.7241721392734,343.4956104586684 M540.7241721392734,343.4956104586684 L543.4631780379832,345.7767422146201 M543.4631780379832,345.7767422146201 L545.8351610191669,348.1094528343841 M545.8351610191669,348.1094528343841 L547.8288056937017,350.48830297286963 M547.8288056937017,350.48830297286963 L549.4334878168573,352.90757444163603 M549.4334878168573,352.90757444163603 L550.639336761307,355.36128052850364 M550.639336761307,355.36128052850364 L551.4373267729284,357.84315906292585 M551.4373267729284,357.84315906292585 L551.8193449572788,360.34668499918575 M551.8193449572788,360.34668499918575 L551.7783018467585,362.8650766508577 M551.7783018467585,362.8650766508577 L551.3081808187634,365.3913154043881 M551.3081808187634,365.3913154043881 L550.404155803406,367.9181539011026 M550.404155803406,367.9181539011026 L549.0626509785332,370.4381362308693 M549.0626509785332,370.4381362308693 L547.2814400418478,372.94361202504643 M547.2814400418478,372.94361202504643 L546.6719728403692,391.44474907205193 M436.88863634681746,419.488156447461 L453.8372367483075,425.2791952424881 M546.6719728403692,391.44474907205193 L529.827212270088,386.29734336946814 M529.827212270088,386.29734336946814 L531.0012888654082,383.88379973183805 M531.0012888654082,383.88379973183805 L531.7449792042338,381.4632346340683 M531.7449792042338,381.4632346340683 L532.0615342878897,379.04367994932574 M532.0615342878897,379.04367994932574 L531.9555718005219,376.6329599185321 M531.9555718005219,376.6329599185321 L531.4330404886205,374.23866144953973 M531.4330404886205,374.23866144953973 L530.5011043846818,371.8681209427948 M530.5011043846818,371.8681209427948 L529.1680402149985,369.52840329056346 M529.1680402149985,369.52840329056346 L527.4431762253137,367.22629483924754 M527.4431762253137,367.22629483924754 L525.3367998899271,364.96828821811425 M525.3367998899271,364.96828821811425 L522.8600435374326,362.7605777805194 M522.8600435374326,362.7605777805194 L520.0248461154495,360.6090544828796 M520.0248461154495,360.6090544828796 L516.8438530239913,358.5193052386445 M516.8438530239913,358.5193052386445 L513.3303255830577,356.49660777424543 M513.3303255830577,356.49660777424543 L509.4981048900648,354.5459371438266 M509.4981048900648,354.5459371438266 L505.3615233664014,352.671962035856 M505.3615233664014,352.671962035856 L500.9353444803651,350.8790570936439 M500.9353444803651,350.8790570936439 L496.2347170054738,349.17130159998527 M496.2347170054738,349.17130159998527 L491.27512976687495,347.55247950074056 M491.27512976687495,347.55247950074056 L486.0723284383504,346.0261036342879 M486.0723284383504,346.0261036342879 L480.6423263618119,344.59540198365346 M480.6423263618119,344.59540198365346 L475.00132236634835,343.2633400958393 M475.00132236634835,343.2633400958393 L469.165682040481,342.03262156558674 M469.165682040481,342.03262156558674 L463.1519305688805,340.90569232194355 M463.1519305688805,340.90569232194355 L456.97669270267926,339.8847545910208 M456.97669270267926,339.8847545910208 L450.65668552306175,338.97177155483115 M450.65668552306175,338.97177155483115 L444.2087054265488,338.1684674997056 M444.2087054265488,338.1684674997056 L437.6496173234756,337.47634123715636 M437.6496173234756,337.47634123715636 L430.99630858319193,336.89666946261093 M430.99630858319193,336.89666946261093 L424.2657248143407,336.43050962826806 M424.2657248143407,336.43050962826806 L417.4748111741657,336.0787034141085 M417.4748111741657,336.0787034141085 L410.64056464461993,335.8418854328734 M410.64056464461993,335.8418854328734 L403.7799664400387,335.7204758274932 M403.7799664400387,335.7204758274932 L396.910019378679,335.71469221550035 M396.910019378679,335.71469221550035 L390.04772237071126,335.8245438904202 M390.04772237071126,335.8245438904202 L383.2100768940475,336.0498398026274 M383.2100768940475,336.0498398026274 L376.4140673877656,336.3901709111355 M376.4140673877656,336.3901709111355 L369.676684625208,336.84493075687146 M369.676684625208,336.84493075687146 L363.0148882268718,337.41329545458456 M363.0148882268718,337.41329545458456 L356.4456111026637,338.0942293763007 M356.4456111026637,338.0942293763007 L349.9857645226589,338.8864787171163 M349.9857645226589,338.8864787171163 L343.6522028708137,339.788568011069 M343.6522028708137,339.788568011069 L337.46172989054884,340.79879413035786 M337.46172989054884,340.79879413035786 L331.4310798570705,341.91521861958955 M331.4310798570705,341.91521861958955 L325.5768891744119,343.13566613514206 M325.5768891744119,343.13566613514206 L319.91567962976364,344.45771038323676 M319.91567962976364,344.45771038323676 L314.4638413235103,345.87867590303506 M314.4638413235103,345.87867590303506 L309.23759949390967,347.39562615949256 M309.23759949390967,347.39562615949256 L304.25297624926515,349.00535646408673 M304.25297624926515,349.00535646408673 L299.5257556697566,350.70438625807 M299.5257556697566,350.70438625807 L295.0714416409229,352.48895397896626 M295.0714416409229,352.48895397896626 L290.9052275543633,354.35501230546834 M290.9052275543633,354.35501230546834 L287.0419166623596,356.2982195428279 M287.0419166623596,356.2982195428279 L283.49589171928017,358.31393340374325 M283.49589171928017,358.31393340374325 L280.28103797197315,360.39721007755753 M280.28103797197315,360.39721007755753 L277.4106841085682,362.54280277137843 M277.4106841085682,362.54280277137843 L274.8975368226072,364.74515418894856 M274.8975368226072,364.74515418894856 L272.75360117773613,366.99840503181804 M272.75360117773613,366.99840503181804 L270.9901126779741,369.2963918808192 M270.9901126779741,369.2963918808192 L269.6174252736921,371.63264757669737 M269.6174252736921,371.63264757669737 L268.64498696214736,374.0004190294971 M268.64498696214736,374.0004190294971 L268.0811759582459,376.3926668527416 M268.0811759582459,376.3926668527416 L267.93327110252073,378.8020829732498 M267.93327110252073,378.8020829732498 L268.2073348492131,381.2211021285836 M268.2073348492131,381.2211021285836 L268.90814639745423,383.64192773225864 M268.90814639745423,383.64192773225864 L270.0390798627433,386.0565386673193 M270.0390798627433,386.0565386673193 L271.6020493364768,388.4567364449584 M271.6020493364768,388.4567364449584 L273.59741205066115,390.8341526158196 M273.59741205066115,390.8341526158196 L276.02388894040797,393.18029906015005 M276.02388894040797,393.18029906015005 L278.8785045405725,395.4865865618681 M278.8785045405725,395.4865865618681 L282.1565285595759,397.7443757461223 M282.1565285595759,397.7443757461223 L285.85139484097306,399.94501784316407 M285.85139484097306,399.94501784316407 L289.9546818232063,402.07989747554296 M289.9546818232063,402.07989747554296 L294.4560903982231,404.1404746534583 M294.4560903982231,404.1404746534583 L299.34339825964196,406.1183482120338 M299.34339825964196,406.1183482120338 L304.6024694728868,408.00529919737596 M304.6024694728868,408.00529919737596 L310.2172927107695,409.79333787849583 M310.2172927107695,409.79333787849583 L316.1699515223848,411.47477573053595 M316.1699515223848,411.47477573053595 L322.4407491902522,413.0422576921527 M322.4407491902522,413.0422576921527 L329.00820512595266,414.4888309102278 M329.00820512595266,414.4888309102278 L335.8491580142489,415.8079942618331 M335.8491580142489,415.8079942618331 L342.93888776182416,416.9937441009656 M342.93888776182416,416.9937441009656 L350.2512010692292,418.0406223610204 M350.2512010692292,418.0406223610204 L357.758585606141,418.943769195727 M357.758585606141,418.943769195727 L365.4323396504202,419.69895064567675 M365.4323396504202,419.69895064567675 L373.2427488703203,420.3026001936092 M373.2427488703203,420.3026001936092 L381.1592527915627,420.75185783013166 M381.1592527915627,420.75185783013166 L389.1506307576299,421.04457803886623 M389.1506307576299,421.04457803886623 L397.1851843631158,421.17936014796646 M397.1851843631158,421.17936014796646 L405.23095370222427,421.1555620382642 M405.23095370222427,421.1555620382642 L413.25589950336143,420.97329584370925 M413.25589950336143,420.97329584370925 L421.22812276275914,420.6334315081092 M421.22812276275914,420.6334315081092 L429.1160465799665,420.1375995427666 M429.1160465799665,420.1375995427666 L436.88863634681746,419.488156447461 M530.3616582453411,367.9473591059252 L529.827212270088,386.29734336946814 M547.2814400418478,372.94361202504643 L530.3616582453411,367.9473591059252 M437.0496959684178,400.17029648368185 L429.24331108027616,400.8009610254319 M429.24331108027616,400.8009610254319 L421.32098694813277,401.28246021164404 M421.32098694813277,401.28246021164404 L413.3139198545206,401.6125023163628 M413.3139198545206,401.6125023163628 L405.25385232331405,401.78950162887315 M405.25385232331405,401.78950162887315 L397.17285139150056,401.8126120886519 M397.17285139150056,401.8126120886519 L389.1031253741589,401.6817246374778 M389.1031253741589,401.6817246374778 L381.07680265952365,401.39746376937995 M381.07680265952365,401.39746376937995 L373.12574817094315,400.96119168374713 M373.12574817094315,400.96119168374713 L365.2813455840625,400.37499492542173 M365.2813455840625,400.37499492542173 L357.5743135435799,399.6416548383735 M357.5743135435799,399.6416548383735 L350.03451837605394,398.7646397167124 M350.03451837605394,398.7646397167124 L342.6908064424072,397.7480667537517 M342.6908064424072,397.7480667537517 L335.57082619784336,396.5966615571476 M335.57082619784336,396.5966615571476 L328.70089766543305,395.3157311370699 M328.70089766543305,395.3157311370699 L322.1058573541145,393.9111126330199 M322.1058573541145,393.9111126330199 L315.80897215712565,392.38912644199263 M315.80897215712565,392.38912644199263 L309.8318167959512,390.75653163158677 M309.8318167959512,390.75653163158677 L304.194170234148,389.02047768838355 M304.194170234148,389.02047768838355 L298.91401939019534,387.18843760769454 M298.91401939019534,387.18843760769454 L294.0074338867725,385.2681764181555 M294.0074338867725,385.2681764181555 L289.48859614739416,383.2676811470072 M289.48859614739416,383.2676811470072 L285.3697632791719,381.1951150445338 M285.3697632791719,381.1951150445338 L281.6612577938824,379.05877534338435 M281.6612577938824,379.05877534338435 L278.3715138463567,376.86703156966263 M278.3715138463567,376.86703156966263 L275.5070998805241,374.62828468922095 M275.5070998805241,374.62828468922095 L273.072738691842,372.35092550390675 M273.072738691842,372.35092550390675 L271.0713892608963,370.0432950311622 M271.0713892608963,370.0432950311622 L269.50430589841494,367.7136350285726 M269.50430589841494,367.7136350285726 L268.37109904504234,365.3700699508417 M268.37109904504234,365.3700699508417 L267.6698155094699,363.0205581403266 M267.6698155094699,363.0205581403266 L267.3970361196515,360.6728846520425 M267.3970361196515,360.6728846520425 L267.5479313282109,358.3346155170885 M267.5479313282109,358.3346155170885 L268.11638391428767,356.0130911959938 M268.11638391428767,356.0130911959938 L269.09505649229413,353.7154015347511 M269.09505649229413,353.7154015347511 L270.4755093203183,351.44837467508205 M270.4755093203183,351.44837467508205 L272.2482303104931,349.21856004217847 M272.2482303104931,349.21856004217847 L274.4027997604988,347.0322287824601 M274.4027997604988,347.0322287824601 L276.92791507957077,344.8953565706732 M276.92791507957077,344.8953565706732 L279.81150340513545,342.8136233330832 M279.81150340513545,342.8136233330832 L283.04078994201757,340.7924153972683 M283.04078994201757,340.7924153972683 L286.6023780281648,338.83681733967484 M286.6023780281648,338.83681733967484 L290.4823148970419,336.95161937852254 M290.4823148970419,336.95161937852254 L294.6661510046391,335.1413188836451 M294.6661510046391,335.1413188836451 L299.13901735439634,333.4101213723681 M299.13901735439634,333.4101213723681 L303.88565595817704,331.7619466330601 M303.88565595817704,331.7619466330601 L308.8904997470241,330.20043716873204 M308.8904997470241,330.20043716873204 L314.1377029249584,328.7289628924559 M314.1377029249584,328.7289628924559 L319.6111832142272,327.35062618557953 M319.6111832142272,327.35062618557953 L325.29465678346014,326.06826945696014 M325.29465678346014,326.06826945696014 L331.17167654169276,324.8844820786546 M331.17167654169276,324.8844820786546 L337.2256653029652,323.80161199901886 M337.2256653029652,323.80161199901886 L343.4399327786789,322.82176407145613 M343.4399327786789,322.82176407145613 L349.79769222508537,321.9468137466653 M349.79769222508537,321.9468137466653 L356.28208878842185,321.17840863375966 M356.28208878842185,321.17840863375966 L362.8762182271918,320.5179759774785 M362.8762182271918,320.5179759774785 L369.5631204612977,319.96672851493855 M369.5631204612977,319.96672851493855 L376.3258147638135,319.52566788607726 M376.3258147638135,319.52566788607726 L383.14729447920473,319.1955908999393 M383.14729447920473,319.1955908999393 L390.01052237086725,318.97708404308895 M390.01052237086725,318.97708404308895 L396.898468048806,318.87054290015783 M396.898468048806,318.87054290015783 L403.7940843120713,318.87615221064306 M403.7940843120713,318.87615221064306 L410.68032662681543,318.99390299021667 M410.68032662681543,318.99390299021667 L417.54014642608206,319.2235847901083 M417.54014642608206,319.2235847901083 L424.35651651761344,319.5647913155445 M424.35651651761344,319.5647913155445 L431.11239337213755,320.016908830614 M431.11239337213755,320.016908830614 L437.790784772601,320.57912332192194 M437.790784772601,320.57912332192194 L444.3746971469607,321.250412034753 M444.3746971469607,321.250412034753 L450.8471942875272,322.0295400801242 M450.8471942875272,322.0295400801242 L457.1913612503055,322.9150576166472 M457.1913612503055,322.9150576166472 L463.39035040265895,323.905296555842 M463.39035040265895,323.905296555842 L469.42739208802715,324.9983575023917 M469.42739208802715,324.9983575023917 L475.2858075258854,326.19210956205836 M475.2858075258854,326.19210956205836 L480.94901591991226,327.4841857696311 M480.94901591991226,327.4841857696311 L486.4005945657142,328.8719694867565 M486.4005945657142,328.8719694867565 L491.6242859102067,330.3525901797343 M491.6242859102067,330.3525901797343 L496.60401623694156,331.9229228812773 M496.60401623694156,331.9229228812773 L501.3239780496262,333.579566368815 M501.3239780496262,333.579566368815 L505.768619143786,335.31885642177076 M505.768619143786,335.31885642177076 L509.9227260554599,337.1368422343272 M509.9227260554599,337.1368422343272 L513.771469456384,339.0292863049468 M513.771469456384,339.0292863049468 L517.300450066707,340.9916656222948 M517.300450066707,340.9916656222948 L520.495759175647,343.01915961956786 M520.495759175647,343.01915961956786 L523.3440674928523,345.10665366284394 M523.3440674928523,345.10665366284394 L525.8326615071876,347.2487326346645 M525.8326615071876,347.2487326346645 L527.9495344921036,349.43968582928795 M527.9495344921036,349.43968582928795 L529.6834872161425,351.6735074852952 M529.6834872161425,351.6735074852952 L531.0241665160756,353.94390166277606 M531.0241665160756,353.94390166277606 L531.9621803466214,356.2442865788793 M531.9621803466214,356.2442865788793 L532.4891907070976,358.5678092472419 M532.4891907070976,358.5678092472419 L532.5979753530291,360.90735223202836 M532.5979753530291,360.90735223202836 L532.2825311391226,363.2555539611118 M532.2825311391226,363.2555539611118 L531.5381906254693,365.60482145477636 M531.5381906254693,365.60482145477636 L530.3616582453411,367.9473591059252 M437.0496959684178,400.17029648368185 L454.0746444892194,405.7941048227791 M437.0496959684178,400.17029648368185 L436.88863634681746,419.488156447461" stroke="black"  stroke-width="4"  fill="red"/>
<path d="M545.4680466495333,427.9914301684288 L547.2149145452646,425.29947974461646 M547.2149145452646,425.29947974461646 L548.5392608131383,422.5917347916823 M548.5392608131383,422.5917347916823 L549.4430744522624,419.87619604235834 M549.4430744522624,419.87619604235834 L549.9296183215232,417.1606658112822 M549.9296183215232,417.1606658112822 L550.0033170842221,414.45274048563385 M550.0033170842221,414.45274048563385 L549.6697216162604,411.75978596894413 M549.6697216162604,411.75978596894413 L548.9354019784123,409.0889184170415 M548.9354019784123,409.0889184170415 L547.8078697196278,406.44699949668563 M547.8078697196278,406.44699949668563 L546.2955283721899,403.84062060954005 M546.2955283721899,403.84062060954005 L544.4075742187578,401.27609736313303 M544.4075742187578,401.27609736313303 L542.1539417995585,398.7594679950525 M542.1539417995585,398.7594679950525 L539.5452015979398,396.2964806680473 M539.5452015979398,396.2964806680473 L536.5925288539117,393.8925994283837 M536.5925288539117,393.8925994283837 L533.3076340704678,391.55300130718354 M533.3076340704678,391.55300130718354 L529.7026750395374,389.28258381119196 M529.7026750395374,389.28258381119196 L525.7902344235953,387.0859579926024 M525.7902344235953,387.0859579926024 L521.5832442806765,384.96746753644743 M521.5832442806765,384.96746753644743 L517.0949451972863,382.93117699363734 M517.0949451972863,382.93117699363734 L512.3388553409418,380.9808881319727 M512.3388553409418,380.9808881319727 L507.32870958303965,379.1201451480939 M507.32870958303965,379.1201451480939 L502.0784305217803,377.3522411228522 M502.0784305217803,377.3522411228522 L496.6020937584695,375.6802272065744 M496.6020937584695,375.6802272065744 L490.9139051227882,374.10691682601424 M490.9139051227882,374.10691682601424 L485.02817673333846,372.6348938401716 M485.02817673333846,372.6348938401716 L478.95929491591727,371.2665223409461 M478.95929491591727,371.2665223409461 L472.7217065983451,370.00395330973384 M472.7217065983451,370.00395330973384 L466.32990170852503,368.8491341580487 M466.32990170852503,368.8491341580487 L459.79839500432877,367.80380933096353 M459.79839500432877,367.80380933096353 L453.14174586414015,366.8695302521382 M453.14174586414015,366.8695302521382 L446.37450054704306,366.0476647774566 M446.37450054704306,366.0476647774566 L439.51122788839365,365.3393945970603 M439.51122788839365,365.3393945970603 L432.56648668328205,364.7457310897775 M432.56648668328205,364.7457310897775 L425.5548380032402,364.2675107652652 M425.5548380032402,364.2675107652652 L418.4908345962027,363.9053975254501 M418.4908345962027,363.9053975254501 L411.3890408968606,363.65989566190285 M411.3890408968606,363.65989566190285 L404.26400682744827,363.5313432858286 M404.26400682744827,363.5313432858286 L397.1302794927335,363.5199189344781 M397.1302794927335,363.5199189344781 L390.00241010616725,363.6256351497906 M390.00241010616725,363.6256351497906 L382.8949405305195,363.8483467981371 M382.8949405305195,363.8483467981371 L375.82242563293175,364.187749639369 M375.82242563293175,364.187749639369 L368.7994245754126,364.6433707598335 M368.7994245754126,364.6433707598335 L361.8404851455038,365.2145787110598 M361.8404851455038,365.2145787110598 L354.96017970601235,365.90056917215543 M354.79411957591674,349.39126664833896 L354.96017970601235,365.90056917215543 M354.79411957591674,349.39126664833896 L361.6999745738679,348.72422538385666 M361.6999745738679,348.72422538385666 L368.6846616865406,348.16880084201085 M368.6846616865406,348.16880084201085 L375.73357067557174,347.725772446492 M375.73357067557174,347.725772446492 L382.83211666508436,347.3957520484559 M382.83211666508436,347.3957520484559 L389.96570390099413,347.1791978829182 M389.96570390099413,347.1791978829182 L397.11974132207496,347.07640472148995 M397.11974132207496,347.07640472148995 L404.27965114169984,347.08751318217253 M404.27965114169984,347.08751318217253 L411.4308462524874,347.21251112417804 M411.4308462524874,347.21251112417804 L418.55874357577386,347.4512255578691 M418.55874357577386,347.4512255578691 L425.6487569512316,347.8033288843598 M425.6487569512316,347.8033288843598 L432.6862852398682,348.2683324636829 M432.6862852398682,348.2683324636829 L439.656738463654,348.8455929912981 M439.656738463654,348.8455929912981 L446.54551756341345,349.53429984411207 M446.54551756341345,349.53429984411207 L453.3380248825414,350.3334728615343 M453.3380248825414,350.3334728615343 L460.0196516550462,351.24196675359923 M460.0196516550462,351.24196675359923 L466.5758105886746,352.2584556562664 M466.5758105886746,352.2584556562664 L472.991899893235,353.38143562535845 M472.991899893235,353.38143562535845 L479.2533610900754,354.6092154072282 M479.2533610900754,354.6092154072282 L485.34565900818745,355.93990672679496 M485.34565900818745,355.93990672679496 L491.25429989268457,357.37142365525403 M491.25429989268457,357.37142365525403 L496.9648489459735,358.9014732823824 M496.9648489459735,358.9014732823824 L502.46294386709167,360.5275491887692 M502.46294386709167,360.5275491887692 L507.734326944591,362.2469218557438 M507.734326944591,362.2469218557438 L512.7648689890024,364.05663067013825 M512.7648689890024,364.05663067013825 L517.540592111978,365.9534797651593 M517.540592111978,365.9534797651593 L522.0477045104016,367.93402901533085 M522.0477045104016,367.93402901533085 L526.2726295001635,369.9945876823068 M526.2726295001635,369.9945876823068 L530.2020665912721,372.13120926643563 M530.2020665912721,372.13120926643563 L533.8230225290131,374.33967551985313 M533.8230225290131,374.33967551985313 L537.1228523389533,376.6155078067325 M537.1228523389533,376.6155078067325 L540.0893351096382,378.95394844945304 M540.0893351096382,378.95394844945304 L542.7106965621979,381.3499673808086 M542.7106965621979,381.3499673808086 L544.9756974432348,383.798254767756 M544.9756974432348,383.798254767756 L546.8737034052042,386.29322374189155 M546.8737034052042,386.29322374189155 L548.3947164483668,388.8290045143947 M548.3947164483668,388.8290045143947 L549.5294778194722,391.399456650346 M549.5294778194722,391.399456650346 L550.2695229199188,393.998170519866 M550.2695229199188,393.998170519866 L550.607281166475,396.61847259988514 M550.607281166475,396.61847259988514 L550.5361259660774,399.25344075274086 M550.5361259660774,399.25344075274086 L550.0504530112308,401.8959087757016 M550.0504530112308,401.8959087757016 L549.1457880685493,404.5384850906253 M549.1457880685493,404.5384850906253 L547.8188230718449,407.17357659531694 M547.8188230718449,407.17357659531694 L546.0675289930603,409.7933959379632 M546.0675289930603,409.7933959379632 L545.4680466495333,427.9914301684288 M368.5723074653667,370.3370722212403 L354.96017970601235,365.90056917215543 M545.4680466495333,427.9914301684288 L528.7713600232074,422.5495989986909 M528.7713600232074,422.5495989986909 L529.9203266647422,420.0515516804532 M529.9203266647422,420.0515516804532 L530.6601900194685,417.5460387010509 M530.6601900194685,417.5460387010509 L530.9938932878568,415.0410367042973 M530.9938932878568,415.0410367042973 L530.9256136721727,412.5443228026021 M530.9256136721727,412.5443228026021 L530.4607361431014,410.06343892566946 M530.4607361431014,410.06343892566946 L529.6057637295772,407.6056965489114 M529.6057637295772,407.6056965489114 L528.3682449187473,405.17814523281606 M528.3682449187473,405.17814523281606 L526.7566862626494,402.78755986859755 M526.7566862626494,402.78755986859755 L524.7804725343784,400.44044173048593 M524.7804725343784,400.44044173048593 L522.4497931904415,398.14300090802067 M522.4497931904415,398.14300090802067 L519.7755831708473,395.9011541769556 M519.7755831708473,395.9011541769556 L516.7694288006196,393.720525431557 M516.7694288006196,393.720525431557 L513.4435228881024,391.6064402296236 M513.4435228881024,391.6064402296236 L509.81058142062744,389.56392807851046 M509.81058142062744,389.56392807851046 L505.88380516738385,387.5977238365078 M505.88380516738385,387.5977238365078 L501.67680620376416,385.7122703009603 M501.67680620376416,385.7122703009603 L497.2035603626425,383.9117270140785 M497.2035603626425,383.9117270140785 L492.4783753724505,382.19996532820375 M492.4783753724505,382.19996532820375 L487.51582666923764,380.5805847290751 M487.51582666923764,380.5805847290751 L482.33072671719503,379.0569138411305 M482.33072671719503,379.0569138411305 L476.9380948614705,377.63201592860514 M476.9380948614705,377.63201592860514 L471.3531231260554,376.3086972386876 M471.3531231260554,376.3086972386876 L465.59113346811137,375.0895166373018 M465.59113346811137,375.0895166373018 L459.66758427976356,373.97678488230036 M459.66758427976356,373.97678488230036 L453.59802020292113,372.9725765265614 M453.59802020292113,372.9725765265614 L447.3980676902553,372.07873687855556 M447.3980676902553,372.07873687855556 L441.08341712300387,371.29688214691953 M441.08341712300387,371.29688214691953 L434.6698087155632,370.62841123815514 M434.6698087155632,370.62841123815514 L428.1730259802476,370.07450419360305 M428.1730259802476,370.07450419360305 L421.6088748300141,369.6361332995437 M421.6088748300141,369.6361332995437 L414.9931852684141,369.31405908685565 M414.9931852684141,369.31405908685565 L408.34181320340497,369.10883716421984 M408.34181320340497,369.10883716421984 L401.67060692996614,369.02082157089893 M401.67060692996614,369.02082157089893 L394.9954321672968,369.05016465251344 M394.9954321672968,369.05016465251344 L388.33216644815855,369.196815109989 M388.33216644815855,369.196815109989 L381.6966518050309,369.4605208740327 M381.6966518050309,369.4605208740327 L375.10475179531284,369.84082345794843 M375.10475179531284,369.84082345794843 L368.5723074653667,370.3370722212403 M529.2971306098655,404.4974806590596 L528.7713600232074,422.5495989986909 M546.0675289930603,409.7933959379632 L529.2971306098655,404.4974806590596 M368.45545816030614,353.7053735697251 L375.0122755256431,353.22280228343885 M375.0122755256431,353.22280228343885 L381.6287090379678,352.85298375663655 M381.6287090379678,352.85298375663655 L388.288874386608,352.59654889708986 M388.288874386608,352.59654889708986 L394.9768651488994,352.45394229874825 M394.9768651488994,352.45394229874825 L401.6767968167298,352.4254083821401 M401.6767968167298,352.4254083821401 L408.3727493827629,352.5109968918752 M408.3727493827629,352.5109968918752 L415.04881465274946,352.7105601026362 M415.04881465274946,352.7105601026362 L421.68910170013635,353.0237547128184 M421.68910170013635,353.0237547128184 L428.27771156033975,353.45004195692854 M428.27771156033975,353.45004195692854 L434.7987706979942,353.98868433204507 M434.7987706979942,353.98868433204507 L441.236429012889,354.6387389348428 M441.236429012889,354.6387389348428 L447.57485797560304,355.39906132873284 M447.57485797560304,355.39906132873284 L453.7982714345703,356.2682947119635 M453.7982714345703,356.2682947119635 L459.8909320159191,357.2448714047635 M459.8909320159191,357.2448714047635 L465.8371651128343,358.32700133857446 M465.8371651128343,358.32700133857446 L471.621376686925,359.51267187257736 M471.621376686925,359.51267187257736 L477.2280575815229,360.79964097684734 M477.2280575815229,360.79964097684734 L482.6418337593612,362.1854256034915 M482.6418337593612,362.1854256034915 L487.84745965734294,363.6673023357117 M487.84745965734294,363.6673023357117 L492.829860981107,365.2422979541413 M492.829860981107,365.2422979541413 L497.5741689383935,366.90718125527866 M497.5741689383935,366.90718125527866 L502.0657504193652,368.6584576294071 M502.0657504193652,368.6584576294071 L506.2902387317033,370.4923680072626 M506.2902387317033,370.4923680072626 L510.2335979807341,372.4048729037213 M510.2335979807341,372.4048729037213 L513.8821550363131,374.3916571345481 M513.8821550363131,374.3916571345481 L517.222647259252,376.44812116553476 M517.222647259252,376.44812116553476 L520.2422962843779,378.56937850702 M520.2422962843779,378.56937850702 L522.9288466168132,380.7502542613933 M522.9288466168132,380.7502542613933 L525.2706493369435,382.9852828093468 M525.2706493369435,382.9852828093468 L527.2567072889238,385.2687130271387 M527.2567072889238,385.2687130271387 L528.8767696838523,387.5945077782376 M528.8767696838523,387.5945077782376 L530.1213917006945,389.9563458989975 M530.1213917006945,389.9563458989975 L530.982008525856,392.347639209095 M530.982008525856,392.347639209095 L531.4510157381103,394.76153141179395 M531.4510157381103,394.76153141179395 L531.5218573160442,397.1909104333017 M531.5218573160442,397.1909104333017 L531.1890988391423,399.6284389731656 M531.1890988391423,399.6284389731656 L530.4485178612318,402.0665498516259 M530.4485178612318,402.0665498516259 L529.2971306098655,404.4974806590596 M368.45545816030614,353.7053735697251 L354.79411957591674,349.39126664833896 M368.45545816030614,353.7053735697251 L368.5723074653667,370.3370722212403" stroke="black"  stroke-width="4"  fill="red"/>
<path d="M262.275141315684,377.0668421730922 L262.80824866332483,394.35657052926 M453.6019045710399,444.5939350867472 L445.54343614420395,445.5343170751155 M445.54343614420395,445.5343170751155 L437.3270237010018,446.3214451941124 M437.3270237010018,446.3214451941124 L428.98069744386066,446.9519804085757 M428.98069744386066,446.9519804085757 L420.5332000723399,447.42323913059715 M420.5332000723399,447.42323913059715 L412.0138698949295,447.73319889824637 M412.0138698949295,447.73319889824637 L403.45245741821446,447.8805317570662 M403.45245741821446,447.8805317570662 L394.8789425566078,447.86460377943564 M394.8789425566078,447.86460377943564 L386.32338731890155,447.68547917600216 M386.32338731890155,447.68547917600216 L377.815743862979,447.34393124088695 M377.815743862979,447.34393124088695 L369.3856886453111,446.8414259605959 M369.3856886453111,446.8414259605959 L361.0624654213703,446.1801170831997 M361.0624654213703,446.1801170831997 L352.87469038590535,445.36281647768806 M352.87469038590535,445.36281647768806 L344.8502181628278,444.3929854259313 M344.8502181628278,444.3929854259313 L337.0159820492161,443.27470513727934 M337.0159820492161,443.27470513727934 L329.39787573008215,442.01263278433964 M329.39787573008215,442.01263278433964 L322.02059034159373,440.6119805480273 M322.02059034159373,440.6119805480273 L314.90755168207147,439.07846534156926 M314.90755168207147,439.07846534156926 L308.08076018485025,437.41827129414014 M308.08076018485025,437.41827129414014 L301.5607385542708,435.6380096894183 M301.5607385542708,435.6380096894183 L295.36645564938425,433.74466438491385 M295.36645564938425,433.74466438491385 L289.515266109864,431.74554750422624 M289.515266109864,431.74554750422624 L284.022873686946,429.6482504455931 M284.022873686946,429.6482504455931 L278.90329006818484,427.46059862033974 M278.90329006818484,427.46059862033974 L274.16882156075917,425.1906044023521 M274.16882156075917,425.1906044023521 L269.8300761646848,422.8464163489963 M269.8300761646848,422.8464163489963 L265.89597132923564,420.43627626318454 M265.89597132923564,420.43627626318454 L262.37376496449684,417.968475075961 M262.37376496449684,417.968475075961 L259.2690666926856,415.45131004711726 M259.2690666926856,415.45131004711726 L256.5858899089173,412.8930576780478 M256.5858899089173,412.8930576780478 L254.32671965018693,410.3019180550313 M254.32671965018693,410.3019180550313 L252.49253804707115,407.6859982768195 M252.49253804707115,407.6859982768195 L251.08293005450008,405.0532707433277 M251.08293005450008,405.0532707433277 L250.09611959574545,402.4115519850697 M250.09611959574545,402.4115519850697 L249.5290385768438,399.76847480237063 M249.5290385768438,399.76847480237063 L249.37743572968824,397.1314743689998 M249.37743572968824,397.1314743689998 L249.63592545237753,394.50775997563863 M249.63592545237753,394.50775997563863 L250.2980825607181,391.90430346125675 M250.2980825607181,391.90430346125675 L251.35649471786783,389.3278283834961 M251.35649471786783,389.3278283834961 L252.8028698000614,386.78479432668274 M252.8028698000614,386.78479432668274 L254.6281066956055,384.28139672341945 M254.6281066956055,384.28139672341945 L256.82234209930783,381.8235575906094 M256.82234209930783,381.8235575906094 L259.3750647939773,379.41691663481487 M259.3750647939773,379.41691663481487 L262.275141315684,377.0668421730922 M453.6019045710399,444.5939350867472 L453.3686208571104,463.7405485960695 M262.80824866332483,394.35657052926 L259.9217553199207,396.77239533816754 M259.9217553199207,396.77239533816754 L257.38141456631126,399.24628498059315 M257.38141456631126,399.24628498059315 L255.19829582044116,401.77271541362745 M255.19829582044116,401.77271541362745 L253.3828465008768,404.3458842993873 M253.3828465008768,404.3458842993873 L251.94486659524281,406.9596998694994 M251.94486659524281,406.9596998694994 L250.89339501041962,409.6077901557477 M250.89339501041962,409.6077901557477 L250.23666317596155,412.28351259528716 M250.23666317596155,412.28351259528716 L249.9820247567845,414.97995429256144 M249.9820247567845,414.97995429256144 L250.1358489921036,417.689948219037 M250.1358489921036,417.689948219037 L250.70346877448097,420.4060844068313 M250.70346877448097,420.4060844068313 L251.68908660374322,423.12072189250716 M251.68908660374322,423.12072189250716 L253.09572630806136,425.82601779814485 M253.09572630806136,425.82601779814485 L254.9251250109353,428.51394164226804 M254.9251250109353,428.51394164226804 L257.17766479793175,431.17630398638795 M257.17766479793175,431.17630398638795 L259.85233712245224,433.80477819163195 M259.85233712245224,433.80477819163195 L262.9466379386747,436.39094326370395 M262.9466379386747,436.39094326370395 L266.4565427579652,438.926300851335 M266.4565427579652,438.926300851335 L270.37643949584645,441.4023323825216 M270.37643949584645,441.4023323825216 L274.69907702100505,443.81052682911036 M274.69907702100505,443.81052682911036 L279.41555433766774,446.1424245960142 M279.41555433766774,446.1424245960142 L284.5152900629145,448.3896627460871 M284.5152900629145,448.3896627460871 L289.9860150248373,450.5440189961801 M289.9860150248373,450.5440189961801 L295.8137655047928,452.59746375181135 M295.8137655047928,452.59746375181135 L301.98289672990916,454.54220829708936 M301.98289672990916,454.54220829708936 L308.476124047597,456.3707511350579 M308.476124047597,456.3707511350579 L315.2745595541519,458.0759281495931 M315.2745595541519,458.0759281495931 L322.3577722577923,459.65095794964094 M322.3577722577923,459.65095794964094 L329.703863852656,461.0894977605497 M329.703863852656,461.0894977605497 L337.2895207634305,462.3856844021194 M337.2895207634305,462.3856844021194 L345.0901733154988,463.534172656159 M345.0901733154988,463.534172656159 L353.08005802360873,464.5301867447011 M353.08005802360873,464.5301867447011 L361.2323795145174,465.3695417048784 M361.2323795145174,465.3695417048784 L369.5194279393443,466.0486884076966 M369.5194279393443,466.0486884076966 L377.91273761299817,466.56474372288955 M377.91273761299817,466.56474372288955 L386.38321996833133,466.91549936525786 M386.38321996833133,466.91549936525786 L394.9013570596946,467.0994522594622 M394.9013570596946,467.0994522594622 L403.43735733777226,467.115809551743 M403.43735733777226,467.115809551743 L411.96132021906345,466.96450541527054 M411.96132021906345,466.96450541527054 L420.4434266283368,466.64618980749015 M420.4434266283368,466.64618980749015 L428.8540851109049,466.1622242705132 M428.8540851109049,466.1622242705132 L437.1641132798217,465.5146824720507 M437.1641132798217,465.5146824720507 L445.3449199142194,464.70631599458517 M445.3449199142194,464.70631599458517 L453.3686208571104,463.7405485960695 M262.80824866332483,394.35657052926 L276.34435987060783,399.2851358563728 M275.85958874315156,381.8613530298454 L276.34435987060783,399.2851358563728 M262.275141315684,377.0668421730922 L275.85958874315156,381.8613530298454 M436.7289710152805,438.63878206706744 L453.6019045710399,444.5939350867472 M436.7289710152805,438.63878206706744 L429.15410649756217,439.29421524948424 M429.15410649756217,439.29421524948424 L421.4686596393923,439.79830481658473 M421.4686596393923,439.79830481658473 L413.7015887234645,440.14876461519253 M413.7015887234645,440.14876461519253 L405.88235062781325,440.3439868506303 M405.88235062781325,440.3439868506303 L398.0406819717484,440.3830766715747 M398.0406819717484,440.3830766715747 L390.2064924202749,440.26585348568904 M390.2064924202749,440.26585348568904 L382.4096339029048,439.99285655782734 M382.4096339029048,439.99285655782734 L374.67971944942326,439.56533710534416 M374.67971944942326,439.56533710534416 L367.0459814273553,438.9852458634192 M367.0459814273553,438.9852458634192 L359.53706640586626,438.25521849932636 M359.53706640586626,438.25521849932636 L352.18087860659335,437.3785590692888 M352.18087860659335,437.3785590692888 L345.0044350011625,436.35920310758485 M345.0044350011625,436.35920310758485 L338.033703781314,435.2016949549526 M338.033703781314,435.2016949549526 L331.2934759568956,433.91114343276644 M331.2934759568956,433.91114343276644 L324.80724070139564,432.4931904067371 M324.80724070139564,432.4931904067371 L318.59707602098666,430.9539605074555 M318.59707602098666,430.9539605074555 L312.6835710587288,429.3000166645112 M312.6835710587288,429.3000166645112 L307.0857128767456,427.538319359347 M307.0857128767456,427.538319359347 L301.8208611531757,425.6761685037675 M301.8208611531757,425.6761685037675 L296.9046826456175,423.7211575646684 M296.9046826456175,423.7211575646684 L292.35111498294714,421.6811258370809 M292.35111498294714,421.6811258370809 L288.17235485567227,419.56410787830185 M288.17235485567227,419.56410787830185 L284.37886561736127,417.3782791834777 M284.37886561736127,417.3782791834777 L280.97935891793406,415.1319217297102 M280.97935891793406,415.1319217297102 L277.9808375334561,412.8333672703271 M277.9808375334561,412.8333672703271 L275.38863003743865,410.4909598747165 M275.38863003743865,410.4909598747165 L273.20641435138066,408.11301487877415 M273.20641435138066,408.11301487877415 L271.4362920597641,405.7077806781347 M271.4362920597641,405.7077806781347 L270.0788253680037,403.28340592612 M270.0788253680037,403.28340592612 L269.1331276870355,400.84790331792146 M269.1331276870355,400.84790331792146 L268.5969075730812,398.40912478025905 M268.5969075730812,398.40912478025905 L268.46655649616497,395.9747389496955 M268.46655649616497,395.9747389496955 L268.7372328856895,393.5521986046268 M268.7372328856895,393.5521986046268 L269.4029335634029,391.14873245056646 M269.4029335634029,391.14873245056646 L270.45656517137866,388.77132823423557 M270.45656517137866,388.77132823423557 L271.8900379213496,386.42670399252586 M271.8900379213496,386.42670399252586 L273.69432351306034,384.12131924124895 M273.69432351306034,384.12131924124895 L275.85958874315156,381.8613530298454 M436.57068194632495,457.6243355999681 L453.3686208571104,463.7405485960695 M436.7289710152805,438.63878206706744 L436.57068194632495,457.6243355999681 M276.34435987060783,399.2851358563728 L274.1895861928411,401.6081733318101 M274.1895861928411,401.6081733318101 L272.3944821509365,403.97781941474483 M272.3944821509365,403.97781941474483 L270.9688202930089,406.38771851592884 M270.9688202930089,406.38771851592884 L269.92156964139156,408.8312275639716 M269.92156964139156,408.8312275639716 L269.26076284005836,411.301438642084 M269.26076284005836,411.301438642084 L268.9934386946853,413.7911675633049 M268.9934386946853,413.7911675633049 L269.1255490901277,416.2929834880613 M269.1255490901277,416.2929834880613 L269.6618881571587,418.7992263360423 M269.6618881571587,418.7992263360423 L270.6060214503185,421.30201527650553 M270.6060214503185,421.30201527650553 L271.96020260859007,423.79328223341 M271.96020260859007,423.79328223341 L273.72528631770797,426.2647950515845 M273.72528631770797,426.2647950515845 L275.90068493823526,428.70818300002816 M275.90068493823526,428.70818300002816 L278.4842786971754,431.11497397853447 M278.4842786971754,431.11497397853447 L281.4723792856123,433.4766281987955 M281.4723792856123,433.4766281987955 L284.8596562529195,435.78457740091284 M284.8596562529195,435.78457740091284 L288.6391139466772,438.03026697223936 M288.6391139466772,438.03026697223936 L292.80205735507496,440.2051943604405 M292.80205735507496,440.2051943604405 L297.3380498142812,442.30096724093374 M297.3380498142812,442.30096724093374 L302.23493160439193,444.3093388084844 M302.23493160439193,444.3093388084844 L307.4788126592183,446.2222634652541 M307.4788126592183,446.2222634652541 L313.0540845539752,448.03194863286484 M313.0540845539752,448.03194863286484 L318.9434567315416,449.73090363614807 M318.9434567315416,449.73090363614807 L325.128021871063,451.311986675657 M325.128021871063,451.311986675657 L331.5872811364983,452.76846437272 M331.5872811364983,452.76846437272 L338.299256887581,454.09405346380646 M338.299256887581,454.09405346380646 L345.2405699531894,455.2829663150119 M345.2405699531894,455.2829663150119 L352.38654833750627,456.3299624108926 M352.38654833750627,456.3299624108926 L359.7113511078865,457.2303804955631 M359.7113511078865,457.2303804955631 L367.18809595478035,457.9801839631659 M367.18809595478035,457.9801839631659 L374.7890196701687,458.57598402060233 M374.7890196701687,458.57598402060233 L382.48562202126675,459.01507749186266 M382.48562202126675,459.01507749186266 L390.24882117055665,459.2954637219765 M390.24882117055665,459.2954637219765 L398.0491574379937,459.4158594920561 M398.0491574379937,459.4158594920561 L405.8569339378179,459.3757117480155 M405.8569339378179,459.3757117480155 L413.64239643138455,459.17520570074885 M413.64239643138455,459.17520570074885 L421.3759625795303,458.81525908257476 M421.3759625795303,458.81525908257476 L429.02832765368686,458.29752082664436 M429.02832765368686,458.29752082664436 L436.57068194632495,457.6243355999681" stroke="black"  stroke-width="4"  fill="red"/>
<path d="M544.8734649706337,446.04069861187463 L546.615920486332,443.2778784943414 M546.615920486332,443.2778784943414 L547.9376467259485,440.49874431650045 M547.9376467259485,440.49874431650045 L548.8405932497005,437.71150638525194 M548.8405932497005,437.71150638525194 L549.3279783350916,434.92417256669586 M549.3279783350916,434.92417256669586 L549.4041777276649,432.14454054413716 M549.4041777276649,432.14454054413716 L549.0746895437208,429.3801725667266 M549.0746895437208,429.3801725667266 L548.3460279949581,426.6383756176495 M548.3460279949581,426.6383756176495 L547.2256462838054,423.92619648041824 M547.2256462838054,423.92619648041824 L545.7218875631197,421.25040546959144 M545.7218875631197,421.25040546959144 L543.8438863247453,418.61749067360154 M543.8438863247453,418.61749067360154 L541.6015143178325,416.03365625137235 M541.6015143178325,416.03365625137235 L539.0052788132937,413.50480929874254 M539.0052788132937,413.50480929874254 L536.0662916704978,411.0365658734166 M536.0662916704978,411.0365658734166 L532.7962002271,408.63424792532624 M532.7962002271,408.63424792532624 L529.2070997407116,406.3028908944141 M529.2070997407116,406.3028908944141 L525.3115111207579,404.04723650143046 M525.3115111207579,404.04723650143046 L521.1223057593925,401.87175225626567 M521.1223057593925,401.87175225626567 L516.6526648414425,399.78061928544975 M516.6526648414425,399.78061928544975 L511.91604849072405,397.7777490360559 M511.91604849072405,397.7777490360559 L506.9261350901987,395.8667885450396 M506.9261350901987,395.8667885450396 L501.69679236206673,394.0511269892729 M501.69679236206673,394.0511269892729 L496.2420427049973,392.33390504347193 M496.2420427049973,392.33390504347193 L490.5760404247644,390.718019129793 M490.5760404247644,390.718019129793 L484.7130477888925,389.20612972752133 M484.7130477888925,389.20612972752133 L478.6674029570689,387.80067137709517 M478.6674029570689,387.80067137709517 L472.4535063116775,386.50385945990536 M472.4535063116775,386.50385945990536 L466.08580279659975,385.3176999451911 M466.08580279659975,385.3176999451911 L459.57876368694167,384.24398996205804 M459.57876368694167,384.24398996205804 L452.9469061688343,383.2843279711758 M452.9469061688343,383.2843279711758 L446.20473566979325,382.4401234367689 M446.20473566979325,382.4401234367689 L439.36678128117876,381.7125941240759 M439.36678128117876,381.7125941240759 L432.44756310947804,381.1027823552379 M432.44756310947804,381.1027823552379 L425.46160440011545,380.6115503024257 M425.46160440011545,380.6115503024257 L418.42342082286575,380.23958228976716 M418.42342082286575,380.23958228976716 L411.3475402530644,379.9873981277157 M411.3475402530644,379.9873981277157 L404.2484765141212,379.85534635173417 M404.2484765141212,379.85534635173417 L397.14074087285786,379.8436110000318 M397.14074087285786,379.8436110000318 L390.03884878364175,379.9522050129795 M390.03884878364175,379.9522050129795 L382.9573063208021,380.1809787789559 M382.9573063208021,380.1809787789559 L375.91063229600235,380.52961866805725 M375.91063229600235,380.52961866805725 L368.913349422789,380.9976372124038 M368.913349422789,380.9976372124038 L361.9799685505824,381.58438353248755 M361.9799685505824,381.58438353248755 L355.1250243264879,382.28902862529156 M354.96017970601235,365.90056917215543 L355.1250243264879,382.28902862529156 M354.96017970601235,365.90056917215543 L361.8404851455038,365.2145787110598 M361.8404851455038,365.2145787110598 L368.7994245754126,364.6433707598335 M368.7994245754126,364.6433707598335 L375.82242563293175,364.187749639369 M375.82242563293175,364.187749639369 L382.8949405305195,363.8483467981371 M382.8949405305195,363.8483467981371 L390.00241010616725,363.6256351497906 M390.00241010616725,363.6256351497906 L397.1302794927335,363.5199189344781 M397.1302794927335,363.5199189344781 L404.26400682744827,363.5313432858286 M404.26400682744827,363.5313432858286 L411.3890408968606,363.65989566190285 M411.3890408968606,363.65989566190285 L418.4908345962027,363.9053975254501 M418.4908345962027,363.9053975254501 L425.5548380032402,364.2675107652652 M425.5548380032402,364.2675107652652 L432.56648668328205,364.7457310897775 M432.56648668328205,364.7457310897775 L439.51122788839365,365.3393945970603 M439.51122788839365,365.3393945970603 L446.37450054704306,366.0476647774566 M446.37450054704306,366.0476647774566 L453.14174586414015,366.8695302521382 M453.14174586414015,366.8695302521382 L459.79839500432877,367.80380933096353 M459.79839500432877,367.80380933096353 L466.32990170852503,368.8491341580487 M466.32990170852503,368.8491341580487 L472.7217065983451,370.00395330973384 M472.7217065983451,370.00395330973384 L478.95929491591727,371.2665223409461 M478.95929491591727,371.2665223409461 L485.02817673333846,372.6348938401716 M485.02817673333846,372.6348938401716 L490.9139051227882,374.10691682601424 M490.9139051227882,374.10691682601424 L496.6020937584695,375.6802272065744 M496.6020937584695,375.6802272065744 L502.0784305217803,377.3522411228522 M502.0784305217803,377.3522411228522 L507.32870958303965,379.1201451480939 M507.32870958303965,379.1201451480939 L512.3388553409418,380.9808881319727 M512.3388553409418,380.9808881319727 L517.0949451972863,382.93117699363734 M517.0949451972863,382.93117699363734 L521.5832442806765,384.96746753644743 M521.5832442806765,384.96746753644743 L525.7902344235953,387.0859579926024 M525.7902344235953,387.0859579926024 L529.7026750395374,389.28258381119196 M529.7026750395374,389.28258381119196 L533.3076340704678,391.55300130718354 M533.3076340704678,391.55300130718354 L536.5925288539117,393.8925994283837 M536.5925288539117,393.8925994283837 L539.5452015979398,396.2964806680473 M539.5452015979398,396.2964806680473 L542.1539417995585,398.7594679950525 M542.1539417995585,398.7594679950525 L544.4075742187578,401.27609736313303 M544.4075742187578,401.27609736313303 L546.2955283721899,403.84062060954005 M546.2955283721899,403.84062060954005 L547.8078697196278,406.44699949668563 M547.8078697196278,406.44699949668563 L548.9354019784123,409.0889184170415 M548.9354019784123,409.0889184170415 L549.6697216162604,411.75978596894413 M549.6697216162604,411.75978596894413 L550.0033170842221,414.45274048563385 M550.0033170842221,414.45274048563385 L549.9296183215232,417.1606658112822 M549.9296183215232,417.1606658112822 L549.4430744522624,419.87619604235834 M549.4430744522624,419.87619604235834 L548.5392608131383,422.5917347916823 M548.5392608131383,422.5917347916823 L547.2149145452646,425.29947974461646 M547.2149145452646,425.29947974461646 L545.4680466495333,427.9914301684288 M545.4680466495333,427.9914301684288 L544.8734649706337,446.04069861187463 M368.68829432665336,386.846015286442 L355.1250243264879,382.28902862529156 M544.8734649706337,446.04069861187463 L528.24984813115,440.4554967986925 M528.24984813115,440.4554967986925 L529.3963956039297,437.8914951507675 M529.3963956039297,437.8914951507675 L530.1355288781533,435.3197417916098 M530.1355288781533,435.3197417916098 L530.4701511407412,432.7484238752668 M530.4701511407412,432.7484238752668 L530.4043949385434,430.1855248648156 M530.4043949385434,430.1855248648156 L529.9435964045035,427.63878789403265 M529.9435964045035,427.63878789403265 L529.094206203304,425.11572056726044 M529.094206203304,425.11572056726044 L527.8637175254859,422.6235626004039 M527.8637175254859,422.6235626004039 L526.2605793017173,420.1692726543748 M526.2605793017173,420.1692726543748 L524.2941168945227,417.7595293361092 M524.2941168945227,417.7595293361092 L521.9744590575232,415.40071307794585 M521.9744590575232,415.40071307794585 L519.3124791326824,413.0989038621992 M519.3124791326824,413.0989038621992 L516.3197014521378,410.85988157319326 M516.3197014521378,410.85988157319326 L513.0082567208582,408.6891203028904 M513.0082567208582,408.6891203028904 L509.3907991098814,406.59179060397844 M509.3907991098814,406.59179060397844 L505.48046805702216,404.5727608353076 M505.48046805702216,404.5727608353076 L501.29081509666736,402.63659972733217 M501.29081509666736,402.63659972733217 L496.8357564879868,400.7875853348755 M496.8357564879868,400.7875853348755 L492.1295414578032,399.02969988260344 M492.1295414578032,399.02969988260344 L487.1866882042356,397.36664644417664 M487.1866882042356,397.36664644417664 L482.0219532732801,395.80184989539697 M482.0219532732801,395.80184989539697 L476.65030144546296,394.3384624883887 M476.65030144546296,394.3384624883887 L471.0868715657568,392.97937234936956 M471.0868715657568,392.97937234936956 L465.3469338474906,391.7272133092393 M465.3469338474906,391.7272133092393 L459.4458962328174,390.5843640964682 M459.4458962328174,390.5843640964682 L453.39925426074734,389.55296050658825 M453.39925426074734,389.55296050658825 L447.22258650442996,388.6349025010503 M447.22258650442996,388.6349025010503 L440.93153660980596,387.8318543106698 M440.93153660980596,387.8318543106698 L434.5417990960426,387.1452565132179 M434.5417990960426,387.1452565132179 L428.06911268695654,386.5763243935165 M428.06911268695654,386.5763243935165 L421.52923932527875,386.1260593255107 M421.52923932527875,386.1260593255107 L414.9379656905245,385.79524463927754 M414.9379656905245,385.79524463927754 L408.311104834941,385.58445262057876 M408.311104834941,385.58445262057876 L401.6644626173961,385.4940479407509 M401.6644626173961,385.4940479407509 L395.01386247505883,385.5241875202798 M395.01386247505883,385.5241875202798 L388.37513965887405,385.67481852099064 M388.37513965887405,385.67481852099064 L381.7640939192282,385.94568129981275 M381.7640939192282,385.94568129981275 L375.1965461464745,386.33630361466265 M375.1965461464745,386.33630361466265 L368.68829432665336,386.846015286442 M528.7713600232074,422.5495989986909 L528.24984813115,440.4554967986925 M545.4680466495333,427.9914301684288 L528.7713600232074,422.5495989986909 M368.5723074653667,370.3370722212403 L375.10475179531284,369.84082345794843 M375.10475179531284,369.84082345794843 L381.6966518050309,369.4605208740327 M381.6966518050309,369.4605208740327 L388.33216644815855,369.196815109989 M388.33216644815855,369.196815109989 L394.9954321672968,369.05016465251344 M394.9954321672968,369.05016465251344 L401.67060692996614,369.02082157089893 M401.67060692996614,369.02082157089893 L408.34181320340497,369.10883716421984 M408.34181320340497,369.10883716421984 L414.9931852684141,369.31405908685565 M414.9931852684141,369.31405908685565 L421.6088748300141,369.6361332995437 M421.6088748300141,369.6361332995437 L428.1730259802476,370.07450419360305 M428.1730259802476,370.07450419360305 L434.6698087155632,370.62841123815514 M434.6698087155632,370.62841123815514 L441.08341712300387,371.29688214691953 M441.08341712300387,371.29688214691953 L447.3980676902553,372.07873687855556 M447.3980676902553,372.07873687855556 L453.59802020292113,372.9725765265614 M453.59802020292113,372.9725765265614 L459.66758427976356,373.97678488230036 M459.66758427976356,373.97678488230036 L465.59113346811137,375.0895166373018 M465.59113346811137,375.0895166373018 L471.3531231260554,376.3086972386876 M471.3531231260554,376.3086972386876 L476.9380948614705,377.63201592860514 M476.9380948614705,377.63201592860514 L482.33072671719503,379.0569138411305 M482.33072671719503,379.0569138411305 L487.5158266692378,380.5805847290751 M487.5158266692378,380.5805847290751 L492.4783753724505,382.19996532820375 M492.4783753724505,382.19996532820375 L497.2035603626425,383.9117270140785 M497.2035603626425,383.9117270140785 L501.67680620376416,385.7122703009603 M501.67680620376416,385.7122703009603 L505.88380516738385,387.5977238365078 M505.88380516738385,387.5977238365078 L509.81058142062744,389.56392807851046 M509.81058142062744,389.56392807851046 L513.4435228881024,391.6064402296236 M513.4435228881024,391.6064402296236 L516.7694288006196,393.720525431557 M516.7694288006196,393.720525431557 L519.7755831708473,395.9011541769556 M519.7755831708473,395.9011541769556 L522.4497931904415,398.14300090802067 M522.4497931904415,398.14300090802067 L524.7804725343784,400.44044173048593 M524.7804725343784,400.44044173048593 L526.7566862626494,402.78755986859755 M526.7566862626494,402.78755986859755 L528.3682449187473,405.17814523281606 M528.3682449187473,405.17814523281606 L529.6057637295772,407.6056965489114 M529.6057637295772,407.6056965489114 L530.4607361431014,410.06343892566946 M530.4607361431014,410.06343892566946 L530.9256136721727,412.5443228026021 M530.9256136721727,412.5443228026021 L530.9938932878568,415.0410367042973 M530.9938932878568,415.0410367042973 L530.6601900194685,417.5460387010509 M530.6601900194685,417.5460387010509 L529.9203266647422,420.0515516804532 M529.9203266647422,420.0515516804532 L528.7713600232074,422.5495989986909 M368.5723074653667,370.3370722212403 L354.96017970601235,365.90056917215543 M368.5723074653667,370.3370722212403 L368.68829432665336,386.846015286442" stroke="black"  stroke-width="4"  fill="red"/>
<path d="M262.80824866332483,394.35657052926 L263.3372448521892,411.51296585449234 M453.3686208571104,463.7405485960695 L445.3449199142194,464.70631599458517 M445.3449199142194,464.70631599458517 L437.1641132798217,465.5146824720507 M437.1641132798217,465.5146824720507 L428.8540851109049,466.1622242705132 M428.8540851109049,466.1622242705132 L420.4434266283368,466.64618980749015 M420.4434266283368,466.64618980749015 L411.96132021906345,466.96450541527054 M411.96132021906345,466.96450541527054 L403.43735733777226,467.115809551743 M403.43735733777226,467.115809551743 L394.9013570596946,467.0994522594622 M394.9013570596946,467.0994522594622 L386.38321996833133,466.91549936525786 M386.38321996833133,466.91549936525786 L377.91273761299817,466.56474372288955 M377.91273761299817,466.56474372288955 L369.5194279393443,466.0486884076966 M369.5194279393443,466.0486884076966 L361.2323795145174,465.3695417048784 M361.2323795145174,465.3695417048784 L353.08005802360873,464.5301867447011 M353.08005802360873,464.5301867447011 L345.0901733154988,463.534172656159 M345.0901733154988,463.534172656159 L337.2895207634305,462.3856844021194 M337.2895207634305,462.3856844021194 L329.703863852656,461.0894977605497 M329.703863852656,461.0894977605497 L322.3577722577923,459.65095794964094 M322.3577722577923,459.65095794964094 L315.2745595541519,458.0759281495931 M315.2745595541519,458.0759281495931 L308.476124047597,456.3707511350579 M308.476124047597,456.3707511350579 L301.98289672990916,454.54220829708936 M301.98289672990916,454.54220829708936 L295.8137655047928,452.59746375181135 M295.8137655047928,452.59746375181135 L289.9860150248373,450.5440189961801 M289.9860150248373,450.5440189961801 L284.5152900629145,448.3896627460871 M284.5152900629145,448.3896627460871 L279.41555433766774,446.1424245960142 M279.41555433766774,446.1424245960142 L274.69907702100505,443.81052682911036 M274.69907702100505,443.81052682911036 L270.37643949584645,441.4023323825216 M270.37643949584645,441.4023323825216 L266.4565427579652,438.926300851335 M266.4565427579652,438.926300851335 L262.9466379386747,436.39094326370395 M262.9466379386747,436.39094326370395 L259.85233712245224,433.80477819163195 M259.85233712245224,433.80477819163195 L257.17766479793175,431.17630398638795 M257.17766479793175,431.17630398638795 L254.9251250109353,428.51394164226804 M254.9251250109353,428.51394164226804 L253.09572630806136,425.82601779814485 M253.09572630806136,425.82601779814485 L251.68908660374322,423.12072189250716 M251.68908660374322,423.12072189250716 L250.70346877448097,420.4060844068313 M250.70346877448097,420.4060844068313 L250.1358489921036,417.689948219037 M250.1358489921036,417.689948219037 L249.9820247567845,414.97995429256144 M249.9820247567845,414.97995429256144 L250.23666317596155,412.28351259528716 M250.23666317596155,412.28351259528716 L250.89339501041962,409.6077901557477 M250.89339501041962,409.6077901557477 L251.94486659524281,406.9596998694994 M251.94486659524281,406.9596998694994 L253.3828465008768,404.3458842993873 M253.3828465008768,404.3458842993873 L255.19829582044116,401.77271541362745 M255.19829582044116,401.77271541362745 L257.38141456631126,399.24628498059315 M257.38141456631126,399.24628498059315 L259.9217553199207,396.77239533816754 M259.9217553199207,396.77239533816754 L262.80824866332483,394.35657052926 M453.3686208571104,463.7405485960695 L453.13735897596104,482.7212214566914 M263.3372448521892,411.51296585449234 L260.4642117483324,413.99345651267686 M260.4642117483324,413.99345651267686 L257.93613799020727,416.5334804012205 M257.93613799020727,416.5334804012205 L255.76402958676337,419.12735998599527 M255.76402958676337,419.12735998599527 L253.9582708130821,421.7691326900729 M253.9582708130821,421.7691326900729 L252.52859901032372,424.45253955252565 M252.52859901032372,424.45253955252565 L251.48399156188842,427.1710347947293 M251.48399156188842,427.1710347947293 L250.83261989046443,429.9177957660197 M250.83261989046443,429.9177957660197 L250.58177967705794,432.6857232923247 M250.58177967705794,432.6857232923247 L250.7377848972479,435.46745837921253 M250.7377848972479,435.46745837921253 L251.3059164028375,438.2553937669706 M251.3059164028375,438.2553937669706 L252.29032857318649,441.0416862462142 M252.29032857318649,441.0416862462142 L253.69400159039665,443.8182865516395 M253.69400159039665,443.8182865516395 L255.51863420684447,446.57695408189915 M255.51863420684447,446.57695408189915 L257.7645760841662,449.30928631897723 M257.7645760841662,449.30928631897723 L260.4307927407499,452.0067411604908 M260.4307927407499,452.0067411604908 L263.5147615373942,454.66068087724096 M263.5147615373942,454.66068087724096 L267.0124472337995,457.2623895280824 M267.0124472337995,457.2623895280824 L270.9182355413224,459.8031315462773 M270.9182355413224,459.8031315462773 L275.22488227266894,462.27418016522813 M275.22488227266894,462.27418016522813 L279.92350295027535,464.6668623728279 M279.92350295027535,464.6668623728279 L285.0035427644711,466.9726052176971 M285.0035427644711,466.9726052176971 L290.4527695195642,469.1829808371523 M290.4527695195642,469.1829808371523 L296.2572671855036,471.2897597167355 M296.2572671855036,471.2897597167355 L302.4014495617622,473.2849599900739 M302.4014495617622,473.2849599900739 L308.8681014486947,475.1608948289878 M308.8681014486947,475.1608948289878 L315.6384152341605,476.9102237445878 M315.6384152341605,476.9102237445878 L322.6920508461229,478.52599893885247 M322.6920508461229,478.52599893885247 L330.00721118673994,480.0017224721968 M330.00721118673994,480.0017224721968 L337.5606938606361,481.33138813097594 M337.5606938606361,481.33138813097594 L345.3280494964805,482.5095206205486 M345.3280494964805,482.5095206205486 L353.28364354139603,483.5312282138798 M353.28364354139603,483.5312282138798 L361.40081718084303,484.3922245297258 M361.40081718084303,484.3922245297258 L369.6520038888702,485.0888745782978 M369.6520038888702,485.0888745782978 L378.00888696456923,485.6182255858853 M378.00888696456923,485.6182255858853 L386.4425314439358,485.9780159711214 M386.4425314439358,485.9780159711214 L394.9235762639472,486.1667064158396 M394.9235762639472,486.1667064158396 L403.42238882858413,486.1834849530643 M403.42238882858413,486.1834849530643 L411.9092283139276,486.02828417719047 M411.9092283139276,486.02828417719047 L420.3544348255685,485.701769709324 M420.3544348255685,485.701769709324 L428.72857432566667,485.2053359125073 M428.72857432566667,485.2053359125073 L437.0026187541103,484.5411064946438 M437.0026187541103,484.5411064946438 L445.1481268307418,483.7118994881375 M445.1481268307418,483.7118994881375 L453.13735897596104,482.7212214566914 M263.3372448521892,411.51296585449234 L276.8253596881452,416.5733691807213 M276.34435987060783,399.2851358563728 L276.8253596881452,416.5733691807213 M262.80824866332483,394.35657052926 L276.34435987060783,399.2851358563728 M436.57068194632495,457.6243355999681 L453.3686208571104,463.7405485960695 M436.57068194632495,457.6243355999681 L429.02832765368686,458.29752082664436 M429.02832765368686,458.29752082664436 L421.3759625795303,458.81525908257476 M421.3759625795303,458.81525908257476 L413.64239643138455,459.17520570074885 M413.64239643138455,459.17520570074885 L405.8569339378179,459.3757117480155 M405.8569339378179,459.3757117480155 L398.0491574379937,459.4158594920561 M398.0491574379937,459.4158594920561 L390.24882117055665,459.2954637219765 M390.24882117055665,459.2954637219765 L382.48562202126675,459.01507749186266 M382.48562202126675,459.01507749186266 L374.7890196701687,458.57598402060233 M374.7890196701687,458.57598402060233 L367.18809595478035,457.9801839631659 M367.18809595478035,457.9801839631659 L359.7113511078865,457.2303804955631 M359.7113511078865,457.2303804955631 L352.38654833750627,456.3299624108926 M352.38654833750627,456.3299624108926 L345.2405699531894,455.2829663150119 M345.2405699531894,455.2829663150119 L338.299256887581,454.09405346380646 M338.299256887581,454.09405346380646 L331.5872811364983,452.76846437272 M331.5872811364983,452.76846437272 L325.128021871063,451.311986675657 M325.128021871063,451.311986675657 L318.9434567315416,449.73090363614807 M318.9434567315416,449.73090363614807 L313.0540845539752,448.03194863286484 M313.0540845539752,448.03194863286484 L307.4788126592183,446.2222634652541 M307.4788126592183,446.2222634652541 L302.23493160439165,444.30933880848437 M302.23493160439165,444.30933880848437 L297.3380498142812,442.30096724093374 M297.3380498142812,442.30096724093374 L292.80205735507496,440.2051943604405 M292.80205735507496,440.2051943604405 L288.6391139466772,438.03026697223936 M288.6391139466772,438.03026697223936 L284.8596562529195,435.78457740091284 M284.8596562529195,435.78457740091284 L281.4723792856123,433.4766281987955 M281.4723792856123,433.4766281987955 L278.4842786971754,431.11497397853447 M278.4842786971754,431.11497397853447 L275.90068493823526,428.70818300002816 M275.90068493823526,428.70818300002816 L273.72528631770797,426.2647950515845 M273.72528631770797,426.2647950515845 L271.96020260859007,423.79328223341 M271.96020260859007,423.79328223341 L270.6060214503185,421.30201527650553 M270.6060214503185,421.30201527650553 L269.6618881571587,418.7992263360423 M269.6618881571587,418.7992263360423 L269.1255490901277,416.2929834880613 M269.1255490901277,416.2929834880613 L268.9934386946853,413.7911675633049 M268.9934386946853,413.7911675633049 L269.26076284005836,411.301438642084 M269.26076284005836,411.301438642084 L269.92156964139156,408.8312275639716 M269.92156964139156,408.8312275639716 L270.9688202930089,406.38771851592884 M270.9688202930089,406.38771851592884 L272.3944821509365,403.97781941474483 M272.3944821509365,403.97781941474483 L274.1895861928411,401.6081733318101 M274.1895861928411,401.6081733318101 L276.34435987060783,399.2851358563728 M436.41375142191725,476.4469421876987 L453.13735897596104,482.7212214566914 M436.57068194632495,457.6243355999681 L436.41375142191725,476.4469421876987 M276.8253596881452,416.5733691807213 L274.68098009854964,418.9584278147855 M274.68098009854964,418.9584278147855 L272.8949694228243,421.3912605070307 M272.8949694228243,421.3912605070307 L271.4770401871097,423.86533782192987 M271.4770401871097,423.86533782192987 L270.43610277573896,426.3738359938879 M270.43610277573896,426.3738359938879 L269.7801333277372,428.9096602486143 M269.7801333277372,428.9096602486143 L269.5161167303286,431.4654331507384 M269.5161167303286,431.4654331507384 L269.6499541959902,434.03352507717176 M269.6499541959902,434.03352507717176 L270.1863930170022,436.60607214928916 M270.1863930170022,436.60607214928916 L271.128956346827,439.17498499680113 M271.128956346827,439.17498499680113 L272.4798605584949,441.7319831858456 M272.4798605584949,441.7319831858456 L274.23992892877703,444.2686190195848 M274.23992892877703,444.2686190195848 L276.40854882619277,446.7763037226643 M276.40854882619277,446.7763037226643 L278.98358266892257,449.2463456206373 M278.98358266892257,449.2463456206373 L281.96133206979846,451.66998468298857 M281.96133206979846,451.66998468298857 L285.33646493008223,454.0384327288744 M285.33646493008223,454.0384327288744 L289.1019928619513,456.3429165925745 M289.1019928619513,456.3429165925745 L293.24923753660084,458.5747174677655 M293.24923753660084,458.5747174677655 L297.76778892057536,460.72523050483517 M297.76778892057536,460.72523050483517 L302.64552409568165,462.78600091652146 M302.64552409568165,462.78600091652146 L307.8686002742236,464.7487809975818 M307.8686002742236,464.7487809975818 L313.421466960491,466.605583152295 M313.421466960491,466.605583152295 L319.28690219270396,468.3487299051784 M319.28690219270396,468.3487299051784 L325.44607774340295,469.97090194148615 M325.44607774340295,469.97090194148615 L331.87858431283337,471.46519904024746 M331.87858431283337,471.46519904024746 L338.5625437369835,472.8251826887764 M338.5625437369835,472.8251826887764 L345.4746858424399,474.04492261688097 M345.4746858424399,474.04492261688097 L352.5904565340944,475.11904946345726 M352.5904565340944,475.11904946345726 L359.8841409247648,476.04278760047373 M359.8841409247648,476.04278760047373 L367.3289900626897,476.81200156018895 M367.3289900626897,476.81200156018895 L374.89738037069515,477.4232196725279 M374.89738037069515,477.4232196725279 L382.56095650365023,477.87367273992913 M382.56095650365023,477.87367273992913 L390.29078565331025,478.1613112901855 M390.29078565331025,478.1613112901855 L398.05755995307766,478.2848208107634 M398.05755995307766,478.2848208107634 L405.8317360036985,478.24363476356365 M405.8317360036985,478.24363476356365 L413.5837134310653,478.03794287585697 M413.5837134310653,478.03794287585697 L421.28406262804435,477.6686852544403 M421.28406262804435,477.6686852544403 L428.903629494624,477.1375510620173 M428.903629494624,477.1375510620173 L436.41375142191725,476.4469421876987" stroke="black"  stroke-width="4"  fill="red"/></svg>