<svg viewBox="0 0 800 800" xmlns="http://www.w3.org/2000/svg"><path d="M541.7929895476065,342.7130410962316 L533.7018199094882,340.43666390881333 M533.7018199094882,340.43666390881333 L525.3103221446252,338.3028466001852 M525.3103221446252,338.3028466001852 L516.6399276591501,336.3151395942038 M516.6399276591501,336.3151395942038 L507.71213796873764,334.4767877154667 M507.71213796873764,334.4767877154667 L498.5485093286682,332.7907308700453 M498.5485093286682,332.7907308700453 L489.1706899166429,331.25960812682075 M489.1706899166429,331.25960812682075 L479.6003724219628,329.88575985095287 M479.6003724219628,329.88575985095287 L469.8592108570143,328.6712775072937 M469.8592108570143,328.6712775072937 L459.9689285772736,327.61795631015974 M459.9689285772736,327.61795631015974 L449.9512232217735,326.72735239459297 M449.9512232217735,326.72735239459297 L439.8278005393907,326.0007464613037 M439.8278005393907,326.0007464613037 L429.6203520714755,325.4391939798534 M429.6203520714755,325.4391939798534 L419.35057785943997,325.043487950973 M419.35057785943997,325.043487950973 L409.0401494118769,324.8141941820777 M409.0401494118769,324.8141941820777 L398.7107604784343,324.75163436575883 M398.7107604784343,324.75163436575883 L388.38406938214774,324.85589617953593 M388.38406938214774,324.85589617953593 L378.08177436709127,325.1268319269563 M378.08177436709127,325.1268319269563 L367.825548508947,325.5640615509627 M367.825548508947,325.5640615509627 L357.6370703241608,326.16696194074024 M357.6370703241608,326.16696194074024 L347.5380451482179,326.93467419953123 M347.5380451482179,326.93467419953123 L337.55016629426336,327.8660904501375 M337.55016629426336,327.8660904501375 L327.69512472575815,328.95985416928704 M327.69512472575815,328.95985416928704 L317.99464847836003,330.2143617684693 M317.99464847836003,330.2143617684693 L308.47040832143904,331.62772993814065 M308.47040832143904,331.62772993814065 L299.1441101028115,333.1978191741353 M299.1441101028115,333.1978191741353 L290.03742151872484,334.9222101987411 M290.03742151872484,334.9222101987411 L281.17195449248777,336.7981868283858 M281.17195449248777,336.7981868283858 L272.5692680586156,338.8227358366006 M272.5692680586156,338.8227358366006 L264.2508527331543,340.9925399954922 M264.2508527331543,340.9925399954922 L256.23808345834334,343.3039590641887 M256.23808345834334,343.3039590641887 L248.55220543782372,345.7530242374576 M248.55220543782372,345.7530242374576 L241.2142541249527,348.33541272029794 M241.2142541249527,348.33541272029794 L234.24506378589373,351.0464554716972 M234.24506378589373,351.0464554716972 L227.66521849293102,353.88112308766773 M227.66521849293102,353.88112308766773 L221.49493144078073,356.8339931254042 M221.49493144078073,356.8339931254042 L215.75405906628907,359.8992652138868 M215.75405906628907,359.8992652138868 L210.46199740372484,363.07074496042344 M210.46199740372484,363.07074496042344 L205.63761764888645,366.341831737747 M205.63761764888645,366.341831737747 L201.29919276586054,369.70551146438277 M201.29919276586054,369.70551146438277 L197.46430338005842,373.154353658184 M197.46430338005842,373.154353658184 L194.1497101926794,376.68050745990143 M194.1497101926794,376.68050745990143 L191.3713368857017,380.27570596820436 M191.3713368857017,380.27570596820436 L189.14410168493265,383.9312585350481 M189.14410168493265,383.9312585350481 L187.4818459933177,387.6380610971213 M187.4818459933177,387.6380610971213 L186.39717609174687,391.3866044063815 M186.39717609174687,391.3866044063815 L185.9014265438064,395.1669801788728 M185.9014265438064,395.1669801788728 L186.00444562239397,398.9688988653273 M186.00444562239397,398.9688988653273 L186.71456650255925,402.7817171520763 M186.71456650255925,402.7817171520763 L188.03841166485566,406.5944395370041 M188.03841166485566,406.5944395370041 L189.98082656683488,410.39577408029265 M189.98082656683488,410.39577408029265 L192.54475871913394,414.1741305307145 M192.54475871913394,414.1741305307145 L195.73109991629852,417.91769631132075 M195.73109991629852,417.91769631132075 L199.53865449162168,421.6144342936531 M199.53865449162168,421.6144342936531 L203.96395579853726,425.2521711939858 M203.96395579853726,425.2521711939858 L209.00123243061307,428.8186270621009 M209.00123243061307,428.8186270621009 L214.64233342737805,432.30145618334535 M214.64233342737805,432.30145618334535 L220.87663327117616,435.6883335080627 M220.87663327117616,435.6883335080627 L227.6909803153411,438.9670074412454 M227.6909803153411,438.9670074412454 L235.0696921757355,442.12535682922936 M235.0696921757355,442.12535682922936 L242.99449369861702,445.15147675160586 M242.99449369861702,445.15147675160586 L251.44455802032215,448.03373596547493 M251.44455802032215,448.03373596547493 L260.39652978014885,450.76084973108294 M260.39652978014885,450.76084973108294 L269.8245275264565,453.3219664719367 M269.8245275264565,453.3219664719367 L279.7002608476564,455.7067263379427 M279.7002608476564,455.7067263379427 L289.99309163689276,457.90534427181274 M289.99309163689276,457.90534427181274 L300.6701158522871,459.9086799834277 M300.6701158522871,459.9086799834277 L311.6963807289848,461.70829750932097 M311.6963807289848,461.70829750932097 L323.03500017183524,463.29652970130974 M323.03500017183524,463.29652970130974 L334.6472647403068,464.66655750565207 M334.6472647403068,464.66655750565207 L346.492971483272,465.81243592594325 M346.492971483272,465.81243592594325 L358.5305011022564,466.7291666374402 M358.5305011022564,466.7291666374402 L370.7171721439345,467.4127253225004 M370.7171721439345,467.4127253225004 L383.0093766011771,467.86008948149436 M383.0093766011771,467.86008948149436 L395.36292279843246,468.06928744211194 M395.36292279843246,468.06928744211194 L407.7332276407164,468.03938243919464 M407.7332276407164,468.03938243919464 L420.07560883567993,467.7705176576417 M420.07560883567993,467.7705176576417 L432.3455609018819,467.26387649865376 M432.3455609018819,467.26387649865376 L444.4990031375499,466.5217037420723 M444.4990031375499,466.5217037420723 L456.49253997886103,465.5472680054027 M456.49253997886103,465.5472680054027 L468.2837326455578,464.344849865506 M468.2837326455578,464.344849865506 L479.83130509622,462.91967869856984 M479.83130509622,462.91967869856984 L491.09539032552095,461.2779233374954 M491.09539032552095,461.2779233374954 L502.0377370327801,459.4266277407636 M502.0377370327801,459.4266277407636 L512.6219090357677,457.37365207796154 M512.6219090357677,457.37365207796154 L522.8134564460175,455.12761425802375 M522.8134564460175,455.12761425802375 L532.5800530438166,452.697827859773 M532.5800530438166,452.697827859773 L541.8915983693119,450.0942178693601 M541.8915983693119,450.0942178693601 L550.7204200569481,447.32728225089045 M550.7204200569481,447.32728225089045 L559.0412750840757,444.4079900374343 M559.0412750840757,444.4079900374343 L566.8313994152003,441.3477076460744 M566.8313994152003,441.3477076460744 L574.0706205524322,438.1581478407162 M574.0706205524322,438.1581478407162 L580.7413213024454,434.85127888982237 M580.7413213024454,434.85127888982237 L586.8284594559102,431.4392615471244 M586.8284594559102,431.4392615471244 L592.3195151156311,427.9343723693258 M592.3195151156311,427.9343723693258 L597.2044652736948,424.34894163342796 M597.2044652736948,424.34894163342796 L601.4757670505295,420.6953003685662 M601.4757670505295,420.6953003685662 L605.1282599168908,416.9857205100523 M605.1282599168908,416.9857205100523 L608.1590235197209,413.2323366371633 M608.1590235197209,413.2323366371633 L610.5674097290697,409.4471368143779 M610.5674097290697,409.4471368143779 L612.3548390991565,405.6418824990914 M612.3548390991565,405.6418824990914 L613.5247248283614,401.8280853074405 M613.5247248283614,401.8280853074405 L614.0823799517315,398.01697564514336 M614.0823799517315,398.01697564514336 L614.0348632161482,394.2194570950351 M614.0348632161482,394.2194570950351 L613.3908987538786,390.4460878928819 M613.3908987538786,390.4460878928819 L612.1607272353633,386.7070691644337 M612.1607272353633,386.7070691644337 L610.3559935943772,383.0122025860237 M610.3559935943772,383.0122025860237 L607.98963060893,379.37090294265386 M607.98963060893,379.37090294265386 L605.0757686139212,375.7921662680146 M605.0757686139212,375.7921662680146 L601.6295608421917,372.2845808462207 M601.6295608421917,372.2845808462207 L597.6671832356661,368.85630963653415 M597.6671832356661,368.85630963653415 L593.2055895158883,365.5150985857201 M593.2055895158883,365.5150985857201 L588.2625664755792,362.2682703436197 M588.2625664755792,362.2682703436197 L582.856499455709,359.122742406384 M582.856499455709,359.122742406384 L577.0064485383579,356.08500171368695 M577.0064485383579,356.08500171368695 L570.7318920217934,353.16115366169885 M570.7318920217934,353.16115366169885 L564.0527852710411,350.3569057499677 M564.0527852710411,350.3569057499677 L556.9894662453249,347.67756805210036 M556.9894662453249,347.67756805210036 L549.5625792511589,345.1280831975787 M549.5625792511589,345.1280831975787 L541.7929895476065,342.7130410962316 M541.7929895476065,342.7130410962316 L542.3282734699358,318.6477240566828 M542.3282734699358,318.6477240566828 L550.1290352215956,320.99346452148404 M550.1290352215956,320.99346452148404 L557.5860908999717,323.46985220390627 M557.5860908999717,323.46985220390627 L564.6784937488641,326.0724387573828 M564.6784937488641,326.0724387573828 L571.3855152721208,328.7964332316388 M571.3855152721208,328.7964332316388 L577.6867308548494,331.63668766041667 M577.6867308548494,331.63668766041667 L583.5620962157042,334.587667820804 M583.5620962157042,334.587667820804 L588.9920422115505,337.6434526530731 M588.9920422115505,337.6434526530731 L593.9574157763193,340.7977500217742 M593.9574157763193,340.7977500217742 L598.4397374280925,344.04384897118825 M598.4397374280925,344.04384897118825 L602.421124879168,347.37464427065794 M602.421124879168,347.37464427065794 L605.8845285700997,350.7826186540606 M605.8845285700997,350.7826186540606 L608.8136763238014,354.2598487910196 M608.8136763238014,354.2598487910196 L611.1933194295289,357.79799707718786 M611.1933194295289,357.79799707718786 L613.0092330973413,361.3883285809113 M613.0092330973413,361.3883285809113 L614.2483920891965,365.0217002273835 M614.2483920891965,365.0217002273835 L614.8990617389871,368.68859163847713 M614.8990617389871,368.68859163847713 L614.9509152069828,372.3790928189713 M614.9509152069828,372.3790928189713 L614.3951466786544,376.08294520134524 M614.3951466786544,376.08294520134524 L613.2246212951321,379.789552991716 M613.2246212951321,379.789552991716 L611.433956331754,383.48800110067117 M611.433956331754,383.48800110067117 L609.0196765404347,387.16709941970555 M609.0196765404347,387.16709941970555 L605.980307938113,390.81541327617765 M605.980307938113,390.81541327617765 L602.3164547698727,394.42128600169553 M602.3164547698727,394.42128600169553 L598.0310045756829,397.97291679230756 M598.0310045756829,397.97291679230756 L593.1290966222068,401.45836964481873 M593.1290966222068,401.45836964481873 L587.6182653453153,404.86564949110175 M587.6182653453153,404.86564949110175 L581.5085391782508,408.1827604603688 M581.5085391782508,408.1827604603688 L574.8124579861556,411.3977574821639 M574.8124579861556,411.3977574821639 L567.5450991654842,414.498806776127 M567.5450991654842,414.498806776127 L559.7241310692276,417.4742605621893 M559.7241310692276,417.4742605621893 L551.3697936960472,420.31271851164723 M551.3697936960472,420.31271851164723 L542.5049354785862,423.00311627257946 M542.5049354785862,423.00311627257946 L533.1549005299968,425.5347753116748 M533.1549005299968,425.5347753116748 L523.3474789896438,427.89747479074214 M523.3474789896438,427.89747479074214 L513.1129058905119,430.08155090065225 M513.1129058905119,430.08155090065225 L502.4836579168876,432.07793447561403 M502.4836579168876,432.07793447561403 L491.4943507577972,433.878233176355 M491.4943507577972,433.878233176355 L480.1816008965059,435.4747920897587 M480.1816008965059,435.4747920897587 L468.5838533401098,436.86075082102553 M468.5838533401098,436.86075082102553 L456.74118087996305,438.0301010025954 M456.74118087996305,438.0301010025954 L444.69507596470885,438.9777490524556 M444.69507596470885,438.9777490524556 L432.48820266446165,439.6995254321585 M432.48820266446165,439.6995254321585 L420.164189093641,440.19224621454003 M420.164189093641,440.19224621454003 L407.76735377690875,440.4537247482873 M407.76735377690875,440.4537247482873 L395.34244330827255,440.4828082457122 M395.34244330827255,440.4828082457122 L382.93438242095647,440.2793572437341 M382.93438242095647,440.2793572437341 L370.5879958833374,439.84428425079335 M370.5879958833374,439.84428425079335 L358.347714118362,439.17950990865955 M358.347714118362,439.17950990865955 L346.25737925798217,438.28797840588334 M346.25737925798217,438.28797840588334 L334.35989994812223,437.1736097109452 M334.35989994812223,437.1736097109452 L322.6971144095717,435.8412723894468 M322.6971144095717,435.8412723894468 L311.30943401611165,434.29675685436064 M311.30943401611165,434.29675685436064 L300.23576522360867,432.5467045584715 M300.23576522360867,432.5467045584715 L289.5131777969566,430.59858253417326 M289.5131777969566,430.59858253417326 L279.17679397981686,428.46060606940404 M279.17679397981686,428.46060606940404 L269.25967233611135,426.14167575779044 M269.25967233611135,426.14167575779044 L259.79258943791655,423.6513193369849 M259.79258943791655,423.6513193369849 L250.80395771413177,420.99962339945114 M250.80395771413177,420.99962339945114 L242.31976400166556,418.19715237907747 M242.31976400166556,418.19715237907747 L234.36345207648353,415.25489137368334 M234.36345207648353,415.25489137368334 L226.95592052357233,412.1841616623451 M226.95592052357233,412.1841616623451 L220.11549978845795,408.9965496934635 M220.11549978845795,408.9965496934635 L213.8579113717007,405.7038510478903 M213.8579113717007,405.7038510478903 L208.19633064766626,402.3179868654538 M208.19633064766626,402.3179868654538 L203.14139204523735,398.85094830270486 M203.14139204523735,398.85094830270486 L198.70124143031782,395.31474509593136 M198.70124143031782,395.31474509593136 L194.8816321668773,391.7213214509268 M194.8816321668773,391.7213214509268 L191.68600085780358,388.08251621929594 M191.68600085780358,388.08251621929594 L189.11550189818803,384.41003419257373 M189.11550189818803,384.41003419257373 L187.1691924486905,380.7153601647473 M187.1691924486905,380.7153601647473 L185.84406489915185,377.009761103776 M185.84406489915185,377.009761103776 L185.1352059403013,373.3042123272831 M185.1352059403013,373.3042123272831 L185.03591852466593,369.60939937325645 M185.03591852466593,369.60939937325645 L185.5377890405727,365.93566388473175 M185.5377890405727,365.93566388473175 L186.63088418011657,362.29300216154274 M186.63088418011657,362.29300216154274 L188.3037803297464,358.69103853084556 M188.3037803297464,358.69103853084556 L190.54377941788567,355.1390081865868 M190.54377941788567,355.1390081865868 L193.3369460108242,351.6457513317463 M193.3369460108242,351.6457513317463 L196.66826655365136,348.21970530479064 M196.66826655365136,348.21970530479064 L200.52172128710228,344.86889467083023 M200.52172128710228,344.86889467083023 L204.88045355022206,341.6009388402024 M204.88045355022206,341.6009388402024 L209.7267871136909,338.4230479906591 M209.7267871136909,338.4230479906591 L215.04235438547565,335.34202706512855 M215.04235438547565,335.34202706512855 L220.80819096415544,332.36427876758177 M220.80819096415544,332.36427876758177 L227.0048093544136,329.4958107077679 M227.0048093544136,329.4958107077679 L233.6122636503658,326.7422473925961 M233.6122636503658,326.7422473925961 L240.61025354116643,324.1088459816997 M240.61025354116643,324.1088459816997 L247.97811009740045,321.6004817275405 M247.97811009740045,321.6004817275405 L255.69491680722922,319.2216798283662 M255.69491680722922,319.2216798283662 L263.73955865298916,316.97662924573797 M263.73955865298916,316.97662924573797 L272.09071339469153,314.86917528281055 M272.09071339469153,314.86917528281055 L280.72693171877444,312.90284437320577 M280.72693171877444,312.90284437320577 L289.62665128869963,311.08084955910573 M289.62665128869963,311.08084955910573 L298.76824378643346,309.4061090354132 M298.76824378643346,309.4061090354132 L308.1300304055126,307.8812529803385 M308.1300304055126,307.8812529803385 L317.69027875313424,306.50862375458263 M317.69027875313424,306.50862375458263 L327.4272203164031,305.2902925994625 M327.4272203164031,305.2902925994625 L337.31912373533754,304.2280825881642 M337.31912373533754,304.2280825881642 L347.3442018984528,303.3235458238076 M347.3442018984528,303.3235458238076 L357.48070638693093,302.577995192979 M357.48070638693093,302.577995192979 L367.70688767242655,301.9925028636232 M367.70688767242655,301.9925028636232 L378.0009851693013,301.56789998762525 M378.0009851693013,301.56789998762525 L388.3412659749216,301.30478953554615 M388.3412659749216,301.30478953554615 L398.70600316959894,301.20353925398155 M398.70600316959894,301.20353925398155 L409.07344484854275,301.26429205931476 M409.07344484854275,301.26429205931476 L419.42187920591704,301.48696311499486 M419.42187920591704,301.48696311499486 L429.7295586640662,301.8712411490322 M429.7295586640662,301.8712411490322 L439.9747575069913,302.41657863794154 M439.9747575069913,302.41657863794154 L450.1357206780005,303.1222082258074 M450.1357206780005,303.1222082258074 L460.19070069964596,303.9871084475186 M460.19070069964596,303.9871084475186 L470.1179346513565,305.01003986582015 M470.1179346513565,305.01003986582015 L479.8956663186691,306.1894962852508 M479.8956663186691,306.1894962852508 L489.50211202077253,307.5237400203565 M489.50211202077253,307.5237400203565 L498.91555577274687,309.01074632868693 M498.91555577274687,309.01074632868693 L508.1142406633835,310.6482493452503 M508.1142406633835,310.6482493452503 L517.0764521163325,312.43369365727864 M517.0764521163325,312.43369365727864 L525.7805652706062,314.3642321674137 M525.7805652706062,314.3642321674137 L534.2050074622881,316.43672205876254 M534.2050074622881,316.43672205876254 L542.3282734699358,318.6477240566828" stroke="black"  stroke-width="4"  fill="red"/>
<path d="M608.5098946911745,387.8377958958493 L611.0356773811413,384.1683086310462 M611.0356773811413,384.1683086310462 L612.9390549475785,380.4774321753517 M612.9390549475785,380.4774321753517 L614.223131092397,376.77636976208777 M614.223131092397,376.77636976208777 L614.8929202047783,373.0760415250527 M614.8929202047783,373.0760415250527 L614.9552073803977,369.3870638047129 M614.9552073803977,369.3870638047129 L614.4184644502608,365.71971950045366 M614.4184644502608,365.71971950045366 L613.2926838132587,362.08394600158056 M613.2926838132587,362.08394600158056 L611.5893089335198,358.48930621205716 M611.5893089335198,358.48930621205716 L609.321078190026,354.9449793082454 M609.321078190026,354.9449793082454 L606.5019289785295,351.4597421861403 M606.5019289785295,351.4597421861403 L603.1468687857331,348.0419794961379 M603.1468687857331,348.0419794961379 L599.2718869991187,344.6996683946191 M599.2718869991187,344.6996683946191 L594.8938570467216,341.4403700464039 M594.8938570467216,341.4403700464039 L590.0304005899196,338.2712503386848 M590.0304005899196,338.2712503386848 L584.6998453787435,335.19906279450197 M584.6998453787435,335.19906279450197 L578.9211080918946,332.2301673660509 M578.9211080918946,332.2301673660509 L572.7136128815382,329.37053479870247 M572.7136128815382,329.37053479870247 L566.0972416378452,326.62575361014024 M566.0972416378452,326.62575361014024 L559.0922651646664,324.00102935959586 M559.0922651646664,324.00102935959586 L551.7192581081248,321.50121172233776 M551.7192581081248,321.50121172233776 L543.9990597056009,319.13079644577766 M543.9990597056009,319.13079644577766 L535.9527363634967,316.89393375792974 M535.9527363634967,316.89393375792974 L527.6015072764636,314.79444905327506 M527.6015072764636,314.79444905327506 L518.9667503439396,312.8358398505366 M518.9667503439396,312.8358398505366 L510.0699373257696,311.0213011900089 M510.0699373257696,311.0213011900089 L500.9326269145881,309.3537209147994 M500.9326269145881,309.3537209147994 L491.5764026913151,307.83571608030866 M491.5764026913151,307.83571608030866 L482.0229463967402,306.4696014618344 M482.0229463967402,306.4696014618344 L472.29387644450026,305.25745072114955 M472.29387644450026,305.25745072114955 L462.410901680705,304.20105126400193 M462.410901680705,304.20105126400193 L452.395694303704,303.3019513364477 M452.395694303704,303.3019513364477 L442.26991778294456,302.56145819347506 M442.26991778294456,302.56145819347506 L432.05524333606166,301.9806211413829 M432.05524333606166,301.9806211413829 L421.77333983235377,301.56027295438633 M421.77333983235377,301.56027295438633 L411.4458655898784,301.30099968950054 M411.4458655898784,301.30099968950054 L401.0944540207537,301.2031709011731 M401.0944540207537,301.2031709011731 L390.7407579774481,301.2669236173721 M390.7407579774481,301.2669236173721 L380.406429115052,301.49216375784823 M380.406429115052,301.49216375784823 L370.1131115747631,301.8785783686227 M370.1131115747631,301.8785783686227 L359.882457688181,302.42562141088627 M359.882457688181,302.42562141088627 L349.7361197748613,303.132521385749 M349.7361197748613,303.132521385749 L339.6957858856214,303.9982646848143 M339.6957858856214,303.9982646848143 L329.7831150243392,305.0216053072925 M329.7831150243392,305.0216053072925 L320.01977914680265,306.20104480717424 M320.01977914680265,306.20104480717424 L310.42747283738186,307.5348444068066 M310.42747283738186,307.5348444068066 L301.02785169414324,309.02099846691306 M301.02785169414324,309.02099846691306 L291.8425713128895,310.65723590321466 M291.8425713128895,310.65723590321466 L282.89323095340694,312.4410069376426 M282.89323095340694,312.4410069376426 L274.20141052174046,314.3694827316229 M274.20141052174046,314.3694827316229 L265.78859233017954,316.43953293569456 M265.78859233017954,316.43953293569456 L257.67617877345344,318.64772405668316 M257.67617877345344,318.64772405668316 L249.88543058951248,320.9903026109778 M249.88543058951248,320.9903026109778 L242.4374491238704,323.46318826825586 M242.4374491238704,323.46318826825586 L235.35312185726494,326.0619568054881 M235.35312185726494,326.0619568054881 L228.65309286728944,328.78183893382214 M228.65309286728944,328.78183893382214 L222.35768239291946,331.6176954963691 M222.35768239291946,331.6176954963691 L216.48686520796082,334.56402573549485 M216.48686520796082,334.56402573549485 L211.06017788144229,337.6149402417794 M211.06017788144229,337.6149402417794 L206.09665846019288,340.76416637126647 M206.09665846019288,340.76416637126647 L201.61473857250527,344.00502476492653 M201.61473857250527,344.00502476492653 L197.6322219715233,347.33044206422704 M197.6322219715233,347.33044206422704 L194.1661296290479,350.7329420386219 M194.1661296290479,350.7329420386219 L191.23265922593413,354.2046292155278 M191.23265922593413,354.2046292155278 L188.84702631639672,357.73721081538645 M188.84702631639672,357.73721081538645 L187.02340798869847,361.32198867595434 M187.02340798869847,361.32198867595434 L185.77479408869578,364.94986892046046 M185.77479408869578,364.94986892046046 L185.11292061541005,368.6113670238158 M185.11292061541005,368.6113670238158 L185.04810510195335,372.2966240529962 M185.04810510195335,372.2966240529962 L185.589121822453,375.9954322546691 M185.589121822453,375.9954322546691 L186.74315232781444,379.69724085594055 M186.74315232781444,379.69724085594055 L188.5155623058284,383.3911872598284 M188.5155623058284,383.3911872598284 L190.90991084195667,387.0661290843427 M190.90991084195667,387.0661290843427 L193.9276985601828,390.71068256389486 M193.9276985601828,390.71068256389486 L197.5683464513766,394.3132534971949 M197.5683464513766,394.3132534971949 L201.8291299527197,397.86206713671623 M201.8291299527197,397.86206713671623 L206.7049251509062,401.34526256535275 M206.7049251509062,401.34526256535275 L212.18834440349806,404.7508797713461 M212.18834440349806,404.7508797713461 L218.26945532958976,408.06697410842116 M218.26945532958976,408.06697410842116 L224.93588928364937,411.28163895661373 M224.93588928364937,411.28163895661373 L232.17269855182042,414.3830855503488 M232.17269855182042,414.3830855503488 L239.96239347949435,417.35970029626446 M239.96239347949435,417.35970029626446 L248.28488166525486,420.2001271462531 M248.28488166525486,420.2001271462531 L257.11754113800396,422.89331987311294 M257.11754113800396,422.89331987311294 L266.43521961582155,425.4286263983657 M266.43521961582155,425.4286263983657 L276.2103048215593,427.7958557127102 M276.2103048215593,427.7958557127102 L286.41283952805145,429.9853418136033 M286.41283952805145,429.9853418136033 L297.0105618372961,431.9880242993448 M297.0105618372961,431.9880242993448 L307.9690701639998,433.7955152372745 M307.9690701639998,433.7955152372745 L319.2519784888375,435.4001533628126 M319.2519784888375,435.4001533628126 L330.8210956586355,436.7950640532394 M330.8210956586355,436.7950640532394 L342.63656641294784,437.9742276903581 M342.63656641294784,437.9742276903581 L354.6571556784436,438.93250644275406 M354.6571556784436,438.93250644275406 L366.84040271541585,439.66570358913697 M366.84040271541585,439.66570358913697 L379.14288706729457,440.1705955572837 M379.14288706729457,440.1705955572837 L391.52051805238926,440.44495003134494 M391.52051805238926,440.44495003134494 L403.92873353601004,440.4875533569785 M403.92873353601004,440.4875533569785 L416.3227927046093,440.2982123814571 M416.3227927046093,440.2982123814571 L428.6580265559674,439.8777714630406 M428.6580265559674,439.8777714630406 L440.8901403262977,439.22808481694403 M440.8901403262977,439.22808481694403 L452.97544176129435,438.3520198433717 M452.97544176129435,438.3520198433717 L464.8711062573136,437.25341932395713 M464.8711062573136,437.25341932395713 L476.53538946442626,435.93707942842957 M476.87288995683656,408.2369396349647 L476.53538946442626,435.93707942842957 M476.87288995683656,408.2369396349647 L465.1576208385256,409.51533130788397 M465.1576208385256,409.51533130788397 L453.2097232758058,410.5822743009391 M453.2097232758058,410.5822743009391 L441.07116248158195,411.4331032370317 M441.07116248158195,411.4331032370317 L428.78499228356765,412.06408000111725 M428.78499228356765,412.06408000111725 L416.3951408268792,412.47241523127946 M416.3951408268792,412.47241523127946 L403.94614344995074,412.6563051331984 M403.94614344995074,412.6563051331984 L391.48291254647114,412.6149283133716 M391.48291254647114,412.6149283133716 L379.05043292031917,412.3484726667066 M379.05043292031917,412.3484726667066 L366.6935092997456,411.8581188501287 M366.6935092997456,411.8581188501287 L354.4564713938341,411.1460384524632 M354.4564713938341,411.1460384524632 L342.38297340141685,410.2153673002779 M342.38297340141685,410.2153673002779 L330.5157024451749,409.070187760632 M330.5157024451749,409.070187760632 L318.8961107189382,407.71549748275686 M318.8961107189382,407.71549748275686 L307.56426002161663,406.1571516151503 M307.56426002161663,406.1571516151503 L296.5585356473505,404.4018366028011 M296.5585356473505,404.4018366028011 L285.9155042926793,402.457003584761 M285.9155042926793,402.457003584761 L275.66973362715316,400.3308099260935 M275.66973362715316,400.3308099260935 L265.8536361243625,398.0320663492734 M265.8536361243625,398.0320663492734 L256.4973032417451,395.5701717589434 M256.4973032417451,395.5701717589434 L247.6284649722109,392.95503474059274 M247.6284649722109,392.95503474059274 L239.27237440131134,390.1970112409416 M239.27237440131134,390.1970112409416 L231.45173729433594,387.30683936232685 M231.45173729433594,387.30683936232685 L224.1867131575721,384.29555727056123 M224.1867131575721,384.29555727056123 L217.4948421225488,381.1744522429757 M217.4948421225488,381.1744522429757 L211.39110649142523,377.95498051485697 M211.39110649142523,377.95498051485697 L205.88789397201458,374.64871147665656 M205.88789397201458,374.64871147665656 L200.995141683568,371.2672500428034 M200.995141683568,371.2672500428034 L196.72022780358242,367.82221454543543 M196.72022780358242,367.82221454543543 L193.06825446500534,364.3251255375922 M193.06825446500534,364.3251255375922 L190.04191215237196,360.78741828484885 M190.04191215237196,360.78741828484885 L187.64173526965766,357.2203511191748 M187.64173526965766,357.2203511191748 L185.8661689676126,353.6349764194085 M185.8661689676126,353.6349764194085 L184.71159102910167,350.0421105856421 M184.71159102910167,350.0421105856421 L184.17256537772244,346.4522968005198 M184.17256537772244,346.4522968005198 L184.24183335523165,342.8757739864173 M184.24183335523165,342.8757739864173 L184.91053831543545,339.3224466001105 M184.91053831543545,339.3224466001105 L186.16827576366626,335.8018790878557 M186.16827576366626,335.8018790878557 L188.00321911278974,332.3232711502932 M188.00321911278974,332.3232711502932 L190.40228536561392,328.89544209056896 M190.40228536561392,328.89544209056896 L193.35120232859578,325.52682601448714 M193.35120232859578,325.52682601448714 L196.83465828315656,322.2254625715919 M196.83465828315656,322.2254625715919 L200.83635878542628,318.9990049174298 M200.83635878542628,318.9990049174298 L205.33918635260358,315.8546985603892 M205.33918635260358,315.8546985603892 L210.32524126952492,312.79939737614654 M210.32524126952492,312.79939737614654 L215.7759972056282,309.8395723454518 M215.7759972056282,309.8395723454518 L221.67232284066552,306.98129934690866 M221.67232284066552,306.98129934690866 L227.99459019289145,304.23028206302905 M227.99459019289145,304.23028206302905 L234.72273517528987,301.59184684756224 M234.72273517528987,301.59184684756224 L241.8363506352984,299.0709690852188 M241.8363506352984,299.0709690852188 L249.31470801048573,296.67226528485116 M249.31470801048573,296.67226528485116 L257.1368379624492,294.4000172458874 M257.1368379624492,294.4000172458874 L265.28155991492264,292.25817329754284 M265.28155991492264,292.25817329754284 L273.7275365863121,290.2503649282855 M273.7275365863121,290.2503649282855 L282.4532916354725,288.379913524733 M282.4532916354725,288.379913524733 L291.43727145359196,286.64984679377403 M291.43727145359196,286.64984679377403 L300.6578272373828,285.0629004216972 M300.6578272373828,285.0629004216972 L310.0932933139546,283.6215399173057 M310.0932933139546,283.6215399173057 L319.7219498143499,282.3279610295366 M319.7219498143499,282.3279610295366 L329.5220789962915,281.18410265260684 M329.5220789962915,281.18410265260684 L339.4719258925447,280.19164550155176 M339.4719258925447,280.19164550155176 L349.5497599165215,279.3520378847361 M349.5497599165215,279.3520378847361 L359.7338649203401,278.66648399260026 M359.7338649203401,278.66648399260026 L370.002496796971,278.13596337600154 M370.002496796971,278.13596337600154 L380.3339482600267,277.76122154748447 M380.3339482600267,277.76122154748447 L390.7065127214609,277.5427861470382 M390.7065127214609,277.5427861470382 L401.0984922806758,277.48095956110404 M401.0984922806758,277.48095956110404 L411.48818171561635,277.57583271215185 M411.48818171561635,277.57583271215185 L421.85387457691644,277.82727319604635 M421.85387457691644,277.82727319604635 L432.1738836541727,278.2349239032166 M432.1738836541727,278.2349239032166 L442.4264962222826,278.7982185495168 M442.4264962222826,278.7982185495168 L452.5899881999424,279.5163523595786 M452.5899881999424,279.5163523595786 L462.64263214665596,280.3883113199863 M462.64263214665596,280.3883113199863 L472.56270714655386,281.4128319870835 M472.56270714655386,281.4128319870835 L482.3284820370219,282.58841790030476 M482.3284820370219,282.58841790030476 L491.91818715601244,283.91334132067124 M491.91818715601244,283.91334132067124 L501.3101416479179,285.38559751046125 M501.3101416479179,285.38559751046125 L510.482598930627,287.00294846409435 M510.482598930627,287.00294846409435 L519.4139085417808,288.76286352807176 M519.4139085417808,288.76286352807176 L528.0824424063416,290.66254988100815 M528.0824424063416,290.66254988100815 L536.466656899599,292.6989171504459 M536.466656899599,292.6989171504459 L544.545099623441,294.86858191280584 M544.545099623441,294.86858191280584 L552.2964743126653,297.16784297609917 M552.2964743126653,297.16784297609917 L559.6996347498496,299.59268424067756 M559.6996347498496,299.59268424067756 L566.7336592835695,302.1387545380279 M566.7336592835695,302.1387545380279 L573.3778882792983,304.80135937154256 M573.3778882792983,304.80135937154256 L579.6119634364968,307.57545891087653 M579.6119634364968,307.57545891087653 L585.4159131067868,310.4556416138011 M585.4159131067868,310.4556416138011 L590.7702213591463,313.436124815353 M590.7702213591463,313.436124815353 L595.655877909063,316.5107478339793 M595.655877909063,316.5107478339793 L600.054459928738,319.672967611373 M600.054459928738,319.672967611373 L603.9482497267388,322.915840349765 M603.9482497267388,322.915840349765 L607.3202771975506,326.2320379589793 M607.3202771975506,326.2320379589793 L610.1544563054521,329.6138278282785 M610.1544563054521,329.6138278282785 L612.4356835503881,333.0530809412837 M612.4356835503881,333.0530809412837 L614.149926780036,336.54128654640414 M614.149926780036,336.54128654640414 L615.2843549196837,340.069542298523 M615.2843549196837,340.069542298523 L615.8274346222776,343.6285721473566 M615.8274346222776,343.6285721473566 L615.7690874514675,347.20873520040794 M615.7690874514675,347.20873520040794 L615.1007601347957,350.80005374793086 M615.1007601347957,350.80005374793086 L613.8155918978107,354.3922248945273 M613.8155918978107,354.3922248945273 L611.9084993269188,357.97464926659967 M611.9084993269188,357.97464926659967 L609.3763174953207,361.536451046983 M609.3763174953207,361.536451046983 L608.5098946911745,387.8377958958493 M452.44114148752305,427.70449847979967 L476.53538946442626,435.93707942842957 M608.5098946911745,387.8377958958493 L584.563266139106,380.5202082191183 M584.563266139106,380.5202082191183 L586.2323415766883,377.08909783061546 M586.2323415766883,377.08909783061546 L587.2895769245766,373.6480056856396 M587.2895769245766,373.6480056856396 L587.7395938288211,370.2083499508369 M587.7395938288211,370.2083499508369 L587.5889568212563,366.78125362141236 M587.5889568212563,366.78125362141236 L586.8461226811853,363.37750229823223 M586.8461226811853,363.37750229823223 L585.5212758469326,360.00752545909535 M585.5212758469326,360.00752545909535 L583.6261825700478,356.6813666038873 M583.6261825700478,356.6813666038873 L581.1741039494293,353.40867324975915 M581.1741039494293,353.40867324975915 L578.1796647299511,350.19867536354474 M578.1796647299511,350.19867536354474 L574.6586907072156,347.06017888097193 M574.6586907072156,347.06017888097193 L570.6281543720304,344.0015584265739 M570.6281543720304,344.0015584265739 L566.1060325128313,341.030756395291 M566.1060325128313,341.030756395291 L561.111177514181,338.155275639653 M561.111177514181,338.155275639653 L555.6632659762422,335.3821887311646 M555.6632659762422,335.3821887311646 L549.7826729687478,332.7181327097589 M549.7826729687478,332.7181327097589 L543.4903863407075,330.1693265987318 M543.4903863407075,330.1693265987318 L536.8079416937078,327.7415695348203 M536.8079416937078,327.7415695348203 L529.7573580490912,325.4402408017254 M529.7573580490912,325.4402408017254 L522.3610195660025,323.2703342748693 M522.3610195660025,323.2703342748693 L514.6416909224578,321.23643887732834 M514.6416909224578,321.23643887732834 L506.62240048633095,319.3427704513056 M506.62240048633095,319.3427704513056 L498.3264136918637,317.59317244585213 M498.3264136918637,317.59317244585213 L489.7772228562906,315.99112201068016 M489.7772228562906,315.99112201068016 L480.9984618412197,314.53974984571556 M480.9984618412197,314.53974984571556 L472.0138957653019,313.24184682413477 M472.0138957653019,313.24184682413477 L462.8474025024209,312.0998642033548 M462.8474025024209,312.0998642033548 L453.52295732617455,311.1159327042249 M453.52295732617455,311.1159327042249 L444.06456743805137,310.2918672858273 M444.06456743805137,310.2918672858273 L434.4963228329236,309.6291712295475 M434.4963228329236,309.6291712295475 L424.84231286395146,309.12904107348874 M424.84231286395146,309.12904107348874 L415.12670055866107,308.7923789875288 M415.12670055866107,308.7923789875288 L405.3736265292241,308.6197822497739 M405.3736265292241,308.6197822497739 L395.6072621000972,308.61156022681865 M395.6072621000972,308.61156022681865 L385.85177303997386,308.76772613040356 M385.85177303997386,308.76772613040356 L376.1313287678674,309.0880083630548 M376.1313287678674,309.0880083630548 L366.4700744802653,309.5718254292669 M366.4700744802653,309.5718254292669 L356.8921643784904,310.2183151826118 M356.8921643784904,310.2183151826118 L347.42170837676406,311.02630638209826 M347.42170837676406,311.02630638209826 L338.0827784173467,311.9943267718096 M338.0827784173467,311.9943267718096 L328.89941567916435,313.12059393399204 M328.89941567916435,313.12059393399204 L319.8955804714414,314.40301033599155 M319.8955804714414,314.40301033599155 L311.0951611124654,315.83915479950434 M311.0951611124654,315.83915479950434 L302.52194716402784,317.4262716028878 M302.52194716402784,317.4262716028878 L294.1995890535817,319.1612682625491 M294.1995890535817,319.1612682625491 L286.1515742684803,321.04069554241033 M286.1515742684803,321.04069554241033 L278.40120308919984,323.0607499887729 M278.40120308919984,323.0607499887729 L270.9715414270728,325.2172570030335 M270.9715414270728,325.2172570030335 L263.8853664224781,327.50566077774386 M263.8853664224781,327.50566077774386 L257.16511683336245,329.92101332642875 M257.16511683336245,329.92101332642875 L250.83283309102563,332.4579671857617 M250.83283309102563,332.4579671857617 L244.9101142264279,335.11076865567867 M244.9101142264279,335.11076865567867 L239.41800464576738,337.8732455527879 M239.41800464576738,337.8732455527879 L234.37695097249014,340.7387983692378 M234.37695097249014,340.7387983692378 L229.80669256989754,343.7003989494821 M229.80669256989754,343.7003989494821 L225.72617759355413,346.7505884163249 M225.72617759355413,346.7505884163249 L222.15346996720038,349.88146647883167 M222.15346996720038,349.88146647883167 L219.10563617264688,353.08470351765476 M219.10563617264688,353.08470351765476 L216.5986486803965,356.3515375733228 M216.5986486803965,356.3515375733228 L214.64722673816732,359.67277488734857 M214.64722673816732,359.67277488734857 L213.26480168444195,363.0388152201759 M213.26480168444195,363.0388152201759 L212.46328404768693,366.4396513311266 M212.46328404768693,366.4396513311266 L212.2530214781288,369.86489401263856 M212.2530214781288,369.86489401263856 L212.64263240279874,373.30378843511636 M212.64263240279874,373.30378843511636 L213.63891096435557,376.7452509170955 M213.63891096435557,376.7452509170955 L215.246653828814,380.17787858303404 M215.246653828814,380.17787858303404 L217.46858208178972,383.5900164043355 M217.46858208178972,383.5900164043355 L220.30520356678255,386.9697677353065 M220.30520356678255,386.9697677353065 L223.75469995626875,390.3050658059872 M223.75469995626875,390.3050658059872 L227.81284130834496,393.58370012717523 M227.81284130834496,393.58370012717523 L232.47290300766784,396.7933889036129 M232.47290300766784,396.7933889036129 L237.72555056065724,399.92183698419166 M237.72555056065724,399.92183698419166 L243.55881181694565,402.95679668852534 M243.55881181694565,402.95679668852534 L249.95804549303617,405.88612750783454 M249.95804549303617,405.88612750783454 L256.9058762733371,408.69788628781555 M256.9058762733371,408.69788628781555 L264.38220841513305,411.38038890656264 M264.38220841513305,411.38038890656264 L272.364280104553,413.9222771070426 M272.364280104553,413.9222771070426 L280.8266211906256,416.31262082894926 M280.8266211906256,416.31262082894926 L289.74123068305903,418.5409640660226 M289.74123068305903,418.5409640660226 L299.0775716282525,420.5974225940072 M299.0775716282525,420.5974225940072 L308.8027177396938,422.472754371422 M308.8027177396938,422.472754371422 L318.88152676113293,424.1584245734359 M318.88152676113293,424.1584245734359 L329.2767621162563,425.6466739746767 M329.2767621162563,425.6466739746767 L339.9493120853039,426.9305937839528 M339.9493120853039,426.9305937839528 L350.8583741008538,428.0041649751792 M350.8583741008538,428.0041649751792 L361.9617060626375,428.8623173626619 M361.9617060626375,428.8623173626619 L373.21586298828976,429.5009851371961 M373.21586298828976,429.5009851371961 L384.5764613757918,429.91711821780626 M384.5764613757918,429.91711821780626 L395.9984385519886,430.1087253996727 M395.9984385519886,430.1087253996727 L407.4363600929557,430.074893841729 M407.4363600929557,430.074893841729 L418.8446787477992,429.81578295437646 M418.8446787477992,429.81578295437646 L430.1780466713404,429.3326294557706 M430.1780466713404,429.3326294557706 L441.39157392271204,428.627751292097 M441.39157392271204,428.627751292097 L452.44114148752305,427.70449847979967 M585.3230382473016,354.4337432164266 L584.563266139106,380.5202082191183 M609.3763174953207,361.536451046983 L585.3230382473016,354.4337432164266 M452.6701049635609,400.2420946632894 L441.57249401973945,401.1386517535037 M441.57249401973945,401.1386517535037 L430.31006304187025,401.82315433887675 M430.31006304187025,401.82315433887675 L418.92716088174654,402.29234448588227 M418.92716088174654,402.29234448588227 L407.4689129316442,402.54396793716086 M407.4689129316442,402.54396793716086 L395.98090591393293,402.57682192719994 M395.98090591393293,402.57682192719994 L384.50892739289793,402.3907514180756 M384.50892739289793,402.3907514180756 L373.0986513082679,401.98664419483373 M373.0986513082679,401.98664419483373 L361.7953770562603,401.3664367695814 M361.7953770562603,401.3664367695814 L350.6437198880171,400.5330953889501 M350.6437198880171,400.5330953889501 L339.6873496420704,399.490574030833 M339.6873496420704,399.490574030833 L328.96872449556827,398.24380324621177 M328.96872449556827,398.24380324621177 L318.5288526354309,396.7986360656793 M318.5288526354309,396.7986360656793 L308.40703929749344,395.16179044588216 M308.40703929749344,395.16179044588216 L298.6407012092495,393.340810869315 M298.6407012092495,393.340810869315 L289.2651461242047,391.3439954540108 M289.2651461242047,391.3439954540108 L280.31345041928955,389.1803293202095 M280.31345041928955,389.1803293202095 L271.81628486832454,386.8594212053268 M271.81628486832454,386.8594212053268 L263.8017673831945,384.3914348691133 M263.8017673831945,384.3914348691133 L256.2954682920633,381.7869939735768 M256.2954682920633,381.7869939735768 L249.3202322820766,379.0571373373256 M249.3202322820766,379.0571373373256 L242.89622118494793,376.21321937372596 M242.89622118494793,376.21321937372596 L237.04085978922808,373.2668450160458 M237.04085978922808,373.2668450160458 L231.7688226493108,370.2298096678131 M231.7688226493108,370.2298096678131 L227.09209981824856,367.1140115054324 M227.09209981824856,367.1140115054324 L223.0200290415247,363.9313934002738 M223.0200290415247,363.9313934002738 L219.55932427794448,360.693883774487 M219.55932427794448,360.693883774487 L216.71419203484783,357.41334027636555 M216.71419203484783,357.41334027636555 L214.48641544907233,354.10147944570184 M214.48641544907233,354.10147944570184 L212.87544072033396,350.7698510636973 M212.87544072033396,350.7698510636973 L211.87849117831055,347.4297687650882 M211.87849117831055,347.4297687650882 L211.49070610428788,344.09229983812327 M211.49070610428788,344.09229983812327 L211.70521978019224,340.7682002051313 M211.70521978019224,340.7682002051313 L212.51333592238652,337.46790511575324 M212.51333592238652,337.46790511575324 L213.90462365258819,334.2014935442656 M213.90462365258819,334.2014935442656 L215.8670849751117,330.97867242433614 M215.8670849751117,330.97867242433614 L218.38719743981875,327.80875246427956 M218.38719743981875,327.80875246427956 L221.4501483255646,324.7006487693762 M221.4501483255646,324.7006487693762 L225.0398697908632,321.6628564003248 M225.0398697908632,321.6628564003248 L229.13919897047802,318.70344997973075 M229.13919897047802,318.70344997973075 L233.72997512691353,315.83008674826726 M233.72997512691353,315.83008674826726 L238.79315347240524,313.04999497510437 M238.79315347240524,313.04999497510437 L244.3088986571955,310.36998446771383 M244.3088986571955,310.36998446771383 L250.25666910922098,307.7964487182692 M250.25666910922098,307.7964487182692 L256.61532695976086,305.33536631939216 M256.61532695976086,305.33536631939216 L263.36318134696904,302.9923096694364 M263.36318134696904,302.9923096694364 L270.4781020175598,300.7724569759659 M270.4781020175598,300.7724569759659 L277.9375624779781,298.6805989307957 M277.9375624779781,298.6805989307957 L285.71870005053785,296.7211459007846 M285.71870005053785,296.7211459007846 L293.7983655275312,294.89813867409407 M293.7983655275312,294.89813867409407 L302.153177610278,293.215258320014 M302.153177610278,293.215258320014 L310.7595700561498,291.675842698225 M310.7595700561498,291.675842698225 L319.59381583502176,290.2828840829357 M319.59381583502176,290.2828840829357 L328.6320507954585,289.03904862787783 M328.6320507954585,289.03904862787783 L337.8503139603551,287.9466785856033 M337.8503139603551,287.9466785856033 L347.2245741426621,287.0078029371406 M347.2245741426621,287.0078029371406 L356.7307207747871,286.22414571799305 M356.7307207747871,286.22414571799305 L366.3446139374628,285.59713086644814 M366.3446139374628,285.59713086644814 L376.0420768511322,285.12789113177513 M376.0420768511322,285.12789113177513 L385.7988892619775,284.8172602673444 M385.7988892619775,284.8172602673444 L395.5908406493679,284.6658006390142 M395.5908406493679,284.6658006390142 L405.3936965941028,284.67377487373625 M405.3936965941028,284.67377487373625 L415.18322646855194,284.84117019932734 M415.18322646855194,284.84117019932734 L424.93519391159055,285.1676874403545 M424.93519391159055,285.1676874403545 L434.625392948513,285.65274900534814 M434.625392948513,285.65274900534814 L444.2295943798014,286.2954824030762 M444.2295943798014,286.2954824030762 L453.7236419517437,287.0947304264464 M453.7236419517437,287.0947304264464 L463.083377484365,288.0490391202562 M463.083377484365,288.0490391202562 L472.28472434725376,289.1566529577553 M472.28472434725376,289.1566529577553 L481.3036361386144,290.4155108343623 M481.3036361386144,290.4155108343623 L490.11616214694527,291.8232413839154 M490.11616214694527,291.8232413839154 L498.698462512076,293.3771444128476 M498.698462512076,293.3771444128476 L507.0268265638396,295.0741906271191 M507.0268265638396,295.0741906271191 L515.0776829270924,296.9110151325559 M515.0776829270924,296.9110151325559 L522.8276849712726,298.88389809791215 M522.8276849712726,298.88389809791215 L530.2537208460662,300.9887587525538 M530.2537208460662,300.9887587525538 L537.3329400445971,303.2211546212942 M537.3329400445971,303.2211546212942 L544.0428705204102,305.57625050251784 M544.0428705204102,305.57625050251784 L550.3614031516714,308.04883731481857 M550.3614031516714,308.04883731481857 L556.2669103724115,310.63329856522216 M556.2669103724115,310.63329856522216 L561.7383107066353,313.32361019212914 M561.7383107066353,313.32361019212914 L566.7551340381551,316.11334225123005 M566.7551340381551,316.11334225123005 L571.2976076471791,318.99564179129635 M571.2976076471791,318.99564179129635 L575.3467825220192,321.9632378132416 M575.3467825220192,321.9632378132416 L578.8845850469971,325.00843214849874 M578.8845850469971,325.00843214849874 L581.8939463763072,328.1231064181456 M581.8939463763072,328.1231064181456 L584.3589456047712,331.2987227900605 M584.3589456047712,331.2987227900605 L586.2648646036788,334.52633091236487 M586.2648646036788,334.52633091236487 L587.5983515762637,337.79657407687114 M587.5983515762637,337.79657407687114 L588.3475531628792,341.0997100305963 M588.3475531628792,341.0997100305963 L588.5022021706478,344.4256205773524 M588.5022021706478,344.4256205773524 L588.0537644865501,347.76384045510434 M588.0537644865501,347.76384045510434 L586.9956048456135,351.10357543118283 M586.9956048456135,351.10357543118283 L585.3230382473016,354.4337432164266 M452.6701049635609,400.2420946632894 L476.87288995683656,408.2369396349647 M452.6701049635609,400.2420946632894 L452.44114148752305,427.70449847979967" stroke="black"  stroke-width="4"  fill="red"/>
<path d="M606.7983848614107,439.79281142571534 L609.2817443876014,435.9659160174571 M609.2817443876014,435.9659160174571 L611.1644442347598,432.11656699696414 M611.1644442347598,432.11656699696414 L612.4493119778242,428.25613826142387 M612.4493119778242,428.25613826142387 L613.1409861196361,424.39572163548377 M613.1409861196361,424.39572163548377 L613.2457567922575,420.5461161958882 M613.2457567922575,420.5461161958882 L612.7715151594008,416.7177933622258 M612.7715151594008,416.7177933622258 L611.7276012650673,412.920869511018 M611.7276012650673,412.920869511018 L610.1246935793846,409.1650992353597 M610.1246935793846,409.1650992353597 L607.9747386221783,405.4598529176089 M607.9747386221783,405.4598529176089 L605.2908098927111,401.8141088692666 M605.2908098927111,401.8141088692666 L602.0870304023291,398.2364510908014 M602.0870304023291,398.2364510908014 L598.3784272235325,394.73505121027694 M598.3784272235325,394.73505121027694 L594.1808871550912,391.31767695379335 M594.1808871550912,391.31767695379335 L589.5110579293472,387.99168802472894 M589.5110579293472,387.99168802472894 L584.386223147699,384.76404675266775 M584.386223147699,384.76404675266775 L578.824270410461,381.64130824141506 M578.824270410461,381.64130824141506 L572.8435840211023,378.62964750376426 M572.8435840211023,378.62964750376426 L566.4629868893059,375.7348427335026 M566.4629868893059,375.7348427335026 L559.7016965358484,372.9622985501252 M559.7016965358484,372.9622985501252 L552.5792385492462,370.3170534081773 M552.5792385492462,370.3170534081773 L545.1154053917421,367.8037887742555 M545.1154053917421,367.8037887742555 L537.3302070358565,365.4268421848433 M537.3302070358565,365.4268421848433 L529.2438385876713,363.19021322694306 M529.2438385876713,363.19021322694306 L520.8766462543365,361.09757513244426 M520.8766462543365,361.09757513244426 L512.2490817364658,359.1522887108017 M512.2490817364658,359.1522887108017 L503.3816828869298,357.35741181209835 M503.3816828869298,357.35741181209835 L494.295048687815,355.71571289006033 M494.295048687815,355.71571289006033 L485.0098134196642,354.22967185991206 M485.0098134196642,354.22967185991206 L475.5466747958494,352.90149423629714 M475.5466747958494,352.90149423629714 L465.92631187925474,351.73312457263484 M465.92631187925474,351.73312457263484 L456.16943582735007,350.7262427678333 M456.16943582735007,350.7262427678333 L446.2967435242932,349.8822866050546 M446.2967435242932,349.8822866050546 L436.32893509044743,349.2024452722338 M436.32893509044743,349.2024452722338 L426.28669881329216,348.6876625769585 M426.28669881329216,348.6876625769585 L416.190739594281,348.33865542362577 M416.190739594281,348.33865542362577 L406.0617417038586,348.15590447347176 M406.0617417038586,348.15590447347176 L395.92038540713924,348.1396635362914 M395.92038540713924,348.1396635362914 L385.78735681016997,348.28995044179277 M385.78735681016997,348.28995044179277 L375.6833287260045,348.60655886700135 M375.6833287260045,348.60655886700135 L365.6289924548018,349.08905630201014 M365.6289924548018,349.08905630201014 L355.64504540233344,349.7367704494875 M355.64504540233344,349.7367704494875 L345.75216880435005,350.54880363790437 M345.75216880435005,350.54880363790437 L335.9710788329699,351.52401243909685 M335.73500659934473,328.054273374414 L335.9710788329699,351.52401243909685 M335.73500659934473,328.054273374414 L345.5524180003796,327.10600288265994 M345.5524180003796,327.10600288265994 L355.4818976829038,326.31640749857655 M355.4818976829038,326.31640749857655 L365.5026756306455,325.68659525629243 M365.5026756306455,325.68659525629243 L375.59401788281957,325.2174359676576 M375.59401788281957,325.2174359676576 L385.73517501410527,324.9095810627513 M385.73517501410527,324.9095810627513 L395.90540427058204,324.76344959094166 M395.90540427058204,324.76344959094166 L406.0839817695914,324.7792414557558 M406.0839817695914,324.7792414557558 L416.2501703780256,324.9569393977652 M416.2501703780256,324.9569393977652 L426.38323869003045,325.2962974937005 M426.38323869003045,325.2962974937005 L436.462450918836,325.7968500267115 M436.462450918836,325.7968500267115 L446.46704998389964,326.4579023428293 M446.46704998389964,326.4579023428293 L456.37629467117983,327.27853991585357 M456.37629467117983,327.27853991585357 L466.16943085681567,328.25761035836837 M466.16943085681567,328.25761035836837 L475.82570641084953,329.39372026727443 M475.82570641084953,329.39372026727443 L485.3243534101436,330.6852414904067 M485.3243534101436,330.6852414904067 L494.64463445877493,332.13028917024235 M494.64463445877493,332.13028917024235 L503.7657915504511,333.7267252892992 M503.7657915504511,333.7267252892992 L512.6671282508648,335.4721455496527 M512.6671282508648,335.4721455496527 L521.327981260017,337.36386556634125 M521.327981260017,337.36386556634125 L529.7277461553547,339.3989199684968 M529.7277461553547,339.3989199684968 L537.8459023284223,341.57404913903054 M537.8459023284223,341.57404913903054 L545.6620322324779,343.8856899347099 M545.6620322324779,343.8856899347099 L553.1558670059591,346.3299620528461 M553.1558670059591,346.3299620528461 L560.3073204950405,348.90265666520907 M560.3073204950405,348.90265666520907 L567.096521636622,351.5992305053821 M567.096521636622,351.5992305053821 L573.5038639076598,354.41479306710886 M573.5038639076598,354.41479306710886 L579.5100465997829,357.34409757113804 M579.5100465997829,357.34409757113804 L585.0961616440958,360.38153364617096 M585.0961616440958,360.38153364617096 L590.2437377395061,363.5211046017636 M590.2437377395061,363.5211046017636 L594.9347987025866,366.7564435781369 M594.9347987025866,366.7564435781369 L599.1519712007835,370.08078702776015 M599.1519712007835,370.08078702776015 L602.8785168375261,373.48698417217815 M602.8785168375261,373.48698417217815 L606.0984578121692,376.96748651587916 M606.0984578121692,376.96748651587916 L608.796676262426,380.51435172795965 M608.796676262426,380.51435172795965 L610.9589589624678,384.1192352758887 M610.9589589624678,384.1192352758887 L612.5721436044055,387.77340787476163 M612.5721436044055,387.77340787476163 L613.6241968561114,391.4677575502502 M613.6241968561114,391.4677575502502 L614.1043563239135,395.19279717563586 M614.1043563239135,395.19279717563586 L614.0032015971153,398.9386861919682 M614.0032015971153,398.9386861919682 L613.3127655532801,402.69523707570136 M613.3127655532801,402.69523707570136 L612.0266875911693,406.45194190804034 M612.0266875911693,406.45194190804034 L610.1402649409275,410.198006282199 M610.1402649409275,410.198006282199 L607.6506131221845,413.9223596447845 M607.6506131221845,413.9223596447845 L606.7983848614107,439.79281142571534 M355.3221741421932,357.8309759689905 L335.9710788329699,351.52401243909685 M606.7983848614107,439.79281142571534 L583.062259255902,432.0566664611683 M583.062259255902,432.0566664611683 L584.695638208886,428.5054250537441 M584.695638208886,428.5054250537441 L585.7474330896143,424.9435704105866 M585.7474330896143,424.9435704105866 L586.221827972306,421.3824421839093 M586.221827972306,421.3824421839093 L586.1247611966967,417.83309637069766 M586.1247611966967,417.83309637069766 L585.463888074492,414.3062546305702 M585.463888074492,414.3062546305702 L584.2484533567643,410.8123110077243 M584.2484533567643,410.8123110077243 L582.489188025239,407.3612872062829 M582.489188025239,407.3612872062829 L580.1981850533396,403.96281445862337 M580.1981850533396,403.96281445862337 L577.3887858996409,400.62613502131836 M577.3887858996409,400.62613502131836 L574.0754759662422,397.36007720076395 M574.0754759662422,397.36007720076395 L570.2738004397631,394.17305232644185 M570.2738004397631,394.17305232644185 L566.0002305202817,391.0730553654789 M566.0002305202817,391.0730553654789 L561.2720995887746,388.0676571678078 M561.2720995887746,388.0676571678078 L556.1074847810987,385.1640077159964 M556.1074847810987,385.1640077159964 L550.5251524023644,382.36883811745616 M550.5251524023644,382.36883811745616 L544.544453473436,379.6884642837314 M544.544453473436,379.6884642837314 L538.1852561353382,377.12879944890153 M538.1852561353382,377.12879944890153 L531.4679003541246,374.6953471543271 M531.4679003541246,374.6953471543271 L524.4131066708565,372.3932244539205 M524.4131066708565,372.3932244539205 L517.0419325874459,370.22716334328766 M517.0419325874459,370.22716334328766 L509.3757297092099,368.2015185801283 M509.3757297092099,368.2015185801283 L501.4360951229075,366.3202795449252 M501.4360951229075,366.3202795449252 L493.244810629195,364.5870839392374 M493.244810629195,364.5870839392374 L484.8238519856194,363.0052167524682 M484.8238519856194,363.0052167524682 L476.19531756301967,361.5776271833893 M476.19531756301967,361.5776271833893 L467.3814220349816,360.30693853533154 M467.3814220349816,360.30693853533154 L458.4044709563856,359.19544842171143 M458.4044709563856,359.19544842171143 L449.2868407252758,358.2451455377224 M449.2868407252758,358.2451455377224 L440.0509692923167,357.45770743832514 M440.0509692923167,357.45770743832514 L430.719326453083,356.8345163324453 M430.719326453083,356.8345163324453 L421.31441625050417,356.3766533960584 M421.31441625050417,356.3766533960584 L411.8587795533946,356.08490848632255 M411.8587795533946,356.08490848632255 L402.3749464079051,355.95978490791055 M402.3749464079051,355.95978490791055 L392.8854716305789,356.0014992364143 M392.8854716305789,356.0014992364143 L383.41292683220115,356.2099785447135 M383.41292683220115,356.2099785447135 L373.97983315611003,356.58486448935156 M373.97983315611003,356.58486448935156 L364.6087423456184,357.125505282459 M364.6087423456184,357.125505282459 L355.3221741421932,357.8309759689905 M583.809698371452,406.3936497235006 L583.062259255902,432.0566664611683 M607.6506131221845,413.9223596447845 L583.809698371452,406.3936497235006 M355.15606035902726,334.1872377195769 L364.47727743874583,333.50121102929694 M364.47727743874583,333.50121102929694 L373.88324524683867,332.9754744445554 M373.88324524683867,332.9754744445554 L383.3513825369956,332.61092486822 M383.3513825369956,332.61092486822 L392.8590766283449,332.40819433813544 M392.8590766283449,332.40819433813544 L402.3837459938945,332.36763032422147 M402.3837459938945,332.36763032422147 L411.9027586407086,332.48930354376057 M411.9027586407086,332.48930354376057 L421.3934993694183,332.7730039894163 M421.3934993694183,332.7730039894163 L430.83337752853134,333.2182436212443 M430.83337752853134,333.2182436212443 L440.1997910396349,333.82425652647964 M440.1997910396349,333.82425652647964 L449.47017397466976,334.58999426584984 M449.47017397466976,334.58999426584984 L458.62199372115515,335.5141164014429 M458.62199372115515,335.5141164014429 L467.63274833179497,336.59499599425965 M467.63274833179497,336.59499599425965 L476.4799961039458,337.8307042055123 M476.4799961039458,337.8307042055123 L485.1413646776725,339.21901241075614 M485.1413646776725,339.21901241075614 L493.59457092312465,340.75737583610317 M493.59457092312465,340.75737583610317 L501.81744624708125,342.4429332973942 M501.81744624708125,342.4429332973942 L509.78794272476875,344.27249750932566 M509.78794272476875,344.27249750932566 L517.4842045180919,346.2425385537774 M517.4842045180919,346.2425385537774 L524.8845584287271,348.34918480252475 M524.8845584287271,348.34918480252475 L531.9675747351749,350.5882095062779 M531.9675747351749,350.5882095062779 L538.7121158591492,352.95501916371035 M538.7121158591492,352.95501916371035 L545.0973792701318,355.4446458133912 M545.0973792701318,355.4446458133912 L551.102941178598,358.051745536362 M551.102941178598,358.051745536362 L556.7088480592517,360.77057577253106 M556.7088480592517,360.77057577253106 L561.8956620953695,363.59500202603647 M561.8956620953695,363.59500202603647 L566.6445290270207,366.51848556712105 M566.6445290270207,366.51848556712105 L570.9372830415764,369.5340797281633 M570.9372830415764,369.5340797281633 L574.7565016424493,372.63442783879947 M574.7565016424493,372.63442783879947 L578.0856246446556,375.8117599366826 M578.0856246446556,375.8117599366826 L580.9090184151116,379.0579001843809 M580.9090184151116,379.0579001843809 L583.2121103611601,382.3642661466954 M583.2121103611601,382.3642661466954 L584.9814736596584,385.7218716135095 M584.9814736596584,385.7218716135095 L586.2049325121493,389.12135078194484 M586.2049325121493,389.12135078194484 L586.8716764206325,392.5529566929692 M586.8716764206325,392.5529566929692 L586.9723852995595,396.00657877311147 M586.9723852995595,396.00657877311147 L586.4993335390031,399.47178626511754 M586.4993335390031,399.47178626511754 L585.4465184801749,402.93782161371433 M585.4465184801749,402.93782161371433 L583.809698371452,406.3936497235006 M355.15606035902726,334.1872377195769 L335.73500659934473,328.054273374414 M355.15606035902726,334.1872377195769 L355.3221741421932,357.8309759689905" stroke="black"  stroke-width="4"  fill="red"/>
<path d="M204.2093848981099,367.3980636462229 L204.96725400400013,391.9772614913843 M476.20083960769995,463.39504766137236 L464.74486495547075,464.731901223556 M464.74486495547075,464.731901223556 L453.0643559932309,465.85088802125284 M453.0643559932309,465.85088802125284 L441.1991606513184,466.7472612588986 M441.1991606513184,466.7472612588986 L429.1901397509397,467.41720592929533 M429.1901397509397,467.41720592929533 L417.07900083509173,467.8578468865242 M417.07900083509173,467.8578468865242 L404.9080374304445,468.0672963013113 M404.9080374304445,468.0672963013113 L392.71986919142836,468.0446529777501 M392.71986919142836,468.0446529777501 L380.55723247841297,467.79000819814274 M380.55723247841297,467.79000819814274 L368.4627074869539,467.3044612827796 M368.4627074869539,467.3044612827796 L356.47848247356455,466.59009628825345 M356.47848247356455,466.59009628825345 L344.64613056401566,465.6499749977716 M344.64613056401566,465.6499749977716 L333.00633273939724,464.48809478380764 M333.00633273939724,464.48809478380764 L321.5986873264104,463.10937622869477 M321.5986873264104,463.10937622869477 L310.4614828871356,461.51962120797384 M310.4614828871356,461.51962120797384 L299.63153006392247,459.72545039055046 M299.63153006392247,459.72545039055046 L289.14392994733714,457.7342734489933 M289.14392994733714,457.7342734489933 L279.03198481487874,455.5542175868287 M279.03198481487874,455.5542175868287 L269.3269706352889,453.19407420501767 M269.3269706352889,453.19407420501767 L260.05806262751366,450.66324195032865 M260.05806262751366,450.66324195032865 L251.25222705324938,447.9716491230752 M251.25222705324938,447.9716491230752 L242.93413538872065,445.12969068892227 M242.93413538872065,445.12969068892227 L235.12611219568947,442.1481586322992 M235.12611219568947,442.1481586322992 L227.84807658644363,439.038177612265 M227.84807658644363,439.038177612265 L221.1175232926905,435.8111380751523 M221.1175232926905,435.8111380751523 L214.94953272088645,432.47862406667514 M214.94953272088645,432.47862406667514 L209.3567819788185,429.05235219106254 M209.3567819788185,429.05235219106254 L204.34958896184338,425.5441088934369 M204.34958896184338,425.5441088934369 L199.93592834784332,421.96568961591254 M199.93592834784332,421.96568961591254 L196.12150560717262,418.32886029032164 M196.12150560717262,418.32886029032164 L192.9098534856731,414.6452782162378 M192.9098534856731,414.6452782162378 L190.3023681869896,410.92646850152056 M190.3023681869896,410.92646850152056 L188.29845968017003,407.18376476522883 M188.29845968017003,407.18376476522883 L186.89560308220894,403.4282790413983 M186.89560308220894,403.4282790413983 L186.08943676943127,399.67086217195305 M186.08943676943127,399.67086217195305 L185.8739171095867,395.92208405153343 M185.8739171095867,395.92208405153343 L186.2413878936291,392.19219345781477 M186.2413878936291,392.19219345781477 L187.18271503510937,388.49110160546996 M187.18271503510937,388.49110160546996 L188.68736110452133,384.82836675071366 M188.68736110452133,384.82836675071366 L190.7435379611614,381.2131718834617 M190.7435379611614,381.2131718834617 L193.33830740147263,377.6543244737068 M193.33830740147263,377.6543244737068 L196.45764768232897,374.16024330178567 M196.45764768232897,374.16024330178567 L200.08661598440935,370.7389458136942 M200.08661598440935,370.7389458136942 L204.2093848981099,367.3980636462229 M476.20083960769995,463.39504766137236 L475.86920186067414,490.61400632954536 M204.96725400400013,391.9772614913843 L200.86379503086008,395.4116148088095 M200.86379503086008,395.4116148088095 L197.25242898213787,398.92851349661237 M197.25242898213787,398.92851349661237 L194.1488922192206,402.52010453704844 M194.1488922192206,402.52010453704844 L191.56803686486114,406.1781392863072 M191.56803686486114,406.1781392863072 L189.5237946494919,409.89395764418384 M189.5237946494919,409.89395764418384 L188.0290153458764,413.65850117643237 M188.0290153458764,413.65850117643237 L187.09540081140614,417.46232676960403 M187.09540081140614,417.46232676960403 L186.73340506717,421.29560700339135 M186.73340506717,421.29560700339135 L186.95208266784726,425.1481531802817 M186.95208266784726,425.1481531802817 L187.75901489052168,429.00943123849845 M187.75901489052168,429.00943123849845 L189.160176038118,432.8685787313806 M189.160176038118,432.8685787313806 L191.15986480575333,436.7144461692373 M191.15986480575333,436.7144461692373 L193.76055070025322,440.5356173638595 M193.76055070025322,440.5356173638595 L196.96277689711147,444.32045015264566 M196.96277689711147,444.32045015264566 L200.76510963948297,448.0571073279765 M200.76510963948297,448.0571073279765 L205.1639891584457,451.73361754590763 M205.1639891584457,451.73361754590763 L210.15369421302233,455.337899491285 M210.15369421302233,455.337899491285 L215.72624662496435,458.85784310301807 M215.72624662496435,458.85784310301807 L221.87133813566413,462.281349044406 M221.87133813566413,462.281349044406 L228.5763150277454,465.59639109635197 M228.5763150277454,465.59639109635197 L235.82613473380005,468.7910804493592 M235.82613473380005,468.7910804493592 L243.60335531387898,471.8537282486293 M243.60335531387898,471.8537282486293 L251.88812584863183,474.77291956691073 M251.88812584863183,474.77291956691073 L260.65820562034816,477.53758191162797 M260.65820562034816,477.53758191162797 L269.8890226469281,480.1370511026373 M269.8890226469281,480.1370511026373 L279.5537257533578,482.56114258272896 M279.5537257533578,482.56114258272896 L289.62327009990224,484.80021587930787 M289.62327009990224,484.80021587930787 L300.06652490294374,486.84525405990235 M300.06652490294374,486.84525405990235 L310.85034742199036,488.6879219868412 M310.85034742199036,488.6879219868412 L321.93980923706,490.32062086084136 M321.93980923706,490.32062086084136 L333.29828479868473,491.7365614027938 M333.29828479868473,491.7365614027938 L344.88768161826647,492.9297942404374 M344.88768161826647,492.9297942404374 L356.66860718229316,493.8952739073578 M356.66860718229316,493.8952739073578 L368.6005944752485,494.62890172555603 M368.6005944752485,494.62890172555603 L380.6422909881617,495.127538381464 M380.6422909881617,495.127538381464 L392.7517338046034,495.389047092746 M392.7517338046034,495.389047092746 L404.88657105127294,495.4123007329941 M404.88657105127294,495.4123007329941 L417.0042958511149,495.19720572233007 M417.0042958511149,495.19720572233007 L429.0625171997961,494.7446860447699 M429.0625171997961,494.7446860447699 L441.01916767992805,494.05667727802984 M441.01916767992805,494.05667727802984 L452.8327614076634,493.13612736252225 M452.8327614076634,493.13612736252225 L464.4626529049545,491.9869479670035 M464.4626529049545,491.9869479670035 L475.86920186067414,490.61400632954536 M204.96725400400013,391.9772614913843 L224.21028365514132,398.9837441712983 M223.5211296553841,374.213973560555 L224.21028365514132,398.9837441712983 M204.2093848981099,367.3980636462229 L223.5211296553841,374.213973560555 M452.21416014391735,454.9291607918021 L476.20083960769995,463.39504766137236 M452.21416014391735,454.9291607918021 L441.4456801657532,455.86092915351605 M441.4456801657532,455.86092915351605 L430.5199955648124,456.5775463811676 M430.5199955648124,456.5775463811676 L419.478273636782,457.07576246353204 M419.478273636782,457.07576246353204 L408.3623904839462,457.3532917485359 M408.3623904839462,457.3532917485359 L397.214619890728,457.40886210932655 M397.214619890728,457.40886210932655 L386.07748164451186,457.24221681458454 M386.07748164451186,457.24221681458454 L374.9934134555049,456.85412248696946 M374.9934134555049,456.85412248696946 L364.0045134124041,456.24635786575794 M364.0045134124041,456.24635786575794 L353.15233845179483,455.42169612962175 M353.15233845179483,455.42169612962175 L342.47761273524867,454.38388416145284 M342.47761273524867,454.38388416145284 L332.02000509793777,453.13761903051284 M332.02000509793777,453.13761903051284 L321.81792305426,451.6884955196491 M321.81792305426,451.6884955196491 L311.9082831658473,450.04297389519957 M311.9082831658473,450.04297389519957 L302.32632850438256,448.20831689309153 M302.32632850438256,448.20831689309153 L293.1054514419434,446.1925450287818 M293.1054514419434,446.1925450287818 L284.2770382253555,444.0043651196318 M284.2770382253555,444.0043651196318 L275.8703585233098,441.65310707190116 M275.8703585233098,441.65310707190116 L267.91240447511694,439.1486659543244 M267.91240447511694,439.1486659543244 L260.4278547197185,436.5014193721942 M260.4278547197185,436.5014193721942 L253.4389812284645,433.72216225075834 M253.4389812284645,433.72216225075834 L246.9655978313114,430.82203898624846 M246.9655978313114,430.82203898624846 L241.02504342814635,427.8124715610883 M241.02504342814635,427.8124715610883 L235.63219279503193,424.70508231592714 M235.63219279503193,424.70508231592714 L230.79943047396483,421.511644966901 M230.79943047396483,421.511644966901 L226.53671166000848,418.244003992374 M226.53671166000848,418.244003992374 L222.85161149025396,414.91402137930754 M222.85161149025396,414.91402137930754 L219.74935852343404,411.5335182669304 M219.74935852343404,411.5335182669304 L217.23294038663587,408.11422063173217 M217.23294038663587,408.11422063173217 L215.30315631497962,404.66771265583753 M215.30315631497962,404.66771265583753 L213.9587459272979,401.2053852423496 M213.9587459272979,401.2053852423496 L213.1964516912097,397.7384007447966 M213.1964516912097,397.7384007447966 L213.0111436954533,394.2776609501466 M213.0111436954533,394.2776609501466 L213.39593912966055,390.83376077989976 M213.39593912966055,390.83376077989976 L214.3423038339584,387.41697661199083 M214.3423038339584,387.41697661199083 L215.84015384148117,384.0372422756633 M215.84015384148117,384.0372422756633 L217.87798865307406,380.7041081787944 M217.87798865307406,380.7041081787944 L220.4429735744254,377.4267572138997 M220.4429735744254,377.4267572138997 L223.5211296553841,374.213973560555 M451.9891353047505,481.91915547952067 L475.86920186067414,490.61400632954536 M452.21416014391735,454.9291607918021 L451.9891353047505,481.91915547952067 M224.21028365514132,398.9837441712983 L221.14704243779266,402.28619037139316 M221.14704243779266,402.28619037139316 L218.59511007137803,405.6548956914327 M218.59511007137803,405.6548956914327 L216.56837927813208,409.08082498162594 M216.56837927813208,409.08082498162594 L215.07960048246105,412.5545344055718 M215.07960048246105,412.5545344055718 L214.14019294679528,416.06620362081287 M214.14019294679528,416.06620362081287 L213.76016308614288,419.605619537297 M213.76016308614288,419.605619537297 L213.94797214132814,423.1622184219073 M213.94797214132814,423.1622184219073 L214.71043548193592,426.7251106513026 M214.71043548193592,426.7251106513026 L216.05262192505023,430.2830927817959 M216.05262192505023,430.2830927817959 L217.9777352594927,433.82469518048396 M217.9777352594927,433.82469518048396 L220.48699051243614,437.33821495843296 M220.48699051243614,437.33821495843296 L223.579552291578,440.81175222634835 M223.579552291578,440.81175222634835 L227.25240711291252,444.2332629877682 M227.25240711291252,444.2332629877682 L231.50031165088245,447.59060702035663 M231.50031165088245,447.59060702035663 L236.31568809987698,450.87160362636683 M236.31568809987698,450.87160362636683 L241.68859139185662,454.0640915090789 M241.68859139185662,454.0640915090789 L247.60666063767658,457.15598338107503 M247.60666063767658,457.15598338107503 L254.05505900358952,460.13534865547456 M254.05505900358952,460.13534865547456 L261.0165001473748,462.9904636167121 M261.0165001473748,462.9904636167121 L268.4712378545228,465.7098905870529 M268.4712378545228,465.7098905870529 L276.39708308001553,468.28255158298407 M276.39708308001553,468.28255158298407 L284.76945544782967,470.69779780869044 M284.76945544782967,470.69779780869044 L293.5614761793965,472.9454764325052 M293.5614761793965,472.9454764325052 L302.74400398711003,475.0160152365694 M302.74400398711003,475.0160152365694 L312.28579530501315,476.90048188983405 M312.28579530501315,476.90048188983405 L322.1536141411564,478.5906486517663 M322.1536141411564,478.5906486517663 L332.3123866150289,480.07906556923535 M332.3123866150289,480.07906556923535 L342.72537707741157,481.3591061685187 M342.72537707741157,481.3591061685187 L353.3543694504488,482.4250319827102 M353.3543694504488,482.4250319827102 L364.1598953649068,483.2720254800179 M364.1598953649068,483.2720254800179 L375.10143869202824,483.8962438066623 M375.10143869202824,483.8962438066623 L386.13765648973106,484.29484281765076 M386.13765648973106,484.29484281765076 L397.22666867237336,484.465998280105 M397.22666867237336,484.465998280105 L408.32625794102256,484.4089239684973 M408.32625794102256,484.4089239684973 L419.3941254634867,484.12388317992065 M419.3941254634867,484.12388317992065 L430.38821678107,483.6121805690094 M430.38821678107,483.6121805690094 L441.2668720882252,482.87616027057703 M441.2668720882252,482.87616027057703 L451.9891353047505,481.91915547952067" stroke="black"  stroke-width="4"  fill="red"/>
<path d="M605.9531234194882,465.4517767311836 L608.4302102755962,461.5241324744006 M608.4302102755962,461.5241324744006 L610.3091854723978,457.5732960362425 M610.3091854723978,457.5732960362425 L611.5928205182302,453.61093924598924 M611.5928205182302,453.61093924598924 L612.285690538732,449.648446141674 M612.285690538732,449.648446141674 L612.3940161241406,445.6969019640096 M612.3940161241406,445.6969019640096 L611.9256134347532,441.76705725888064 M611.9256134347532,441.76705725888064 L610.8897431191386,437.86929968430417 M610.8897431191386,437.86929968430417 L609.2970007016036,434.013646996635 M609.2970007016036,434.013646996635 L607.1592468661632,430.20972392204527 M607.1592468661632,430.20972392204527 L604.4894672698288,426.46675397208634 M604.4894672698288,426.46675397208634 L601.3016956597156,422.79355702214957 M601.3016956597156,422.79355702214957 L597.6108692450872,419.1985306406825 M597.6108692450872,419.1985306406825 L593.432784722354,415.68965865430096 M593.432784722354,415.68965865430096 L588.784000027575,412.2745067839692 M588.784000027575,412.2745067839692 L583.6817098629273,408.96023344606243 M583.6817098629273,408.96023344606243 L578.1437140401621,405.7535795037133 M578.1437140401621,405.7535795037133 L572.18831061971,402.6608959999923 M572.18831061971,402.6608959999923 L565.834238065416,399.6881268533974 M565.834238065416,399.6881268533974 L559.1006313827291,396.84083260423813 M559.1006313827291,396.84083260423813 L552.0069358558135,394.12419790556635 M552.0069358558135,394.12419790556635 L544.5728659348099,391.54304083474864 M544.5728659348099,391.54304083474864 L536.8183559590005,389.1018261967616 M536.8183559590005,389.1018261967616 L528.763527787724,386.8046715654481 M528.763527787724,386.8046715654481 L520.4286567594922,384.6553590966271 M520.4286567594922,384.6553590966271 L511.83412610164305,382.65734974988476 M511.83412610164305,382.65734974988476 L503.0004074977312,380.813792926784 M503.0004074977312,380.813792926784 L493.94803598024646,379.1275403271195 M493.94803598024646,379.1275403271195 L484.6975840143291,377.6011467621022 M484.6975840143291,377.6011467621022 L475.2696893325522,376.2368846145155 M475.2696893325522,376.2368846145155 L465.68497295135916,375.0367575884846 M465.68497295135916,375.0367575884846 L455.964089527879,374.0024968675256 M455.964089527879,374.0024968675256 L446.1276809462834,373.1355842240293 M446.1276809462834,373.1355842240293 L436.1963935530783,372.4372453279387 M436.1963935530783,372.4372453279387 L426.19086292517375,371.90845301918347 M426.19086292517375,371.90845301918347 L416.1317419909899,371.54994626391294 M416.1317419909899,371.54994626391294 L406.0396637026315,371.36222054256024 M406.0396637026315,371.36222054256024 L395.9352573777402,371.345537485121 M395.9352573777402,371.345537485121 L385.8391582870012,371.49991548771635 M385.8391582870012,371.49991548771635 L375.77198836637297,371.82514186142674 M375.77198836637297,371.82514186142674 L365.7543876592962,372.3207707478043 M365.7543876592962,372.3207707478043 L355.8070017561558,372.98610915912735 M355.8070017561558,372.98610915912735 L345.9504593812127,373.82023180056916 M345.9504593812127,373.82023180056916 L336.2054230896819,374.82196015568667 M335.9710788329699,351.52401243909685 L336.2054230896819,374.82196015568667 M335.9710788329699,351.52401243909685 L345.75216880435005,350.54880363790437 M345.75216880435005,350.54880363790437 L355.64504540233344,349.7367704494875 M355.64504540233344,349.7367704494875 L365.6289924548018,349.08905630201014 M365.6289924548018,349.08905630201014 L375.6833287260045,348.60655886700135 M375.6833287260045,348.60655886700135 L385.78735681016997,348.28995044179277 M385.78735681016997,348.28995044179277 L395.92038540713924,348.1396635362914 M395.92038540713924,348.1396635362914 L406.0617417038586,348.15590447347176 M406.0617417038586,348.15590447347176 L416.190739594281,348.33865542362577 M416.190739594281,348.33865542362577 L426.28669881329216,348.6876625769585 M426.28669881329216,348.6876625769585 L436.32893509044743,349.2024452722338 M436.32893509044743,349.2024452722338 L446.2967435242932,349.8822866050546 M446.2967435242932,349.8822866050546 L456.16943582735007,350.7262427678333 M456.16943582735007,350.7262427678333 L465.92631187925474,351.73312457263484 M465.92631187925474,351.73312457263484 L475.5466747958494,352.90149423629714 M475.5466747958494,352.90149423629714 L485.0098134196642,354.22967185991206 M485.0098134196642,354.22967185991206 L494.295048687815,355.71571289006033 M494.295048687815,355.71571289006033 L503.3816828869298,357.35741181209835 M503.3816828869298,357.35741181209835 L512.2490817364658,359.1522887108017 M512.2490817364658,359.1522887108017 L520.8766462543365,361.09757513244426 M520.8766462543365,361.09757513244426 L529.2438385876713,363.19021322694306 M529.2438385876713,363.19021322694306 L537.3302070358565,365.4268421848433 M537.3302070358565,365.4268421848433 L545.1154053917421,367.8037887742555 M545.1154053917421,367.8037887742555 L552.5792385492462,370.3170534081773 M552.5792385492462,370.3170534081773 L559.7016965358484,372.9622985501252 M559.7016965358484,372.9622985501252 L566.4629868893059,375.7348427335026 M566.4629868893059,375.7348427335026 L572.8435840211023,378.62964750376426 M572.8435840211023,378.62964750376426 L578.824270410461,381.64130824141506 M578.824270410461,381.64130824141506 L584.386223147699,384.76404675266775 M584.386223147699,384.76404675266775 L589.5110579293472,387.99168802472894 M589.5110579293472,387.99168802472894 L594.1808871550912,391.31767695379335 M594.1808871550912,391.31767695379335 L598.3784272235325,394.73505121027694 M598.3784272235325,394.73505121027694 L602.0870304023291,398.2364510908014 M602.0870304023291,398.2364510908014 L605.2908098927111,401.8141088692666 M605.2908098927111,401.8141088692666 L607.9747386221783,405.4598529176089 M607.9747386221783,405.4598529176089 L610.1246935793846,409.1650992353597 M610.1246935793846,409.1650992353597 L611.7276012650673,412.920869511018 M611.7276012650673,412.920869511018 L612.7715151594008,416.7177933622258 M612.7715151594008,416.7177933622258 L613.2457567922575,420.5461161958882 M613.2457567922575,420.5461161958882 L613.1409861196361,424.39572163548377 M613.1409861196361,424.39572163548377 L612.4493119778242,428.25613826142387 M612.4493119778242,428.25613826142387 L611.1644442347598,432.11656699696414 M611.1644442347598,432.11656699696414 L609.2817443876014,435.9659160174571 M609.2817443876014,435.9659160174571 L606.7983848614107,439.79281142571534 M606.7983848614107,439.79281142571534 L605.9531234194882,465.4517767311836 M355.4870618693035,381.3002040248115 L336.2054230896819,374.82196015568667 M605.9531234194882,465.4517767311836 L582.3208743301573,457.5118150647306 M582.3208743301573,457.5118150647306 L583.9508141760467,453.8668125244111 M583.9508141760467,453.8668125244111 L585.0015711692648,450.21079009759563 M585.0015711692648,450.21079009759563 L585.4772725004894,446.5553866993082 M585.4772725004894,446.5553866993082 L585.3837930270084,442.9119516760751 M585.3837930270084,442.9119516760751 L584.728718632454,439.29149272062085 M584.728718632454,439.29149272062085 L583.5212196265151,435.7046826953912 M583.5212196265151,435.7046826953912 L581.771948380878,432.1618136307706 M581.771948380878,432.1618136307706 L579.4929159540271,428.67277800741346 M579.4929159540271,428.67277800741346 L576.6973793460581,425.2470701792985 M576.6973793460581,425.2470701792985 L573.3997376634258,421.89376061332723 M573.3997376634258,421.89376061332723 L569.6154485245413,418.62149265456156 M569.6154485245413,418.62149265456156 L565.3608949999657,415.43848302667607 M565.3608949999657,415.43848302667607 L560.6533221840859,412.35251373680273 M560.6533221840859,412.35251373680273 L555.5107193342867,409.3709352785327 M555.5107193342867,409.3709352785327 L549.9517655665708,406.5006685446006 M549.9517655665708,406.5006685446006 L543.9957258362883,403.7482084739334 M543.9957258362883,403.7482084739334 L537.6623835940728,401.11963677896335 M537.6623835940728,401.11963677896335 L530.9719956396842,398.6206146179175 M530.9719956396842,398.6206146179175 L523.9452011443448,396.25640630601623 M523.9452011443448,396.25640630601623 L516.6029781162723,394.0318806704726 M516.6029781162723,394.0318806704726 L508.9666005913393,391.9515189747875 M508.9666005913393,391.9515189747875 L501.05759005664214,390.0194269992392 M501.05759005664214,390.0194269992392 L492.8976547534458,388.23934901611744 M492.8976547534458,388.23934901611744 L484.5086987192667,386.6146666423274 M484.5086987192667,386.6146666423274 L475.9127505199216,385.14841613962193 M475.9127505199216,385.14841613962193 L467.13195676313615,383.8432985063886 M467.13195676313615,383.8432985063886 L458.188556564568,382.7016796247062 M458.188556564568,382.7016796247062 L449.1048613616059,381.7256074299338 M449.1048613616059,381.7256074299338 L439.9032454332758,380.91680957940997 M439.9032454332758,380.91680957940997 L430.60611606677327,380.27670963328615 M430.60611606677327,380.27670963328615 L421.23591571527817,379.806421179037 M421.23591571527817,379.806421179037 L411.8151243236287,379.506757782074 M411.8151243236287,379.506757782074 L402.3662116105057,379.37823786170014 M402.3662116105057,379.37823786170014 L392.91167228402446,379.4210844971677 M392.91167228402446,379.4210844971677 L383.4740178468463,379.6352225733607 M383.4740178468463,379.6352225733607 L374.07570933379213,380.0202829798872 M374.07570933379213,380.0202829798872 L364.7392378324063,380.5755943741235 M364.7392378324063,380.5755943741235 L355.4870618693035,381.3002040248115 M583.062259255902,432.0566664611683 L582.3208743301573,457.5118150647306 M606.7983848614107,439.79281142571534 L583.062259255902,432.0566664611683 M355.3221741421932,357.8309759689905 L364.6087423456184,357.125505282459 M364.6087423456184,357.125505282459 L373.97983315611003,356.58486448935156 M373.97983315611003,356.58486448935156 L383.41292683220115,356.2099785447135 M383.41292683220115,356.2099785447135 L392.8854716305789,356.0014992364143 M392.8854716305789,356.0014992364143 L402.3749464079051,355.95978490791055 M402.3749464079051,355.95978490791055 L411.8587795533946,356.08490848632255 M411.8587795533946,356.08490848632255 L421.31441625050417,356.3766533960584 M421.31441625050417,356.3766533960584 L430.719326453083,356.8345163324453 M430.719326453083,356.8345163324453 L440.0509692923167,357.45770743832514 M440.0509692923167,357.45770743832514 L449.2868407252758,358.2451455377224 M449.2868407252758,358.2451455377224 L458.4044709563856,359.19544842171143 M458.4044709563856,359.19544842171143 L467.3814220349816,360.30693853533154 M467.3814220349816,360.30693853533154 L476.19531756301967,361.5776271833893 M476.19531756301967,361.5776271833893 L484.8238519856194,363.0052167524682 M484.8238519856194,363.0052167524682 L493.244810629195,364.5870839392374 M493.244810629195,364.5870839392374 L501.4360951229075,366.3202795449252 M501.4360951229075,366.3202795449252 L509.3757297092099,368.2015185801283 M509.3757297092099,368.2015185801283 L517.0419325874459,370.22716334328766 M517.0419325874459,370.22716334328766 L524.4131066708567,372.3932244539206 M524.4131066708567,372.3932244539206 L531.4679003541246,374.6953471543271 M531.4679003541246,374.6953471543271 L538.1852561353382,377.12879944890153 M538.1852561353382,377.12879944890153 L544.544453473436,379.6884642837314 M544.544453473436,379.6884642837314 L550.5251524023644,382.36883811745616 M550.5251524023644,382.36883811745616 L556.1074847810987,385.1640077159964 M556.1074847810987,385.1640077159964 L561.2720995887746,388.0676571678078 M561.2720995887746,388.0676571678078 L566.0002305202817,391.0730553654789 M566.0002305202817,391.0730553654789 L570.2738004397631,394.17305232644185 M570.2738004397631,394.17305232644185 L574.0754759662422,397.36007720076395 M574.0754759662422,397.36007720076395 L577.3887858996409,400.62613502131836 M577.3887858996409,400.62613502131836 L580.1981850533396,403.96281445862337 M580.1981850533396,403.96281445862337 L582.489188025239,407.3612872062829 M582.489188025239,407.3612872062829 L584.2484533567643,410.8123110077243 M584.2484533567643,410.8123110077243 L585.463888074492,414.3062546305702 M585.463888074492,414.3062546305702 L586.1247611966967,417.83309637069766 M586.1247611966967,417.83309637069766 L586.221827972306,421.3824421839093 M586.221827972306,421.3824421839093 L585.7474330896143,424.9435704105866 M585.7474330896143,424.9435704105866 L584.695638208886,428.5054250537441 M584.695638208886,428.5054250537441 L583.062259255902,432.0566664611683 M355.3221741421932,357.8309759689905 L335.9710788329699,351.52401243909685 M355.3221741421932,357.8309759689905 L355.4870618693035,381.3002040248115" stroke="black"  stroke-width="4"  fill="red"/>
<path d="M204.96725400400013,391.9772614913843 L205.71927865803676,416.3669121742567 M475.86920186067414,490.61400632954536 L464.4626529049545,491.9869479670035 M464.4626529049545,491.9869479670035 L452.8327614076634,493.13612736252225 M452.8327614076634,493.13612736252225 L441.01916767992805,494.05667727802984 M441.01916767992805,494.05667727802984 L429.0625171997961,494.7446860447699 M429.0625171997961,494.7446860447699 L417.0042958511149,495.19720572233007 M417.0042958511149,495.19720572233007 L404.88657105127294,495.4123007329941 M404.88657105127294,495.4123007329941 L392.7517338046034,495.389047092746 M392.7517338046034,495.389047092746 L380.6422909881617,495.127538381464 M380.6422909881617,495.127538381464 L368.6005944752485,494.62890172555603 M368.6005944752485,494.62890172555603 L356.66860718229316,493.8952739073578 M356.66860718229316,493.8952739073578 L344.88768161826647,492.9297942404374 M344.88768161826647,492.9297942404374 L333.29828479868473,491.7365614027938 M333.29828479868473,491.7365614027938 L321.93980923706,490.32062086084136 M321.93980923706,490.32062086084136 L310.85034742199036,488.6879219868412 M310.85034742199036,488.6879219868412 L300.06652490294374,486.84525405990235 M300.06652490294374,486.84525405990235 L289.62327009990224,484.80021587930787 M289.62327009990224,484.80021587930787 L279.5537257533578,482.56114258272896 M279.5537257533578,482.56114258272896 L269.8890226469281,480.1370511026373 M269.8890226469281,480.1370511026373 L260.65820562034816,477.53758191162797 M260.65820562034816,477.53758191162797 L251.88812584863183,474.77291956691073 M251.88812584863183,474.77291956691073 L243.60335531387898,471.8537282486293 M243.60335531387898,471.8537282486293 L235.82613473380005,468.7910804493592 M235.82613473380005,468.7910804493592 L228.5763150277454,465.59639109635197 M228.5763150277454,465.59639109635197 L221.87133813566413,462.281349044406 M221.87133813566413,462.281349044406 L215.72624662496435,458.85784310301807 M215.72624662496435,458.85784310301807 L210.15369421302233,455.337899491285 M210.15369421302233,455.337899491285 L205.1639891584457,451.73361754590763 M205.1639891584457,451.73361754590763 L200.76510963948297,448.0571073279765 M200.76510963948297,448.0571073279765 L196.96277689711147,444.32045015264566 M196.96277689711147,444.32045015264566 L193.76055070025322,440.5356173638595 M193.76055070025322,440.5356173638595 L191.15986480575333,436.7144461692373 M191.15986480575333,436.7144461692373 L189.160176038118,432.8685787313806 M189.160176038118,432.8685787313806 L187.75901489052168,429.00943123849845 M187.75901489052168,429.00943123849845 L186.95208266784726,425.1481531802817 M186.95208266784726,425.1481531802817 L186.73340506717,421.29560700339135 M186.73340506717,421.29560700339135 L187.09540081140614,417.46232676960403 M187.09540081140614,417.46232676960403 L188.0290153458764,413.65850117643237 M188.0290153458764,413.65850117643237 L189.5237946494919,409.89395764418384 M189.5237946494919,409.89395764418384 L191.56803686486114,406.1781392863072 M191.56803686486114,406.1781392863072 L194.1488922192206,402.52010453704844 M194.1488922192206,402.52010453704844 L197.25242898213787,398.92851349661237 M197.25242898213787,398.92851349661237 L200.86379503086008,395.4116148088095 M200.86379503086008,395.4116148088095 L204.96725400400013,391.9772614913843 M475.86920186067414,490.61400632954536 L475.5404383651629,517.597062619674 M205.71927865803676,416.3669121742567 L201.63495485486933,419.8931949118823 M201.63495485486933,419.8931949118823 L198.04102765207722,423.50411050302745 M198.04102765207722,423.50411050302745 L194.95314326837956,427.19158772576594 M194.95314326837956,427.19158772576594 L192.38606406131294,430.947150139348 M192.38606406131294,430.947150139348 L190.35363270266112,434.7618999614737 M190.35363270266112,434.7618999614737 L188.86861150298097,438.6265316678138 M188.86861150298097,438.6265316678138 L187.9426170134868,442.5313461308257 M187.9426170134868,442.5313461308257 L187.58602082493871,446.46625111537116 M187.58602082493871,446.46625111537116 L187.80779892884746,450.4207850238841 M187.80779892884746,450.4207850238841 L188.6154586207925,454.3841333231525 M188.6154586207925,454.3841333231525 L190.0149057953087,458.3451460522728 M190.0149057953087,458.3451460522728 L192.0103770999585,462.29238031981635 M192.0103770999585,462.29238031981635 L194.60428749291194,466.21412122970673 M194.60428749291194,466.21412122970673 L197.79713405557825,470.0984237040076 M197.79713405557825,470.0984237040076 L201.58744616171703,473.933144230678 M201.58744616171703,473.933144230678 L205.97163760992936,477.706003353931 M205.97163760992936,477.706003353931 L210.94397187459506,481.4046104313341 M210.94397187459506,481.4046104313341 L216.4964676440082,485.0165469205762 M216.4964676440082,485.0165469205762 L222.6188265312271,488.52940678968673 M222.6188265312271,488.52940678968673 L229.2984183012768,491.9308604244521 M229.2984183012768,491.9308604244521 L236.52023816346508,495.2087204576833 M236.52023816346508,495.2087204576833 L244.26689674348842,498.3510057812886 M244.26689674348842,498.3510057812886 L252.5186109164302,501.34601726039085 M252.5186109164302,501.34601726039085 L261.2532232314316,504.18240781834953 M261.2532232314316,504.18240781834953 L270.44626044118036,506.84924980686736 M270.44626044118036,506.84924980686736 L280.0709855137072,509.33610793598626 M280.0709855137072,509.33610793598626 L290.09848286141727,511.63310516781206 M290.09848286141727,511.63310516781206 L300.49776557871706,513.7310039863257 M300.49776557871706,513.7310039863257 L311.23584897928487,515.6212659165194 M311.23584897928487,515.6212659165194 L322.2779756671251,517.2961072415242 M322.2779756671251,517.2961072415242 L333.5877033839292,518.7485738482326 M333.5877033839292,518.7485738482326 L345.1271337738997,519.9725721873147 M345.1271337738997,519.9725721873147 L356.857078072395,520.9629347320556 M356.857078072395,520.9629347320556 L368.73728106084815,521.7154637988517 M368.73728106084815,521.7154637988517 L380.7266085935827,522.226944307934 M380.7266085935827,522.226944307934 L392.7833207796001,522.4951879539115 M392.7833207796001,522.4951879539115 L404.8652917147094,522.5190404388959 M404.8652917147094,522.5190404388959 L416.9302416371857,522.298405938611 M416.9302416371857,522.298405938611 L428.93600583525745,521.8342307046414 M428.93600583525745,521.8342307046414 L440.8407406764192,521.1284969731664 M440.8407406764192,521.1284969731664 L452.60317966892205,520.1842238220838 M452.60317966892205,520.1842238220838 L464.1828904914732,519.0054173858196 M464.1828904914732,519.0054173858196 L475.5404383651629,517.597062619674 M205.71927865803676,416.3669121742567 L224.89407633453993,423.5608166688477 M224.21028365514132,398.9837441712983 L224.89407633453993,423.5608166688477 M204.96725400400013,391.9772614913843 L224.21028365514132,398.9837441712983 M451.9891353047505,481.91915547952067 L475.86920186067414,490.61400632954536 M451.9891353047505,481.91915547952067 L441.2668720882252,482.87616027057703 M441.2668720882252,482.87616027057703 L430.38821678107,483.6121805690094 M430.38821678107,483.6121805690094 L419.3941254634867,484.12388317992065 M419.3941254634867,484.12388317992065 L408.32625794102256,484.4089239684973 M408.32625794102256,484.4089239684973 L397.22666867237336,484.465998280105 M397.22666867237336,484.465998280105 L386.13765648973106,484.29484281765076 M386.13765648973106,484.29484281765076 L375.10143869202824,483.8962438066623 M375.10143869202824,483.8962438066623 L364.1598953649068,483.2720254800179 M364.1598953649068,483.2720254800179 L353.3543694504488,482.4250319827102 M353.3543694504488,482.4250319827102 L342.72537707741157,481.3591061685187 M342.72537707741157,481.3591061685187 L332.3123866150289,480.07906556923535 M332.3123866150289,480.07906556923535 L322.1536141411564,478.5906486517663 M322.1536141411564,478.5906486517663 L312.28579530501315,476.90048188983405 M312.28579530501315,476.90048188983405 L302.74400398711003,475.0160152365694 M302.74400398711003,475.0160152365694 L293.5614761793965,472.9454764325052 M293.5614761793965,472.9454764325052 L284.76945544782967,470.69779780869044 M284.76945544782967,470.69779780869044 L276.39708308001553,468.28255158298407 M276.39708308001553,468.28255158298407 L268.4712378545228,465.7098905870529 M268.4712378545228,465.7098905870529 L261.0165001473744,462.9904636167119 M261.0165001473744,462.9904636167119 L254.05505900358952,460.13534865547456 M254.05505900358952,460.13534865547456 L247.60666063767658,457.15598338107503 M247.60666063767658,457.15598338107503 L241.68859139185662,454.0640915090789 M241.68859139185662,454.0640915090789 L236.31568809987698,450.87160362636683 M236.31568809987698,450.87160362636683 L231.50031165088245,447.59060702035663 M231.50031165088245,447.59060702035663 L227.25240711291252,444.2332629877682 M227.25240711291252,444.2332629877682 L223.579552291578,440.81175222634835 M223.579552291578,440.81175222634835 L220.48699051243614,437.33821495843296 M220.48699051243614,437.33821495843296 L217.9777352594927,433.82469518048396 M217.9777352594927,433.82469518048396 L216.05262192505023,430.2830927817959 M216.05262192505023,430.2830927817959 L214.71043548193592,426.7251106513026 M214.71043548193592,426.7251106513026 L213.94797214132814,423.1622184219073 M213.94797214132814,423.1622184219073 L213.76016308614288,419.605619537297 M213.76016308614288,419.605619537297 L214.14019294679528,416.06620362081287 M214.14019294679528,416.06620362081287 L215.07960048246105,412.5545344055718 M215.07960048246105,412.5545344055718 L216.56837927813208,409.08082498162594 M216.56837927813208,409.08082498162594 L218.59511007137803,405.6548956914327 M218.59511007137803,405.6548956914327 L221.14704243779266,402.28619037139316 M221.14704243779266,402.28619037139316 L224.21028365514132,398.9837441712983 M451.766041781943,508.67750365891396 L475.5404383651629,517.597062619674 M451.9891353047505,481.91915547952067 L451.766041781943,508.67750365891396 M224.89407633453993,423.5608166688477 L221.84561142508443,426.95143257855693 M221.84561142508443,426.95143257855693 L219.3066062511504,430.40996442099294 M219.3066062511504,430.40996442099294 L217.29086820731735,433.9271299052867 M217.29086820731735,433.9271299052867 L215.81106435780322,437.49322831890265 M215.81106435780322,437.49322831890265 L214.87853363721123,441.0981736814621 M214.87853363721123,441.0981736814621 L214.50320580970381,444.73147817963263 M214.50320580970381,444.73147817963263 L214.69347007990086,448.3822954882719 M214.69347007990086,448.3822954882719 L215.45607523146052,452.03944626294003 M215.45607523146052,452.03944626294003 L216.7960298038002,455.6914305986831 M216.7960298038002,455.6914305986831 L218.71648460820444,459.32647697324455 M218.71648460820444,459.32647697324455 L221.21861002064577,462.932576082162 M221.21861002064577,462.932576082162 L224.30153511995877,466.49751806277374 M224.30153511995877,466.49751806277374 L227.96222110499122,470.0089467703543 M227.96222110499122,470.0089467703543 L232.19541032287327,473.4544088847166 M232.19541032287327,473.4544088847166 L236.9935226250268,476.8214110669717 M236.9935226250268,476.8214110669717 L242.34662327081418,480.09748132383396 M242.34662327081418,480.09748132383396 L248.24237508776736,483.2702249397133 M248.24237508776736,483.2702249397133 L254.6659791000662,486.3274092006725 M254.6659791000662,486.3274092006725 L261.6002012830579,489.25701472245163 M261.6002012830579,489.25701472245163 L269.0253626336661,492.0473165100278 M269.0253626336661,492.0473165100278 L276.9193564592477,494.68695934187946 M276.9193564592477,494.68695934187946 L285.2576998993928,497.16502886556776 M285.2576998993928,497.16502886556776 L294.01362661525155,499.47111989244473 M294.01362661525155,499.47111989244473 L303.15812260462485,501.59542302048106 M303.15812260462485,501.59542302048106 L312.66008571768964,503.5287852153505 M312.66008571768964,503.5287852153505 L322.4864349143949,505.2627759637841 M322.4864349143949,505.2627759637841 L332.6022639226965,506.7897621447659 M332.6022639226965,506.7897621447659 L342.97101628048,508.10295469233705 M342.97101628048,508.10295469233705 L353.55466549224786,509.19647459685046 M353.55466549224786,509.19647459685046 L364.31394168894457,510.0653865080297 M364.31394168894457,510.0653865080297 L375.20853471510753,510.705753715399 M375.20853471510753,510.705753715399 L386.1973134897036,511.1146626750429 M386.1973134897036,511.1146626750429 L397.23861374614154,511.29024466681886 M397.23861374614154,511.29024466681886 L408.29043638297077,511.2316942962331 M408.29043638297077,511.2316942962331 L419.31070130289373,510.93928128089027 M419.31070130289373,510.93928128089027 L430.2575711721279,510.41434208313837 M430.2575711721279,510.41434208313837 L441.089600319728,509.6592780284022 M441.089600319728,509.6592780284022 L451.766041781943,508.67750365891396" stroke="black"  stroke-width="4"  fill="red"/></svg>