<svg viewBox="0 0 800 800" xmlns="http://www.w3.org/2000/svg"><path d="M499.74134581327166,369.23651131772954 L494.0497798798344,367.6352408672218 M494.0497798798344,367.6352408672218 L488.1469543372818,366.1342512149036 M488.1469543372818,366.1342512149036 L482.04794466499544,364.7360398330038 M482.04794466499544,364.7360398330038 L475.7678756594638,363.4428892262735 M475.7678756594638,363.4428892262735 L469.32191062261904,362.2568674108329 M469.32191062261904,362.2568674108329 L462.72527751731883,361.1798307851029 M462.72527751731883,361.1798307851029 L455.9932356171852,360.2134256305497 M455.9932356171852,360.2134256305497 L449.1410169893647,359.35912314486615 M449.1410169893647,359.35912314486615 L442.1839024789657,358.61818613443296 M442.1839024789657,358.61818613443296 L435.1371548413971,357.9917092302602 M435.1371548413971,357.9917092302602 L428.0160425367689,357.4805933147737 M428.0160425367689,357.4805933147737 L420.83582403120135,357.08558083620665 M420.83582403120135,357.08558083620665 L413.6117637700067,356.80722961452153 M413.6117637700067,356.80722961452153 L406.3591061276758,356.64593765524216 M406.3591061276758,356.64593765524216 L399.09311112371006,356.6019312463684 M399.09311112371006,356.6019312463684 L391.8290138574927,356.67527206283773 M391.8290138574927,356.67527206283773 L384.582077510036,356.8658562106355 M384.582077510036,356.8658562106355 L377.36754755816753,357.1734163464855 M377.36754755816753,357.1734163464855 L370.20067330590734,357.59751415597253 M370.20067330590734,357.59751415597253 L363.0967229225743,358.1375454659369 M363.0967229225743,358.1375454659369 L356.0709561206206,358.79273096307764 M356.0709561206206,358.79273096307764 L349.1386309596618,359.5621164291558 M349.1386309596618,359.5621164291558 L342.3150315769834,360.4445738530005 M342.3150315769834,360.4445738530005 L335.6154018270855,361.4387784594654 M335.6154018270855,361.4387784594654 L329.05501023967554,362.54322525859624 M329.05501023967554,362.54322525859624 L322.64909850752883,363.7562124595238 M322.64909850752883,363.7562124595238 L316.41286909110073,365.07582941909277 M316.41286909110073,365.07582941909277 L310.36148724731845,366.4999565454658 M310.36148724731845,366.4999565454658 L304.51007003520954,368.026260403291 M304.51007003520954,368.026260403291 L298.8736532157973,369.65218034041766 M298.8736532157973,369.65218034041766 L293.46718128817145,371.37492458289125 M293.46718128817145,371.37492458289125 L288.3054512069231,373.19145234997603 M288.3054512069231,373.19145234997603 L283.4031184056726,375.09847930134083 M283.4031184056726,375.09847930134083 L278.7746623243311,377.092467606773 M278.7746623243311,377.092467606773 L274.4343015166549,379.1696029610328 M274.4343015166549,379.1696029610328 L270.3960035824556,381.32580521309455 M270.3960035824556,381.32580521309455 L266.6734122608744,383.5567170455367 M266.6734122608744,383.5567170455367 L263.27980210428535,385.857695383628 M263.27980210428535,385.857695383628 L260.2280268513381,388.2238063168263 M260.2280268513381,388.2238063168263 L257.5304532293608,390.64982302614914 M257.5304532293608,390.64982302614914 L255.19887120695276,393.1302229870358 M255.19887120695276,393.1302229870358 L253.24448196885447,395.6591910187283 M253.24448196885447,395.6591910187283 L251.67777943245852,398.230613864607 M251.67777943245852,398.230613864607 L250.50850004638718,400.8380874596335 M250.50850004638718,400.8380874596335 L249.7455114381986,403.4749227199508 M249.7455114381986,403.4749227199508 L249.3967866722164,406.134149868142 M249.3967866722164,406.134149868142 L249.46925331232003,408.8085309335915 M249.46925331232003,408.8085309335915 L249.96877315814442,411.4905790974334 M249.96877315814442,411.4905790974334 L250.90000465666287,414.1725598011226 M250.90000465666287,414.1725598011226 L252.26635624477237,416.8465299631437 M252.26635624477237,416.8465299631437 L254.0699012878675,419.5043366609903 M254.0699012878675,419.5043366609903 L256.3112671003766,422.13767058172573 M256.3112671003766,422.13767058172573 L258.98961261528444,424.7380644562978 M258.98961261528444,424.7380644562978 L262.10249929176433,427.2969552400482 M262.10249929176433,427.2969552400482 L265.6458673533306,429.8057048559805 M265.6458673533306,429.8057048559805 L269.613983175425,432.2556289664665 M269.613983175425,432.2556289664665 L273.99937245741853,434.63805777024277 M273.99937245741853,434.63805777024277 L278.79278394547737,436.9443731361991 M278.79278394547737,436.9443731361991 L283.98318619083653,439.1660486894907 M283.98318619083653,439.1660486894907 L289.5577239145784,441.2947101600837 M289.5577239145784,441.2947101600837 L295.5017468902179,443.3221757907274 M295.5017468902179,443.3221757907274 L301.7988262723247,445.240507564643 M301.7988262723247,445.240507564643 L308.43075628904455,447.0420721647876 M308.43075628904455,447.0420721647876 L315.37763663547196,448.71958216888453 M315.37763663547196,448.71958216888453 L322.6179155690226,450.2661544807671 M322.6179155690226,450.2661544807671 L330.1284474219869,451.6753595523985 M330.1284474219869,451.6753595523985 L337.8846453948507,452.9412632797579 M337.8846453948507,452.9412632797579 L345.86056272689007,454.05847236603466 M345.86056272689007,454.05847236603466 L354.0289700627848,455.0221900889113 M354.0289700627848,455.0221900889113 L362.3615874680763,455.8282345636268 M362.3615874680763,455.8282345636268 L370.8291387080585,456.4730898220199 M370.8291387080585,456.4730898220199 L379.40160039716403,456.95392504107974 M379.40160039716403,456.95392504107974 L388.048297384716,457.2686141059554 M388.048297384716,457.2686141059554 L396.73814395055757,457.4157700845406 M396.73814395055757,457.4157700845406 L405.4397790386278,457.3947340287593 M405.4397790386278,457.3947340287593 L414.1217718145313,457.20560665906737 M414.1217718145313,457.20560665906737 L422.7528158178488,456.84922041456355 M422.7528158178488,456.84922041456355 L431.3019033906331,456.32715433919856 M431.3019033906331,456.32715433919856 L439.7385088210574,455.64170767435246 M439.7385088210574,455.64170767435246 L448.0327794269046,454.7958915032834 M448.0327794269046,454.7958915032834 L456.1556804305441,453.7933843225123 M456.1556804305441,453.7933843225123 L464.0791682116426,452.63852546995423 M464.0791682116426,452.63852546995423 L471.7763356838822,451.3362698725136 M471.7763356838822,451.3362698725136 L479.2215525684778,449.89214660391565 M479.2215525684778,449.89214660391565 L486.39058580391,448.31221775395727 M486.39058580391,448.31221775395727 L493.26069617952027,446.6030347670301 M493.26069617952027,446.6030347670301 L499.8107101493883,444.77157916936477 M499.8107101493883,444.77157916936477 L506.021162160308,442.82523553668346 M506.021162160308,442.82523553668346 L511.8742955300942,440.7717198084284 M511.8742955300942,440.7717198084284 L517.3540973688035,438.6190274556064 M517.3540973688035,438.6190274556064 L522.4463777500205,436.3753975797335 M522.4463777500205,436.3753975797335 L527.1387442234741,434.0492490117217 M527.1387442234741,434.0492490117217 L531.4206156581266,431.64913598226445 M531.4206156581266,431.64913598226445 L535.2831851912435,429.18369418126025 M535.2831851912435,429.18369418126025 L538.7194023452125,426.6615970870408 M538.7194023452125,426.6615970870408 L541.723961237407,424.09151870701015 M541.723961237407,424.09151870701015 L544.2932318002646,421.4820914802447 M544.2932318002646,421.4820914802447 L546.4251597718282,418.84185122555937 M546.4251597718282,418.84185122555937 L548.1192892384894,416.1792306989641 M548.1192892384894,416.1792306989641 L549.3766194597324,413.50250325440294 M549.3766194597324,413.50250325440294 L550.1995513793635,410.8197665001544 M550.1995513793635,410.8197665001544 L550.5918223419975,408.13892023284404 M550.5918223419975,408.13892023284404 L550.5583976771334,405.46763435229997 M550.5583976771334,405.46763435229997 L550.1054141951741,402.8133358310974 M550.1054141951741,402.8133358310974 L549.2400754839349,400.18320044015655 M549.2400754839349,400.18320044015655 L547.9705729312293,397.58412296596765 M547.9705729312293,397.58412296596765 L546.3060038322615,395.02272604431545 M546.3060038322615,395.02272604431545 L544.256307878861,392.5053377490361 M544.256307878861,392.5053377490361 L541.8321442992569,390.03799933095945 M541.8321442992569,390.03799933095945 L539.0448917252322,387.62645285494534 M539.0448917252322,387.62645285494534 L535.9064759015552,385.2761470470375 M535.9064759015552,385.2761470470375 L532.4294085796837,382.99223287381307 M532.4294085796837,382.99223287381307 L528.626622547462,380.77957630486617 M528.626622547462,380.77957630486617 L524.5115252254124,378.6427404437419 M524.5115252254124,378.6427404437419 L520.0978182195844,376.5860200050992 M520.0978182195844,376.5860200050992 L515.3995387187712,374.6134298114478 M515.3995387187712,374.6134298114478 L510.4309930397417,372.728705124239 M510.4309930397417,372.728705124239 L505.2067029929303,370.93532273395397 M505.2067029929303,370.93532273395397 L499.74134581327166,369.23651131772954 M499.74134581327166,369.23651131772954 L500.11788021723396,352.3082617857471 M500.11788021723396,352.3082617857471 L505.6051647294066,353.9583243990992 M505.6051647294066,353.9583243990992 L510.8506763131512,355.7002880955291 M510.8506763131512,355.7002880955291 L515.8396804060573,357.5310237776491 M515.8396804060573,357.5310237776491 L520.5575959762315,359.44716135057894 M520.5575959762315,359.44716135057894 L524.9900557507672,361.44507958392927 M524.9900557507672,361.44507958392927 L529.1229599945244,363.5208855430558 M529.1229599945244,363.5208855430558 L532.9425431985111,365.67041418095766 M532.9425431985111,365.67041418095766 L536.4353325345411,367.88923942509206 M536.4353325345411,367.88923942509206 L539.5883289932674,370.17264059246 M539.5883289932674,370.17264059246 L542.3889536492629,372.5156196555123 M542.3889536492629,372.5156196555123 L544.8252133425689,374.9128887488733 M544.8252133425689,374.9128887488733 L546.8856617467688,377.3588743696667 M546.8856617467688,377.3588743696667 L548.5595724716771,379.84771160256 M548.5595724716771,379.84771160256 L549.8369393830187,382.3732560405447 M549.8369393830187,382.3732560405447 L550.7086001464922,384.92907617675286 M550.7086001464922,384.92907617675286 L551.1663002539307,387.5084750980994 M551.1663002539307,387.5084750980994 L551.2027755035145,390.1044818234133 M551.2027755035145,390.1044818234133 L550.8118316271424,392.70988017554856 M550.8118316271424,392.70988017554856 L549.9884497559117,395.3172167624495 M549.9884497559117,395.3172167624495 L548.728843523489,397.91881359022426 M548.728843523489,397.91881359022426 L547.0305683384869,400.506799208488 M547.0305683384869,400.506799208488 L544.892587358007,403.073130133273 M544.892587358007,403.073130133273 L542.3153256257559,405.609606722292 M542.3153256257559,405.609606722292 L539.3008143220026,408.1079279440796 M539.3008143220026,408.1079279440796 L535.8526685575864,410.55969766405906 M535.8526685575864,410.55969766405906 L531.9761882755871,412.9564781996482 M531.9761882755871,412.9564781996482 L527.6784277699523,415.2898313036504 M527.6784277699523,415.2898313036504 L522.9682079494564,417.55135446331155 M522.9682079494564,417.55135446331155 L517.8561346967916,419.73272345059377 M517.8561346967916,419.73272345059377 L512.3546364494372,421.82574487551693 M512.3546364494372,421.82574487551693 L506.4779506158306,423.8223994126459 M506.4779506158306,423.8223994126459 L500.24214945334415,425.71490407246415 M500.24214945334415,425.71490407246415 L493.6650607541859,427.4957472615763 M493.6650607541859,427.4957472615763 L486.76623291711263,429.15773934275285 M486.76623291711263,429.15773934275285 L479.56693415073033,430.69408250933736 M479.56693415073033,430.69408250933736 L472.09000950689017,432.09839724423017 M472.09000950689017,432.09839724423017 L464.35980867608606,433.3647801299475 M464.35980867608606,433.3647801299475 L456.4020887661377,434.48784647618317 M456.4020887661377,434.48784647618317 L448.243893122134,435.4627704801079 M448.243893122134,435.4627704801079 L439.91341012033365,436.28532567983166 M439.91341012033365,436.28532567983166 L431.43982676555197,436.9519291004376 M431.43982676555197,436.9519291004376 L422.8531542154965,437.4596477663427 M422.8531542154965,437.4596477663427 L414.18408176490135,437.806242009836 M414.18408176490135,437.806242009836 L405.46378436330644,437.9901736762777 M405.46378436330644,437.9901736762777 L396.72373807677894,438.01063186101135 M396.72373807677894,438.01063186101135 L387.9955442797336,437.86751846161775 M387.9955442797336,437.86751846161775 L379.31073402838103,437.5614753632856 M379.31073402838103,437.5614753632856 L370.7005609847949,437.0938536017436 M370.7005609847949,437.0938536017436 L362.1958649899163,436.46672420553347 M362.1958649899163,436.46672420553347 L353.82682924324723,435.68284459540644 M353.82682924324723,435.68284459540644 L345.6228839758683,434.7456394631394 M345.6228839758683,434.7456394631394 L337.6124557328432,433.6591819549756 M337.6124557328432,433.6591819549756 L329.8229124558546,432.42814386351216 M329.8229124558546,432.42814386351216 L322.2803301043084,431.05777771824694 M322.2803301043084,431.05777771824694 L315.0094146940801,429.5538623935645 M315.0094146940801,429.5538623935645 L308.0334205882148,427.9226588279617 M308.0334205882148,427.9226588279617 L301.37399692979255,426.1708691114294 M301.37399692979255,426.1708691114294 L295.0511298542722,424.3055884488167 M295.0511298542722,424.3055884488167 L289.08309926459503,422.3342481726395 M289.08309926459503,422.3342481726395 L283.48639620008004,420.2645755227559 M283.48639620008004,420.2645755227559 L278.2757213380935,418.1045342187756 M278.2757213380935,418.1045342187756 L273.4639688514147,415.8622745081853 M273.4639688514147,415.8622745081853 L269.0621977044472,413.5460937483689 M269.0621977044472,413.5460937483689 L265.07967584178436,411.16437761857543 M265.07967584178436,411.16437761857543 L261.5238838324732,408.7255610498692 M261.5238838324732,408.7255610498692 L258.4005517174041,406.2380920428463 M258.4005517174041,406.2380920428463 L255.71372658146544,403.71037250203193 M255.71372658146544,403.71037250203193 L253.46582583187987,401.150730222726 M253.46582583187987,401.150730222726 L251.65766150399833,398.56739869844534 M251.65766150399833,398.56739869844534 L250.28857037698745,395.96845666998195 M250.28857037698745,395.96845666998195 L249.35643680968684,393.3618296529136 M249.35643680968684,393.3618296529136 L248.85780463631122,390.7552380074216 M248.85780463631122,390.7552380074216 L248.7879629573298,388.1561982541961 M248.7879629573298,388.1561982541961 L249.1409933916288,385.5719850081357 M249.1409933916288,385.5719850081357 L249.9099085592115,383.0096299596064 M249.9099085592115,383.0096299596064 L251.08667275539835,380.4759031424877 M251.08667275539835,380.4759031424877 L252.66235378437125,377.97730086295127 M252.66235378437125,377.97730086295127 L254.6271490535113,375.5200415789423 M254.6271490535113,375.5200415789423 L256.9704975881398,373.11006036169715 M256.9704975881398,373.11006036169715 L259.68113061993625,370.7530019255717 M259.68113061993625,370.7530019255717 L262.74719067939594,368.4542259871766 M262.74719067939594,368.4542259871766 L266.1562437885986,366.21880439692444 M266.1562437885986,366.21880439692444 L269.89536964482295,364.05152395117227 M269.89536964482295,364.05152395117227 L273.95122813212714,361.95688849960237 M273.95122813212714,361.95688849960237 L278.31011117498815,359.93912397103827 M278.31011117498815,359.93912397103827 L282.9579882384496,358.0021868085343 M282.9579882384496,358.0021868085343 L287.8805794887158,356.1497750523016 M287.8805794887158,356.1497750523016 L293.063345794882,354.3853180978501 M293.063345794882,354.3853180978501 L298.4915738693087,352.7119991022932 M298.4915738693087,352.7119991022932 L304.15041078953925,351.1327647040014 M304.15041078953925,351.1327647040014 L310.0248578668583,349.65031980194703 M310.0248578668583,349.65031980194703 L316.09982702527407,348.2671449929247 M316.09982702527407,348.2671449929247 L322.36015068511915,346.9855004250025 M322.36015068511915,346.9855004250025 L328.79061485340833,345.80743884202815 M328.79061485340833,345.80743884202815 L335.37597002211453,344.7348103884641 M335.37597002211453,344.7348103884641 L342.1009289890085,343.7692627494988 M342.1009289890085,343.7692627494988 L348.95017914392923,342.91225289699753 M348.95017914392923,342.91225289699753 L355.9084340111642,342.1650632340865 M355.9084340111642,342.1650632340865 L362.9603678977591,341.5287855556036 M362.9603678977591,341.5287855556036 L370.0906823283158,341.00434338446354 M370.0906823283158,341.00434338446354 L377.2840780469622,340.5924909150318 M377.2840780469622,340.5924909150318 L384.52524801980206,340.29381280391124 M384.52524801980206,340.29381280391124 L391.7989046859762,340.1087331982717 M391.7989046859762,340.1087331982717 L399.0897646932046,340.0375107818501 M399.0897646932046,340.0375107818501 L406.3825271139537,340.0802460862203 M406.3825271139537,340.0802460862203 L413.6619192274705,340.236879434865 M413.6619192274705,340.236879434865 L420.91264315005503,340.5071918699414 M420.91264315005503,340.5071918699414 L428.1194163761378,340.8907982473778 M428.1194163761378,340.8907982473778 L435.26693576104554,341.38715878652687 M435.26693576104554,341.38715878652687 L442.3399034915677,341.99555495888285 M442.3399034915677,341.99555495888285 L449.3230108913476,342.71511490794376 M449.3230108913476,342.71511490794376 L456.2009540013021,343.54477913166494 M456.2009540013021,343.54477913166494 L462.95840954171314,344.48332529115396 M462.95840954171314,344.48332529115396 L469.58010185213743,345.5293291232115 M469.58010185213743,345.5293291232115 L476.05072648338023,346.68119675197386 M476.05072648338023,346.68119675197386 L482.3550087658278,347.9371306251825 M482.3550087658278,347.9371306251825 L488.4777371382822,349.2951280110869 M488.4777371382822,349.2951280110869 L494.4037367564957,350.75297816014614 M494.4037367564957,350.75297816014614 L500.11788021723396,352.3082617857471" stroke="black"  stroke-width="4"  fill="red"/>
<path d="M546.6719728403692,400.9785867727126 L548.4486824332267,398.39736185176383 M548.4486824332267,398.39736185176383 L549.7875740150527,395.80109114687195 M549.7875740150527,395.80109114687195 L550.6908308207632,393.19765534080256 M550.6908308207632,393.19765534080256 L551.1619801187161,390.59473597581655 M551.1619801187161,390.59473597581655 L551.2057947441286,387.99980089703865 M551.2057947441286,387.99980089703865 L550.8282340313008,385.42008339736185 M550.8282340313008,385.42008339736185 L550.0363269265605,382.86257372775947 M550.0363269265605,382.86257372775947 L548.8381230980656,380.33399871523653 M548.8381230980656,380.33399871523653 L547.2425830950449,377.8408152615534 M547.2425830950449,377.8408152615534 L545.259510890275,375.3891972926662 M545.259510890275,375.3891972926662 L542.8994631898794,372.9850428174778 M542.8994631898794,372.9850428174778 L540.173687397776,370.6339632016537 M540.173687397776,370.6339632016537 L537.0940527779255,368.3412771902004 M537.0940527779255,368.3412771902004 L533.672954923558,366.11202547825206 M533.672954923558,366.11202547825206 L529.9232861113622,363.95095869190936 M529.9232861113622,363.95095869190936 L525.8583528877199,361.8625506080024 M525.8583528877199,361.8625506080024 L521.4918187707245,359.8510012238697 M521.4918187707245,359.8510012238697 L516.8376692648027,357.92024166668983 M516.8376692648027,357.92024166668983 L511.9101634476651,356.0739336794383 M511.9101634476651,356.0739336794383 L506.7237741285846,354.3154886658774 M506.7237741285846,354.3154886658774 L501.2931602380814,352.64806906653916 M501.2931602380814,352.64806906653916 L495.6331405040256,351.0745942734815 M495.6331405040256,351.0745942734815 L489.7586411300212,349.59775518133216 M489.7586411300212,349.59775518133216 L483.68469995727196,348.2200120472979 M483.68469995727196,348.2200120472979 L477.4264208511432,346.9436123563917 M477.4264208511432,346.9436123563917 L470.9989688280736,345.7705875021183 M470.9989688280736,345.7705875021183 L464.4175264116509,344.7027783979713 M464.4175264116509,344.7027783979713 L457.6973451739936,343.7418133247576 M457.6973451739936,343.7418133247576 L450.8536321410437,342.8891509569621 M450.8536321410437,342.8891509569621 L443.9016579515964,342.1460486081895 M443.9016579515964,342.1460486081895 L436.85666746533747,341.51359536010597 M436.85666746533747,341.51359536010597 L429.7338994017875,340.9927107741948 M429.7338994017875,340.9927107741948 L422.5485979307689,340.58413296326984 M422.5485979307689,340.58413296326984 L415.3160055702156,340.28844772512804 M415.3160055702156,340.28844772512804 L408.0513574160095,340.1060673094558 M408.0513574160095,340.1060673094558 L400.76987104446425,340.03725167168557 M400.76987104446425,340.03725167168557 L393.48677770680575,340.08209720130753 M393.48677770680575,340.08209720130753 L386.2173078119895,340.2405377195161 M386.2173078119895,340.2405377195161 L378.97668648347826,340.51235308530755 M378.97668648347826,340.51235308530755 L371.7801446061037,340.8971591989754 M371.7801446061037,340.8971591989754 L364.6429130562255,341.3944133655821 M364.6429130562255,341.3944133655821 L357.5802478446202,342.0034025832656 M357.5802478446202,342.0034025832656 L350.6073845495958,342.72325037854114 M350.6073845495958,342.72325037854114 L343.7395678602133,343.55290270055553 M343.7395678602133,343.55290270055553 L336.9920583831418,344.4911364421318 M336.9920583831418,344.4911364421318 L330.3800893009417,345.5365407778032 M330.3800893009417,345.5365407778032 L323.91889379458064,346.6875181603062 M323.91889379458064,346.6875181603062 L317.62366541662107,347.9422750009949 M317.62366541662107,347.9422750009949 L311.5095841056361,349.29882141188324 M311.5095841056361,349.29882141188324 L305.5917611498902,350.754955413387 M305.5917611498902,350.754955413387 L299.88525162129315,352.3082617857473 M299.88525162129315,352.3082617857473 L294.405010946223,353.95610021855083 M294.405010946223,353.95610021855083 L289.16588242974564,355.69560048782506 M289.16588242974564,355.69560048782506 L284.1825589381731,357.52365046538546 M284.1825589381731,357.52365046538546 L279.46956212091004,359.43689529363155 M279.46956212091004,359.43689529363155 L275.0411858297831,361.4317199389422 M275.0411858297831,361.4317199389422 L270.9114809062906,363.50425500713095 M270.9114809062906,363.50425500713095 L267.09418994584405,365.65035771495116 M267.09418994584405,365.65035771495116 L263.6027048687239,367.86561570074826 M263.6027048687239,367.86561570074826 L260.44999102263387,370.1453305075607 M260.44999102263387,370.1453305075607 L257.64857208949064,372.4845265276263 M257.64857208949064,372.4845265276263 L255.21042111986532,374.87794476119717 M255.21042111986532,374.87794476119717 L253.146932037341,377.32003130138554 M253.146932037341,377.32003130138554 L251.46880790882904,379.80495276392935 M251.46880790882904,379.80495276392935 L250.18602131384503,382.3265906065014 M250.18602131384503,382.3265906065014 L249.30770969078964,384.8785479295744 M249.30770969078964,384.8785479295744 L248.84212848544067,387.45415304014136 M248.84212848544067,387.45415304014136 L248.79653535306946,390.04647087567776 M248.79653535306946,390.04647087567776 L249.177102375334,392.64832100322695 M249.177102375334,392.64832100322695 L249.98888126568363,395.25228169981693 M249.98888126568363,395.25228169981693 L251.23564640621714,397.8507118962701 M251.23564640621714,397.8507118962701 L252.91990136199047,400.43577371443195 M252.91990136199047,400.43577371443195 L255.04270171590764,402.99945947984787 M255.04270171590764,402.99945947984787 L257.6036401759717,405.53361349142176 M257.6036401759717,405.53361349142176 L260.6008002048196,408.0299530465414 M260.6008002048196,408.0299530465414 L264.0305774916137,410.4801348283861 M264.0305774916137,410.4801348283861 L267.88777535207834,412.87574581405175 M267.88777535207834,412.87574581405175 L272.16540705829567,415.2083837891653 M272.16540705829567,415.2083837891653 L276.85477214238506,417.4696732881761 M276.85477214238506,417.4696732881761 L281.94535594419557,419.6513217477656 M281.94535594419557,419.6513217477656 L287.4248557279289,421.7451598258856 M287.4248557279289,421.7451598258856 L293.279137909377,423.7431993453704 M293.279137909377,423.7431993453704 L299.49228953085793,425.63767006616257 M299.49228953085793,425.63767006616257 L306.04661773987607,427.4210790039717 M306.04661773987607,427.4210790039717 L312.922699251172,429.0862575040842 M312.922699251172,429.0862575040842 L320.0994612728972,430.6264062169315 M320.0994612728972,430.6264062169315 L327.5542098401704,432.03515179033275 M327.5542098401704,432.03515179033275 L335.2627458693398,433.3065939065445 M335.2627458693398,433.3065939065445 L343.19947436767814,434.43534340745504 M343.19947436767814,434.43534340745504 L351.3375305583875,435.4165644818987 M351.3375305583875,435.4165644818987 L359.6488790828277,436.246022753958 M359.6488790828277,436.246022753958 L368.10451398152327,436.92010412238955 M368.10451398152327,436.92010412238955 L376.67456712533664,437.4358564904016 M376.67456712533664,437.4358564904016 L385.3284952921528,437.7910123027865 M385.3284952921528,437.7910123027865 L394.03528380385774,437.9840012831307 M394.03528380385774,437.9840012831307 L402.76358634847605,438.01396971138917 M402.76358634847605,438.01396971138917 L411.4819309260855,437.8807817182709 M411.4819309260855,437.8807817182709 L420.15889605095725,437.5850312501297 M420.15889605095725,437.5850312501297 L428.76332348764777,437.1280226163085 M428.76332348764777,437.1280226163085 L437.2644788235462,436.5117728301747 M437.2644788235462,436.5117728301747 L445.63223797695457,435.73898501698903 M445.63223797695457,435.73898501698903 L453.8372367483075,434.81303294314876 M454.0746444892194,415.3279425234398 L453.8372367483075,434.81303294314876 M454.0746444892194,415.3279425234398 L445.8337807331683,416.22720070496393 M445.8337807331683,416.22720070496393 L437.42927930931853,416.97771968600017 M437.42927930931853,416.97771968600017 L428.8906597787273,417.57621770352205 M428.8906597787273,417.57621770352205 L420.2482074660238,418.02006525781655 M420.2482074660238,418.02006525781655 L411.5328227163305,418.3073002299354 M411.5328227163305,418.3073002299354 L402.77583299235096,418.4366537780718 M402.77583299235096,418.4366537780718 L394.0088309885089,418.40754810995554 M394.0088309885089,418.40754810995554 L385.26346033467877,418.22011539637276 M385.26346033467877,418.22011539637276 L376.5712379902588,417.87518614601845 M376.5712379902588,417.87518614601845 L367.9633467722388,417.374287918137 M367.9633467722388,417.374287918137 L359.470494323894,416.7196265450698 M359.470494323894,416.7196265450698 L351.12270801878253,415.9140736834895 M351.12270801878253,415.9140736834895 L342.94914654530436,414.9611448263822 M342.94914654530436,414.9611448263822 L334.97799054731024,413.86495865685754 M334.97799054731024,413.86495865685754 L327.2362413660457,412.6302186163483 M327.2362413660457,412.6302186163483 L319.7496210878878,411.26216605450946 M319.7496210878878,411.26216605450946 L312.5424456250233,409.7665391010771 M312.5424456250233,409.7665391010771 L305.63751486161675,408.14953547654545 M305.63751486161675,408.14953547654545 L299.0559960110258,406.4177666459892 M299.0559960110258,406.4177666459892 L292.81739516322716,404.57820259893305 M292.81739516322716,404.57820259893305 L286.9394760789463,402.6381280119064 M286.9394760789463,402.6381280119064 L281.4382106591561,400.6050963809039 M281.4382106591561,400.6050963809039 L276.3277796915979,398.4868722753654 M276.3277796915979,398.4868722753654 L271.62052141901614,396.2913954970763 M271.62052141901614,396.2913954970763 L267.32697483198774,394.0267246978015 M267.32697483198774,394.0267246978015 L263.45585380736065,391.700998125966 M263.45585380736065,391.700998125966 L260.0141484061442,389.32237901860213 M260.0141484061442,389.32237901860213 L257.00704865469675,386.89904005115187 M257.00704865469675,386.89904005115187 L254.4381435429136,384.4390851183732 M254.4381435429136,384.4390851183732 L252.30932563649407,381.9505581213207 M252.30932563649407,381.9505581213207 L250.62097085086165,379.441378500764 M250.62097085086165,379.441378500764 L249.37198545947027,376.91932082400217 M249.37198545947027,376.91932082400217 L248.55982148859405,374.39199366396616 M248.55982148859405,374.39199366396616 L248.1806550427213,371.8668134044236 M248.1806550427213,371.8668134044236 L248.22938016884055,369.3509824035497 M248.22938016884055,369.3509824035497 L248.69976684236744,366.85146774661104 M248.69976684236744,366.85146774661104 L249.58449623672286,364.37499734550653 M249.58449623672286,364.37499734550653 L250.87524918379458,361.9280425393754 M250.87524918379458,361.9280425393754 L252.5628227198018,359.51680708460736 M252.5628227198018,359.51680708460736 L254.63717736538635,357.14722377848904 M254.63717736538635,357.14722377848904 L257.08754240880404,354.8249479462092 M257.08754240880404,354.8249479462092 L259.90245586053027,352.5553630417481 M259.90245586053027,352.5553630417481 L263.0698767813267,350.3435657681236 M263.0698767813267,350.3435657681236 L266.57721398677893,348.1943773424228 M266.57721398677893,348.1943773424228 L270.41143551283034,346.1123496422155 M270.41143551283034,346.1123496422155 L274.55908382794297,344.1017566186394 M274.55908382794297,344.1017566186394 L279.00635203432074,342.1666104091887 M279.00635203432074,342.1666104091887 L283.73912646493477,340.3106577272444 M283.73912646493477,340.3106577272444 L288.74305213039315,338.53739840427585 M288.74305213039315,338.53739840427585 L294.0035479521796,336.8500798279526 M294.0035479521796,336.8500798279526 L299.50586348290045,335.25171394152267 M299.50586348290045,335.25171394152267 L305.2350996842562,333.7450781155097 M305.2350996842562,333.7450781155097 L311.1762472868254,332.33272684536706 M311.1762472868254,332.33272684536706 L317.3141992026217,331.01699649181523 M317.3141992026217,331.01699649181523 L323.6337939913164,329.80001683264334 M323.6337939913164,329.80001683264334 L330.11980324999615,328.6837122297892 M330.11980324999615,328.6837122297892 L336.7569867091739,327.66981699442687 M336.7569867091739,327.66981699442687 L343.53006597626063,326.7598756807316 M343.53006597626063,326.7598756807316 L350.4237641546363,325.9552521637386 M350.4237641546363,325.9552521637386 L357.42277816255444,325.2571287076772 M357.42277816255444,325.2571287076772 L364.5118220683305,324.66652409511175 M364.5118220683305,324.66652409511175 L371.6756200968889,324.1842853889013 M371.6756200968889,324.1842853889013 L378.8988768058699,323.8111016338364 M378.8988768058699,323.8111016338364 L386.166322653633,323.5474972452974 M386.166322653633,323.5474972452974 L393.4626885897713,323.3938433807215 M393.4626885897713,323.3938433807215 L400.77271167488374,323.3503527475964 M400.77271167488374,323.3503527475964 L408.0811238194416,323.4170893034532 M408.0811238194416,323.4170893034532 L415.37265607058976,323.5939599113416 M415.37265607058976,323.5939599113416 L422.6320530087235,323.8807133699196 M422.6320530087235,323.8807133699196 L429.84404126645046,324.2769513383173 M429.84404126645046,324.2769513383173 L436.99333948809374,324.78210771394714 M436.99333948809374,324.78210771394714 L444.0646639550217,325.39546921004427 M444.0646639550217,325.39546921004427 L451.0427355382166,326.1161470833003 M451.0427355382166,326.1161470833003 L457.9122679008001,326.9430886794816 M457.9122679008001,326.9430886794816 L464.6579476242634,327.8750786563379 M464.6579476242634,327.8750786563379 L471.2645237591515,328.91070682258294 M471.2645237591515,328.91070682258294 L477.7166991220596,330.04839889947914 M477.7166991220596,330.04839889947914 L483.9992441430346,331.2863747511641 M483.9992441430346,331.2863747511641 L490.09694500002183,332.6226698251979 M490.09694500002183,332.6226698251979 L495.9946472758023,334.0551102629927 M495.9946472758023,334.0551102629927 L501.677260724621,335.58131606521084 M501.677260724621,335.58131606521084 L507.1298049291888,337.19868370489894 M507.1298049291888,337.19868370489894 L512.3374050202245,338.9043881398239 M512.3374050202245,338.9043881398239 L517.2853440947529,340.6953686304894 M517.2853440947529,340.6953686304894 L521.9590895601665,342.5683229303528 M521.9590895601665,342.5683229303528 L526.3443207910186,344.51970587499585 M526.3443207910186,344.51970587499585 L530.4269891443286,346.5457108269639 M530.4269891443286,346.5457108269639 L534.193366542064,348.6422700901906 M534.193366542064,348.6422700901906 L537.6300805927717,350.8050500606579 M537.6300805927717,350.8050500606579 L540.7241721392734,353.0294481593291 M540.7241721392734,353.0294481593291 L543.4631780379832,355.3105799152808 M543.4631780379832,355.3105799152808 L545.8351610191669,357.6432905350448 M545.8351610191669,357.6432905350448 L547.8288056937017,360.0221406735303 M547.8288056937017,360.0221406735303 L549.4334878168573,362.4414121422967 M549.4334878168573,362.4414121422967 L550.639336761307,364.8951182291643 M550.639336761307,364.8951182291643 L551.4373267729284,367.37699676358653 M551.4373267729284,367.37699676358653 L551.8193449572788,369.88052269984644 M551.8193449572788,369.88052269984644 L551.7783018467585,372.3989143515184 M551.7783018467585,372.3989143515184 L551.3081808187634,374.92515310504876 M551.3081808187634,374.92515310504876 L550.404155803406,377.45199160176327 M550.404155803406,377.45199160176327 L549.0626509785332,379.97197393153 M549.0626509785332,379.97197393153 L547.2814400418478,382.4774497257071 M547.2814400418478,382.4774497257071 L546.6719728403692,400.9785867727126 M436.88863634681746,429.0219941481217 L453.8372367483075,434.81303294314876 M546.6719728403692,400.9785867727126 L529.827212270088,395.8311810701288 M529.827212270088,395.8311810701288 L531.0012888654082,393.41763743249874 M531.0012888654082,393.41763743249874 L531.7449792042338,390.99707233472895 M531.7449792042338,390.99707233472895 L532.0615342878897,388.5775176499864 M532.0615342878897,388.5775176499864 L531.9555718005219,386.1667976191928 M531.9555718005219,386.1667976191928 L531.4330404886205,383.7724991502004 M531.4330404886205,383.7724991502004 L530.5011043846818,381.4019586434555 M530.5011043846818,381.4019586434555 L529.1680402149985,379.06224099122414 M529.1680402149985,379.06224099122414 L527.4431762253137,376.7601325399082 M527.4431762253137,376.7601325399082 L525.3367998899271,374.50212591877494 M525.3367998899271,374.50212591877494 L522.8600435374326,372.29441548118007 M522.8600435374326,372.29441548118007 L520.0248461154495,370.1428921835403 M520.0248461154495,370.1428921835403 L516.8438530239913,368.0531429393052 M516.8438530239913,368.0531429393052 L513.3303255830577,366.0304454749061 M513.3303255830577,366.0304454749061 L509.4981048900648,364.0797748444873 M509.4981048900648,364.0797748444873 L505.3615233664014,362.20579973651667 M505.3615233664014,362.20579973651667 L500.9353444803651,360.4128947943046 M500.9353444803651,360.4128947943046 L496.2347170054738,358.70513930064595 M496.2347170054738,358.70513930064595 L491.27512976687495,357.08631720140124 M491.27512976687495,357.08631720140124 L486.0723284383504,355.5599413349486 M486.0723284383504,355.5599413349486 L480.6423263618119,354.12923968431414 M480.6423263618119,354.12923968431414 L475.00132236634835,352.79717779649997 M475.00132236634835,352.79717779649997 L469.165682040481,351.5664592662474 M469.165682040481,351.5664592662474 L463.1519305688805,350.43953002260423 M463.1519305688805,350.43953002260423 L456.97669270267926,349.4185922916815 M456.97669270267926,349.4185922916815 L450.65668552306175,348.50560925549183 M450.65668552306175,348.50560925549183 L444.2087054265488,347.7023052003663 M444.2087054265488,347.7023052003663 L437.6496173234756,347.01017893781705 M437.6496173234756,347.01017893781705 L430.99630858319193,346.4305071632716 M430.99630858319193,346.4305071632716 L424.2657248143407,345.96434732892874 M424.2657248143407,345.96434732892874 L417.4748111741657,345.61254111476916 M417.4748111741657,345.61254111476916 L410.64056464461993,345.3757231335341 M410.64056464461993,345.3757231335341 L403.7799664400387,345.2543135281539 M403.7799664400387,345.2543135281539 L396.910019378679,345.24852991616103 M396.910019378679,345.24852991616103 L390.04772237071126,345.3583815910809 M390.04772237071126,345.3583815910809 L383.2100768940475,345.5836775032881 M383.2100768940475,345.5836775032881 L376.4140673877656,345.9240086117962 M376.4140673877656,345.9240086117962 L369.676684625208,346.37876845753215 M369.676684625208,346.37876845753215 L363.0148882268718,346.94713315524524 M363.0148882268718,346.94713315524524 L356.4456111026637,347.6280670769614 M356.4456111026637,347.6280670769614 L349.9857645226589,348.420316417777 M349.9857645226589,348.420316417777 L343.6522028708137,349.3224057117297 M343.6522028708137,349.3224057117297 L337.46172989054884,350.33263183101855 M337.46172989054884,350.33263183101855 L331.4310798570705,351.44905632025024 M331.4310798570705,351.44905632025024 L325.5768891744119,352.66950383580274 M325.5768891744119,352.66950383580274 L319.91567962976364,353.99154808389744 M319.91567962976364,353.99154808389744 L314.4638413235103,355.41251360369574 M314.4638413235103,355.41251360369574 L309.23759949390967,356.92946386015325 M309.23759949390967,356.92946386015325 L304.25297624926515,358.5391941647474 M304.25297624926515,358.5391941647474 L299.5257556697566,360.23822395873066 M299.5257556697566,360.23822395873066 L295.0714416409229,362.02279167962695 M295.0714416409229,362.02279167962695 L290.9052275543633,363.888850006129 M290.9052275543633,363.888850006129 L287.0419166623596,365.8320572434886 M287.0419166623596,365.8320572434886 L283.49589171928017,367.84777110440393 M283.49589171928017,367.84777110440393 L280.28103797197315,369.9310477782182 M280.28103797197315,369.9310477782182 L277.4106841085682,372.0766404720391 M277.4106841085682,372.0766404720391 L274.8975368226072,374.27899188960924 M274.8975368226072,374.27899188960924 L272.75360117773613,376.5322427324787 M272.75360117773613,376.5322427324787 L270.9901126779741,378.8302295814799 M270.9901126779741,378.8302295814799 L269.6174252736921,381.16648527735805 M269.6174252736921,381.16648527735805 L268.64498696214736,383.5342567301578 M268.64498696214736,383.5342567301578 L268.0811759582459,385.9265045534023 M268.0811759582459,385.9265045534023 L267.93327110252073,388.3359206739105 M267.93327110252073,388.3359206739105 L268.2073348492131,390.7549398292443 M268.2073348492131,390.7549398292443 L268.90814639745423,393.1757654329193 M268.90814639745423,393.1757654329193 L270.0390798627433,395.59037636797996 M270.0390798627433,395.59037636797996 L271.6020493364768,397.99057414561906 M271.6020493364768,397.99057414561906 L273.59741205066115,400.3679903164803 M273.59741205066115,400.3679903164803 L276.02388894040797,402.71413676081073 M276.02388894040797,402.71413676081073 L278.8785045405725,405.02042426252876 M278.8785045405725,405.02042426252876 L282.1565285595759,407.27821344678296 M282.1565285595759,407.27821344678296 L285.85139484097306,409.47885554382475 M285.85139484097306,409.47885554382475 L289.9546818232063,411.61373517620365 M289.9546818232063,411.61373517620365 L294.4560903982231,413.67431235411897 M294.4560903982231,413.67431235411897 L299.34339825964196,415.6521859126945 M299.34339825964196,415.6521859126945 L304.6024694728868,417.53913689803665 M304.6024694728868,417.53913689803665 L310.2172927107695,419.3271755791565 M310.2172927107695,419.3271755791565 L316.1699515223848,421.00861343119664 M316.1699515223848,421.00861343119664 L322.4407491902522,422.5760953928134 M322.4407491902522,422.5760953928134 L329.00820512595266,424.0226686108885 M329.00820512595266,424.0226686108885 L335.8491580142489,425.34183196249376 M335.8491580142489,425.34183196249376 L342.93888776182416,426.5275818016263 M342.93888776182416,426.5275818016263 L350.2512010692292,427.57446006168107 M350.2512010692292,427.57446006168107 L357.758585606141,428.47760689638767 M357.758585606141,428.47760689638767 L365.4323396504202,429.23278834633743 M365.4323396504202,429.23278834633743 L373.2427488703203,429.83643789426986 M373.2427488703203,429.83643789426986 L381.1592527915627,430.28569553079234 M381.1592527915627,430.28569553079234 L389.1506307576299,430.5784157395269 M389.1506307576299,430.5784157395269 L397.1851843631158,430.71319784862715 M397.1851843631158,430.71319784862715 L405.23095370222427,430.68939973892486 M405.23095370222427,430.68939973892486 L413.25589950336143,430.50713354436994 M413.25589950336143,430.50713354436994 L421.22812276275914,430.1672692087699 M421.22812276275914,430.1672692087699 L429.1160465799665,429.6714372434273 M429.1160465799665,429.6714372434273 L436.88863634681746,429.0219941481217 M530.3616582453411,377.4811968065859 L529.827212270088,395.8311810701288 M547.2814400418478,382.4774497257071 L530.3616582453411,377.4811968065859 M437.0496959684178,409.70413418434254 L429.24331108027616,410.3347987260926 M429.24331108027616,410.3347987260926 L421.32098694813277,410.8162979123047 M421.32098694813277,410.8162979123047 L413.3139198545206,411.1463400170235 M413.3139198545206,411.1463400170235 L405.25385232331405,411.32333932953384 M405.25385232331405,411.32333932953384 L397.17285139150056,411.3464497893126 M397.17285139150056,411.3464497893126 L389.1031253741589,411.2155623381385 M389.1031253741589,411.2155623381385 L381.07680265952365,410.93130147004064 M381.07680265952365,410.93130147004064 L373.12574817094315,410.4950293844078 M373.12574817094315,410.4950293844078 L365.2813455840625,409.9088326260824 M365.2813455840625,409.9088326260824 L357.5743135435799,409.17549253903417 M357.5743135435799,409.17549253903417 L350.03451837605394,408.2984774173731 M350.03451837605394,408.2984774173731 L342.6908064424072,407.28190445441237 M342.6908064424072,407.28190445441237 L335.57082619784336,406.1304992578083 M335.57082619784336,406.1304992578083 L328.70089766543305,404.8495688377306 M328.70089766543305,404.8495688377306 L322.1058573541145,403.4449503336806 M322.1058573541145,403.4449503336806 L315.80897215712565,401.9229641426533 M315.80897215712565,401.9229641426533 L309.8318167959512,400.29036933224745 M309.8318167959512,400.29036933224745 L304.194170234148,398.55431538904423 M304.194170234148,398.55431538904423 L298.91401939019534,396.7222753083552 M298.91401939019534,396.7222753083552 L294.0074338867725,394.8020141188162 M294.0074338867725,394.8020141188162 L289.48859614739416,392.80151884766786 M289.48859614739416,392.80151884766786 L285.3697632791719,390.7289527451945 M285.3697632791719,390.7289527451945 L281.6612577938824,388.59261304404504 M281.6612577938824,388.59261304404504 L278.3715138463567,386.4008692703233 M278.3715138463567,386.4008692703233 L275.5070998805241,384.16212238988163 M275.5070998805241,384.16212238988163 L273.072738691842,381.88476320456743 M273.072738691842,381.88476320456743 L271.0713892608963,379.57713273182287 M271.0713892608963,379.57713273182287 L269.50430589841494,377.24747272923327 M269.50430589841494,377.24747272923327 L268.37109904504234,374.9039076515024 M268.37109904504234,374.9039076515024 L267.6698155094699,372.5543958409873 M267.6698155094699,372.5543958409873 L267.3970361196515,370.2067223527032 M267.3970361196515,370.2067223527032 L267.5479313282109,367.86845321774916 M267.5479313282109,367.86845321774916 L268.11638391428767,365.5469288966545 M268.11638391428767,365.5469288966545 L269.09505649229413,363.2492392354118 M269.09505649229413,363.2492392354118 L270.4755093203183,360.98221237574273 M270.4755093203183,360.98221237574273 L272.2482303104931,358.75239774283915 M272.2482303104931,358.75239774283915 L274.4027997604988,356.5660664831208 M274.4027997604988,356.5660664831208 L276.92791507957077,354.42919427133387 M276.92791507957077,354.42919427133387 L279.81150340513545,352.3474610337439 M279.81150340513545,352.3474610337439 L283.04078994201757,350.326253097929 M283.04078994201757,350.326253097929 L286.6023780281648,348.3706550403355 M286.6023780281648,348.3706550403355 L290.4823148970419,346.4854570791832 M290.4823148970419,346.4854570791832 L294.6661510046391,344.6751565843058 M294.6661510046391,344.6751565843058 L299.13901735439634,342.9439590730288 M299.13901735439634,342.9439590730288 L303.88565595817704,341.2957843337208 M303.88565595817704,341.2957843337208 L308.8904997470241,339.7342748693927 M308.8904997470241,339.7342748693927 L314.1377029249584,338.2628005931166 M314.1377029249584,338.2628005931166 L319.6111832142272,336.8844638862402 M319.6111832142272,336.8844638862402 L325.29465678346014,335.6021071576208 M325.29465678346014,335.6021071576208 L331.17167654169276,334.4183197793153 M331.17167654169276,334.4183197793153 L337.2256653029652,333.33544969967954 M337.2256653029652,333.33544969967954 L343.4399327786789,332.3556017721168 M343.4399327786789,332.3556017721168 L349.79769222508537,331.480651447326 M349.79769222508537,331.480651447326 L356.28208878842185,330.71224633442034 M356.28208878842185,330.71224633442034 L362.8762182271918,330.0518136781392 M362.8762182271918,330.0518136781392 L369.5631204612977,329.50056621559924 M369.5631204612977,329.50056621559924 L376.3258147638135,329.05950558673794 M376.3258147638135,329.05950558673794 L383.14729447920473,328.7294286006 M383.14729447920473,328.7294286006 L390.01052237086725,328.51092174374963 M390.01052237086725,328.51092174374963 L396.898468048806,328.4043806008185 M396.898468048806,328.4043806008185 L403.7940843120713,328.40998991130374 M403.7940843120713,328.40998991130374 L410.68032662681543,328.52774069087735 M410.68032662681543,328.52774069087735 L417.54014642608206,328.757422490769 M417.54014642608206,328.757422490769 L424.35651651761344,329.09862901620517 M424.35651651761344,329.09862901620517 L431.11239337213755,329.5507465312747 M431.11239337213755,329.5507465312747 L437.790784772601,330.1129610225826 M437.790784772601,330.1129610225826 L444.3746971469607,330.7842497354137 M444.3746971469607,330.7842497354137 L450.8471942875272,331.5633777807849 M450.8471942875272,331.5633777807849 L457.1913612503055,332.44889531730786 M457.1913612503055,332.44889531730786 L463.39035040265895,333.4391342565027 M463.39035040265895,333.4391342565027 L469.42739208802715,334.53219520305237 M469.42739208802715,334.53219520305237 L475.2858075258854,335.72594726271905 M475.2858075258854,335.72594726271905 L480.94901591991226,337.0180234702918 M480.94901591991226,337.0180234702918 L486.4005945657142,338.40580718741717 M486.4005945657142,338.40580718741717 L491.6242859102067,339.886427880395 M491.6242859102067,339.886427880395 L496.60401623694156,341.456760581938 M496.60401623694156,341.456760581938 L501.3239780496262,343.1134040694757 M501.3239780496262,343.1134040694757 L505.768619143786,344.85269412243144 M505.768619143786,344.85269412243144 L509.9227260554599,346.6706799349879 M509.9227260554599,346.6706799349879 L513.771469456384,348.5631240056075 M513.771469456384,348.5631240056075 L517.300450066707,350.5255033229555 M517.300450066707,350.5255033229555 L520.495759175647,352.55299732022854 M520.495759175647,352.55299732022854 L523.3440674928523,354.6404913635046 M523.3440674928523,354.6404913635046 L525.8326615071876,356.7825703353252 M525.8326615071876,356.7825703353252 L527.9495344921036,358.97352352994864 M527.9495344921036,358.97352352994864 L529.6834872161425,361.2073451859559 M529.6834872161425,361.2073451859559 L531.0241665160756,363.47773936343674 M531.0241665160756,363.47773936343674 L531.9621803466214,365.77812427954 M531.9621803466214,365.77812427954 L532.4891907070976,368.10164694790257 M532.4891907070976,368.10164694790257 L532.5979753530291,370.44118993268904 M532.5979753530291,370.44118993268904 L532.2825311391226,372.78939166177247 M532.2825311391226,372.78939166177247 L531.5381906254693,375.13865915543704 M531.5381906254693,375.13865915543704 L530.3616582453411,377.4811968065859 M437.0496959684178,409.70413418434254 L454.0746444892194,415.3279425234398 M437.0496959684178,409.70413418434254 L436.88863634681746,429.0219941481217" stroke="black"  stroke-width="4"  fill="red"/>
<path d="M545.4680466495333,437.5252678690895 L547.2149145452646,434.83331744527715 M547.2149145452646,434.83331744527715 L548.5392608131383,432.125572492343 M548.5392608131383,432.125572492343 L549.4430744522624,429.410033743019 M549.4430744522624,429.410033743019 L549.9296183215232,426.69450351194286 M549.9296183215232,426.69450351194286 L550.0033170842221,423.98657818629454 M550.0033170842221,423.98657818629454 L549.6697216162604,421.2936236696048 M549.6697216162604,421.2936236696048 L548.9354019784123,418.6227561177022 M548.9354019784123,418.6227561177022 L547.8078697196278,415.9808371973463 M547.8078697196278,415.9808371973463 L546.2955283721899,413.37445831020074 M546.2955283721899,413.37445831020074 L544.4075742187578,410.8099350637937 M544.4075742187578,410.8099350637937 L542.1539417995585,408.2933056957132 M542.1539417995585,408.2933056957132 L539.5452015979398,405.830318368708 M539.5452015979398,405.830318368708 L536.5925288539117,403.42643712904436 M536.5925288539117,403.42643712904436 L533.3076340704678,401.0868390078442 M533.3076340704678,401.0868390078442 L529.7026750395374,398.81642151185264 M529.7026750395374,398.81642151185264 L525.7902344235953,396.6197956932631 M525.7902344235953,396.6197956932631 L521.5832442806765,394.5013052371081 M521.5832442806765,394.5013052371081 L517.0949451972863,392.465014694298 M517.0949451972863,392.465014694298 L512.3388553409418,390.51472583263336 M512.3388553409418,390.51472583263336 L507.32870958303965,388.6539828487546 M507.32870958303965,388.6539828487546 L502.0784305217803,386.8860788235129 M502.0784305217803,386.8860788235129 L496.6020937584695,385.21406490723507 M496.6020937584695,385.21406490723507 L490.9139051227882,383.6407545266749 M490.9139051227882,383.6407545266749 L485.02817673333846,382.1687315408323 M485.02817673333846,382.1687315408323 L478.95929491591727,380.8003600416068 M478.95929491591727,380.8003600416068 L472.7217065983451,379.5377910103945 M472.7217065983451,379.5377910103945 L466.32990170852503,378.38297185870937 M466.32990170852503,378.38297185870937 L459.79839500432877,377.3376470316242 M459.79839500432877,377.3376470316242 L453.14174586414015,376.4033679527989 M453.14174586414015,376.4033679527989 L446.37450054704306,375.5815024781173 M446.37450054704306,375.5815024781173 L439.51122788839365,374.87323229772096 M439.51122788839365,374.87323229772096 L432.56648668328205,374.2795687904382 M432.56648668328205,374.2795687904382 L425.5548380032402,373.80134846592586 M425.5548380032402,373.80134846592586 L418.4908345962027,373.4392352261108 M418.4908345962027,373.4392352261108 L411.3890408968606,373.19373336256353 M411.3890408968606,373.19373336256353 L404.26400682744827,373.0651809864893 M404.26400682744827,373.0651809864893 L397.1302794927335,373.05375663513877 M397.1302794927335,373.05375663513877 L390.00241010616725,373.15947285045127 M390.00241010616725,373.15947285045127 L382.8949405305195,373.38218449879776 M382.8949405305195,373.38218449879776 L375.82242563293175,373.72158734002966 M375.82242563293175,373.72158734002966 L368.7994245754126,374.17720846049417 M368.7994245754126,374.17720846049417 L361.8404851455038,374.7484164117205 M361.8404851455038,374.7484164117205 L354.96017970601235,375.4344068728161 M354.79411957591674,358.92510434899964 L354.96017970601235,375.4344068728161 M354.79411957591674,358.92510434899964 L361.6999745738679,358.25806308451735 M361.6999745738679,358.25806308451735 L368.6846616865406,357.70263854267154 M368.6846616865406,357.70263854267154 L375.73357067557174,357.25961014715267 M375.73357067557174,357.25961014715267 L382.83211666508436,356.9295897491166 M382.83211666508436,356.9295897491166 L389.96570390099413,356.71303558357886 M389.96570390099413,356.71303558357886 L397.11974132207496,356.61024242215063 M397.11974132207496,356.61024242215063 L404.27965114169984,356.6213508828332 M404.27965114169984,356.6213508828332 L411.4308462524874,356.7463488248387 M411.4308462524874,356.7463488248387 L418.55874357577386,356.9850632585298 M418.55874357577386,356.9850632585298 L425.6487569512316,357.3371665850205 M425.6487569512316,357.3371665850205 L432.6862852398682,357.8021701643436 M432.6862852398682,357.8021701643436 L439.656738463654,358.37943069195876 M439.656738463654,358.37943069195876 L446.54551756341345,359.06813754477275 M446.54551756341345,359.06813754477275 L453.3380248825414,359.867310562195 M453.3380248825414,359.867310562195 L460.0196516550462,360.7758044542599 M460.0196516550462,360.7758044542599 L466.5758105886746,361.7922933569271 M466.5758105886746,361.7922933569271 L472.991899893235,362.91527332601913 M472.991899893235,362.91527332601913 L479.2533610900754,364.1430531078889 M479.2533610900754,364.1430531078889 L485.34565900818745,365.47374442745564 M485.34565900818745,365.47374442745564 L491.25429989268457,366.9052613559147 M491.25429989268457,366.9052613559147 L496.9648489459735,368.4353109830431 M496.9648489459735,368.4353109830431 L502.46294386709167,370.0613868894299 M502.46294386709167,370.0613868894299 L507.734326944591,371.78075955640446 M507.734326944591,371.78075955640446 L512.7648689890024,373.59046837079893 M512.7648689890024,373.59046837079893 L517.540592111978,375.48731746581996 M517.540592111978,375.48731746581996 L522.0477045104016,377.46786671599153 M522.0477045104016,377.46786671599153 L526.2726295001635,379.5284253829675 M526.2726295001635,379.5284253829675 L530.2020665912721,381.6650469670963 M530.2020665912721,381.6650469670963 L533.8230225290131,383.8735132205138 M533.8230225290131,383.8735132205138 L537.1228523389533,386.1493455073932 M537.1228523389533,386.1493455073932 L540.0893351096382,388.4877861501137 M540.0893351096382,388.4877861501137 L542.7106965621979,390.8838050814693 M542.7106965621979,390.8838050814693 L544.9756974432348,393.3320924684167 M544.9756974432348,393.3320924684167 L546.8737034052042,395.82706144255224 M546.8737034052042,395.82706144255224 L548.3947164483668,398.36284221505537 M548.3947164483668,398.36284221505537 L549.5294778194722,400.9332943510067 M549.5294778194722,400.9332943510067 L550.2695229199188,403.5320082205267 M550.2695229199188,403.5320082205267 L550.607281166475,406.1523103005458 M550.607281166475,406.1523103005458 L550.5361259660774,408.78727845340154 M550.5361259660774,408.78727845340154 L550.0504530112308,411.4297464763623 M550.0504530112308,411.4297464763623 L549.1457880685493,414.07232279128596 M549.1457880685493,414.07232279128596 L547.8188230718449,416.7074142959776 M547.8188230718449,416.7074142959776 L546.0675289930603,419.3272336386239 M546.0675289930603,419.3272336386239 L545.4680466495333,437.5252678690895 M368.5723074653667,379.870909921901 L354.96017970601235,375.4344068728161 M545.4680466495333,437.5252678690895 L528.7713600232074,432.0834366993516 M528.7713600232074,432.0834366993516 L529.9203266647422,429.5853893811139 M529.9203266647422,429.5853893811139 L530.6601900194685,427.0798764017116 M530.6601900194685,427.0798764017116 L530.9938932878568,424.574874404958 M530.9938932878568,424.574874404958 L530.9256136721727,422.0781605032628 M530.9256136721727,422.0781605032628 L530.4607361431014,419.59727662633014 M530.4607361431014,419.59727662633014 L529.6057637295772,417.1395342495721 M529.6057637295772,417.1395342495721 L528.3682449187473,414.71198293347675 M528.3682449187473,414.71198293347675 L526.7566862626494,412.32139756925824 M526.7566862626494,412.32139756925824 L524.7804725343784,409.9742794311466 M524.7804725343784,409.9742794311466 L522.4497931904415,407.67683860868135 M522.4497931904415,407.67683860868135 L519.7755831708473,405.43499187761626 M519.7755831708473,405.43499187761626 L516.7694288006196,403.2543631322177 M516.7694288006196,403.2543631322177 L513.4435228881024,401.1402779302843 M513.4435228881024,401.1402779302843 L509.81058142062744,399.09776577917114 M509.81058142062744,399.09776577917114 L505.88380516738385,397.13156153716847 M505.88380516738385,397.13156153716847 L501.67680620376416,395.246108001621 M501.67680620376416,395.246108001621 L497.2035603626425,393.4455647147392 M497.2035603626425,393.4455647147392 L492.4783753724505,391.73380302886443 M492.4783753724505,391.73380302886443 L487.51582666923764,390.1144224297358 M487.51582666923764,390.1144224297358 L482.33072671719503,388.5907515417912 M482.33072671719503,388.5907515417912 L476.9380948614705,387.1658536292658 M476.9380948614705,387.1658536292658 L471.3531231260554,385.8425349393483 M471.3531231260554,385.8425349393483 L465.59113346811137,384.6233543379625 M465.59113346811137,384.6233543379625 L459.66758427976356,383.51062258296105 M459.66758427976356,383.51062258296105 L453.59802020292113,382.5064142272221 M453.59802020292113,382.5064142272221 L447.3980676902553,381.61257457921624 M447.3980676902553,381.61257457921624 L441.08341712300387,380.8307198475802 M441.08341712300387,380.8307198475802 L434.6698087155632,380.1622489388158 M434.6698087155632,380.1622489388158 L428.1730259802476,379.60834189426373 M428.1730259802476,379.60834189426373 L421.6088748300141,379.1699710002044 M421.6088748300141,379.1699710002044 L414.9931852684141,378.84789678751633 M414.9931852684141,378.84789678751633 L408.34181320340497,378.6426748648805 M408.34181320340497,378.6426748648805 L401.67060692996614,378.5546592715596 M401.67060692996614,378.5546592715596 L394.9954321672968,378.5840023531741 M394.9954321672968,378.5840023531741 L388.33216644815855,378.7306528106497 M388.33216644815855,378.7306528106497 L381.6966518050309,378.99435857469336 M381.6966518050309,378.99435857469336 L375.10475179531284,379.3746611586091 M375.10475179531284,379.3746611586091 L368.5723074653667,379.870909921901 M529.2971306098655,414.0313183597203 L528.7713600232074,432.0834366993516 M546.0675289930603,419.3272336386239 L529.2971306098655,414.0313183597203 M368.45545816030614,363.2392112703858 L375.0122755256431,362.75663998409954 M375.0122755256431,362.75663998409954 L381.6287090379678,362.38682145729723 M381.6287090379678,362.38682145729723 L388.288874386608,362.13038659775054 M388.288874386608,362.13038659775054 L394.9768651488994,361.98777999940893 M394.9768651488994,361.98777999940893 L401.6767968167298,361.9592460828008 M401.6767968167298,361.9592460828008 L408.3727493827629,362.0448345925359 M408.3727493827629,362.0448345925359 L415.04881465274946,362.24439780329686 M415.04881465274946,362.24439780329686 L421.68910170013635,362.5575924134791 M421.68910170013635,362.5575924134791 L428.27771156033975,362.9838796575892 M428.27771156033975,362.9838796575892 L434.7987706979942,363.52252203270575 M434.7987706979942,363.52252203270575 L441.236429012889,364.1725766355035 M441.236429012889,364.1725766355035 L447.57485797560304,364.9328990293935 M447.57485797560304,364.9328990293935 L453.7982714345703,365.8021324126242 M453.7982714345703,365.8021324126242 L459.8909320159191,366.7787091054242 M459.8909320159191,366.7787091054242 L465.8371651128343,367.86083903923515 M465.8371651128343,367.86083903923515 L471.621376686925,369.04650957323804 M471.621376686925,369.04650957323804 L477.2280575815229,370.333478677508 M477.2280575815229,370.333478677508 L482.6418337593612,371.7192633041522 M482.6418337593612,371.7192633041522 L487.84745965734294,373.2011400363724 M487.84745965734294,373.2011400363724 L492.829860981107,374.776135654802 M492.829860981107,374.776135654802 L497.5741689383935,376.44101895593934 M497.5741689383935,376.44101895593934 L502.0657504193652,378.1922953300678 M502.0657504193652,378.1922953300678 L506.2902387317033,380.0262057079233 M506.2902387317033,380.0262057079233 L510.2335979807341,381.938710604382 M510.2335979807341,381.938710604382 L513.8821550363131,383.9254948352088 M513.8821550363131,383.9254948352088 L517.222647259252,385.98195886619544 M517.222647259252,385.98195886619544 L520.2422962843779,388.1032162076807 M520.2422962843779,388.1032162076807 L522.9288466168132,390.284091962054 M522.9288466168132,390.284091962054 L525.2706493369435,392.5191205100075 M525.2706493369435,392.5191205100075 L527.2567072889238,394.80255072779937 M527.2567072889238,394.80255072779937 L528.8767696838523,397.12834547889827 M528.8767696838523,397.12834547889827 L530.1213917006945,399.49018359965817 M530.1213917006945,399.49018359965817 L530.982008525856,401.8814769097557 M530.982008525856,401.8814769097557 L531.4510157381103,404.29536911245464 M531.4510157381103,404.29536911245464 L531.5218573160442,406.7247481339624 M531.5218573160442,406.7247481339624 L531.1890988391423,409.1622766738263 M531.1890988391423,409.1622766738263 L530.4485178612318,411.6003875522866 M530.4485178612318,411.6003875522866 L529.2971306098655,414.0313183597203 M368.45545816030614,363.2392112703858 L354.79411957591674,358.92510434899964 M368.45545816030614,363.2392112703858 L368.5723074653667,379.870909921901" stroke="black"  stroke-width="4"  fill="red"/>
<path d="M262.275141315684,386.6006798737529 L262.80824866332483,403.8904082299207 M453.6019045710399,454.1277727874079 L445.54343614420395,455.0681547757762 M445.54343614420395,455.0681547757762 L437.3270237010018,455.8552828947731 M437.3270237010018,455.8552828947731 L428.98069744386066,456.4858181092364 M428.98069744386066,456.4858181092364 L420.5332000723399,456.95707683125784 M420.5332000723399,456.95707683125784 L412.0138698949295,457.26703659890705 M412.0138698949295,457.26703659890705 L403.45245741821446,457.4143694577269 M403.45245741821446,457.4143694577269 L394.8789425566078,457.3984414800963 M394.8789425566078,457.3984414800963 L386.32338731890155,457.21931687666284 M386.32338731890155,457.21931687666284 L377.815743862979,456.87776894154763 M377.815743862979,456.87776894154763 L369.3856886453111,456.3752636612566 M369.3856886453111,456.3752636612566 L361.0624654213703,455.7139547838604 M361.0624654213703,455.7139547838604 L352.87469038590535,454.89665417834874 M352.87469038590535,454.89665417834874 L344.8502181628278,453.92682312659196 M344.8502181628278,453.92682312659196 L337.0159820492161,452.80854283794 M337.0159820492161,452.80854283794 L329.39787573008215,451.5464704850003 M329.39787573008215,451.5464704850003 L322.02059034159373,450.145818248688 M322.02059034159373,450.145818248688 L314.90755168207147,448.61230304222994 M314.90755168207147,448.61230304222994 L308.08076018485025,446.9521089948008 M308.08076018485025,446.9521089948008 L301.5607385542708,445.171847390079 M301.5607385542708,445.171847390079 L295.36645564938425,443.27850208557453 M295.36645564938425,443.27850208557453 L289.515266109864,441.2793852048869 M289.515266109864,441.2793852048869 L284.022873686946,439.18208814625376 M284.022873686946,439.18208814625376 L278.90329006818484,436.9944363210004 M278.90329006818484,436.9944363210004 L274.16882156075917,434.7244421030128 M274.16882156075917,434.7244421030128 L269.8300761646848,432.38025404965697 M269.8300761646848,432.38025404965697 L265.89597132923564,429.9701139638452 M265.89597132923564,429.9701139638452 L262.37376496449684,427.5023127766217 M262.37376496449684,427.5023127766217 L259.2690666926856,424.98514774777794 M259.2690666926856,424.98514774777794 L256.5858899089173,422.4268953787085 M256.5858899089173,422.4268953787085 L254.32671965018693,419.835755755692 M254.32671965018693,419.835755755692 L252.49253804707115,417.21983597748016 M252.49253804707115,417.21983597748016 L251.08293005450008,414.58710844398837 M251.08293005450008,414.58710844398837 L250.09611959574545,411.9453896857304 M250.09611959574545,411.9453896857304 L249.5290385768438,409.3023125030313 M249.5290385768438,409.3023125030313 L249.37743572968824,406.6653120696605 M249.37743572968824,406.6653120696605 L249.63592545237753,404.0415976762993 M249.63592545237753,404.0415976762993 L250.2980825607181,401.43814116191743 M250.2980825607181,401.43814116191743 L251.35649471786783,398.8616660841568 M251.35649471786783,398.8616660841568 L252.8028698000614,396.3186320273434 M252.8028698000614,396.3186320273434 L254.6281066956055,393.81523442408013 M254.6281066956055,393.81523442408013 L256.82234209930783,391.3573952912701 M256.82234209930783,391.3573952912701 L259.3750647939773,388.95075433547555 M259.3750647939773,388.95075433547555 L262.275141315684,386.6006798737529 M453.6019045710399,454.1277727874079 L453.3686208571104,473.2743862967302 M262.80824866332483,403.8904082299207 L259.9217553199207,406.3062330388282 M259.9217553199207,406.3062330388282 L257.38141456631126,408.78012268125383 M257.38141456631126,408.78012268125383 L255.19829582044116,411.30655311428814 M255.19829582044116,411.30655311428814 L253.3828465008768,413.879722000048 M253.3828465008768,413.879722000048 L251.94486659524281,416.4935375701601 M251.94486659524281,416.4935375701601 L250.89339501041962,419.1416278564084 M250.89339501041962,419.1416278564084 L250.23666317596155,421.81735029594785 M250.23666317596155,421.81735029594785 L249.9820247567845,424.5137919932221 M249.9820247567845,424.5137919932221 L250.1358489921036,427.22378591969766 M250.1358489921036,427.22378591969766 L250.70346877448097,429.939922107492 M250.70346877448097,429.939922107492 L251.68908660374322,432.65455959316785 M251.68908660374322,432.65455959316785 L253.09572630806136,435.35985549880553 M253.09572630806136,435.35985549880553 L254.9251250109353,438.0477793429287 M254.9251250109353,438.0477793429287 L257.17766479793175,440.71014168704863 M257.17766479793175,440.71014168704863 L259.85233712245224,443.33861589229264 M259.85233712245224,443.33861589229264 L262.9466379386747,445.92478096436463 M262.9466379386747,445.92478096436463 L266.4565427579652,448.46013855199567 M266.4565427579652,448.46013855199567 L270.37643949584645,450.9361700831823 M270.37643949584645,450.9361700831823 L274.69907702100505,453.34436452977104 M274.69907702100505,453.34436452977104 L279.41555433766774,455.6762622966749 M279.41555433766774,455.6762622966749 L284.5152900629145,457.92350044674777 M284.5152900629145,457.92350044674777 L289.9860150248373,460.0778566968408 M289.9860150248373,460.0778566968408 L295.8137655047928,462.13130145247203 M295.8137655047928,462.13130145247203 L301.98289672990916,464.07604599775004 M301.98289672990916,464.07604599775004 L308.476124047597,465.9045888357186 M308.476124047597,465.9045888357186 L315.2745595541519,467.6097658502538 M315.2745595541519,467.6097658502538 L322.3577722577923,469.1847956503016 M322.3577722577923,469.1847956503016 L329.703863852656,470.6233354612104 M329.703863852656,470.6233354612104 L337.2895207634305,471.9195221027801 M337.2895207634305,471.9195221027801 L345.0901733154988,473.0680103568197 M345.0901733154988,473.0680103568197 L353.08005802360873,474.0640244453618 M353.08005802360873,474.0640244453618 L361.2323795145174,474.90337940553906 M361.2323795145174,474.90337940553906 L369.5194279393443,475.5825261083573 M369.5194279393443,475.5825261083573 L377.91273761299817,476.09858142355023 M377.91273761299817,476.09858142355023 L386.38321996833133,476.44933706591854 M386.38321996833133,476.44933706591854 L394.9013570596946,476.6332899601229 M394.9013570596946,476.6332899601229 L403.43735733777226,476.64964725240367 M403.43735733777226,476.64964725240367 L411.96132021906345,476.4983431159312 M411.96132021906345,476.4983431159312 L420.4434266283368,476.18002750815083 M420.4434266283368,476.18002750815083 L428.8540851109049,475.6960619711739 M428.8540851109049,475.6960619711739 L437.1641132798217,475.0485201727114 M437.1641132798217,475.0485201727114 L445.3449199142194,474.24015369524585 M445.3449199142194,474.24015369524585 L453.3686208571104,473.2743862967302 M262.80824866332483,403.8904082299207 L276.34435987060783,408.8189735570335 M275.85958874315156,391.3951907305061 L276.34435987060783,408.8189735570335 M262.275141315684,386.6006798737529 L275.85958874315156,391.3951907305061 M436.7289710152805,448.1726197677281 L453.6019045710399,454.1277727874079 M436.7289710152805,448.1726197677281 L429.15410649756217,448.8280529501449 M429.15410649756217,448.8280529501449 L421.4686596393923,449.3321425172454 M421.4686596393923,449.3321425172454 L413.7015887234645,449.6826023158532 M413.7015887234645,449.6826023158532 L405.88235062781325,449.877824551291 M405.88235062781325,449.877824551291 L398.0406819717484,449.9169143722354 M398.0406819717484,449.9169143722354 L390.2064924202749,449.7996911863497 M390.2064924202749,449.7996911863497 L382.4096339029048,449.526694258488 M382.4096339029048,449.526694258488 L374.67971944942326,449.09917480600484 M374.67971944942326,449.09917480600484 L367.0459814273553,448.5190835640799 M367.0459814273553,448.5190835640799 L359.53706640586626,447.78905619998704 M359.53706640586626,447.78905619998704 L352.18087860659335,446.9123967699495 M352.18087860659335,446.9123967699495 L345.0044350011625,445.89304080824553 M345.0044350011625,445.89304080824553 L338.033703781314,444.73553265561327 M338.033703781314,444.73553265561327 L331.2934759568956,443.4449811334271 M331.2934759568956,443.4449811334271 L324.80724070139564,442.02702810739777 M324.80724070139564,442.02702810739777 L318.59707602098666,440.4877982081162 M318.59707602098666,440.4877982081162 L312.6835710587288,438.8338543651719 M312.6835710587288,438.8338543651719 L307.0857128767456,437.07215706000767 M307.0857128767456,437.07215706000767 L301.8208611531757,435.21000620442817 M301.8208611531757,435.21000620442817 L296.9046826456175,433.25499526532906 M296.9046826456175,433.25499526532906 L292.35111498294714,431.2149635377416 M292.35111498294714,431.2149635377416 L288.17235485567227,429.09794557896254 M288.17235485567227,429.09794557896254 L284.37886561736127,426.91211688413836 M284.37886561736127,426.91211688413836 L280.97935891793406,424.6657594303709 M280.97935891793406,424.6657594303709 L277.9808375334561,422.36720497098776 M277.9808375334561,422.36720497098776 L275.38863003743865,420.0247975753772 M275.38863003743865,420.0247975753772 L273.20641435138066,417.64685257943484 M273.20641435138066,417.64685257943484 L271.4362920597641,415.2416183787954 M271.4362920597641,415.2416183787954 L270.0788253680037,412.8172436267807 M270.0788253680037,412.8172436267807 L269.1331276870355,410.38174101858215 M269.1331276870355,410.38174101858215 L268.5969075730812,407.94296248091973 M268.5969075730812,407.94296248091973 L268.46655649616497,405.5085766503562 M268.46655649616497,405.5085766503562 L268.7372328856895,403.0860363052875 M268.7372328856895,403.0860363052875 L269.4029335634029,400.68257015122714 M269.4029335634029,400.68257015122714 L270.45656517137866,398.30516593489625 M270.45656517137866,398.30516593489625 L271.8900379213496,395.96054169318654 M271.8900379213496,395.96054169318654 L273.69432351306034,393.65515694190964 M273.69432351306034,393.65515694190964 L275.85958874315156,391.3951907305061 M436.57068194632495,467.1581733006288 L453.3686208571104,473.2743862967302 M436.7289710152805,448.1726197677281 L436.57068194632495,467.1581733006288 M276.34435987060783,408.8189735570335 L274.1895861928411,411.1420110324708 M274.1895861928411,411.1420110324708 L272.3944821509365,413.5116571154055 M272.3944821509365,413.5116571154055 L270.9688202930089,415.9215562165895 M270.9688202930089,415.9215562165895 L269.92156964139156,418.3650652646323 M269.92156964139156,418.3650652646323 L269.26076284005836,420.8352763427447 M269.26076284005836,420.8352763427447 L268.9934386946853,423.3250052639656 M268.9934386946853,423.3250052639656 L269.1255490901277,425.82682118872196 M269.1255490901277,425.82682118872196 L269.6618881571587,428.333064036703 M269.6618881571587,428.333064036703 L270.6060214503185,430.8358529771662 M270.6060214503185,430.8358529771662 L271.96020260859007,433.3271199340707 M271.96020260859007,433.3271199340707 L273.72528631770797,435.79863275224517 M273.72528631770797,435.79863275224517 L275.90068493823526,438.24202070068884 M275.90068493823526,438.24202070068884 L278.4842786971754,440.64881167919515 M278.4842786971754,440.64881167919515 L281.4723792856123,443.01046589945616 M281.4723792856123,443.01046589945616 L284.8596562529195,445.3184151015735 M284.8596562529195,445.3184151015735 L288.6391139466772,447.56410467290004 M288.6391139466772,447.56410467290004 L292.80205735507496,449.73903206110117 M292.80205735507496,449.73903206110117 L297.3380498142812,451.8348049415944 M297.3380498142812,451.8348049415944 L302.23493160439193,453.8431765091451 M302.23493160439193,453.8431765091451 L307.4788126592183,455.7561011659148 M307.4788126592183,455.7561011659148 L313.0540845539752,457.5657863335255 M313.0540845539752,457.5657863335255 L318.9434567315416,459.26474133680875 M318.9434567315416,459.26474133680875 L325.128021871063,460.8458243763177 M325.128021871063,460.8458243763177 L331.5872811364983,462.3023020733807 M331.5872811364983,462.3023020733807 L338.299256887581,463.62789116446714 M338.299256887581,463.62789116446714 L345.2405699531894,464.8168040156726 M345.2405699531894,464.8168040156726 L352.38654833750627,465.8638001115533 M352.38654833750627,465.8638001115533 L359.7113511078865,466.7642181962238 M359.7113511078865,466.7642181962238 L367.18809595478035,467.5140216638266 M367.18809595478035,467.5140216638266 L374.7890196701687,468.109821721263 M374.7890196701687,468.109821721263 L382.48562202126675,468.54891519252334 M382.48562202126675,468.54891519252334 L390.24882117055665,468.8293014226372 M390.24882117055665,468.8293014226372 L398.0491574379937,468.94969719271677 M398.0491574379937,468.94969719271677 L405.8569339378179,468.90954944867616 M405.8569339378179,468.90954944867616 L413.64239643138455,468.70904340140953 M413.64239643138455,468.70904340140953 L421.3759625795303,468.34909678323544 M421.3759625795303,468.34909678323544 L429.02832765368686,467.83135852730504 M429.02832765368686,467.83135852730504 L436.57068194632495,467.1581733006288" stroke="black"  stroke-width="4"  fill="red"/></svg>