<svg viewBox="0 0 800 800" xmlns="http://www.w3.org/2000/svg"><path d="" stroke="black"  stroke-width="4"  fill="red"/>
<path d="M493.81528752397196,373.0771773844775 L494.17079808722065,356.0922622656835 M294.3026250202509,439.5813982190512 L293.8511412163507,420.7201569188021 M493.81528752397196,373.0771773844775 L499.0663894056619,374.7234644903771 M499.0663894056619,374.7234644903771 L504.0753339580167,376.46290845800286 M504.0753339580167,376.46290845800286 L508.8272367354872,378.29210229500234 M508.8272367354872,378.29210229500234 L513.3074548706414,380.2073689414345 M513.3074548706414,380.2073689414345 L517.5015987203946,382.20476132347926 M517.5015987203946,382.20476132347926 L521.3956298106899,384.28004399054356 M521.3956298106899,384.28004399054356 L524.9758404474836,386.4287087543848 M524.9758404474836,386.4287087543848 L528.228966615653,388.64594383006056 M528.228966615653,388.64594383006056 L531.142228609492,390.9266480869773 M531.142228609492,390.9266480869773 L533.7033753914923,393.2654257593057 M533.7033753914923,393.2654257593057 L535.9007913217378,395.65658212435784 M535.9007913217378,395.65658212435784 L537.7235274742513,398.0941222265103 M537.7235274742513,398.0941222265103 L539.1613998673112,400.5717595180665 M539.1613998673112,400.5717595180665 L540.2050509370563,403.0829201817357 M540.2050509370563,403.0829201817357 L540.8460558243708,405.62074773149277 M540.8460558243708,405.62074773149277 L541.0769788301441,408.1781137598279 M541.0769788301441,408.1781137598279 L540.8914568995262,410.7476314578033 M540.8914568995262,410.7476314578033 L540.2843101647915,413.3216721432912 M540.2843101647915,413.3216721432912 L539.2515976422309,415.8923810809494 M539.2515976422309,415.8923810809494 L537.7907154773512,418.45169848391777 M537.7907154773512,418.45169848391777 L535.9004547100719,420.99139098222963 M535.9004547100719,420.99139098222963 L533.5811176219308,423.5030779634532 M533.5811176219308,423.5030779634532 L530.8345452002696,425.97825943300285 M530.8345452002696,425.97825943300285 L527.6641999999347,428.4083473597045 M527.6641999999347,428.4083473597045 L524.0752523349871,430.78472481881926 M524.0752523349871,430.78472481881926 L520.0745518919692,433.09875650172586 M520.0745518919692,433.09875650172586 L515.6707533289729,435.3418576253212 M515.6707533289729,435.3418576253212 L510.8742801228352,437.5055258769765 M510.8742801228352,437.5055258769765 L505.6973749797491,439.5813982190512 M505.6973749797491,439.5813982190512 L500.15409609004183,441.5612998224246 M500.15409609004183,441.5612998224246 L494.2602762395299,443.4372863750223 M494.2602762395299,443.4372863750223 L488.03352077200975,445.2017050570742 M488.03352077200975,445.2017050570742 L481.49316688795415,446.84724820771305 M481.49316688795415,446.84724820771305 L474.6601968503962,448.3669921783602 M474.6601968503962,448.3669921783602 L467.5572067016235,449.754469678312 M467.5572067016235,449.754469678312 L460.2082351520286,451.0036877643895 M460.2082351520286,451.0036877643895 L452.63875017736746,452.10919965689584 M452.63875017736746,452.10919965689584 L444.87546199698505,453.0661384607461 M444.87546199698505,453.0661384607461 L436.9461961953838,453.8702487466184 M436.9461961953838,453.8702487466184 L428.87975735941166,454.51793741914463 M428.87975735941166,454.51793741914463 L420.705774176222,455.0062875728173 M420.705774176222,455.0062875728173 L412.4545099675196,455.3330917948702 M412.4545099675196,455.3330917948702 L404.15668708512493,455.49686432917247 M404.15668708512493,455.49686432917247 L395.843312914875,455.49686432917247 M395.843312914875,455.49686432917247 L387.5454900324804,455.3330917948702 M387.5454900324804,455.3330917948702 L379.294225823778,455.0062875728173 M379.294225823778,455.0062875728173 L371.1202426405883,454.51793741914463 M371.1202426405883,454.51793741914463 L363.05380380461617,453.8702487466184 M363.05380380461617,453.8702487466184 L355.1245380030149,453.0661384607461 M355.1245380030149,453.0661384607461 L347.36124982263254,452.1091996568958 M347.36124982263254,452.1091996568958 L339.7917648479713,451.0036877643895 M339.7917648479713,451.0036877643895 L332.44279329837644,449.754469678312 M332.44279329837644,449.754469678312 L325.3398031496038,448.3669921783602 M325.3398031496038,448.3669921783602 L318.50683311204585,446.84724820771305 M318.50683311204585,446.84724820771305 L311.96647922799025,445.2017050570742 M311.96647922799025,445.2017050570742 L305.7397237604701,443.4372863750223 M305.7397237604701,443.4372863750223 L299.84590390995817,441.5612998224246 M299.84590390995817,441.5612998224246 L294.3026250202509,439.5813982190512 M494.17079808722065,356.0922622656835 L499.44298036715554,357.69135277130925 M499.44298036715554,357.69135277130925 L504.47227741227107,359.3809707548943 M504.47227741227107,359.3809707548943 L509.24374612052077,361.15781350493256 M509.24374612052077,361.15781350493256 L513.742683421174,363.0183159594406 M513.742683421174,363.0183159594406 L517.9546379125346,364.9586506782734 M517.9546379125346,364.9586506782734 L521.865508135221,366.9747099212855 M521.865508135221,366.9747099212855 L525.4615221080131,369.06212075404375 M525.4615221080131,369.06212075404375 L528.7293506499426,371.21621497965896 M528.7293506499426,371.21621497965896 L531.6561482219391,373.4320428911325 M531.6561482219391,373.4320428911325 L534.2295975216828,375.70436803983443 M534.2295975216828,375.70436803983443 L536.4380167242269,378.02766294341245 M536.4380167242269,378.02766294341245 L538.2703910483681,380.3961077527784 M538.2703910483681,380.3961077527784 L539.7164715421795,382.8035985566605 M539.7164715421795,382.8035985566605 L540.766836996333,385.2437514939896 M540.766836996333,385.2437514939896 L541.4130008829543,387.70990714106426 M541.4130008829543,387.70990714106426 L541.6474683035445,390.1951408771386 M541.6474683035445,390.1951408771386 L541.4638201079285,392.692275952359 M541.4638201079285,392.692275952359 L540.8568242158543,395.19389948851176 M540.8568242158543,395.19389948851176 L539.8224918981736,397.69237780223557 M539.8224918981736,397.69237780223557 L538.3581768087957,400.17987677624194 M538.3581768087957,400.17987677624194 L536.4626334025232,402.64839241765816 M536.4626334025232,402.64839241765816 L534.1361341867057,405.08977644853616 M534.1361341867057,405.08977644853616 L531.3804977356049,407.49576338950277 M531.3804977356049,407.49576338950277 L528.1991723377367,409.85800104802155 M528.1991723377367,409.85800104802155 L524.5973230121718,412.1681080468694 M524.5973230121718,412.1681080468694 L520.5818034092229,414.41768409596494 M520.5818034092229,414.41768409596494 L516.161282378,416.59837705280904 M516.161282378,416.59837705280904 L511.3462080411912,418.70191406852194 M511.3462080411912,418.70191406852194 L506.1488587836493,420.7201569188021 M506.1488587836493,420.7201569188021 L500.58333980533905,422.6451497002505 M500.58333980533905,422.6451497002505 L494.6655423148643,424.46916009999956 M494.6655423148643,424.46916009999956 L488.4131416950227,426.18473882728637 M488.4131416950227,426.18473882728637 L481.84555676774687,427.78477195045923 M481.84555676774687,427.78477195045923 L474.9838626875593,429.26251883793793 M474.9838626875593,429.26251883793793 L467.850759531138,430.6116826699322 M467.850759531138,430.6116826699322 L460.4704003455909,431.8264280975583 M460.4704003455909,431.8264280975583 L452.8683775417006,432.9014512386788 M452.8683775417006,432.9014512386788 L445.0715348172584,433.83201262538057 M445.0715348172584,433.83201262538057 L437.10783941302066,434.6139680599694 M437.10783941302066,434.6139680599694 L429.0062447816631,435.2438182134455 M429.0062447816631,435.2438182134455 L420.79653456383693,435.7187222152904 M420.79653456383693,435.7187222152904 L412.5091318030944,436.0365301350212 M412.5091318030944,436.0365301350212 L404.1749220354909,436.19579488530917 M404.1749220354909,436.19579488530917 L395.8250779645091,436.19579488530917 M395.8250779645091,436.19579488530917 L387.4908681969055,436.0365301350212 M387.4908681969055,436.0365301350212 L379.203465436163,435.7187222152904 M379.203465436163,435.7187222152904 L370.9937552183369,435.2438182134455 M370.9937552183369,435.2438182134455 L362.89216058697934,434.6139680599694 M362.89216058697934,434.6139680599694 L354.92846518274155,433.83201262538057 M354.92846518274155,433.83201262538057 L347.1316224582994,432.9014512386788 M347.1316224582994,432.9014512386788 L339.52959965440897,431.8264280975583 M339.52959965440897,431.8264280975583 L332.1492404688619,430.6116826699322 M332.1492404688619,430.6116826699322 L325.0161373124407,429.26251883793793 M325.0161373124407,429.26251883793793 L318.15444323225313,427.78477195045923 M318.15444323225313,427.78477195045923 L311.5868583049772,426.18473882728637 M311.5868583049772,426.18473882728637 L305.33445768513565,424.46916009999956 M305.33445768513565,424.46916009999956 L299.41666019466095,422.64514970025044 M299.41666019466095,422.64514970025044 L293.8511412163507,420.7201569188021 M294.3026250202509,439.5813982190512 L289.12571987716467,437.5055258769765 M289.12571987716467,437.5055258769765 L284.32924667102714,435.3418576253212 M284.32924667102714,435.3418576253212 L279.92544810803065,433.09875650172586 M279.92544810803065,433.09875650172586 L275.92474766501294,430.78472481881926 M275.92474766501294,430.78472481881926 L272.3358000000653,428.4083473597045 M272.3358000000653,428.4083473597045 L269.1654547997303,425.97825943300285 M269.1654547997303,425.97825943300285 L266.4188823780692,423.5030779634532 M266.4188823780692,423.5030779634532 L264.0995452899281,420.99139098222963 M264.0995452899281,420.99139098222963 L262.20928452264883,418.45169848391777 M262.20928452264883,418.45169848391777 L260.74840235776907,415.8923810809494 M260.74840235776907,415.8923810809494 L259.7156898352084,413.3216721432912 M259.7156898352084,413.3216721432912 L259.10854310047375,410.7476314578033 M259.10854310047375,410.7476314578033 L258.9230211698558,408.1781137598279 M258.9230211698558,408.1781137598279 L259.1539441756293,405.62074773149277 M259.1539441756293,405.62074773149277 L259.79494906294366,403.0829201817356 M259.79494906294366,403.0829201817356 L260.83860013268884,400.5717595180665 M260.83860013268884,400.5717595180665 L262.2764725257486,398.0941222265103 M262.2764725257486,398.0941222265103 L264.09920867826224,395.65658212435784 M264.09920867826224,395.65658212435784 L266.29662460850756,393.2654257593057 M266.29662460850756,393.2654257593057 L268.8577713905079,390.9266480869773 M268.8577713905079,390.9266480869773 L271.77103338434705,388.64594383006056 M271.77103338434705,388.64594383006056 L275.02415955251644,386.4287087543848 M275.02415955251644,386.4287087543848 L278.60437018931015,384.28004399054356 M278.60437018931015,384.28004399054356 L282.4984012796054,382.20476132347926 M282.4984012796054,382.20476132347926 L286.6925451293585,380.20736894143437 M286.6925451293585,380.20736894143437 L291.17276326451275,378.29210229500234 M291.17276326451275,378.29210229500234 L295.9246660419833,376.46290845800286 M295.9246660419833,376.46290845800286 L300.9336105943381,374.7234644903771 M300.9336105943381,374.7234644903771 L306.184712476028,373.0771773844776 M306.184712476028,373.0771773844776 L311.66288662425376,371.527192341012 M311.66288662425376,371.527192341012 L317.35290200219504,370.0764071650389 M317.35290200219504,370.0764071650389 L323.23938975508787,368.7274725613069 M323.23938975508787,368.7274725613069 L329.30686565676825,367.4827984254126 M329.30686565676825,367.4827984254126 L335.5397719499676,366.3445706520222 M335.5397719499676,366.3445706520222 L341.92246141798745,365.3147415186225 M341.92246141798745,365.3147415186225 L348.4392744096684,364.39505905812536 M348.4392744096684,364.39505905812536 L355.0744752236874,363.58705390277265 M355.0744752236874,363.58705390277265 L361.81231550834013,362.8920517523989 M361.81231550834013,362.8920517523989 L368.63703281623924,362.31118379232464 M368.63703281623924,362.31118379232464 L375.5328474722711,361.845379375246 M375.5328474722711,361.845379375246 L382.48396042023586,361.49538129460433 M382.48396042023586,361.49538129460433 L389.47457375133905,361.261742395437 M389.47457375133905,361.261742395437 L396.48889066268606,361.14483253576986 M396.48889066268606,361.14483253576986 L403.5111093373139,361.14483253576986 M403.5111093373139,361.14483253576986 L410.5254262486609,361.261742395437 M410.5254262486609,361.261742395437 L417.5160395797641,361.49538129460433 M417.5160395797641,361.49538129460433 L424.46715252772884,361.845379375246 M424.46715252772884,361.845379375246 L431.36296718376076,362.31118379232464 M431.36296718376076,362.31118379232464 L438.1876844916598,362.8920517523989 M438.1876844916598,362.8920517523989 L444.92552477631256,363.58705390277265 M444.92552477631256,363.58705390277265 L451.5607255903316,364.39505905812536 M451.5607255903316,364.39505905812536 L458.0775385820125,365.3147415186225 M458.0775385820125,365.3147415186225 L464.4602280500324,366.3445706520222 M464.4602280500324,366.3445706520222 L470.69313434323175,367.4827984254126 M470.69313434323175,367.4827984254126 L476.7606102449121,368.7274725613069 M476.7606102449121,368.7274725613069 L482.64709799780496,370.0764071650389 M482.64709799780496,370.0764071650389 L488.33711337574624,371.527192341012 M488.33711337574624,371.527192341012 L493.81528752397196,373.0771773844775 M293.8511412163507,420.7201569188021 L288.65379195880877,418.70191406852194 M288.65379195880877,418.70191406852194 L283.83871762199993,416.59837705280904 M283.83871762199993,416.59837705280904 L279.4181965907771,414.41768409596494 M279.4181965907771,414.41768409596494 L275.4026769878281,412.1681080468694 M275.4026769878281,412.1681080468694 L271.8008276622632,409.85800104802144 M271.8008276622632,409.85800104802144 L268.6195022643951,407.4957633895027 M268.6195022643951,407.4957633895027 L265.86386581329435,405.08977644853616 M265.86386581329435,405.08977644853616 L263.53736659747665,402.64839241765816 M263.53736659747665,402.64839241765816 L261.6418231912042,400.17987677624194 M261.6418231912042,400.17987677624194 L260.1775081018264,397.69237780223557 M260.1775081018264,397.69237780223557 L259.1431757841456,395.19389948851176 M259.1431757841456,395.19389948851176 L258.53617989207135,392.692275952359 M258.53617989207135,392.692275952359 L258.3525316964554,390.1951408771386 M258.3525316964554,390.1951408771386 L258.5869991170457,387.70990714106415 M258.5869991170457,387.70990714106415 L259.2331630036669,385.2437514939896 M259.2331630036669,385.2437514939896 L260.2835284578204,382.8035985566605 M260.2835284578204,382.8035985566605 L261.72960895163186,380.3961077527783 M261.72960895163186,380.3961077527783 L263.56198327577295,378.02766294341245 M263.56198327577295,378.02766294341245 L265.7704024783171,375.70436803983443 M265.7704024783171,375.70436803983443 L268.34385177806087,373.4320428911325 M268.34385177806087,373.4320428911325 L271.27064935005745,371.21621497965896 M271.27064935005745,371.21621497965896 L274.5384778919869,369.06212075404375 M274.5384778919869,369.06212075404375 L278.13449186477897,366.9747099212854 M278.13449186477897,366.9747099212854 L282.04536208746526,364.9586506782734 M282.04536208746526,364.9586506782734 L286.2573165788261,363.0183159594406 M286.2573165788261,363.0183159594406 L290.75625387947923,361.15781350493256 M290.75625387947923,361.15781350493256 L295.5277225877289,359.3809707548943 M295.5277225877289,359.3809707548943 L300.55701963284446,357.69135277130925 M300.55701963284446,357.69135277130925 L305.82920191277924,356.09226226568353 M305.82920191277924,356.09226226568353 L311.32912733360524,354.58674771397256 M311.32912733360524,354.58674771397256 L317.04150956203756,353.177617410979 M317.04150956203756,353.177617410979 L322.95092610928265,351.86743982369813 M322.95092610928265,351.86743982369813 L329.0418407421155,350.6585497639415 M329.0418407421155,350.6585497639415 L335.2986453435248,349.5530647704027 M335.2986453435248,349.5530647704027 L341.7056437918225,348.5528758209884 M341.7056437918225,348.5528758209884 L348.24712911327043,347.6596759073907 M348.24712911327043,347.6596759073907 L354.9073194813609,346.8749472995031 M354.9073194813609,346.8749472995031 L361.6704216876852,346.19997369205095 M361.6704216876852,346.19997369205095 L368.5206295226695,345.6358503545443 M368.5206295226695,345.6358503545443 L375.4421204644018,345.18347705163177 M375.4421204644018,345.18347705163177 L382.4190533403886,344.8435728990457 M382.4190533403886,344.8435728990457 L389.4355887576067,344.61667309028746 M389.4355887576067,344.61667309028746 L396.47588888214864,344.5031356708275 M396.47588888214864,344.5031356708275 L403.52411111785136,344.5031356708275 M403.52411111785136,344.5031356708275 L410.5644112423933,344.61667309028746 M410.5644112423933,344.61667309028746 L417.5809466596113,344.8435728990457 M417.5809466596113,344.8435728990457 L424.5578795355981,345.18347705163177 M424.5578795355981,345.18347705163177 L431.47937047733046,345.6358503545443 M431.47937047733046,345.6358503545443 L438.3295783123148,346.19997369205095 M438.3295783123148,346.19997369205095 L445.09268051863904,346.8749472995031 M445.09268051863904,346.8749472995031 L451.7528708867295,347.6596759073907 M451.7528708867295,347.6596759073907 L458.2943562081774,348.5528758209884 M458.2943562081774,348.5528758209884 L464.7013546564752,349.5530647704027 M464.7013546564752,349.5530647704027 L470.95815925788446,350.65854976394155 M470.95815925788446,350.65854976394155 L477.04907389071724,351.86743982369813 M477.04907389071724,351.86743982369813 L482.95849043796244,353.177617410979 M482.95849043796244,353.177617410979 L488.67087266639464,354.58674771397256 M488.67087266639464,354.58674771397256 L494.17079808722065,356.0922622656835" stroke="black"  stroke-width="4"  fill="red"/></svg>