<svg viewBox="0 0 800 800" xmlns="http://www.w3.org/2000/svg"><path d="M488.7804245225266,378.3847660550917 L489.12174183166906,360.9775832888211 M300.6504773200298,435.45789610528743 L300.2228610100729,416.21516215723005 M488.7804245225266,378.3847660550917 L493.90664673297533,379.85924333964607 M493.90664673297533,379.85924333964607 L498.7837979710257,381.4193762813068 M498.7837979710257,381.4193762813068 L503.396280249189,383.06178835921065 M503.396280249189,383.06178835921065 L507.72878852729787,384.7828378224491 M507.72878852729787,384.7828378224491 L511.7663595314622,386.5786113453508 M511.7663595314622,386.5786113453508 L515.494427645987,388.44491742589065 M515.494427645987,388.44491742589065 L518.8988774383562,390.3772859512184 M518.8988774383562,390.3772859512184 L521.9660967281318,392.3709601618696 M521.9660967281318,392.3709601618696 L524.6830652970788,394.4208999058741 M524.6830652970788,394.4208999058741 L527.0374057034205,396.52177944083644 M527.0374057034205,396.52177944083644 L529.017470528718,398.66797881311237 M529.017470528718,398.66797881311237 L530.6124156887419,400.85360186081687 M530.6124156887419,400.85360186081687 L531.8122841349843,403.0724753321997 M531.8122841349843,403.0724753321997 L532.6081086184982,405.31815326979086 M532.6081086184982,405.31815326979086 L532.9919362560017,407.5839288694443 M532.9919362560017,407.5839288694443 L532.9570239187861,409.86284732004236 M532.9570239187861,409.86284732004236 L532.4978207243765,412.14772153938947 M532.4978207243765,412.14772153938947 L531.6101207297608,414.43115282454824 M531.6101207297608,414.43115282454824 L530.2911307425137,416.7055494601991 M530.2911307425137,416.7055494601991 L528.539549875747,418.96314494281467 M528.539549875747,418.96314494281467 L526.3556636820684,421.19604250388153 M526.3556636820684,421.19604250388153 L523.7414007114439,423.39623617313777 M523.7414007114439,423.39623617313777 L520.7004207972385,425.5556433813901 M520.7004207972385,425.5556433813901 L517.2381535868942,427.66614863187294 M517.2381535868942,427.66614863187294 L513.3618549400757,429.71963854959006 M513.3618549400757,429.71963854959006 L509.0806524507415,431.7080495910807 M509.0806524507415,431.7080495910807 L504.40556686171857,433.6234119006991 M504.40556686171857,433.6234119006991 L499.3495226799703,435.45789610528743 M499.3495226799703,435.45789610528743 L493.9273453244555,437.20386322374617 M493.9273453244555,437.20386322374617 L488.1557415218391,438.85391387969287 M488.1557415218391,438.85391387969287 L482.0532663609298,440.40093898241486 M482.0532663609298,440.40093898241486 L475.6402676632529,441.83817013834795 M475.6402676632529,441.83817013834795 L468.93881792308105,443.1592297143312 M468.93881792308105,443.1592297143312 L461.9726321751627,444.35818046743606 M461.9726321751627,444.35818046743606 L454.766947813407,445.42956972400066 M454.766947813407,445.42956972400066 L447.3484207422928,446.3684700571156 M447.3484207422928,446.3684700571156 L439.74496858808703,447.17052705612065 M439.74496858808703,447.17052705612065 L431.98562414645767,447.8319883178525 M431.98562414645767,447.8319883178525 L424.10040635347707,448.3497404358606 M424.10040635347707,448.3497404358606 L416.12008734691,448.72133221623943 M416.12008734691,448.72133221623943 L408.07602890781413,448.94499691190936 M408.07602890781413,448.94499691190936 L399.99999999999994,449.0196742140083 M399.99999999999994,449.0196742140083 L391.9239710921858,448.94499691190936 M391.9239710921858,448.94499691190936 L383.87991265308995,448.72133221623943 M383.87991265308995,448.72133221623943 L375.8995936465229,448.3497404358606 M375.8995936465229,448.3497404358606 L368.0143758535423,447.8319883178525 M368.0143758535423,447.8319883178525 L360.2550314119129,447.17052705612065 M360.2550314119129,447.17052705612065 L352.6515792577071,446.3684700571156 M352.6515792577071,446.3684700571156 L345.2330521865929,445.42956972400066 M345.2330521865929,445.42956972400066 L338.0273678248373,444.35818046743606 M338.0273678248373,444.35818046743606 L331.06118207691884,443.1592297143312 M331.06118207691884,443.1592297143312 L324.359732336747,441.83817013834795 M324.359732336747,441.83817013834795 L317.9467336390702,440.40093898241486 M317.9467336390702,440.40093898241486 L311.84425847816084,438.85391387969287 M311.84425847816084,438.85391387969287 L306.0726546755444,437.20386322374617 M306.0726546755444,437.20386322374617 L300.6504773200298,435.45789610528743 M489.12174183166906,360.9775832888211 L494.26878650308777,362.40400306600924 M494.26878650308777,362.40400306600924 L499.1659865720015,363.913323462523 M499.1659865720015,363.913323462523 L503.7976814000539,365.5022840235879 M503.7976814000539,365.5022840235879 L508.14850183671484,367.1673676659144 M508.14850183671484,367.1673676659144 L512.2034191741093,368.9047944598726 M512.2034191741093,368.9047944598726 L515.9478012265121,370.71051515937904 M515.9478012265121,370.71051515937904 L519.3674650620377,372.58021069560266 M519.3674650620377,372.58021069560266 L522.4487303016988,374.50928431379407 M522.4487303016988,374.50928431379407 L525.1785082416098,376.49286463219494 M525.1785082416098,376.49286463219494 L527.5443529578151,378.5258034254061 M527.5443529578151,378.5258034254061 L529.5345490147523,380.6026671922528 M529.5345490147523,380.6026671922528 L531.1381852452317,382.7177544882016 M531.1381852452317,382.7177544882016 L532.3452389797004,384.86509498740145 M532.3452389797004,384.86509498740145 L533.1466794567502,387.0384536439301 M533.1466794567502,387.0384536439301 L533.5344927626866,389.2313420925691 M533.5344927626866,389.2313420925691 L533.5018783231785,391.4370310062785 M533.5018783231785,391.4370310062785 L533.0432316693555,393.6485652657144 M533.0432316693555,393.6485652657144 L532.1542981333184,395.85878389607035 M532.1542981333184,395.85878389607035 L530.8322413409891,398.06033803963817 M530.8322413409891,398.06033803963817 L529.0757235182385,400.24570856919735 M529.0757235182385,400.24570856919735 L526.8850004816875,402.40724917384637 M526.8850004816875,402.40724917384637 L524.2619788831978,404.5372067527515 M524.2619788831978,404.5372067527515 L521.2103053313493,406.62775299552607 M521.2103053313493,406.62775299552607 L517.7354055562078,408.671026696086 M517.7354055562078,408.671026696086 L513.8445414949653,410.6591677380735 M513.8445414949653,410.6591677380735 L509.5468574473207,412.5843633555629 M509.5468574473207,412.5843633555629 L504.8534019868416,414.4388906813487 M504.8534019868416,414.4388906813487 L499.77713898992704,416.21516215723005 M499.77713898992704,416.21516215723005 L494.3329450937894,417.90577397627936 M494.3329450937894,417.90577397627936 L488.53759027268984,419.503553864677 M488.53759027268984,419.503553864677 L482.4097049520251,421.0016102974238 M482.4097049520251,421.0016102974238 L475.96972426897474,422.3933814627994 M475.96972426897474,422.3933814627994 L469.23981977178323,423.67268389640765 M469.23981977178323,423.67268389640765 L462.24381690497955,424.8337606991596 M462.24381690497955,424.8337606991596 L455.00707419408997,425.8713244768589 M455.00707419408997,425.8713244768589 L447.5563787512268,426.78059688515316 M447.5563787512268,426.78059688515316 L439.91978853158014,427.55735503573203 M439.91978853158014,427.55735503573203 L432.12648478679796,428.1979597064179 M432.12648478679796,428.1979597064179 L424.20664205342894,428.6993912828761 M424.20664205342894,428.6993912828761 L416.19119370815935,429.0592723444084 M416.19119370815935,429.0592723444084 L408.11166715732094,429.27588927944913 M408.11166715732094,429.27588927944913 L399.99999999999994,429.348213644153 M399.99999999999994,429.348213644153 L391.888332842679,429.27588927944913 M391.888332842679,429.27588927944913 L383.80880629184054,429.0592723444084 M383.80880629184054,429.0592723444084 L375.793357946571,428.6993912828761 M375.793357946571,428.6993912828761 L367.87351521320204,428.1979597064179 M367.87351521320204,428.1979597064179 L360.0802114684198,427.55735503573203 M360.0802114684198,427.55735503573203 L352.4436212487731,426.78059688515316 M352.4436212487731,426.78059688515316 L344.9929258059099,425.8713244768589 M344.9929258059099,425.8713244768589 L337.75618309502045,424.8337606991596 M337.75618309502045,424.8337606991596 L330.7601802282167,423.67268389640765 M330.7601802282167,423.67268389640765 L324.03027573102514,422.3933814627994 M324.03027573102514,422.3933814627994 L317.59029504797485,421.0016102974238 M317.59029504797485,421.0016102974238 L311.4624097273101,419.503553864677 M311.4624097273101,419.503553864677 L305.66705490621047,417.9057739762793 M305.66705490621047,417.9057739762793 L300.2228610100729,416.21516215723005 M300.6504773200298,435.45789610528743 L295.59443313828143,433.6234119006991 M295.59443313828143,433.6234119006991 L290.9193475492585,431.7080495910807 M290.9193475492585,431.7080495910807 L286.6381450599242,429.71963854959006 M286.6381450599242,429.71963854959006 L282.76184641310573,427.66614863187294 M282.76184641310573,427.66614863187294 L279.2995792027614,425.55564338139 M279.2995792027614,425.55564338139 L276.25859928855607,423.39623617313777 M276.25859928855607,423.39623617313777 L273.64433631793156,421.19604250388153 M273.64433631793156,421.19604250388153 L271.46045012425304,418.96314494281467 M271.46045012425304,418.96314494281467 L269.7088692574863,416.7055494601991 M269.7088692574863,416.7055494601991 L268.38987927023925,414.43115282454824 M268.38987927023925,414.43115282454824 L267.50217927562335,412.14772153938947 M267.50217927562335,412.14772153938947 L267.04297608121385,409.86284732004236 M267.04297608121385,409.86284732004236 L267.00806374399815,407.5839288694443 M267.00806374399815,407.5839288694443 L267.3918913815017,405.31815326979086 M267.3918913815017,405.31815326979086 L268.18771586501555,403.0724753321997 M268.18771586501555,403.0724753321997 L269.3875843112582,400.8536018608168 M269.3875843112582,400.8536018608168 L270.98252947128196,398.66797881311237 M270.98252947128196,398.66797881311237 L272.9625942965795,396.52177944083644 M272.9625942965795,396.52177944083644 L275.31693470292123,394.4208999058741 M275.31693470292123,394.4208999058741 L278.03390327186816,392.3709601618695 M278.03390327186816,392.3709601618695 L281.1011225616438,390.3772859512184 M281.1011225616438,390.3772859512184 L284.50557235401294,388.44491742589065 M284.50557235401294,388.44491742589065 L288.2336404685378,386.5786113453508 M288.2336404685378,386.5786113453508 L292.27121147270213,384.7828378224491 M292.27121147270213,384.7828378224491 L296.60371975081097,383.06178835921065 M296.60371975081097,383.06178835921065 L301.2162020289743,381.4193762813068 M301.2162020289743,381.4193762813068 L306.0933532670246,379.85924333964607 M306.0933532670246,379.85924333964607 L311.2195754774733,378.3847660550917 M311.2195754774733,378.3847660550917 L316.5790211247819,376.9990612385836 M316.5790211247819,376.9990612385836 L322.1556322153876,375.7049932215913 M322.1556322153876,375.7049932215913 L327.93317247793675,374.5051804403625 M327.93317247793675,374.5051804403625 L333.8952602302204,373.40200217641296 M333.8952602302204,373.40200217641296 L340.02539295835885,372.3976049028864 M340.02539295835885,372.3976049028864 L346.3069654713687,371.49390771576765 M346.3069654713687,371.49390771576765 L352.72330205319156,370.69261002452544 M352.72330205319156,370.69261002452544 L359.2576570634014,369.99519934682525 M359.2576570634014,369.99519934682525 L365.89324661032396,369.40295086274335 M365.89324661032396,369.40295086274335 L372.6132538740312,368.9169374619848 M372.6132538740312,368.9169374619848 L379.40080814922857,368.5380298695405 M379.40080814922857,368.5380298695405 L386.2390402708155,368.26690256951747 M386.2390402708155,368.26690256951747 L393.11106960659197,368.10403571705984 M393.11106960659197,368.10403571705984 L400,368.0497122818667 M400,368.0497122818667 L406.88893039340803,368.10403571705984 M406.88893039340803,368.10403571705984 L413.7609597291845,368.26690256951747 M413.7609597291845,368.26690256951747 L420.5991918507714,368.5380298695405 M420.5991918507714,368.5380298695405 L427.3867461259687,368.9169374619848 M427.3867461259687,368.9169374619848 L434.10675338967604,369.40295086274335 M434.10675338967604,369.40295086274335 L440.7423429365986,369.99519934682525 M440.7423429365986,369.99519934682525 L447.2766979468083,370.69261002452544 M447.2766979468083,370.69261002452544 L453.69303452863124,371.49390771576765 M453.69303452863124,371.49390771576765 L459.9746070416411,372.3976049028864 M459.9746070416411,372.3976049028864 L466.10473976977954,373.40200217641296 M466.10473976977954,373.40200217641296 L472.0668275220632,374.5051804403625 M472.0668275220632,374.5051804403625 L477.8443677846124,375.7049932215913 M477.8443677846124,375.7049932215913 L483.4209788752181,376.9990612385836 M483.4209788752181,376.9990612385836 L488.7804245225266,378.3847660550917 M300.2228610100729,416.21516215723005 L295.1465980131583,414.4388906813487 M295.1465980131583,414.4388906813487 L290.45314255267925,412.5843633555629 M290.45314255267925,412.5843633555629 L286.1554585050347,410.6591677380735 M286.1554585050347,410.6591677380735 L282.2645944437922,408.671026696086 M282.2645944437922,408.671026696086 L278.78969466865067,406.62775299552607 M278.78969466865067,406.62775299552607 L275.73802111680214,404.5372067527515 M275.73802111680214,404.5372067527515 L273.1149995183124,402.40724917384637 M273.1149995183124,402.40724917384637 L270.9242764817615,400.24570856919735 M270.9242764817615,400.24570856919735 L269.1677586590108,398.06033803963817 M269.1677586590108,398.06033803963817 L267.84570186668145,395.85878389607035 M267.84570186668145,395.85878389607035 L266.9567683306444,393.6485652657144 M266.9567683306444,393.6485652657144 L266.4981216768214,391.4370310062785 M266.4981216768214,391.4370310062785 L266.4655072373134,389.2313420925691 M266.4655072373134,389.2313420925691 L266.8533205432497,387.0384536439301 M266.8533205432497,387.0384536439301 L267.6547610202995,384.86509498740145 M267.6547610202995,384.86509498740145 L268.86181475476826,382.7177544882016 M268.86181475476826,382.7177544882016 L270.4654509852476,380.6026671922528 M270.4654509852476,380.6026671922528 L272.4556470421848,378.5258034254061 M272.4556470421848,378.5258034254061 L274.82149175839015,376.49286463219494 M274.82149175839015,376.49286463219494 L277.55126969830116,374.50928431379407 M277.55126969830116,374.50928431379407 L280.63253493796225,372.58021069560266 M280.63253493796225,372.58021069560266 L284.0521987734879,370.71051515937904 M284.0521987734879,370.71051515937904 L287.79658082589054,368.9047944598726 M287.79658082589054,368.9047944598726 L291.85149816328516,367.16736766591436 M291.85149816328516,367.16736766591436 L296.20231859994607,365.5022840235879 M296.20231859994607,365.5022840235879 L300.83401342799846,363.9133234625229 M300.83401342799846,363.9133234625229 L305.73121349691223,362.40400306600924 M305.73121349691223,362.40400306600924 L310.8782581683308,360.9775832888211 M310.8782581683308,360.9775832888211 L316.25923880860114,359.6370733732335 M316.25923880860114,359.6370733732335 L321.85803793410463,358.38523841521584 M321.85803793410463,358.38523841521584 L327.65836140294977,357.22460580073783 M327.65836140294977,357.22460580073783 L333.6437712800502,356.15747178831606 M333.6437712800502,356.15747178831606 L339.7977103690728,355.18590770526333 M339.7977103690728,355.18590770526333 L346.10352028370323,354.31176525361025 M346.10352028370323,354.31176525361025 L352.54447355790523,353.536683996409 M352.54447355790523,353.536683996409 L359.10377407679,352.86209893938474 M359.10377407679,352.86209893938474 L365.7645886931648,352.2892401366479 M365.7645886931648,352.2892401366479 L372.5100523838625,351.8191424409549 M372.5100523838625,351.8191424409549 L379.3232470256385,351.45264565208004 M379.3232470256385,351.45264565208004 L386.18725683575303,351.19040026855777 M386.18725683575303,351.19040026855777 L393.0851551196045,351.0328693539356 M393.0851551196045,351.0328693539356 L400,350.98032578599174 M400,350.98032578599174 L406.91484488039544,351.0328693539356 M406.91484488039544,351.0328693539356 L413.8127431642469,351.19040026855777 M413.8127431642469,351.19040026855777 L420.6767529743614,351.45264565208004 M420.6767529743614,351.45264565208004 L427.4899476161375,351.8191424409549 M427.4899476161375,351.8191424409549 L434.23541130683515,352.2892401366479 M434.23541130683515,352.2892401366479 L440.89622592320995,352.86209893938474 M440.89622592320995,352.86209893938474 L447.45552644209477,353.536683996409 M447.45552644209477,353.536683996409 L453.89647971629677,354.31176525361025 M453.89647971629677,354.31176525361025 L460.2022896309272,355.18590770526333 M460.2022896309272,355.18590770526333 L466.3562287199497,356.15747178831606 M466.3562287199497,356.15747178831606 L472.3416385970502,357.22460580073783 M472.3416385970502,357.22460580073783 L478.1419620658953,358.38523841521584 M478.1419620658953,358.38523841521584 L483.74076119139886,359.6370733732335 M483.74076119139886,359.6370733732335 L489.12174183166906,360.9775832888211" stroke="black"  stroke-width="4"  fill="red"/></svg>