<svg viewBox="0 0 800 800" xmlns="http://www.w3.org/2000/svg"><path d="M541.7929895476065,342.7179658189383 L533.7018199094882,340.44158863152 M533.7018199094882,340.44158863152 L525.3103221446252,338.3077713228919 M525.3103221446252,338.3077713228919 L516.6399276591501,336.3200643169105 M516.6399276591501,336.3200643169105 L507.71213796873764,334.48171243817336 M507.71213796873764,334.48171243817336 L498.5485093286682,332.795655592752 M498.5485093286682,332.795655592752 L489.1706899166429,331.2645328495274 M489.1706899166429,331.2645328495274 L479.6003724219628,329.89068457365954 M479.6003724219628,329.89068457365954 L469.8592108570143,328.6762022300004 M469.8592108570143,328.6762022300004 L459.9689285772736,327.6228810328664 M459.9689285772736,327.6228810328664 L449.9512232217735,326.73227711729965 M449.9512232217735,326.73227711729965 L439.8278005393907,326.0056711840104 M439.8278005393907,326.0056711840104 L429.6203520714755,325.4441187025601 M429.6203520714755,325.4441187025601 L419.35057785943997,325.04841267367965 M419.35057785943997,325.04841267367965 L409.0401494118769,324.8191189047844 M409.0401494118769,324.8191189047844 L398.7107604784343,324.7565590884655 M398.7107604784343,324.7565590884655 L388.38406938214774,324.8608209022426 M388.38406938214774,324.8608209022426 L378.08177436709127,325.131756649663 M378.08177436709127,325.131756649663 L367.825548508947,325.5689862736694 M367.825548508947,325.5689862736694 L357.6370703241608,326.1718866634469 M357.6370703241608,326.1718866634469 L347.5380451482179,326.9395989222379 M347.5380451482179,326.9395989222379 L337.55016629426336,327.8710151728442 M337.55016629426336,327.8710151728442 L327.69512472575815,328.9647788919937 M327.69512472575815,328.9647788919937 L317.99464847836003,330.219286491176 M317.99464847836003,330.219286491176 L308.47040832143904,331.6326546608473 M308.47040832143904,331.6326546608473 L299.1441101028115,333.202743896842 M299.1441101028115,333.202743896842 L290.03742151872484,334.92713492144776 M290.03742151872484,334.92713492144776 L281.17195449248777,336.80311155109246 M281.17195449248777,336.80311155109246 L272.5692680586156,338.8276605593073 M272.5692680586156,338.8276605593073 L264.2508527331543,340.9974647181989 M264.2508527331543,340.9974647181989 L256.23808345834334,343.30888378689536 M256.23808345834334,343.30888378689536 L248.55220543782372,345.7579489601643 M248.55220543782372,345.7579489601643 L241.2142541249527,348.3403374430046 M241.2142541249527,348.3403374430046 L234.24506378589373,351.05138019440386 M234.24506378589373,351.05138019440386 L227.66521849293102,353.8860478103744 M227.66521849293102,353.8860478103744 L221.49493144078073,356.8389178481109 M221.49493144078073,356.8389178481109 L215.75405906628907,359.90418993659347 M215.75405906628907,359.90418993659347 L210.46199740372484,363.0756696831301 M210.46199740372484,363.0756696831301 L205.63761764888645,366.34675646045366 M205.63761764888645,366.34675646045366 L201.29919276586054,369.71043618708944 M201.29919276586054,369.71043618708944 L197.46430338005842,373.15927838089067 M197.46430338005842,373.15927838089067 L194.1497101926794,376.6854321826081 M194.1497101926794,376.6854321826081 L191.3713368857017,380.28063069091104 M191.3713368857017,380.28063069091104 L189.14410168493265,383.93618325775475 M189.14410168493265,383.93618325775475 L187.4818459933177,387.64298581982797 M187.4818459933177,387.64298581982797 L186.39717609174687,391.39152912908816 M186.39717609174687,391.39152912908816 L185.9014265438064,395.17190490157947 M185.9014265438064,395.17190490157947 L186.00444562239397,398.97382358803395 M186.00444562239397,398.97382358803395 L186.71456650255925,402.78664187478296 M186.71456650255925,402.78664187478296 L188.03841166485566,406.5993642597108 M188.03841166485566,406.5993642597108 L189.98082656683488,410.40069880299933 M189.98082656683488,410.40069880299933 L192.54475871913394,414.17905525342115 M192.54475871913394,414.17905525342115 L195.73109991629852,417.92262103402743 M195.73109991629852,417.92262103402743 L199.53865449162168,421.6193590163598 M199.53865449162168,421.6193590163598 L203.96395579853726,425.2570959166925 M203.96395579853726,425.2570959166925 L209.00123243061307,428.8235517848076 M209.00123243061307,428.8235517848076 L214.64233342737805,432.306380906052 M214.64233342737805,432.306380906052 L220.87663327117616,435.6932582307694 M220.87663327117616,435.6932582307694 L227.6909803153411,438.9719321639521 M227.6909803153411,438.9719321639521 L235.0696921757355,442.13028155193604 M235.0696921757355,442.13028155193604 L242.99449369861702,445.15640147431253 M242.99449369861702,445.15640147431253 L251.44455802032215,448.0386606881816 M251.44455802032215,448.0386606881816 L260.39652978014885,450.7657744537896 M260.39652978014885,450.7657744537896 L269.8245275264565,453.3268911946434 M269.8245275264565,453.3268911946434 L279.7002608476564,455.7116510606494 M279.7002608476564,455.7116510606494 L289.99309163689276,457.9102689945194 M289.99309163689276,457.9102689945194 L300.6701158522871,459.9136047061344 M300.6701158522871,459.9136047061344 L311.6963807289848,461.71322223202765 M311.6963807289848,461.71322223202765 L323.03500017183524,463.3014544240164 M323.03500017183524,463.3014544240164 L334.6472647403068,464.67148222835874 M334.6472647403068,464.67148222835874 L346.492971483272,465.8173606486499 M346.492971483272,465.8173606486499 L358.5305011022564,466.73409136014686 M358.5305011022564,466.73409136014686 L370.7171721439345,467.4176500452071 M370.7171721439345,467.4176500452071 L383.0093766011771,467.86501420420103 M383.0093766011771,467.86501420420103 L395.36292279843246,468.0742121648186 M395.36292279843246,468.0742121648186 L407.7332276407164,468.0443071619013 M407.7332276407164,468.0443071619013 L420.07560883567993,467.77544238034835 M420.07560883567993,467.77544238034835 L432.3455609018819,467.26880122136043 M432.3455609018819,467.26880122136043 L444.4990031375499,466.526628464779 M444.4990031375499,466.526628464779 L456.49253997886103,465.5521927281094 M456.49253997886103,465.5521927281094 L468.2837326455578,464.34977458821265 M468.2837326455578,464.34977458821265 L479.83130509622,462.9246034212765 M479.83130509622,462.9246034212765 L491.09539032552095,461.28284806020207 M491.09539032552095,461.28284806020207 L502.0377370327801,459.43155246347027 M502.0377370327801,459.43155246347027 L512.6219090357677,457.3785768006682 M512.6219090357677,457.3785768006682 L522.8134564460175,455.13253898073043 M522.8134564460175,455.13253898073043 L532.5800530438166,452.70275258247966 M532.5800530438166,452.70275258247966 L541.8915983693119,450.09914259206676 M541.8915983693119,450.09914259206676 L550.7204200569481,447.3322069735971 M550.7204200569481,447.3322069735971 L559.0412750840757,444.41291476014095 M559.0412750840757,444.41291476014095 L566.8313994152003,441.3526323687811 M566.8313994152003,441.3526323687811 L574.0706205524322,438.1630725634229 M574.0706205524322,438.1630725634229 L580.7413213024454,434.85620361252904 M580.7413213024454,434.85620361252904 L586.8284594559102,431.44418626983105 M586.8284594559102,431.44418626983105 L592.3195151156311,427.93929709203246 M592.3195151156311,427.93929709203246 L597.2044652736948,424.35386635613463 M597.2044652736948,424.35386635613463 L601.4757670505295,420.7002250912729 M601.4757670505295,420.7002250912729 L605.1282599168908,416.990645232759 M605.1282599168908,416.990645232759 L608.1590235197209,413.23726135987 M608.1590235197209,413.23726135987 L610.5674097290697,409.4520615370846 M610.5674097290697,409.4520615370846 L612.3548390991565,405.6468072217981 M612.3548390991565,405.6468072217981 L613.5247248283614,401.8330100301472 M613.5247248283614,401.8330100301472 L614.0823799517315,398.02190036785004 M614.0823799517315,398.02190036785004 L614.0348632161482,394.2243818177418 M614.0348632161482,394.2243818177418 L613.3908987538786,390.4510126155886 M613.3908987538786,390.4510126155886 L612.1607272353633,386.71199388714035 M612.1607272353633,386.71199388714035 L610.3559935943772,383.0171273087304 M610.3559935943772,383.0171273087304 L607.98963060893,379.37582766536053 M607.98963060893,379.37582766536053 L605.0757686139212,375.7970909907213 M605.0757686139212,375.7970909907213 L601.6295608421917,372.2895055689274 M601.6295608421917,372.2895055689274 L597.6671832356661,368.8612343592408 M597.6671832356661,368.8612343592408 L593.2055895158883,365.5200233084268 M593.2055895158883,365.5200233084268 L588.2625664755792,362.27319506632637 M588.2625664755792,362.27319506632637 L582.856499455709,359.1276671290907 M582.856499455709,359.1276671290907 L577.0064485383579,356.0899264363936 M577.0064485383579,356.0899264363936 L570.7318920217934,353.1660783844055 M570.7318920217934,353.1660783844055 L564.0527852710411,350.3618304726744 M564.0527852710411,350.3618304726744 L556.9894662453249,347.68249277480703 M556.9894662453249,347.68249277480703 L549.5625792511589,345.13300792028537 M549.5625792511589,345.13300792028537 L541.7929895476065,342.7179658189383 M541.7929895476065,342.7179658189383 L542.3282734699358,318.6526487793895 M542.3282734699358,318.6526487793895 L550.1290352215956,320.9983892441907 M550.1290352215956,320.9983892441907 L557.5860908999717,323.47477692661295 M557.5860908999717,323.47477692661295 L564.6784937488641,326.0773634800895 M564.6784937488641,326.0773634800895 L571.3855152721208,328.80135795434546 M571.3855152721208,328.80135795434546 L577.6867308548494,331.64161238312334 M577.6867308548494,331.64161238312334 L583.5620962157042,334.59259254351065 M583.5620962157042,334.59259254351065 L588.9920422115505,337.6483773757798 M588.9920422115505,337.6483773757798 L593.9574157763193,340.8026747444809 M593.9574157763193,340.8026747444809 L598.4397374280925,344.04877369389493 M598.4397374280925,344.04877369389493 L602.421124879168,347.3795689933646 M602.421124879168,347.3795689933646 L605.8845285700997,350.7875433767673 M605.8845285700997,350.7875433767673 L608.8136763238014,354.26477351372625 M608.8136763238014,354.26477351372625 L611.1933194295289,357.80292179989453 M611.1933194295289,357.80292179989453 L613.0092330973413,361.393253303618 M613.0092330973413,361.393253303618 L614.2483920891965,365.0266249500902 M614.2483920891965,365.0266249500902 L614.8990617389871,368.6935163611838 M614.8990617389871,368.6935163611838 L614.9509152069828,372.38401754167796 M614.9509152069828,372.38401754167796 L614.3951466786544,376.0878699240519 M614.3951466786544,376.0878699240519 L613.2246212951321,379.79447771442267 M613.2246212951321,379.79447771442267 L611.433956331754,383.49292582337785 M611.433956331754,383.49292582337785 L609.0196765404347,387.1720241424122 M609.0196765404347,387.1720241424122 L605.980307938113,390.8203379988843 M605.980307938113,390.8203379988843 L602.3164547698727,394.4262107244022 M602.3164547698727,394.4262107244022 L598.0310045756829,397.97784151501423 M598.0310045756829,397.97784151501423 L593.1290966222068,401.4632943675254 M593.1290966222068,401.4632943675254 L587.6182653453153,404.8705742138084 M587.6182653453153,404.8705742138084 L581.5085391782508,408.1876851830755 M581.5085391782508,408.1876851830755 L574.8124579861556,411.4026822048706 M574.8124579861556,411.4026822048706 L567.5450991654842,414.5037314988337 M567.5450991654842,414.5037314988337 L559.7241310692276,417.47918528489595 M559.7241310692276,417.47918528489595 L551.3697936960472,420.3176432343539 M551.3697936960472,420.3176432343539 L542.5049354785862,423.00804099528614 M542.5049354785862,423.00804099528614 L533.1549005299968,425.5397000343815 M533.1549005299968,425.5397000343815 L523.3474789896438,427.9023995134488 M523.3474789896438,427.9023995134488 L513.1129058905119,430.0864756233589 M513.1129058905119,430.0864756233589 L502.4836579168876,432.0828591983207 M502.4836579168876,432.0828591983207 L491.4943507577972,433.8831578990617 M491.4943507577972,433.8831578990617 L480.1816008965059,435.47971681246537 M480.1816008965059,435.47971681246537 L468.5838533401098,436.8656755437322 M468.5838533401098,436.8656755437322 L456.74118087996305,438.0350257253021 M456.74118087996305,438.0350257253021 L444.69507596470885,438.98267377516225 M444.69507596470885,438.98267377516225 L432.48820266446165,439.7044501548652 M432.48820266446165,439.7044501548652 L420.164189093641,440.1971709372467 M420.164189093641,440.1971709372467 L407.76735377690875,440.458649470994 M407.76735377690875,440.458649470994 L395.34244330827255,440.48773296841887 M395.34244330827255,440.48773296841887 L382.93438242095647,440.2842819664408 M382.93438242095647,440.2842819664408 L370.5879958833374,439.8492089735 M370.5879958833374,439.8492089735 L358.347714118362,439.18443463136623 M358.347714118362,439.18443463136623 L346.25737925798217,438.29290312859 M346.25737925798217,438.29290312859 L334.35989994812223,437.17853443365186 M334.35989994812223,437.17853443365186 L322.6971144095717,435.84619711215345 M322.6971144095717,435.84619711215345 L311.30943401611165,434.3016815770673 M311.30943401611165,434.3016815770673 L300.23576522360867,432.5516292811782 M300.23576522360867,432.5516292811782 L289.5131777969566,430.60350725687994 M289.5131777969566,430.60350725687994 L279.17679397981686,428.4655307921107 M279.17679397981686,428.4655307921107 L269.25967233611135,426.1466004804971 M269.25967233611135,426.1466004804971 L259.79258943791655,423.6562440596916 M259.79258943791655,423.6562440596916 L250.80395771413177,421.0045481221578 M250.80395771413177,421.0045481221578 L242.31976400166556,418.20207710178414 M242.31976400166556,418.20207710178414 L234.36345207648353,415.25981609639 M234.36345207648353,415.25981609639 L226.95592052357233,412.1890863850518 M226.95592052357233,412.1890863850518 L220.11549978845795,409.0014744161702 M220.11549978845795,409.0014744161702 L213.8579113717007,405.70877577059696 M213.8579113717007,405.70877577059696 L208.19633064766626,402.3229115881605 M208.19633064766626,402.3229115881605 L203.14139204523735,398.85587302541154 M203.14139204523735,398.85587302541154 L198.70124143031782,395.31966981863803 M198.70124143031782,395.31966981863803 L194.8816321668773,391.72624617363346 M194.8816321668773,391.72624617363346 L191.68600085780358,388.0874409420026 M191.68600085780358,388.0874409420026 L189.11550189818803,384.4149589152804 M189.11550189818803,384.4149589152804 L187.1691924486905,380.720284887454 M187.1691924486905,380.720284887454 L185.84406489915185,377.01468582648266 M185.84406489915185,377.01468582648266 L185.1352059403013,373.3091370499898 M185.1352059403013,373.3091370499898 L185.03591852466593,369.6143240959631 M185.03591852466593,369.6143240959631 L185.5377890405727,365.94058860743843 M185.5377890405727,365.94058860743843 L186.63088418011657,362.2979268842494 M186.63088418011657,362.2979268842494 L188.3037803297464,358.69596325355224 M188.3037803297464,358.69596325355224 L190.54377941788567,355.1439329092935 M190.54377941788567,355.1439329092935 L193.3369460108242,351.65067605445296 M193.3369460108242,351.65067605445296 L196.66826655365136,348.2246300274973 M196.66826655365136,348.2246300274973 L200.52172128710228,344.8738193935369 M200.52172128710228,344.8738193935369 L204.88045355022206,341.60586356290906 M204.88045355022206,341.60586356290906 L209.7267871136909,338.42797271336576 M209.7267871136909,338.42797271336576 L215.04235438547565,335.3469517878352 M215.04235438547565,335.3469517878352 L220.80819096415544,332.36920349028844 M220.80819096415544,332.36920349028844 L227.0048093544136,329.50073543047455 M227.0048093544136,329.50073543047455 L233.6122636503658,326.74717211530276 M233.6122636503658,326.74717211530276 L240.61025354116643,324.11377070440636 M240.61025354116643,324.11377070440636 L247.97811009740045,321.6054064502472 M247.97811009740045,321.6054064502472 L255.69491680722922,319.22660455107285 M255.69491680722922,319.22660455107285 L263.73955865298916,316.98155396844464 M263.73955865298916,316.98155396844464 L272.09071339469153,314.8741000055172 M272.09071339469153,314.8741000055172 L280.72693171877444,312.90776909591244 M280.72693171877444,312.90776909591244 L289.62665128869963,311.0857742818124 M289.62665128869963,311.0857742818124 L298.76824378643346,309.41103375811986 M298.76824378643346,309.41103375811986 L308.1300304055126,307.8861777030452 M308.1300304055126,307.8861777030452 L317.69027875313424,306.5135484772893 M317.69027875313424,306.5135484772893 L327.4272203164031,305.29521732216915 M327.4272203164031,305.29521732216915 L337.31912373533754,304.2330073108709 M337.31912373533754,304.2330073108709 L347.3442018984528,303.32847054651427 M347.3442018984528,303.32847054651427 L357.48070638693093,302.5829199156857 M357.48070638693093,302.5829199156857 L367.70688767242655,301.9974275863299 M367.70688767242655,301.9974275863299 L378.0009851693013,301.57282471033193 M378.0009851693013,301.57282471033193 L388.3412659749216,301.3097142582528 M388.3412659749216,301.3097142582528 L398.70600316959894,301.2084639766882 M398.70600316959894,301.2084639766882 L409.07344484854275,301.26921678202143 M409.07344484854275,301.26921678202143 L419.42187920591704,301.49188783770154 M419.42187920591704,301.49188783770154 L429.7295586640662,301.87616587173886 M429.7295586640662,301.87616587173886 L439.9747575069913,302.4215033606482 M439.9747575069913,302.4215033606482 L450.1357206780005,303.1271329485141 M450.1357206780005,303.1271329485141 L460.19070069964596,303.9920331702253 M460.19070069964596,303.9920331702253 L470.1179346513565,305.0149645885268 M470.1179346513565,305.0149645885268 L479.8956663186691,306.1944210079575 M479.8956663186691,306.1944210079575 L489.50211202077253,307.5286647430632 M489.50211202077253,307.5286647430632 L498.91555577274687,309.0156710513936 M498.91555577274687,309.0156710513936 L508.1142406633835,310.65317406795697 M508.1142406633835,310.65317406795697 L517.0764521163325,312.4386183799853 M517.0764521163325,312.4386183799853 L525.7805652706062,314.3691568901204 M525.7805652706062,314.3691568901204 L534.2050074622881,316.4416467814692 M534.2050074622881,316.4416467814692 L542.3282734699358,318.6526487793895" stroke="black"  stroke-width="4"  fill="red"/>
<path d="M608.5098946911745,387.842720618556 L611.0356773811413,384.1732333537529 M611.0356773811413,384.1732333537529 L612.9390549475785,380.48235689805836 M612.9390549475785,380.48235689805836 L614.223131092397,376.78129448479444 M614.223131092397,376.78129448479444 L614.8929202047783,373.08096624775936 M614.8929202047783,373.08096624775936 L614.9552073803977,369.3919885274196 M614.9552073803977,369.3919885274196 L614.4184644502608,365.72464422316034 M614.4184644502608,365.72464422316034 L613.2926838132587,362.08887072428723 M613.2926838132587,362.08887072428723 L611.5893089335198,358.49423093476383 M611.5893089335198,358.49423093476383 L609.321078190026,354.9499040309521 M609.321078190026,354.9499040309521 L606.5019289785295,351.464666908847 M606.5019289785295,351.464666908847 L603.1468687857331,348.0469042188446 M603.1468687857331,348.0469042188446 L599.2718869991187,344.70459311732577 M599.2718869991187,344.70459311732577 L594.8938570467216,341.4452947691106 M594.8938570467216,341.4452947691106 L590.0304005899196,338.2761750613915 M590.0304005899196,338.2761750613915 L584.6998453787435,335.20398751720865 M584.6998453787435,335.20398751720865 L578.9211080918946,332.2350920887576 M578.9211080918946,332.2350920887576 L572.7136128815382,329.37545952140914 M572.7136128815382,329.37545952140914 L566.0972416378452,326.6306783328469 M566.0972416378452,326.6306783328469 L559.0922651646664,324.00595408230254 M559.0922651646664,324.00595408230254 L551.7192581081248,321.50613644504443 M551.7192581081248,321.50613644504443 L543.9990597056009,319.13572116848434 M543.9990597056009,319.13572116848434 L535.9527363634967,316.8988584806364 M535.9527363634967,316.8988584806364 L527.6015072764636,314.79937377598173 M527.6015072764636,314.79937377598173 L518.9667503439396,312.8407645732433 M518.9667503439396,312.8407645732433 L510.0699373257696,311.0262259127156 M510.0699373257696,311.0262259127156 L500.9326269145881,309.3586456375061 M500.9326269145881,309.3586456375061 L491.5764026913151,307.84064080301533 M491.5764026913151,307.84064080301533 L482.0229463967402,306.47452618454105 M482.0229463967402,306.47452618454105 L472.29387644450026,305.26237544385623 M472.29387644450026,305.26237544385623 L462.410901680705,304.2059759867086 M462.410901680705,304.2059759867086 L452.395694303704,303.3068760591544 M452.395694303704,303.3068760591544 L442.26991778294456,302.56638291618174 M442.26991778294456,302.56638291618174 L432.05524333606166,301.9855458640896 M432.05524333606166,301.9855458640896 L421.77333983235377,301.565197677093 M421.77333983235377,301.565197677093 L411.4458655898784,301.3059244122072 M411.4458655898784,301.3059244122072 L401.0944540207537,301.2080956238798 M401.0944540207537,301.2080956238798 L390.7407579774481,301.27184834007875 M390.7407579774481,301.27184834007875 L380.406429115052,301.4970884805549 M380.406429115052,301.4970884805549 L370.1131115747631,301.8835030913294 M370.1131115747631,301.8835030913294 L359.882457688181,302.43054613359294 M359.882457688181,302.43054613359294 L349.7361197748613,303.13744610845566 M349.7361197748613,303.13744610845566 L339.6957858856214,304.00318940752095 M339.6957858856214,304.00318940752095 L329.7831150243392,305.02653002999915 M329.7831150243392,305.02653002999915 L320.01977914680265,306.2059695298809 M320.01977914680265,306.2059695298809 L310.42747283738186,307.5397691295133 M310.42747283738186,307.5397691295133 L301.02785169414324,309.02592318961973 M301.02785169414324,309.02592318961973 L291.8425713128895,310.66216062592133 M291.8425713128895,310.66216062592133 L282.89323095340694,312.4459316603493 M282.89323095340694,312.4459316603493 L274.20141052174046,314.37440745432957 M274.20141052174046,314.37440745432957 L265.78859233017954,316.44445765840123 M265.78859233017954,316.44445765840123 L257.67617877345344,318.65264877938984 M257.67617877345344,318.65264877938984 L249.88543058951248,320.99522733368445 M249.88543058951248,320.99522733368445 L242.4374491238704,323.46811299096254 M242.4374491238704,323.46811299096254 L235.35312185726494,326.06688152819476 M235.35312185726494,326.06688152819476 L228.65309286728944,328.7867636565288 M228.65309286728944,328.7867636565288 L222.35768239291946,331.62262021907577 M222.35768239291946,331.62262021907577 L216.48686520796082,334.5689504582015 M216.48686520796082,334.5689504582015 L211.06017788144229,337.61986496448606 M211.06017788144229,337.61986496448606 L206.09665846019288,340.76909109397315 M206.09665846019288,340.76909109397315 L201.61473857250527,344.0099494876332 M201.61473857250527,344.0099494876332 L197.6322219715233,347.3353667869337 M197.6322219715233,347.3353667869337 L194.1661296290479,350.7378667613286 M194.1661296290479,350.7378667613286 L191.23265922593413,354.2095539382345 M191.23265922593413,354.2095539382345 L188.84702631639672,357.7421355380931 M188.84702631639672,357.7421355380931 L187.02340798869847,361.326913398661 M187.02340798869847,361.326913398661 L185.77479408869578,364.95479364316714 M185.77479408869578,364.95479364316714 L185.11292061541005,368.61629174652245 M185.11292061541005,368.61629174652245 L185.04810510195335,372.3015487757029 M185.04810510195335,372.3015487757029 L185.589121822453,376.00035697737576 M185.589121822453,376.00035697737576 L186.74315232781444,379.7021655786472 M186.74315232781444,379.7021655786472 L188.5155623058284,383.3961119825351 M188.5155623058284,383.3961119825351 L190.90991084195667,387.0710538070494 M190.90991084195667,387.0710538070494 L193.9276985601828,390.71560728660154 M193.9276985601828,390.71560728660154 L197.5683464513766,394.3181782199016 M197.5683464513766,394.3181782199016 L201.8291299527197,397.8669918594229 M201.8291299527197,397.8669918594229 L206.7049251509062,401.35018728805943 M206.7049251509062,401.35018728805943 L212.18834440349806,404.75580449405277 M212.18834440349806,404.75580449405277 L218.26945532958976,408.07189883112784 M218.26945532958976,408.07189883112784 L224.93588928364937,411.2865636793204 M224.93588928364937,411.2865636793204 L232.17269855182042,414.3880102730555 M232.17269855182042,414.3880102730555 L239.96239347949435,417.36462501897114 M239.96239347949435,417.36462501897114 L248.28488166525486,420.2050518689598 M248.28488166525486,420.2050518689598 L257.11754113800396,422.8982445958196 M257.11754113800396,422.8982445958196 L266.43521961582155,425.43355112107236 M266.43521961582155,425.43355112107236 L276.2103048215593,427.80078043541687 M276.2103048215593,427.80078043541687 L286.41283952805145,429.99026653631 M286.41283952805145,429.99026653631 L297.0105618372961,431.99294902205145 M297.0105618372961,431.99294902205145 L307.9690701639998,433.8004399599812 M307.9690701639998,433.8004399599812 L319.2519784888375,435.4050780855193 M319.2519784888375,435.4050780855193 L330.8210956586355,436.7999887759461 M330.8210956586355,436.7999887759461 L342.63656641294784,437.97915241306475 M342.63656641294784,437.97915241306475 L354.6571556784436,438.93743116546074 M354.6571556784436,438.93743116546074 L366.84040271541585,439.67062831184364 M366.84040271541585,439.67062831184364 L379.14288706729457,440.1755202799904 M379.14288706729457,440.1755202799904 L391.52051805238926,440.4498747540516 M391.52051805238926,440.4498747540516 L403.92873353601004,440.49247807968516 M403.92873353601004,440.49247807968516 L416.3227927046093,440.3031371041638 M416.3227927046093,440.3031371041638 L428.6580265559674,439.88269618574725 M428.6580265559674,439.88269618574725 L440.8901403262977,439.2330095396507 M440.8901403262977,439.2330095396507 L452.97544176129435,438.35694456607837 M452.97544176129435,438.35694456607837 L464.8711062573136,437.2583440466638 M464.8711062573136,437.2583440466638 L476.53538946442626,435.94200415113625 M476.87288995683656,408.2418643576714 L476.53538946442626,435.94200415113625 M476.87288995683656,408.2418643576714 L465.1576208385256,409.52025603059064 M465.1576208385256,409.52025603059064 L453.2097232758058,410.5871990236458 M453.2097232758058,410.5871990236458 L441.07116248158195,411.43802795973835 M441.07116248158195,411.43802795973835 L428.78499228356765,412.0690047238239 M428.78499228356765,412.0690047238239 L416.3951408268792,412.47733995398613 M416.3951408268792,412.47733995398613 L403.94614344995074,412.66122985590505 M403.94614344995074,412.66122985590505 L391.48291254647114,412.61985303607827 M391.48291254647114,412.61985303607827 L379.05043292031917,412.35339738941326 M379.05043292031917,412.35339738941326 L366.6935092997456,411.86304357283535 M366.6935092997456,411.86304357283535 L354.4564713938341,411.15096317516986 M354.4564713938341,411.15096317516986 L342.38297340141685,410.22029202298455 M342.38297340141685,410.22029202298455 L330.5157024451749,409.07511248333867 M330.5157024451749,409.07511248333867 L318.8961107189382,407.72042220546354 M318.8961107189382,407.72042220546354 L307.56426002161663,406.162076337857 M307.56426002161663,406.162076337857 L296.5585356473505,404.4067613255078 M296.5585356473505,404.4067613255078 L285.9155042926793,402.4619283074677 M285.9155042926793,402.4619283074677 L275.66973362715316,400.33573464880016 M275.66973362715316,400.33573464880016 L265.8536361243625,398.0369910719801 M265.8536361243625,398.0369910719801 L256.4973032417451,395.57509648165006 M256.4973032417451,395.57509648165006 L247.6284649722109,392.9599594632994 M247.6284649722109,392.9599594632994 L239.27237440131134,390.2019359636483 M239.27237440131134,390.2019359636483 L231.45173729433594,387.31176408503353 M231.45173729433594,387.31176408503353 L224.1867131575721,384.3004819932679 M224.1867131575721,384.3004819932679 L217.4948421225488,381.17937696568237 M217.4948421225488,381.17937696568237 L211.39110649142523,377.95990523756365 M211.39110649142523,377.95990523756365 L205.88789397201458,374.65363619936323 M205.88789397201458,374.65363619936323 L200.995141683568,371.2721747655101 M200.995141683568,371.2721747655101 L196.72022780358242,367.8271392681421 M196.72022780358242,367.8271392681421 L193.06825446500534,364.3300502602989 M193.06825446500534,364.3300502602989 L190.04191215237196,360.79234300755553 M190.04191215237196,360.79234300755553 L187.64173526965766,357.22527584188146 M187.64173526965766,357.22527584188146 L185.8661689676126,353.63990114211515 M185.8661689676126,353.63990114211515 L184.71159102910167,350.04703530834877 M184.71159102910167,350.04703530834877 L184.17256537772244,346.45722152322645 M184.17256537772244,346.45722152322645 L184.24183335523165,342.880698709124 M184.24183335523165,342.880698709124 L184.91053831543545,339.32737132281716 M184.91053831543545,339.32737132281716 L186.16827576366626,335.80680381056237 M186.16827576366626,335.80680381056237 L188.00321911278974,332.32819587299986 M188.00321911278974,332.32819587299986 L190.40228536561392,328.90036681327564 M190.40228536561392,328.90036681327564 L193.35120232859578,325.5317507371938 M193.35120232859578,325.5317507371938 L196.83465828315656,322.23038729429857 M196.83465828315656,322.23038729429857 L200.83635878542628,319.00392964013645 M200.83635878542628,319.00392964013645 L205.33918635260358,315.85962328309586 M205.33918635260358,315.85962328309586 L210.32524126952492,312.8043220988532 M210.32524126952492,312.8043220988532 L215.7759972056282,309.8444970681585 M215.7759972056282,309.8444970681585 L221.67232284066552,306.98622406961533 M221.67232284066552,306.98622406961533 L227.99459019289145,304.2352067857357 M227.99459019289145,304.2352067857357 L234.72273517528987,301.5967715702689 M234.72273517528987,301.5967715702689 L241.8363506352984,299.07589380792547 M241.8363506352984,299.07589380792547 L249.31470801048573,296.67719000755784 M249.31470801048573,296.67719000755784 L257.1368379624492,294.4049419685941 M257.1368379624492,294.4049419685941 L265.28155991492264,292.2630980202495 M265.28155991492264,292.2630980202495 L273.7275365863121,290.25528965099215 M273.7275365863121,290.25528965099215 L282.4532916354725,288.3848382474397 M282.4532916354725,288.3848382474397 L291.43727145359196,286.6547715164807 M291.43727145359196,286.6547715164807 L300.6578272373828,285.06782514440386 M300.6578272373828,285.06782514440386 L310.0932933139546,283.6264646400124 M310.0932933139546,283.6264646400124 L319.7219498143499,282.33288575224327 M319.7219498143499,282.33288575224327 L329.5220789962915,281.1890273753135 M329.5220789962915,281.1890273753135 L339.4719258925447,280.19657022425844 M339.4719258925447,280.19657022425844 L349.5497599165215,279.35696260744277 M349.5497599165215,279.35696260744277 L359.7338649203401,278.67140871530694 M359.7338649203401,278.67140871530694 L370.002496796971,278.1408880987082 M370.002496796971,278.1408880987082 L380.3339482600267,277.76614627019114 M380.3339482600267,277.76614627019114 L390.7065127214609,277.5477108697449 M390.7065127214609,277.5477108697449 L401.0984922806758,277.4858842838107 M401.0984922806758,277.4858842838107 L411.48818171561635,277.5807574348585 M411.48818171561635,277.5807574348585 L421.85387457691644,277.832197918753 M421.85387457691644,277.832197918753 L432.1738836541727,278.2398486259233 M432.1738836541727,278.2398486259233 L442.4264962222826,278.80314327222345 M442.4264962222826,278.80314327222345 L452.5899881999424,279.5212770822853 M452.5899881999424,279.5212770822853 L462.64263214665596,280.393236042693 M462.64263214665596,280.393236042693 L472.56270714655386,281.4177567097902 M472.56270714655386,281.4177567097902 L482.3284820370219,282.59334262301144 M482.3284820370219,282.59334262301144 L491.91818715601244,283.9182660433779 M491.91818715601244,283.9182660433779 L501.3101416479179,285.3905222331679 M501.3101416479179,285.3905222331679 L510.482598930627,287.007873186801 M510.482598930627,287.007873186801 L519.4139085417808,288.76778825077844 M519.4139085417808,288.76778825077844 L528.0824424063416,290.6674746037148 M528.0824424063416,290.6674746037148 L536.466656899599,292.70384187315256 M536.466656899599,292.70384187315256 L544.545099623441,294.8735066355125 M544.545099623441,294.8735066355125 L552.2964743126653,297.17276769880584 M552.2964743126653,297.17276769880584 L559.6996347498496,299.59760896338423 M559.6996347498496,299.59760896338423 L566.7336592835695,302.1436792607346 M566.7336592835695,302.1436792607346 L573.3778882792983,304.80628409424924 M573.3778882792983,304.80628409424924 L579.6119634364968,307.5803836335832 M579.6119634364968,307.5803836335832 L585.4159131067868,310.4605663365078 M585.4159131067868,310.4605663365078 L590.7702213591463,313.4410495380597 M590.7702213591463,313.4410495380597 L595.655877909063,316.51567255668596 M595.655877909063,316.51567255668596 L600.054459928738,319.6778923340797 M600.054459928738,319.6778923340797 L603.9482497267388,322.9207650724717 M603.9482497267388,322.9207650724717 L607.3202771975506,326.23696268168595 M607.3202771975506,326.23696268168595 L610.1544563054521,329.61875255098516 M610.1544563054521,329.61875255098516 L612.4356835503881,333.0580056639904 M612.4356835503881,333.0580056639904 L614.149926780036,336.5462112691108 M614.149926780036,336.5462112691108 L615.2843549196837,340.0744670212297 M615.2843549196837,340.0744670212297 L615.8274346222776,343.63349687006325 M615.8274346222776,343.63349687006325 L615.7690874514675,347.2136599231146 M615.7690874514675,347.2136599231146 L615.1007601347957,350.80497847063754 M615.1007601347957,350.80497847063754 L613.8155918978107,354.397149617234 M613.8155918978107,354.397149617234 L611.9084993269188,357.97957398930635 M611.9084993269188,357.97957398930635 L609.3763174953207,361.5413757696897 M609.3763174953207,361.5413757696897 L608.5098946911745,387.842720618556 M452.44114148752305,427.70942320250634 L476.53538946442626,435.94200415113625 M608.5098946911745,387.842720618556 L584.563266139106,380.52513294182495 M584.563266139106,380.52513294182495 L586.2323415766883,377.09402255332213 M586.2323415766883,377.09402255332213 L587.2895769245766,373.65293040834626 M587.2895769245766,373.65293040834626 L587.7395938288211,370.2132746735436 M587.7395938288211,370.2132746735436 L587.5889568212563,366.78617834411904 M587.5889568212563,366.78617834411904 L586.8461226811853,363.3824270209389 M586.8461226811853,363.3824270209389 L585.5212758469326,360.012450181802 M585.5212758469326,360.012450181802 L583.6261825700478,356.68629132659396 M583.6261825700478,356.68629132659396 L581.1741039494293,353.4135979724658 M581.1741039494293,353.4135979724658 L578.1796647299511,350.2036000862514 M578.1796647299511,350.2036000862514 L574.6586907072156,347.0651036036786 M574.6586907072156,347.0651036036786 L570.6281543720304,344.0064831492806 M570.6281543720304,344.0064831492806 L566.1060325128313,341.0356811179977 M566.1060325128313,341.0356811179977 L561.111177514181,338.16020036235966 M561.111177514181,338.16020036235966 L555.6632659762422,335.3871134538713 M555.6632659762422,335.3871134538713 L549.7826729687478,332.72305743246557 M549.7826729687478,332.72305743246557 L543.4903863407075,330.1742513214385 M543.4903863407075,330.1742513214385 L536.8079416937078,327.746494257527 M536.8079416937078,327.746494257527 L529.7573580490912,325.44516552443207 M529.7573580490912,325.44516552443207 L522.3610195660025,323.275258997576 M522.3610195660025,323.275258997576 L514.6416909224578,321.241363600035 M514.6416909224578,321.241363600035 L506.62240048633095,319.3476951740123 M506.62240048633095,319.3476951740123 L498.3264136918637,317.5980971685588 M498.3264136918637,317.5980971685588 L489.7772228562906,315.99604673338683 M489.7772228562906,315.99604673338683 L480.9984618412197,314.54467456842224 M480.9984618412197,314.54467456842224 L472.0138957653019,313.24677154684144 M472.0138957653019,313.24677154684144 L462.8474025024209,312.1047889260615 M462.8474025024209,312.1047889260615 L453.52295732617455,311.1208574269316 M453.52295732617455,311.1208574269316 L444.06456743805137,310.296792008534 M444.06456743805137,310.296792008534 L434.4963228329236,309.6340959522542 M434.4963228329236,309.6340959522542 L424.84231286395146,309.1339657961954 M424.84231286395146,309.1339657961954 L415.12670055866107,308.7973037102355 M415.12670055866107,308.7973037102355 L405.3736265292241,308.62470697248057 M405.3736265292241,308.62470697248057 L395.6072621000972,308.61648494952533 M395.6072621000972,308.61648494952533 L385.85177303997386,308.77265085311024 M385.85177303997386,308.77265085311024 L376.1313287678674,309.0929330857615 M376.1313287678674,309.0929330857615 L366.4700744802653,309.57675015197356 M366.4700744802653,309.57675015197356 L356.8921643784904,310.22323990531845 M356.8921643784904,310.22323990531845 L347.42170837676406,311.03123110480493 M347.42170837676406,311.03123110480493 L338.0827784173467,311.9992514945163 M338.0827784173467,311.9992514945163 L328.89941567916435,313.1255186566987 M328.89941567916435,313.1255186566987 L319.8955804714414,314.40793505869823 M319.8955804714414,314.40793505869823 L311.0951611124654,315.844079522211 M311.0951611124654,315.844079522211 L302.52194716402784,317.4311963255945 M302.52194716402784,317.4311963255945 L294.1995890535817,319.16619298525575 M294.1995890535817,319.16619298525575 L286.1515742684803,321.045620265117 M286.1515742684803,321.045620265117 L278.40120308919984,323.0656747114796 M278.40120308919984,323.0656747114796 L270.9715414270728,325.2221817257402 M270.9715414270728,325.2221817257402 L263.8853664224781,327.51058550045053 M263.8853664224781,327.51058550045053 L257.16511683336245,329.9259380491354 M257.16511683336245,329.9259380491354 L250.83283309102563,332.46289190846835 M250.83283309102563,332.46289190846835 L244.9101142264279,335.11569337838534 M244.9101142264279,335.11569337838534 L239.41800464576738,337.8781702754946 M239.41800464576738,337.8781702754946 L234.37695097249014,340.7437230919445 M234.37695097249014,340.7437230919445 L229.80669256989754,343.7053236721888 M229.80669256989754,343.7053236721888 L225.72617759355413,346.75551313903156 M225.72617759355413,346.75551313903156 L222.15346996720038,349.88639120153834 M222.15346996720038,349.88639120153834 L219.10563617264688,353.08962824036144 M219.10563617264688,353.08962824036144 L216.5986486803965,356.35646229602946 M216.5986486803965,356.35646229602946 L214.64722673816732,359.67769961005524 M214.64722673816732,359.67769961005524 L213.26480168444195,363.04373994288255 M213.26480168444195,363.04373994288255 L212.46328404768693,366.44457605383326 M212.46328404768693,366.44457605383326 L212.2530214781288,369.86981873534523 M212.2530214781288,369.86981873534523 L212.64263240279874,373.30871315782304 M212.64263240279874,373.30871315782304 L213.63891096435557,376.7501756398022 M213.63891096435557,376.7501756398022 L215.246653828814,380.1828033057407 M215.246653828814,380.1828033057407 L217.46858208178972,383.59494112704215 M217.46858208178972,383.59494112704215 L220.30520356678255,386.9746924580132 M220.30520356678255,386.9746924580132 L223.75469995626875,390.3099905286939 M223.75469995626875,390.3099905286939 L227.81284130834496,393.5886248498819 M227.81284130834496,393.5886248498819 L232.47290300766784,396.79831362631955 M232.47290300766784,396.79831362631955 L237.72555056065724,399.92676170689833 M237.72555056065724,399.92676170689833 L243.55881181694565,402.961721411232 M243.55881181694565,402.961721411232 L249.95804549303617,405.8910522305412 M249.95804549303617,405.8910522305412 L256.9058762733371,408.7028110105222 M256.9058762733371,408.7028110105222 L264.38220841513305,411.3853136292693 M264.38220841513305,411.3853136292693 L272.364280104553,413.92720182974927 M272.364280104553,413.92720182974927 L280.8266211906256,416.31754555165594 M280.8266211906256,416.31754555165594 L289.74123068305903,418.54588878872926 M289.74123068305903,418.54588878872926 L299.0775716282525,420.60234731671386 M299.0775716282525,420.60234731671386 L308.8027177396938,422.4776790941287 M308.8027177396938,422.4776790941287 L318.88152676113293,424.1633492961426 M318.88152676113293,424.1633492961426 L329.2767621162563,425.65159869738335 M329.2767621162563,425.65159869738335 L339.9493120853039,426.9355185066595 M339.9493120853039,426.9355185066595 L350.8583741008538,428.0090896978859 M350.8583741008538,428.0090896978859 L361.9617060626375,428.86724208536856 M361.9617060626375,428.86724208536856 L373.21586298828976,429.5059098599028 M373.21586298828976,429.5059098599028 L384.5764613757918,429.92204294051294 M384.5764613757918,429.92204294051294 L395.9984385519886,430.1136501223794 M395.9984385519886,430.1136501223794 L407.4363600929557,430.0798185644357 M407.4363600929557,430.0798185644357 L418.8446787477992,429.82070767708313 M418.8446787477992,429.82070767708313 L430.1780466713404,429.33755417847726 M430.1780466713404,429.33755417847726 L441.39157392271204,428.6326760148037 M441.39157392271204,428.6326760148037 L452.44114148752305,427.70942320250634 M585.3230382473016,354.43866793913327 L584.563266139106,380.52513294182495 M609.3763174953207,361.5413757696897 L585.3230382473016,354.43866793913327 M452.6701049635609,400.24701938599605 L441.57249401973945,401.1435764762104 M441.57249401973945,401.1435764762104 L430.31006304187025,401.8280790615834 M430.31006304187025,401.8280790615834 L418.92716088174654,402.29726920858894 M418.92716088174654,402.29726920858894 L407.4689129316442,402.54889265986753 M407.4689129316442,402.54889265986753 L395.98090591393293,402.5817466499066 M395.98090591393293,402.5817466499066 L384.50892739289793,402.39567614078226 M384.50892739289793,402.39567614078226 L373.0986513082679,401.9915689175404 M373.0986513082679,401.9915689175404 L361.7953770562603,401.3713614922881 M361.7953770562603,401.3713614922881 L350.6437198880171,400.53802011165675 M350.6437198880171,400.53802011165675 L339.6873496420704,399.49549875353966 M339.6873496420704,399.49549875353966 L328.96872449556827,398.24872796891844 M328.96872449556827,398.24872796891844 L318.5288526354309,396.803560788386 M318.5288526354309,396.803560788386 L308.40703929749344,395.16671516858884 M308.40703929749344,395.16671516858884 L298.6407012092495,393.3457355920217 M298.6407012092495,393.3457355920217 L289.2651461242047,391.34892017671746 M289.2651461242047,391.34892017671746 L280.31345041928955,389.1852540429162 M280.31345041928955,389.1852540429162 L271.81628486832454,386.86434592803346 M271.81628486832454,386.86434592803346 L263.8017673831945,384.39635959182 M263.8017673831945,384.39635959182 L256.2954682920633,381.79191869628346 M256.2954682920633,381.79191869628346 L249.3202322820766,379.0620620600323 M249.3202322820766,379.0620620600323 L242.89622118494793,376.21814409643264 M242.89622118494793,376.21814409643264 L237.04085978922808,373.2717697387525 M237.04085978922808,373.2717697387525 L231.7688226493108,370.23473439051975 M231.7688226493108,370.23473439051975 L227.09209981824856,367.1189362281391 M227.09209981824856,367.1189362281391 L223.0200290415247,363.9363181229805 M223.0200290415247,363.9363181229805 L219.55932427794448,360.6988084971937 M219.55932427794448,360.6988084971937 L216.71419203484783,357.4182649990722 M216.71419203484783,357.4182649990722 L214.48641544907233,354.1064041684085 M214.48641544907233,354.1064041684085 L212.87544072033396,350.77477578640395 M212.87544072033396,350.77477578640395 L211.87849117831055,347.4346934877949 M211.87849117831055,347.4346934877949 L211.49070610428788,344.09722456082994 M211.49070610428788,344.09722456082994 L211.70521978019224,340.77312492783796 M211.70521978019224,340.77312492783796 L212.51333592238652,337.4728298384599 M212.51333592238652,337.4728298384599 L213.90462365258819,334.20641826697226 M213.90462365258819,334.20641826697226 L215.8670849751117,330.9835971470428 M215.8670849751117,330.9835971470428 L218.38719743981875,327.81367718698624 M218.38719743981875,327.81367718698624 L221.4501483255646,324.70557349208286 M221.4501483255646,324.70557349208286 L225.0398697908632,321.6677811230315 M225.0398697908632,321.6677811230315 L229.13919897047802,318.7083747024374 M229.13919897047802,318.7083747024374 L233.72997512691353,315.83501147097394 M233.72997512691353,315.83501147097394 L238.79315347240524,313.05491969781104 M238.79315347240524,313.05491969781104 L244.3088986571955,310.3749091904205 M244.3088986571955,310.3749091904205 L250.25666910922098,307.80137344097585 M250.25666910922098,307.80137344097585 L256.61532695976086,305.34029104209884 M256.61532695976086,305.34029104209884 L263.36318134696904,302.99723439214307 M263.36318134696904,302.99723439214307 L270.4781020175598,300.77738169867257 M270.4781020175598,300.77738169867257 L277.9375624779781,298.6855236535024 M277.9375624779781,298.6855236535024 L285.71870005053785,296.7260706234913 M285.71870005053785,296.7260706234913 L293.7983655275312,294.90306339680075 M293.7983655275312,294.90306339680075 L302.153177610278,293.2201830427207 M302.153177610278,293.2201830427207 L310.7595700561498,291.68076742093166 M310.7595700561498,291.68076742093166 L319.59381583502176,290.2878088056424 M319.59381583502176,290.2878088056424 L328.6320507954585,289.0439733505845 M328.6320507954585,289.0439733505845 L337.8503139603551,287.95160330831 M337.8503139603551,287.95160330831 L347.2245741426621,287.01272765984726 M347.2245741426621,287.01272765984726 L356.7307207747871,286.22907044069973 M356.7307207747871,286.22907044069973 L366.3446139374628,285.6020555891548 M366.3446139374628,285.6020555891548 L376.0420768511322,285.1328158544818 M376.0420768511322,285.1328158544818 L385.7988892619775,284.8221849900511 M385.7988892619775,284.8221849900511 L395.5908406493679,284.6707253617209 M395.5908406493679,284.6707253617209 L405.3936965941028,284.6786995964429 M405.3936965941028,284.6786995964429 L415.18322646855194,284.846094922034 M415.18322646855194,284.846094922034 L424.93519391159055,285.17261216306116 M424.93519391159055,285.17261216306116 L434.625392948513,285.6576737280548 M434.625392948513,285.6576737280548 L444.2295943798014,286.3004071257829 M444.2295943798014,286.3004071257829 L453.7236419517437,287.0996551491531 M453.7236419517437,287.0996551491531 L463.083377484365,288.0539638429629 M463.083377484365,288.0539638429629 L472.28472434725376,289.16157768046196 M472.28472434725376,289.16157768046196 L481.3036361386144,290.42043555706897 M481.3036361386144,290.42043555706897 L490.11616214694527,291.82816610662206 M490.11616214694527,291.82816610662206 L498.698462512076,293.3820691355543 M498.698462512076,293.3820691355543 L507.0268265638396,295.07911534982577 M507.0268265638396,295.07911534982577 L515.0776829270924,296.9159398552626 M515.0776829270924,296.9159398552626 L522.8276849712726,298.8888228206188 M522.8276849712726,298.8888228206188 L530.2537208460662,300.99368347526047 M530.2537208460662,300.99368347526047 L537.3329400445971,303.2260793440009 M537.3329400445971,303.2260793440009 L544.0428705204102,305.5811752252245 M544.0428705204102,305.5811752252245 L550.3614031516714,308.05376203752525 M550.3614031516714,308.05376203752525 L556.2669103724115,310.63822328792884 M556.2669103724115,310.63822328792884 L561.7383107066353,313.3285349148358 M561.7383107066353,313.3285349148358 L566.7551340381551,316.1182669739367 M566.7551340381551,316.1182669739367 L571.2976076471791,319.000566514003 M571.2976076471791,319.000566514003 L575.3467825220192,321.9681625359483 M575.3467825220192,321.9681625359483 L578.8845850469971,325.0133568712054 M578.8845850469971,325.0133568712054 L581.8939463763072,328.1280311408523 M581.8939463763072,328.1280311408523 L584.3589456047712,331.30364751276716 M584.3589456047712,331.30364751276716 L586.2648646036788,334.53125563507155 M586.2648646036788,334.53125563507155 L587.5983515762637,337.8014987995778 M587.5983515762637,337.8014987995778 L588.3475531628792,341.104634753303 M588.3475531628792,341.104634753303 L588.5022021706478,344.43054530005907 M588.5022021706478,344.43054530005907 L588.0537644865501,347.768765177811 M588.0537644865501,347.768765177811 L586.9956048456135,351.1085001538895 M586.9956048456135,351.1085001538895 L585.3230382473016,354.43866793913327 M452.6701049635609,400.24701938599605 L476.87288995683656,408.2418643576714 M452.6701049635609,400.24701938599605 L452.44114148752305,427.70942320250634" stroke="black"  stroke-width="4"  fill="red"/>
<path d="M192.3538391212059,413.92728436749115 L189.89707878335878,410.25899501542256 M189.89707878335878,410.25899501542256 L188.0256200258209,406.5694841723805 M188.0256200258209,406.5694841723805 L186.73672902895373,402.86932902390856 M186.73672902895373,402.86932902390856 L186.02600161108398,399.1688563951269 M186.02600161108398,399.1688563951269 L185.88740214980544,395.47812659466103 M185.88740214980544,395.47812659466103 L186.31344602397454,391.80689642206187 M186.31344602397454,391.80689642206187 L187.29524556982165,388.1645974256175 M187.29524556982165,388.1645974256175 L188.8226218775819,384.5603311154878 M188.8226218775819,384.5603311154878 L190.88420986620937,381.00284333449025 M190.88420986620937,381.00284333449025 L193.46754318456473,377.50052579357396 M193.46754318456473,377.50052579357396 L196.5592075601157,374.0614069478108 M196.5592075601157,374.0614069478108 L200.1448626450753,370.69313530386404 M200.1448626450753,370.69313530386404 L204.2093848981099,367.4029883689296 M192.3538391212059,413.92728436749115 L193.2060673819797,439.797736148422 M204.96725400400013,391.982186214091 L200.92176437248978,395.3643856938809 M200.92176437248978,395.3643856938809 L197.35348637186448,398.82677953296115 M197.35348637186448,398.82677953296115 L194.2774566159676,402.36187907944986 M194.2774566159676,402.36187907944986 L191.70792864941998,405.9618152184411 M191.70792864941998,405.9618152184411 L189.658230805141,409.6183292930334 M189.658230805141,409.6183292930334 L188.14074468762388,413.32279037840925 M188.14074468762388,413.32279037840925 L187.16675270291995,417.0662047698719 M187.16675270291995,417.0662047698719 L186.74635379534317,420.8392145089945 M186.74635379534317,420.8392145089945 L186.8883591578354,424.6321238201744 M186.8883591578354,424.6321238201744 L187.6001812627622,428.4349041157662 M187.6001812627622,428.4349041157662 L188.8877885194715,432.23721641467074 M188.8877885194715,432.23721641467074 L190.7555240452273,436.0284494167882 M190.7555240452273,436.0284494167882 L193.2060673819797,439.797736148422 M204.2093848981099,367.4029883689296 L204.96725400400013,391.982186214091 M216.1947538719385,406.39857444620725 L214.62588037295382,403.11587390750765 M214.62588037295382,403.11587390750765 L213.58422094145178,399.82345509593307 M213.58422094145178,399.82345509593307 L213.0662829881865,396.53080655404705 M213.0662829881865,396.53080655404705 L213.06707876908084,393.2471723207606 M213.06707876908084,393.2471723207606 L213.58024740486437,389.9815536275753 M213.58024740486437,389.9815536275753 L214.59810106166947,386.74268076089277 M214.59810106166947,386.74268076089277 L216.11170687866215,383.53899634771244 M216.11170687866215,383.53899634771244 L218.11098081514115,380.3786415454878 M218.11098081514115,380.3786415454878 L220.5848178623652,377.26943712557323 M220.5848178623652,377.26943712557323 L223.5211296553841,374.2188982832617 M204.2093848981099,367.4029883689296 L223.5211296553841,374.2188982832617 M216.1947538719385,406.39857444620725 L192.3538391212059,413.92728436749115 M216.9421929874885,432.06159118387495 L193.2060673819797,439.797736148422 M216.1947538719385,406.39857444620725 L216.9421929874885,432.06159118387495 M204.96725400400013,391.982186214091 L224.21028365514132,398.988668894005 M224.21028365514132,398.988668894005 L221.28818447457334,402.1243449086078 M221.28818447457334,402.1243449086078 L218.82688328029295,405.32022462230515 M218.82688328029295,405.32022462230515 L216.8383942632801,408.5685780437773 M216.8383942632801,408.5685780437773 L215.33375005001497,411.8613620066152 M215.33375005001497,411.8613620066152 L214.322964451545,415.19020503616605 M214.322964451545,415.19020503616605 L213.81490304090772,418.54642687658264 M213.81490304090772,418.54642687658264 L213.81718997984797,421.9210527607798 M213.81718997984797,421.9210527607798 L214.3361267496207,425.30483065563834 M214.3361267496207,425.30483065563834 L215.3766465212533,428.6882602353872 M215.3766465212533,428.6882602353872 L216.9421929874885,432.06159118387495 M223.5211296553841,374.2188982832617 L224.21028365514132,398.988668894005" stroke="black"  stroke-width="4"  fill="red"/>
<path d="M476.20083960769995,463.39997238407904 L464.9184934018735,464.7183655067825 M464.9184934018735,464.7183655067825 L453.41774208896845,465.8254514745923 M453.41774208896845,465.8254514745923 L441.7366181593502,466.7166817286005 M441.7366181593502,466.7166817286005 L429.9141398192799,467.38836560171774 M429.9141398192799,467.38836560171774 L417.99013990506273,467.83772199548326 M417.99013990506273,467.83772199548326 L406.0050051532517,468.06287087835113 M406.0050051532517,468.06287087835113 L393.9994470901387,468.06287087835113 M393.9994470901387,468.06287087835113 L382.0143123383277,467.83772199548326 M382.0143123383277,467.83772199548326 L370.09031242411055,467.38836560171774 M370.09031242411055,467.38836560171774 L358.2678340840402,466.7166817286005 M358.2678340840402,466.7166817286005 L346.586710154422,465.8254514745923 M346.586710154422,465.8254514745923 L335.0859588415169,464.7183655067825 M335.0859588415169,464.7183655067825 L323.80361263569046,463.39997238407904 M476.20083960769995,463.39997238407904 L475.86920186067414,490.61893105225204 M324.1352503827162,490.61893105225204 L335.3689217274775,491.9729140404835 M335.3689217274775,491.9729140404835 L346.8198389959164,493.1098717764038 M346.8198389959164,493.1098717764038 L358.4501678253394,494.02514029699853 M358.4501678253394,494.02514029699853 L370.2210955625534,494.7149354021579 M370.2210955625534,494.7149354021579 L382.093000981733,495.1764056021019 M382.093000981733,495.1764056021019 L394.02571319421065,495.407623291581 M394.02571319421065,495.407623291581 L405.9787390491798,495.407623291581 M405.9787390491798,495.407623291581 L417.9114512616574,495.1764056021019 M417.9114512616574,495.1764056021019 L429.7833566808371,494.7149354021579 M429.7833566808371,494.7149354021579 L441.55428441805105,494.02514029699853 M441.55428441805105,494.02514029699853 L453.18461324747403,493.1098717764038 M453.18461324747403,493.1098717764038 L464.6355305159129,491.9729140404835 M464.6355305159129,491.9729140404835 L475.86920186067414,490.61893105225204 M323.80361263569046,463.39997238407904 L324.1352503827162,490.61893105225204 M452.21416014391735,454.93408551450875 L441.98817914747053,455.82434292405463 M441.98817914747053,455.82434292405463 L431.6184644875842,456.52059371969904 M431.6184644875842,456.52059371969904 L421.1402925262539,457.0199781067218 M421.1402925262539,457.0199781067218 L410.58947105980405,457.3204419570546 M410.58947105980405,457.3204419570546 L400.0022261216952,457.4207360021444 M400.0022261216952,457.4207360021444 L389.41498118358635,457.3204419570546 M389.41498118358635,457.3204419570546 L378.86415971713654,457.0199781067218 M378.86415971713654,457.0199781067218 L368.3859877558062,456.52059371969904 M368.3859877558062,456.52059371969904 L358.01627309591987,455.82434292405463 M358.01627309591987,455.82434292405463 L347.7902920994731,454.93408551450875 M323.80361263569046,463.39997238407904 L347.7902920994731,454.93408551450875 M452.21416014391735,454.93408551450875 L476.20083960769995,463.39997238407904 M451.9891353047505,481.92408020222734 L475.86920186067414,490.61893105225204 M452.21416014391735,454.93408551450875 L451.9891353047505,481.92408020222734 M324.1352503827162,490.61893105225204 L348.01531693863996,481.92408020222734 M348.01531693863996,481.92408020222734 L358.19741305064844,482.838449931129 M358.19741305064844,482.838449931129 L368.52250002965974,483.5535527299645 M368.52250002965974,483.5535527299645 L378.9554823719828,484.0664555877271 M378.9554823719828,484.0664555877271 L389.4607371403149,484.3750518330171 M389.4607371403149,484.3750518330171 L400.00222612169523,484.47806024233694 M400.00222612169523,484.47806024233694 L410.5437151030755,484.3750518330171 M410.5437151030755,484.3750518330171 L421.0489698714077,484.0664555877271 M421.0489698714077,484.0664555877271 L431.48195221373066,483.5535527299645 M431.48195221373066,483.5535527299645 L441.807039192742,482.838449931129 M441.807039192742,482.838449931129 L451.9891353047505,481.92408020222734 M347.7902920994731,454.93408551450875 L348.01531693863996,481.92408020222734" stroke="black"  stroke-width="4"  fill="red"/>
<path d="M595.7950673452805,367.4029883689296 L599.8595895983151,370.69313530386404 M599.8595895983151,370.69313530386404 L603.4452446832746,374.0614069478108 M603.4452446832746,374.0614069478108 L606.5369090588256,377.50052579357396 M606.5369090588256,377.50052579357396 L609.1202423771811,381.00284333449025 M609.1202423771811,381.00284333449025 L611.1818303658084,384.5603311154878 M611.1818303658084,384.5603311154878 L612.7092066735687,388.1645974256175 M612.7092066735687,388.1645974256175 L613.6910062194158,391.80689642206187 M613.6910062194158,391.80689642206187 L614.1170500935849,395.47812659466103 M614.1170500935849,395.47812659466103 L613.9784506323064,399.1688563951269 M613.9784506323064,399.1688563951269 L613.2677232144366,402.86932902390856 M613.2677232144366,402.86932902390856 L611.9788322175694,406.5694841723805 M611.9788322175694,406.5694841723805 L610.1073734600315,410.25899501542256 M610.1073734600315,410.25899501542256 L607.6506131221845,413.92728436749115 M595.7950673452805,367.4029883689296 L595.0371982393902,391.982186214091 M606.7983848614107,439.797736148422 L609.2489281981631,436.0284494167882 M609.2489281981631,436.0284494167882 L611.1166637239189,432.23721641467074 M611.1166637239189,432.23721641467074 L612.4042709806281,428.4349041157662 M612.4042709806281,428.4349041157662 L613.1160930855549,424.6321238201744 M613.1160930855549,424.6321238201744 L613.2580984480472,420.83921450899453 M613.2580984480472,420.83921450899453 L612.8376995404705,417.0662047698719 M612.8376995404705,417.0662047698719 L611.8637075557665,413.32279037840925 M611.8637075557665,413.32279037840925 L610.3462214382494,409.6183292930334 M610.3462214382494,409.6183292930334 L608.2965235939704,405.96181521844113 M608.2965235939704,405.96181521844113 L605.7269956274229,402.36187907944986 M605.7269956274229,402.36187907944986 L602.6509658715258,398.82677953296115 M602.6509658715258,398.82677953296115 L599.0826878709006,395.3643856938809 M599.0826878709006,395.3643856938809 L595.0371982393902,391.982186214091 M607.6506131221845,413.92728436749115 L606.7983848614107,439.797736148422 M576.4833225880063,374.2188982832617 L579.4196343810252,377.26943712557323 M579.4196343810252,377.26943712557323 L581.8934714282492,380.3786415454878 M581.8934714282492,380.3786415454878 L583.8927453647282,383.53899634771244 M583.8927453647282,383.53899634771244 L585.406351181721,386.74268076089277 M585.406351181721,386.74268076089277 L586.424204838526,389.9815536275753 M586.424204838526,389.9815536275753 L586.9373734743095,393.2471723207606 M586.9373734743095,393.2471723207606 L586.9381692552039,396.53080655404705 M586.9381692552039,396.53080655404705 L586.4202313019385,399.82345509593307 M586.4202313019385,399.82345509593307 L585.3785718704365,403.1158739075077 M585.3785718704365,403.1158739075077 L583.809698371452,406.39857444620725 M607.6506131221845,413.92728436749115 L583.809698371452,406.39857444620725 M576.4833225880063,374.2188982832617 L595.7950673452805,367.4029883689296 M575.7941685882491,398.988668894005 L595.0371982393902,391.982186214091 M576.4833225880063,374.2188982832617 L575.7941685882491,398.988668894005 M606.7983848614107,439.797736148422 L583.062259255902,432.06159118387495 M583.062259255902,432.06159118387495 L584.6278057221372,428.6882602353872 M584.6278057221372,428.6882602353872 L585.6683254937697,425.30483065563845 M585.6683254937697,425.30483065563845 L586.1872622635424,421.9210527607798 M586.1872622635424,421.9210527607798 L586.1895492024828,418.54642687658264 M586.1895492024828,418.54642687658264 L585.6814877918454,415.19020503616605 M585.6814877918454,415.19020503616605 L584.6707021933754,411.8613620066152 M584.6707021933754,411.8613620066152 L583.1660579801103,408.5685780437773 M583.1660579801103,408.5685780437773 L581.1775689630974,405.32022462230526 M581.1775689630974,405.32022462230526 L578.716267768817,402.1243449086078 M578.716267768817,402.1243449086078 L575.7941685882491,398.988668894005 M583.809698371452,406.39857444620725 L583.062259255902,432.06159118387495" stroke="black"  stroke-width="4"  fill="red"/>
<path d="M335.73500659934473,328.05919809712066 L345.40424963907435,327.1239854350654 M345.40424963907435,327.1239854350654 L355.18251166345107,326.3427066868057 M355.18251166345107,326.3427066868057 L365.04996471707557,325.716420595708 M365.04996471707557,325.716420595708 L374.9867913063498,325.24597439383285 M374.9867913063498,325.24597439383285 L384.9731546732701,324.93199139408057 M384.9731546732701,324.93199139408057 L394.9892322794065,324.77489509188075 M394.9892322794065,324.77489509188075 L405.01521996398395,324.77489509188075 M405.01521996398395,324.77489509188075 L415.0312975701203,324.93199139408057 M415.0312975701203,324.93199139408057 L425.0176609370406,325.24597439383285 M425.0176609370406,325.24597439383285 L434.9544875263149,325.716420595708 M434.9544875263149,325.716420595708 L444.8219405799393,326.3427066868057 M444.8219405799393,326.3427066868057 L454.6002026043161,327.1239854350654 M454.6002026043161,327.1239854350654 L464.26944564404573,328.05919809712066 M335.73500659934473,328.05919809712066 L335.9710788329699,351.5289371618035 M464.03337341042055,351.5289371618035 L454.39990466096657,350.5671571982322 M454.39990466096657,350.5671571982322 L444.6576909309056,349.76367711753744 M444.6576909309056,349.76367711753744 L434.826508774748,349.1195894994354 M434.826508774748,349.1195894994354 L424.9261252561144,348.63576868266 M424.9261252561144,348.63576868266 L414.9763273622936,348.31285798374853 M414.9763273622936,348.31285798374853 L404.99688843276783,348.1512944685454 M404.99688843276783,348.1512944685454 L395.0075638106226,348.1512944685454 M395.0075638106226,348.1512944685454 L385.0281248810968,348.31285798374853 M385.0281248810968,348.31285798374853 L375.078326987276,348.63576868266 M375.078326987276,348.63576868266 L365.1779434686424,349.1195894994354 M365.1779434686424,349.1195894994354 L355.34676131248483,349.76367711753744 M355.34676131248483,349.76367711753744 L345.6045475824239,350.5671571982322 M345.6045475824239,350.5671571982322 L335.9710788329699,351.5289371618035 M464.26944564404573,328.05919809712066 L464.03337341042055,351.5289371618035 M355.15606035902726,334.1921624422836 L364.00901368630247,333.53663975287776 M364.00901368630247,333.53663975287776 L372.9394839663893,333.02573034350235 M372.9394839663893,333.02573034350235 L381.928084674321,332.6602289966761 M381.928084674321,332.6602289966761 L390.9554606769912,332.4406984206556 M390.9554606769912,332.4406984206556 L400.00222612169523,332.3674831316598 M400.00222612169523,332.3674831316598 L409.04899156639925,332.4406984206556 M409.04899156639925,332.4406984206556 L418.0763675690695,332.6602289966761 M418.0763675690695,332.6602289966761 L427.06496827700107,333.02573034350235 M427.06496827700107,333.02573034350235 L435.99543855708794,333.53663975287776 M435.99543855708794,333.53663975287776 L444.84839188436314,334.1921624422836 M464.26944564404573,328.05919809712066 L444.84839188436314,334.1921624422836 M355.15606035902726,334.1921624422836 L335.73500659934473,328.05919809712066 M355.3221741421932,357.8359006916972 L335.9710788329699,351.5289371618035 M355.15606035902726,334.1921624422836 L355.3221741421932,357.8359006916972 M464.03337341042055,351.5289371618035 L444.68227810119726,357.8359006916972 M444.68227810119726,357.8359006916972 L435.8622352648015,357.16179868195684 M435.8622352648015,357.16179868195684 L426.9648841829437,356.6364056034421 M426.9648841829437,356.6364056034421 L418.0095585008608,356.26054107189645 M418.0095585008608,356.26054107189645 L409.01556116691455,356.03478540487447 M409.01556116691455,356.03478540487447 L400.00222612169523,355.95949388474105 M400.00222612169523,355.95949388474105 L390.98889107647585,356.03478540487447 M390.98889107647585,356.03478540487447 L381.9948937425296,356.26054107189645 M381.9948937425296,356.26054107189645 L373.03956806044664,356.6364056034421 M373.03956806044664,356.6364056034421 L364.142216978589,357.16179868195684 M364.142216978589,357.16179868195684 L355.3221741421932,357.8359006916972 M444.84839188436314,334.1921624422836 L444.68227810119726,357.8359006916972" stroke="black"  stroke-width="4"  fill="red"/>
<path d="M193.2060673819797,439.797736148422 L190.7555240452273,436.0284494167882 M190.7555240452273,436.0284494167882 L188.8877885194715,432.23721641467074 M188.8877885194715,432.23721641467074 L187.6001812627622,428.4349041157662 M187.6001812627622,428.4349041157662 L186.8883591578354,424.6321238201744 M186.8883591578354,424.6321238201744 L186.74635379534317,420.8392145089945 M186.74635379534317,420.8392145089945 L187.16675270291995,417.0662047698719 M187.16675270291995,417.0662047698719 L188.14074468762388,413.32279037840925 M188.14074468762388,413.32279037840925 L189.658230805141,409.6183292930334 M189.658230805141,409.6183292930334 L191.70792864941998,405.9618152184411 M191.70792864941998,405.9618152184411 L194.2774566159676,402.36187907944986 M194.2774566159676,402.36187907944986 L197.35348637186448,398.82677953296115 M197.35348637186448,398.82677953296115 L200.92176437248978,395.3643856938809 M200.92176437248978,395.3643856938809 L204.96725400400013,391.982186214091 M193.2060673819797,439.797736148422 L194.05132882390214,465.4567014538903 M205.71927865803676,416.3718368969634 L201.69264941782401,419.8445706442432 M201.69264941782401,419.8445706442432 L198.14158728330892,423.3995270592958 M198.14158728330892,423.3995270592958 L195.08104280491654,427.02900937324637 M195.08104280491654,427.02900937324637 L192.52518361414602,430.72493110504445 M192.52518361414602,430.72493110504445 L190.4872530140456,434.47880686183896 M190.4872530140456,434.47880686183896 L188.97954878826397,438.28177019183613 M188.97954878826397,438.28177019183613 L188.0132716014418,442.1245834367734 M188.0132716014418,442.1245834367734 L187.5984413670909,445.9976363247857 M187.5984413670909,445.9976363247857 L187.7437937345009,449.89097320616514 M187.7437937345009,449.89097320616514 L188.456669937814,453.794298277945 M188.456669937814,453.794298277945 L189.74297205924915,457.6969986714807 M189.74297205924915,457.6969986714807 L191.60698299956718,461.58818359335936 M191.60698299956718,461.58818359335936 L194.05132882390214,465.4567014538903 M204.96725400400013,391.982186214091 L205.71927865803676,416.3718368969634 M216.9421929874885,432.06159118387495 L215.3766465212533,428.6882602353872 M215.3766465212533,428.6882602353872 L214.3361267496207,425.30483065563834 M214.3361267496207,425.30483065563834 L213.81718997984797,421.9210527607798 M213.81718997984797,421.9210527607798 L213.81490304090772,418.54642687658264 M213.81490304090772,418.54642687658264 L214.322964451545,415.19020503616605 M214.322964451545,415.19020503616605 L215.33375005001497,411.8613620066152 M215.33375005001497,411.8613620066152 L216.8383942632801,408.5685780437773 M216.8383942632801,408.5685780437773 L218.82688328029295,405.32022462230515 M218.82688328029295,405.32022462230515 L221.28818447457334,402.1243449086078 M221.28818447457334,402.1243449086078 L224.21028365514132,398.988668894005 M204.96725400400013,391.982186214091 L224.21028365514132,398.988668894005 M216.9421929874885,432.06159118387495 L193.2060673819797,439.797736148422 M217.68357791323322,457.5167397874373 L194.05132882390214,465.4567014538903 M216.9421929874885,432.06159118387495 L217.68357791323322,457.5167397874373 M205.71927865803676,416.3718368969634 L224.89407633453993,423.56574139155435 M224.89407633453993,423.56574139155435 L221.9860578326966,426.7851372455305 M221.9860578326966,426.7851372455305 L219.5371724236677,430.0662431658896 M219.5371724236677,430.0662431658896 L217.55936089667873,433.4011176375046 M217.55936089667873,433.4011176375046 L216.06358427430132,436.78149855611184 M216.06358427430132,436.78149855611184 L215.05978691849003,440.1987877827839 M215.05978691849003,440.1987877827839 L214.55676788938692,443.64407127616914 M214.55676788938692,443.64407127616914 L214.56208843857553,447.1081338189268 M214.56208843857553,447.1081338189268 L215.08199139079463,450.5814767886714 M215.08199139079463,450.5814767886714 L216.12135605798562,454.05434795592765 M216.12135605798562,454.05434795592765 L217.68357791323322,457.5167397874373 M224.21028365514132,398.988668894005 L224.89407633453993,423.56574139155435" stroke="black"  stroke-width="4"  fill="red"/>
<path d="M475.86920186067414,490.61893105225204 L464.6355305159129,491.9729140404835 M464.6355305159129,491.9729140404835 L453.18461324747403,493.1098717764038 M453.18461324747403,493.1098717764038 L441.55428441805105,494.02514029699853 M441.55428441805105,494.02514029699853 L429.7833566808371,494.7149354021579 M429.7833566808371,494.7149354021579 L417.9114512616574,495.1764056021019 M417.9114512616574,495.1764056021019 L405.9787390491798,495.407623291581 M405.9787390491798,495.407623291581 L394.02571319421065,495.407623291581 M394.02571319421065,495.407623291581 L382.093000981733,495.1764056021019 M382.093000981733,495.1764056021019 L370.2210955625534,494.7149354021579 M370.2210955625534,494.7149354021579 L358.4501678253394,494.02514029699853 M358.4501678253394,494.02514029699853 L346.8198389959164,493.1098717764038 M346.8198389959164,493.1098717764038 L335.3689217274775,491.9729140404835 M335.3689217274775,491.9729140404835 L324.1352503827162,490.61893105225204 M475.86920186067414,490.61893105225204 L475.5404383651629,517.6019873423808 M324.46401387822755,517.6019873423808 L335.64942851097715,518.990894575176 M335.64942851097715,518.990894575176 L347.05094172633454,520.1571645489561 M347.05094172633454,520.1571645489561 L358.6309152980263,521.0960205084347 M358.6309152980263,521.0960205084347 L370.35074003961734,521.8035868438778 M370.35074003961734,521.8035868438778 L382.1710041722286,522.2769432779389 M382.1710041722286,522.2769432779389 L394.0517504367605,522.5141157161893 M394.0517504367605,522.5141157161893 L405.9527018066299,522.5141157161893 M405.9527018066299,522.5141157161893 L417.83344807116185,522.2769432779389 M417.83344807116185,522.2769432779389 L429.65371220377307,521.8035868438778 M429.65371220377307,521.8035868438778 L441.3735369453641,521.0960205084347 M441.3735369453641,521.0960205084347 L452.95351051705586,520.1571645489561 M452.95351051705586,520.1571645489561 L464.3550237324132,518.990894575176 M464.3550237324132,518.990894575176 L475.5404383651629,517.6019873423808 M324.1352503827162,490.61893105225204 L324.46401387822755,517.6019873423808 M451.9891353047505,481.92408020222734 L441.807039192742,482.838449931129 M441.807039192742,482.838449931129 L431.48195221373066,483.5535527299645 M431.48195221373066,483.5535527299645 L421.0489698714077,484.0664555877271 M421.0489698714077,484.0664555877271 L410.5437151030755,484.3750518330171 M410.5437151030755,484.3750518330171 L400.00222612169523,484.47806024233694 M400.00222612169523,484.47806024233694 L389.4607371403149,484.3750518330171 M389.4607371403149,484.3750518330171 L378.9554823719828,484.0664555877271 M378.9554823719828,484.0664555877271 L368.52250002965974,483.5535527299645 M368.52250002965974,483.5535527299645 L358.19741305064844,482.838449931129 M358.19741305064844,482.838449931129 L348.01531693863996,481.92408020222734 M324.1352503827162,490.61893105225204 L348.01531693863996,481.92408020222734 M451.9891353047505,481.92408020222734 L475.86920186067414,490.61893105225204 M451.766041781943,508.68242838162064 L475.5404383651629,517.6019873423808 M451.9891353047505,481.92408020222734 L451.766041781943,508.68242838162064 M324.46401387822755,517.6019873423808 L348.2384104614474,508.68242838162064 M348.2384104614474,508.68242838162064 L358.376996735742,509.62046438572145 M358.376996735742,509.62046438572145 L368.6578385090838,510.35407010105666 M368.6578385090838,510.35407010105666 L379.046019339849,510.8802409153319 M379.046019339849,510.8802409153319 L389.5060993027427,511.19681877573123 M389.5060993027427,511.19681877573123 L400.00222612169523,511.30249121044596 M400.00222612169523,511.30249121044596 L410.49835294064775,511.19681877573123 M410.49835294064775,511.19681877573123 L420.95843290354145,510.8802409153319 M420.95843290354145,510.8802409153319 L431.34661373430663,510.35407010105666 M431.34661373430663,510.35407010105666 L441.6274555076484,509.62046438572145 M441.6274555076484,509.62046438572145 L451.766041781943,508.68242838162064 M348.01531693863996,481.92408020222734 L348.2384104614474,508.68242838162064" stroke="black"  stroke-width="4"  fill="red"/>
<path d="M595.0371982393902,391.982186214091 L599.0826878709006,395.3643856938809 M599.0826878709006,395.3643856938809 L602.6509658715258,398.82677953296115 M602.6509658715258,398.82677953296115 L605.7269956274229,402.36187907944986 M605.7269956274229,402.36187907944986 L608.2965235939704,405.96181521844113 M608.2965235939704,405.96181521844113 L610.3462214382494,409.6183292930334 M610.3462214382494,409.6183292930334 L611.8637075557665,413.32279037840925 M611.8637075557665,413.32279037840925 L612.8376995404705,417.0662047698719 M612.8376995404705,417.0662047698719 L613.2580984480472,420.83921450899453 M613.2580984480472,420.83921450899453 L613.1160930855549,424.6321238201744 M613.1160930855549,424.6321238201744 L612.4042709806281,428.4349041157662 M612.4042709806281,428.4349041157662 L611.1166637239189,432.23721641467074 M611.1166637239189,432.23721641467074 L609.2489281981631,436.0284494167882 M609.2489281981631,436.0284494167882 L606.7983848614107,439.797736148422 M595.0371982393902,391.982186214091 L594.2851735853536,416.3718368969634 M605.9531234194882,465.4567014538903 L608.3974692438231,461.58818359335936 M608.3974692438231,461.58818359335936 L610.2614801841413,457.6969986714807 M610.2614801841413,457.6969986714807 L611.5477823055764,453.794298277945 M611.5477823055764,453.794298277945 L612.2606585088895,449.89097320616514 M612.2606585088895,449.89097320616514 L612.4060108762994,445.9976363247857 M612.4060108762994,445.9976363247857 L611.9911806419486,442.1245834367734 M611.9911806419486,442.1245834367734 L611.0249034551264,438.28177019183613 M611.0249034551264,438.28177019183613 L609.5171992293448,434.47880686183896 M609.5171992293448,434.47880686183896 L607.4792686292443,430.72493110504445 M607.4792686292443,430.72493110504445 L604.9234094384739,427.02900937324637 M604.9234094384739,427.02900937324637 L601.8628649600814,423.3995270592959 M601.8628649600814,423.3995270592959 L598.3118028255665,419.8445706442432 M598.3118028255665,419.8445706442432 L594.2851735853536,416.3718368969634 M606.7983848614107,439.797736148422 L605.9531234194882,465.4567014538903 M575.7941685882491,398.988668894005 L578.716267768817,402.1243449086078 M578.716267768817,402.1243449086078 L581.1775689630974,405.32022462230526 M581.1775689630974,405.32022462230526 L583.1660579801103,408.5685780437773 M583.1660579801103,408.5685780437773 L584.6707021933754,411.8613620066152 M584.6707021933754,411.8613620066152 L585.6814877918454,415.19020503616605 M585.6814877918454,415.19020503616605 L586.1895492024828,418.54642687658264 M586.1895492024828,418.54642687658264 L586.1872622635424,421.9210527607798 M586.1872622635424,421.9210527607798 L585.6683254937697,425.30483065563845 M585.6683254937697,425.30483065563845 L584.6278057221372,428.6882602353872 M584.6278057221372,428.6882602353872 L583.062259255902,432.06159118387495 M606.7983848614107,439.797736148422 L583.062259255902,432.06159118387495 M575.7941685882491,398.988668894005 L595.0371982393902,391.982186214091 M575.1103759088505,423.56574139155435 L594.2851735853536,416.3718368969634 M575.7941685882491,398.988668894005 L575.1103759088505,423.56574139155435 M605.9531234194882,465.4567014538903 L582.3208743301573,457.5167397874373 M582.3208743301573,457.5167397874373 L583.8830961854047,454.05434795592765 M583.8830961854047,454.05434795592765 L584.9224608525958,450.5814767886714 M584.9224608525958,450.5814767886714 L585.4423638048149,447.1081338189268 M585.4423638048149,447.1081338189268 L585.4476843540035,443.64407127616914 M585.4476843540035,443.64407127616914 L584.9446653249004,440.1987877827839 M584.9446653249004,440.1987877827839 L583.9408679690891,436.78149855611184 M583.9408679690891,436.78149855611184 L582.4450913467117,433.40111763750474 M582.4450913467117,433.40111763750474 L580.4672798197228,430.0662431658896 M580.4672798197228,430.0662431658896 L578.0183944106939,426.7851372455305 M578.0183944106939,426.7851372455305 L575.1103759088505,423.56574139155435 M583.062259255902,432.06159118387495 L582.3208743301573,457.5167397874373" stroke="black"  stroke-width="4"  fill="red"/>
<path d="M335.9710788329699,351.5289371618035 L345.6045475824239,350.5671571982322 M345.6045475824239,350.5671571982322 L355.34676131248483,349.76367711753744 M355.34676131248483,349.76367711753744 L365.1779434686424,349.1195894994354 M365.1779434686424,349.1195894994354 L375.078326987276,348.63576868266 M375.078326987276,348.63576868266 L385.0281248810968,348.31285798374853 M385.0281248810968,348.31285798374853 L395.0075638106226,348.1512944685454 M395.0075638106226,348.1512944685454 L404.99688843276783,348.1512944685454 M404.99688843276783,348.1512944685454 L414.9763273622936,348.31285798374853 M414.9763273622936,348.31285798374853 L424.9261252561144,348.63576868266 M424.9261252561144,348.63576868266 L434.826508774748,349.1195894994354 M434.826508774748,349.1195894994354 L444.6576909309056,349.76367711753744 M444.6576909309056,349.76367711753744 L454.39990466096657,350.5671571982322 M454.39990466096657,350.5671571982322 L464.03337341042055,351.5289371618035 M335.9710788329699,351.5289371618035 L336.2054230896819,374.82688487839334 M463.79902915370855,374.82688487839334 L454.2010709705166,373.8389506054585 M454.2010709705166,373.8389506054585 L444.4946407291746,373.01361388106704 M444.4946407291746,373.01361388106704 L434.6994638001895,372.35200082991526 M434.6994638001895,372.35200082991526 L424.8352570217751,371.85501266576466 M424.8352570217751,371.85501266576466 L414.92175780620437,371.5233125412979 M414.92175780620437,371.5233125412979 L404.9786904826707,371.3573509780398 M404.9786904826707,371.3573509780398 L395.0257617607198,371.3573509780398 M395.0257617607198,371.3573509780398 L385.0826944371861,371.5233125412979 M385.0826944371861,371.5233125412979 L375.1691952216153,371.85501266576466 M375.1691952216153,371.85501266576466 L365.30498844320095,372.35200082991526 M365.30498844320095,372.35200082991526 L355.50981151421587,373.01361388106704 M355.50981151421587,373.01361388106704 L345.80338127287376,373.8389506054585 M345.80338127287376,373.8389506054585 L336.2054230896819,374.82688487839334 M464.03337341042055,351.5289371618035 L463.79902915370855,374.82688487839334 M355.3221741421932,357.8359006916972 L364.142216978589,357.16179868195684 M364.142216978589,357.16179868195684 L373.03956806044664,356.6364056034421 M373.03956806044664,356.6364056034421 L381.9948937425296,356.26054107189645 M381.9948937425296,356.26054107189645 L390.98889107647585,356.03478540487447 M390.98889107647585,356.03478540487447 L400.00222612169523,355.95949388474105 M400.00222612169523,355.95949388474105 L409.01556116691455,356.03478540487447 M409.01556116691455,356.03478540487447 L418.0095585008608,356.26054107189645 M418.0095585008608,356.26054107189645 L426.9648841829437,356.6364056034421 M426.9648841829437,356.6364056034421 L435.8622352648015,357.16179868195684 M435.8622352648015,357.16179868195684 L444.68227810119726,357.8359006916972 M464.03337341042055,351.5289371618035 L444.68227810119726,357.8359006916972 M355.3221741421932,357.8359006916972 L335.9710788329699,351.5289371618035 M355.4870618693035,381.30512874751815 L336.2054230896819,374.82688487839334 M355.3221741421932,357.8359006916972 L355.4870618693035,381.30512874751815 M463.79902915370855,374.82688487839334 L444.517390374087,381.30512874751815 M444.517390374087,381.30512874751815 L435.7300142519202,380.6127388912013 M435.7300142519202,380.6127388912013 L426.865537628183,380.07308917181194 M426.865537628183,380.07308917181194 L417.9432415183994,379.6870237926047 M417.9432415183994,379.6870237926047 L408.9823769276733,379.4551405077786 M408.9823769276733,379.4551405077786 L400.00222612169523,379.3778052594474 M400.00222612169523,379.3778052594474 L391.02207531571713,379.4551405077786 M391.02207531571713,379.4551405077786 L382.06121072499104,379.6870237926047 M382.06121072499104,379.6870237926047 L373.1389146152074,380.07308917181194 M373.1389146152074,380.07308917181194 L364.2744379914703,380.6127388912013 M364.2744379914703,380.6127388912013 L355.4870618693035,381.30512874751815 M444.68227810119726,357.8359006916972 L444.517390374087,381.30512874751815" stroke="black"  stroke-width="4"  fill="red"/></svg>